<svg width="1227" height="1192" viewBox="0 0 1227 1192" fill="none" xmlns="http://www.w3.org/2000/svg">
<path d="M1058.28 72.8383H119.422C103.08 72.8383 89.8331 86.0857 89.8331 102.427V765.183C89.8331 781.525 103.08 794.773 119.422 794.773H1058.28C1074.62 794.773 1087.87 781.525 1087.87 765.183V102.427C1087.87 86.0857 1074.62 72.8383 1058.28 72.8383Z" fill="#EB5B14" stroke="#2E353A" stroke-width="1.50103" stroke-miterlimit="10"/>
<path d="M1069.17 142.182H108.5V750.51H1069.17V142.182Z" fill="white" stroke="#2E353A" stroke-width="1.50103" stroke-miterlimit="10"/>
<path d="M158.753 621.777H444.568" stroke="#2E353A" stroke-linecap="round" stroke-linejoin="round"/>
<path d="M206.071 650.156H444.568" stroke="#2E353A" stroke-linecap="round" stroke-linejoin="round"/>
<path d="M158.753 650.156H181.444" stroke="#2E353A" stroke-linecap="round" stroke-linejoin="round"/>
<path d="M158.753 678.534H444.568" stroke="#2E353A" stroke-linecap="round" stroke-linejoin="round"/>
<path d="M423.722 706.943H444.568" stroke="#2E353A" stroke-linecap="round" stroke-linejoin="round"/>
<path d="M158.753 706.943H399.125" stroke="#2E353A" stroke-linecap="round" stroke-linejoin="round"/>
<path d="M823.082 191.92H166.71C157.202 191.92 149.495 199.628 149.495 209.135V396.865C149.495 406.372 157.202 414.079 166.71 414.079H823.082C832.59 414.079 840.297 406.372 840.297 396.865V209.135C840.297 199.628 832.59 191.92 823.082 191.92Z" fill="#2E353A"/>
<path d="M823.113 193.433C825.173 193.433 827.214 193.839 829.117 194.629C831.02 195.418 832.749 196.575 834.205 198.034C835.661 199.492 836.815 201.223 837.6 203.128C838.386 205.033 838.789 207.074 838.785 209.135V396.865C838.789 398.925 838.386 400.966 837.6 402.871C836.815 404.776 835.661 406.507 834.205 407.966C832.749 409.424 831.02 410.581 829.117 411.371C827.214 412.16 825.173 412.567 823.113 412.567H166.589C162.424 412.567 158.431 410.912 155.486 407.968C152.541 405.023 150.887 401.029 150.887 396.865V209.135C150.887 204.971 152.541 200.977 155.486 198.032C158.431 195.087 162.424 193.433 166.589 193.433H823.113ZM823.113 190.407H166.589C161.624 190.415 156.866 192.391 153.355 195.901C149.845 199.412 147.869 204.171 147.861 209.135V396.865C147.869 401.829 149.845 406.588 153.355 410.098C156.866 413.608 161.624 415.584 166.589 415.592H823.113C828.074 415.584 832.83 413.607 836.336 410.096C839.841 406.585 841.81 401.826 841.81 396.865V209.135C841.81 204.173 839.841 199.415 836.336 195.903C832.83 192.392 828.074 190.415 823.113 190.407Z" fill="#2E353A"/>
<path d="M700.733 193.433C697.321 196.996 693.224 199.831 688.687 201.768C684.151 203.705 679.269 204.704 674.336 204.704C669.403 204.704 664.521 203.705 659.985 201.768C655.448 199.831 651.351 196.996 647.939 193.433H632.146L632.57 194.159L626.851 199.968C625.791 201.039 625.196 202.485 625.196 203.992C625.196 205.499 625.791 206.945 626.851 208.016L634.385 215.549C634.911 216.081 635.538 216.504 636.228 216.793C636.919 217.081 637.66 217.23 638.409 217.23C639.157 217.23 639.898 217.081 640.589 216.793C641.28 216.504 641.906 216.081 642.433 215.549L648.241 209.74C652.89 212.682 658.005 214.81 663.369 216.033V224.262C663.369 225.771 663.968 227.218 665.035 228.284C666.101 229.351 667.548 229.95 669.057 229.95H679.706C681.215 229.95 682.661 229.351 683.728 228.284C684.795 227.218 685.394 225.771 685.394 224.262V216.033C690.757 214.81 695.873 212.682 700.521 209.74L706.33 215.549C706.856 216.081 707.483 216.504 708.174 216.793C708.864 217.081 709.606 217.23 710.354 217.23C711.103 217.23 711.844 217.081 712.534 216.793C713.225 216.504 713.852 216.081 714.378 215.549L721.911 208.016C722.972 206.945 723.567 205.499 723.567 203.992C723.567 202.485 722.972 201.039 721.911 199.968L716.102 194.159L716.526 193.433H700.733Z" fill="#EB5B14"/>
<path d="M431.286 409.753H423.057C421.834 404.39 419.706 399.274 416.764 394.626L422.573 388.817C423.105 388.291 423.528 387.664 423.816 386.973C424.105 386.283 424.253 385.542 424.253 384.793C424.253 384.045 424.105 383.303 423.816 382.613C423.528 381.922 423.105 381.295 422.573 380.769L415.07 373.175C414.541 372.642 413.912 372.219 413.218 371.93C412.525 371.641 411.782 371.492 411.031 371.492C410.28 371.492 409.536 371.641 408.843 371.93C408.15 372.219 407.52 372.642 406.992 373.175L401.183 378.984C396.533 376.045 391.418 373.918 386.055 372.691V364.462C386.047 362.951 385.441 361.504 384.37 360.438C383.298 359.372 381.849 358.774 380.337 358.774H369.688C368.176 358.774 366.727 359.372 365.655 360.438C364.584 361.504 363.978 362.951 363.97 364.462V372.691C358.607 373.918 353.492 376.045 348.842 378.984L343.033 373.175C342.507 372.643 341.881 372.22 341.19 371.932C340.499 371.643 339.758 371.495 339.01 371.495C338.261 371.495 337.52 371.643 336.829 371.932C336.139 372.22 335.512 372.643 334.986 373.175L327.331 380.709C326.799 381.235 326.376 381.862 326.088 382.552C325.799 383.243 325.651 383.984 325.651 384.733C325.651 385.481 325.799 386.222 326.088 386.913C326.376 387.604 326.799 388.23 327.331 388.756L333.14 394.565C330.198 399.214 328.07 404.329 326.847 409.693H318.618C317.63 409.69 316.659 409.949 315.803 410.443C314.948 410.937 314.238 411.649 313.747 412.506H339.131C340.983 404.403 345.531 397.169 352.03 391.988C358.529 386.807 366.595 383.985 374.907 383.985C383.218 383.985 391.284 386.807 397.783 391.988C404.283 397.169 408.83 404.403 410.683 412.506H436.248C435.741 411.647 435.014 410.938 434.142 410.454C433.269 409.97 432.283 409.728 431.286 409.753Z" fill="#EB5B14"/>
<path d="M159.449 344.373H170.008C171.524 344.373 172.979 343.77 174.051 342.698C175.123 341.626 175.726 340.171 175.726 338.655V330.456C181.088 329.23 186.203 327.102 190.853 324.163L196.662 329.972C197.188 330.504 197.815 330.927 198.505 331.215C199.196 331.504 199.937 331.652 200.686 331.652C201.434 331.652 202.175 331.504 202.866 331.215C203.557 330.927 204.183 330.504 204.71 329.972L212.364 322.378C212.896 321.852 213.319 321.225 213.608 320.534C213.896 319.844 214.045 319.103 214.045 318.354C214.045 317.605 213.896 316.864 213.608 316.174C213.319 315.483 212.896 314.856 212.364 314.33L206.555 308.521C209.497 303.873 211.625 298.757 212.848 293.394H221.077C222.586 293.394 224.033 292.795 225.099 291.728C226.166 290.661 226.765 289.215 226.765 287.706V276.996C226.765 275.487 226.166 274.041 225.099 272.974C224.033 271.907 222.586 271.308 221.077 271.308H212.848C211.614 265.949 209.486 260.835 206.555 256.181L212.364 250.372C212.896 249.846 213.319 249.219 213.608 248.528C213.896 247.838 214.045 247.097 214.045 246.348C214.045 245.6 213.896 244.859 213.608 244.168C213.319 243.477 212.896 242.85 212.364 242.324L204.831 234.791C203.76 233.73 202.314 233.135 200.807 233.135C199.3 233.135 197.854 233.73 196.783 234.791L190.974 240.691C186.316 237.774 181.203 235.657 175.847 234.428V226.199C175.855 225.432 175.709 224.672 175.418 223.963C175.127 223.255 174.696 222.612 174.151 222.072C173.607 221.533 172.959 221.109 172.247 220.826C171.535 220.542 170.774 220.404 170.008 220.42H159.358C157.85 220.42 156.403 221.019 155.336 222.086C154.269 223.153 153.67 224.599 153.67 226.108V234.337C152.732 234.549 151.825 234.821 150.917 235.093V248.375C154.123 247.048 157.508 246.202 160.962 245.864C166.527 245.248 172.159 245.912 177.428 247.805C182.698 249.699 187.464 252.773 191.364 256.791C195.263 260.809 198.192 265.666 199.927 270.989C201.662 276.313 202.157 281.963 201.373 287.507C200.59 293.051 198.55 298.343 195.408 302.978C192.267 307.613 188.107 311.468 183.247 314.249C178.387 317.03 172.956 318.663 167.368 319.023C161.78 319.383 156.184 318.461 151.008 316.327V329.639C151.915 329.911 152.823 330.183 153.761 330.395V338.594C153.753 339.348 153.894 340.095 154.176 340.794C154.458 341.493 154.875 342.129 155.404 342.666C155.932 343.203 156.562 343.63 157.256 343.923C157.95 344.216 158.695 344.369 159.449 344.373Z" fill="#EB5B14"/>
<path d="M886.617 91.6263H409.321V120.852H886.617V91.6263Z" fill="white" stroke="#2E353A" stroke-width="1.50103" stroke-miterlimit="10"/>
<path d="M131.615 86.9672L117.849 100.219L132.129 115.527" stroke="#2E353A" stroke-width="1.50103" stroke-linecap="round" stroke-linejoin="round"/>
<path d="M117.849 100.219H148.436" stroke="#2E353A" stroke-width="1.50103" stroke-linecap="round" stroke-linejoin="round"/>
<path d="M209.641 86.9672L223.437 100.219L209.127 115.527" stroke="#2E353A" stroke-width="1.50103" stroke-linecap="round" stroke-linejoin="round"/>
<path d="M223.407 100.219H192.82" stroke="#2E353A" stroke-width="1.50103" stroke-linecap="round" stroke-linejoin="round"/>
<path d="M289.18 98.4942C288.299 95.4187 286.466 92.7019 283.943 90.734C281.421 88.7661 278.34 87.6486 275.142 87.542C272.936 87.5405 270.761 88.0694 268.802 89.0842C266.843 90.099 265.156 91.5699 263.884 93.3729C262.612 95.176 261.792 97.2583 261.494 99.4445C261.195 101.631 261.426 103.857 262.168 105.935C262.91 108.013 264.14 109.882 265.755 111.385C267.371 112.888 269.323 113.981 271.45 114.572C273.576 115.162 275.812 115.233 277.971 114.778C280.13 114.323 282.149 113.356 283.856 111.957" stroke="#2E353A" stroke-width="1.50103" stroke-linecap="round" stroke-linejoin="round"/>
<path d="M279.892 99.9767H290.602V87.2395" stroke="#2E353A" stroke-width="1.50103" stroke-linecap="round" stroke-linejoin="round"/>
<path d="M362.124 95.4687L349.417 85.1821L337.315 95.4687V117.857H362.124V95.4687Z" stroke="#2E353A" stroke-width="1.50103" stroke-linecap="round" stroke-linejoin="round"/>
<path d="M354.258 101.52H344.576V117.04H354.258V101.52Z" fill="#2E353A"/>
<path d="M337.315 95.4688L330.054 102.125" stroke="#2E353A" stroke-width="1.50103" stroke-linecap="round" stroke-linejoin="round"/>
<path d="M362.124 95.4688L368.962 101.55" stroke="#2E353A" stroke-width="1.50103" stroke-linecap="round" stroke-linejoin="round"/>
<path d="M1018.59 96.9813H1056.86" stroke="#2E353A" stroke-width="1.50103" stroke-linecap="round" stroke-linejoin="round"/>
<path d="M1018.59 105.604H1056.86" stroke="#2E353A" stroke-width="1.50103" stroke-linecap="round" stroke-linejoin="round"/>
<path d="M1018.59 114.257H1056.86" stroke="#2E353A" stroke-width="1.50103" stroke-linecap="round" stroke-linejoin="round"/>
<path d="M1018.59 122.879H1056.86" stroke="#2E353A" stroke-width="1.50103" stroke-linecap="round" stroke-linejoin="round"/>
<g style="mix-blend-mode:multiply">
<path d="M1087.87 270.37H464.627C461.603 270.37 458.609 270.966 455.816 272.123C453.022 273.28 450.484 274.976 448.346 277.114C446.208 279.252 444.512 281.79 443.355 284.583C442.198 287.377 441.603 290.37 441.603 293.394V466.48C441.603 469.504 442.198 472.498 443.355 475.291C444.512 478.084 446.208 480.623 448.346 482.76C450.484 484.898 453.022 486.594 455.816 487.751C458.609 488.908 461.603 489.504 464.627 489.504H1087.87V270.37Z" fill="#EB5B14"/>
</g>
<path d="M1049.45 706.127C1048.39 666.796 1051.44 599.358 1016.83 571.645C986.578 547.442 962.798 580.328 954.266 606.952C933.572 671.606 943.314 742.946 943.344 809.658C943.344 810.656 943.344 811.685 943.344 812.683C941.711 861.756 935.811 914.913 941.166 963.956C941.166 963.956 935.902 914.883 897.327 935.91C858.753 956.937 916.63 1067.43 916.63 1067.43C916.63 1067.43 871.036 1034.15 850.07 1062.16C829.103 1090.18 876.361 1121.76 876.361 1121.76C876.361 1121.76 832.522 1109.51 832.522 1121.76C832.522 1134.02 846.56 1144.58 886.98 1149.81H1104.39C1104.39 1149.81 1139.45 1130.54 1132.44 1109.51C1125.42 1088.48 1088.6 1100.74 1088.6 1100.74C1088.6 1100.74 1144.72 1032.36 1141.21 1002.53C1137.7 972.7 1065.54 1007.67 1065.54 1007.67C1065.54 1007.67 1121.63 865.659 1111.14 802.548C1102.85 752.84 1064.24 786.846 1043.24 805.967C1048.21 772.931 1050.29 739.524 1049.45 706.127Z" fill="#EB5B14"/>
<path opacity="0.5" d="M1049.45 706.127C1048.39 666.796 1051.44 599.358 1016.83 571.645C986.578 547.442 962.798 580.328 954.266 606.952C933.572 671.606 943.314 742.946 943.344 809.658C943.344 810.656 943.344 811.685 943.344 812.683C941.711 861.756 935.811 914.913 941.166 963.956C941.166 963.956 935.902 914.883 897.327 935.91C858.753 956.937 916.63 1067.43 916.63 1067.43C916.63 1067.43 871.036 1034.15 850.07 1062.16C829.103 1090.18 876.361 1121.76 876.361 1121.76C876.361 1121.76 832.522 1109.51 832.522 1121.76C832.522 1134.02 846.56 1144.58 886.98 1149.81H1104.39C1104.39 1149.81 1139.45 1130.54 1132.44 1109.51C1125.42 1088.48 1088.6 1100.74 1088.6 1100.74C1088.6 1100.74 1144.72 1032.36 1141.21 1002.53C1137.7 972.7 1065.54 1007.67 1065.54 1007.67C1065.54 1007.67 1121.63 865.659 1111.14 802.548C1102.85 752.84 1064.24 786.846 1043.24 805.967C1048.21 772.931 1050.29 739.524 1049.45 706.127Z" fill="white"/>
<path d="M979.71 1147.93L995.503 665.797" stroke="white" stroke-width="1.72695" stroke-linecap="round" stroke-linejoin="round"/>
<path d="M988.484 946.318L1070.9 869.168" stroke="white" stroke-width="1.72695" stroke-linecap="round" stroke-linejoin="round"/>
<path d="M1027.06 911.253L1044.58 862.149" stroke="white" stroke-width="1.72695" stroke-linecap="round" stroke-linejoin="round"/>
<path d="M920.109 1005.92L983.22 1074.29" stroke="white" stroke-width="1.72695" stroke-linecap="round" stroke-linejoin="round"/>
<path d="M1088.41 1044.49L983.22 1098.86" stroke="white" stroke-width="1.72695" stroke-linecap="round" stroke-linejoin="round"/>
<path d="M1032.32 1076.05L1070.9 1074.29" stroke="white" stroke-width="1.72695" stroke-linecap="round" stroke-linejoin="round"/>
<path d="M644.036 1191.08C936.797 1191.08 1174.13 1178.93 1174.13 1163.94C1174.13 1148.95 936.797 1136.8 644.036 1136.8C351.275 1136.8 113.946 1148.95 113.946 1163.94C113.946 1178.93 351.275 1191.08 644.036 1191.08Z" fill="#EB5B14"/>
<path opacity="0.3" d="M644.036 1191.08C936.797 1191.08 1174.13 1178.93 1174.13 1163.94C1174.13 1148.95 936.797 1136.8 644.036 1136.8C351.275 1136.8 113.946 1148.95 113.946 1163.94C113.946 1178.93 351.275 1191.08 644.036 1191.08Z" fill="white"/>
<path d="M660.494 1145.3C657.991 1145.33 655.531 1145.96 653.324 1147.15C649.542 1149.14 633.205 1153.62 622.676 1157.34C606.248 1163.18 593.42 1160.04 594.751 1164.33C596.083 1168.63 621.708 1177.25 636.533 1177.46C651.358 1177.67 658.498 1173.98 665.577 1174.13C672.657 1174.29 667.453 1177.7 679.252 1179.04C691.052 1180.37 694.894 1180.4 699.009 1173.95C703.123 1167.51 705.453 1165.84 704.152 1157.68V1157.4C703.495 1153.89 701.615 1150.72 698.846 1148.46C696.077 1146.21 692.598 1145 689.024 1145.06L660.494 1145.3Z" fill="#2E353A"/>
<path d="M752.317 1137.44C750.12 1137.38 747.957 1137.99 746.115 1139.19C742.878 1141.22 728.809 1145.48 719.763 1149.14C705.634 1154.89 694.38 1151.05 695.56 1155.71C696.739 1160.37 711.988 1166.72 724.906 1167.45C731.894 1167.88 738.907 1167.62 745.843 1166.66C759.82 1165.87 750.925 1170.84 755.948 1172.86C759.458 1173.98 763.128 1174.5 766.809 1174.41C781.543 1175.19 783.328 1176.37 786.717 1169.57C790.105 1162.76 792.041 1161.06 790.619 1152.23V1151.96C789.318 1144.12 783.479 1138.34 777.065 1138.16L752.317 1137.44Z" fill="#2E353A"/>
<path d="M620.438 676.659C620.438 676.659 622.979 765.607 622.979 795.468C622.979 825.33 630.603 960.295 640.769 1009.22C650.934 1058.14 656.652 1128.03 656.652 1135.65C656.652 1143.27 654.111 1145.18 659.194 1150.26C664.276 1155.35 683.397 1164.88 690.356 1161.7C697.314 1158.52 701.157 1146.57 701.157 1146.57C701.157 1146.57 701.157 1080.5 703.063 1037.29C704.969 994.089 701.792 937.453 701.792 937.453C701.792 937.453 726.57 1051.85 733.559 1074.72C740.548 1097.59 746.266 1139.07 747.537 1147.33C748.808 1155.59 754.374 1155.86 761.484 1155.86C770.016 1155.86 780.575 1154.77 784.387 1148.42C788.199 1142.06 779.94 1075.35 779.94 1048.58C779.94 1021.8 758.973 856.431 760.879 815.618C762.785 774.804 774.857 704.432 771.045 683.466C768.777 671.133 767.502 658.638 767.233 646.102C767.233 646.102 636.321 630.974 620.438 676.659Z" fill="#2E353A" stroke="#2E353A" stroke-miterlimit="10"/>
<path d="M628.092 686.643C630.209 694.536 632.961 702.246 636.321 709.697C638.752 714.842 642.757 719.081 647.757 721.798" stroke="white" stroke-miterlimit="10"/>
<path d="M669.208 1128.42C669.844 1137.39 669.672 1146.4 668.693 1155.35" stroke="white" stroke-miterlimit="10"/>
<path d="M650.299 778.889C652.084 848.051 655.472 965.711 658.558 993.969C662.007 1025.28 665.063 1073.21 667.151 1102.28" stroke="white" stroke-miterlimit="10"/>
<path d="M647.546 687.611C646.91 689.517 649.028 727.486 649.028 727.486C649.028 727.486 649.331 740.314 649.845 760.403" stroke="white" stroke-miterlimit="10"/>
<path d="M471.767 436.922C471.767 436.922 471.131 421.794 474.308 425.485C477.485 429.176 478.12 436.286 479.391 443.275C479.391 443.275 481.297 429.933 483.203 433.745C485.276 438.5 485.937 443.751 485.109 448.872C484.709 456.131 486.243 463.367 489.556 469.839C492.098 473.651 476.214 462.971 471.767 436.922Z" fill="white" stroke="#2E353A" stroke-miterlimit="10"/>
<path d="M949.97 456.829C949.97 456.829 959.047 444.546 954.266 445.938C949.486 447.329 945.19 452.775 940.107 457.858C940.107 457.858 945.977 445.756 942.255 447.813C937.844 450.625 934.336 454.648 932.15 459.401C928.434 465.645 923.117 470.784 916.751 474.286C912.515 476.041 931.727 475.95 949.97 456.829Z" fill="white" stroke="#2E353A" stroke-linecap="round" stroke-linejoin="round"/>
<path d="M959.652 253.912V246.257C959.656 245.718 959.553 245.184 959.349 244.685C959.146 244.186 958.846 243.732 958.466 243.35C958.086 242.967 957.635 242.664 957.137 242.457C956.64 242.249 956.106 242.143 955.567 242.143H949.516C948.635 238.276 947.111 234.584 945.008 231.221L949.184 227.046C949.952 226.275 950.384 225.23 950.384 224.141C950.384 223.053 949.952 222.008 949.184 221.237L943.768 215.821C942.997 215.053 941.952 214.621 940.864 214.621C939.775 214.621 938.73 215.053 937.959 215.821L933.784 219.996C930.417 217.881 926.713 216.356 922.832 215.489V209.438C922.836 208.899 922.733 208.364 922.53 207.865C922.326 207.366 922.026 206.912 921.646 206.53C921.267 206.147 920.815 205.844 920.317 205.637C919.82 205.43 919.286 205.323 918.747 205.323H911.244C910.158 205.331 909.119 205.768 908.354 206.539C907.589 207.31 907.16 208.352 907.16 209.438V215.489C903.287 216.351 899.592 217.876 896.238 219.996L892.033 215.821C891.653 215.442 891.203 215.141 890.707 214.935C890.211 214.73 889.68 214.624 889.143 214.624C888.607 214.624 888.075 214.73 887.579 214.935C887.084 215.141 886.633 215.442 886.254 215.821L880.99 221.237C880.221 222.008 879.79 223.053 879.79 224.141C879.79 225.23 880.221 226.275 880.99 227.046L885.165 231.221C883.052 234.582 881.518 238.274 880.627 242.143H874.727C873.636 242.143 872.589 242.576 871.818 243.348C871.046 244.12 870.612 245.166 870.612 246.257V253.912C870.612 254.452 870.719 254.987 870.926 255.486C871.132 255.986 871.435 256.439 871.818 256.821C872.2 257.203 872.653 257.506 873.152 257.713C873.652 257.92 874.187 258.026 874.727 258.026H880.627C881.518 261.895 883.052 265.587 885.165 268.948L880.99 273.123C880.221 273.895 879.79 274.939 879.79 276.028C879.79 277.117 880.221 278.161 880.99 278.932L886.405 284.348C886.785 284.728 887.235 285.029 887.731 285.234C888.227 285.44 888.758 285.545 889.295 285.545C889.831 285.545 890.363 285.44 890.858 285.234C891.354 285.029 891.805 284.728 892.184 284.348L896.389 280.173C899.748 282.29 903.441 283.825 907.311 284.711V290.611C907.311 291.697 907.74 292.739 908.506 293.509C909.271 294.28 910.309 294.717 911.396 294.725H919.08C919.619 294.725 920.153 294.619 920.65 294.411C921.148 294.204 921.599 293.901 921.979 293.518C922.359 293.136 922.659 292.682 922.862 292.183C923.066 291.684 923.169 291.149 923.165 290.611V284.711C927.043 283.819 930.744 282.285 934.117 280.173L938.292 284.348C939.063 285.116 940.107 285.548 941.196 285.548C942.285 285.548 943.329 285.116 944.101 284.348L949.516 278.932C950.285 278.161 950.716 277.117 950.716 276.028C950.716 274.939 950.285 273.895 949.516 273.123L945.341 268.948C947.444 265.585 948.968 261.894 949.849 258.026H955.9C956.93 257.942 957.889 257.471 958.586 256.707C959.282 255.944 959.663 254.945 959.652 253.912ZM916.811 267.526C913.205 267.907 909.569 267.161 906.404 265.391C903.238 263.621 900.699 260.914 899.136 257.642C897.572 254.37 897.061 250.693 897.672 247.119C898.283 243.544 899.986 240.247 902.548 237.68C905.11 235.113 908.404 233.403 911.978 232.785C915.551 232.167 919.229 232.671 922.504 234.228C925.779 235.786 928.491 238.32 930.267 241.481C932.043 244.643 932.796 248.278 932.422 251.885C932.016 255.879 930.249 259.613 927.418 262.46C924.587 265.308 920.864 267.096 916.872 267.526H916.811Z" fill="white" stroke="#2E353A" stroke-linecap="round" stroke-linejoin="round"/>
<path d="M591.484 465.966V458.281C591.484 457.742 591.377 457.209 591.17 456.711C590.963 456.214 590.659 455.762 590.277 455.383C589.894 455.003 589.441 454.703 588.942 454.499C588.443 454.296 587.908 454.193 587.369 454.197H581.318C580.481 450.374 578.997 446.721 576.931 443.396L581.107 439.191C581.486 438.811 581.787 438.361 581.993 437.865C582.198 437.37 582.304 436.838 582.304 436.301C582.304 435.765 582.198 435.233 581.993 434.738C581.787 434.242 581.486 433.791 581.107 433.412L575.691 427.966C574.92 427.198 573.875 426.766 572.787 426.766C571.698 426.766 570.653 427.198 569.882 427.966L565.707 432.172C562.346 430.059 558.654 428.525 554.785 427.634V421.583C554.777 420.497 554.34 419.458 553.569 418.693C552.799 417.928 551.757 417.498 550.67 417.498H543.016C541.93 417.498 540.888 417.928 540.117 418.693C539.346 419.458 538.909 420.497 538.901 421.583V427.634C535.033 428.525 531.341 430.059 527.98 432.172L523.804 427.966C523.033 427.198 521.989 426.766 520.9 426.766C519.811 426.766 518.767 427.198 517.996 427.966L512.58 433.412C512.2 433.791 511.899 434.242 511.694 434.738C511.488 435.233 511.382 435.765 511.382 436.301C511.382 436.838 511.488 437.37 511.694 437.865C511.899 438.361 512.2 438.811 512.58 439.191L516.755 443.396C514.637 446.755 513.103 450.448 512.217 454.318H506.166C505.627 454.314 505.093 454.417 504.594 454.62C504.095 454.824 503.641 455.124 503.258 455.504C502.876 455.883 502.572 456.335 502.365 456.832C502.158 457.33 502.051 457.864 502.051 458.402V466.087C502.051 466.626 502.158 467.16 502.365 467.657C502.572 468.155 502.876 468.606 503.258 468.986C503.641 469.366 504.095 469.666 504.594 469.869C505.093 470.073 505.627 470.175 506.166 470.171H512.217C513.109 474.05 514.643 477.751 516.755 481.124L512.58 485.299C511.811 486.07 511.38 487.114 511.38 488.203C511.38 489.292 511.811 490.336 512.58 491.108L517.996 496.523C518.767 497.292 519.811 497.723 520.9 497.723C521.989 497.723 523.033 497.292 523.804 496.523L527.98 492.318C531.341 494.43 535.033 495.964 538.901 496.856V502.907C538.901 503.446 539.008 503.979 539.215 504.477C539.422 504.974 539.726 505.426 540.108 505.806C540.491 506.185 540.945 506.486 541.444 506.689C541.943 506.893 542.477 506.995 543.016 506.991H550.67C551.209 506.995 551.744 506.893 552.243 506.689C552.742 506.486 553.196 506.185 553.578 505.806C553.961 505.426 554.264 504.974 554.471 504.477C554.678 503.979 554.785 503.446 554.785 502.907V496.856C558.654 495.964 562.346 494.43 565.707 492.318L569.882 496.523C570.653 497.292 571.698 497.723 572.787 497.723C573.875 497.723 574.92 497.292 575.691 496.523L581.107 491.108C581.875 490.336 582.307 489.292 582.307 488.203C582.307 487.114 581.875 486.07 581.107 485.299L576.931 481.124C579.047 477.756 580.571 474.052 581.439 470.171H587.49C588.029 470.16 588.561 470.041 589.054 469.823C589.547 469.605 589.992 469.292 590.363 468.901C590.734 468.51 591.024 468.049 591.217 467.545C591.409 467.042 591.5 466.505 591.484 465.966ZM548.704 480.155C544.973 480.548 541.213 479.776 537.939 477.944C534.666 476.112 532.04 473.311 530.423 469.927C528.807 466.542 528.278 462.739 528.911 459.042C529.543 455.344 531.305 451.934 533.955 449.279C536.605 446.624 540.013 444.855 543.709 444.215C547.405 443.576 551.209 444.097 554.597 445.708C557.985 447.318 560.79 449.939 562.628 453.209C564.466 456.479 565.246 460.238 564.86 463.969C564.432 468.111 562.593 471.979 559.651 474.926C556.71 477.873 552.845 479.72 548.704 480.155Z" fill="white" stroke="#2E353A" stroke-linecap="round" stroke-linejoin="round"/>
<path d="M1120.61 246.59H478.876C466.161 246.59 455.853 256.898 455.853 269.614V442.7C455.853 455.416 466.161 465.724 478.876 465.724H1120.61C1133.32 465.724 1143.63 455.416 1143.63 442.7V269.614C1143.63 256.898 1133.32 246.59 1120.61 246.59Z" fill="white" stroke="#2E353A" stroke-linecap="round" stroke-linejoin="round"/>
<path d="M1122.18 304.195H501.356" stroke="#2E353A" stroke-linecap="round" stroke-linejoin="round"/>
<path d="M1122.18 352.209H501.356" stroke="#2E353A" stroke-linecap="round" stroke-linejoin="round"/>
<path d="M1122.18 400.223H501.356" stroke="#2E353A" stroke-linecap="round" stroke-linejoin="round"/>
<path d="M518.752 502.967C518.752 502.967 511.279 496.584 510.371 493.891C509.543 489.631 508.317 485.458 506.711 481.426C504.109 475.769 494.609 470.716 491.583 464C488.558 457.283 484.534 445.514 482.507 443.245C480.48 440.976 477.485 442.004 476.456 448.358C475.427 454.711 487.317 470.292 488.074 472.562C488.83 474.831 475.639 470.898 467.168 465.452C458.697 460.006 453.493 448.66 448.38 441.46C443.267 434.259 439.092 439.312 439.303 443.457C439.515 447.602 454.733 470.988 457.668 479.52C460.603 488.052 470.375 497.219 475.821 501.878C481.267 506.537 493.217 508.413 493.217 508.413L501.235 516.4L518.752 502.967Z" fill="white" stroke="#2E353A" stroke-miterlimit="10"/>
<path d="M495.91 536.036L485.109 512.528C487.233 509.461 489.964 506.864 493.134 504.896C496.303 502.929 499.843 501.634 503.534 501.092C516.876 498.55 518.661 501.092 518.661 501.092L525.65 525.295C525.65 525.295 502.808 527.141 495.91 536.036Z" fill="#EB5B14" stroke="#2E353A" stroke-linecap="round" stroke-linejoin="round"/>
<path d="M600.742 455.498C600.742 455.498 568.339 548.258 563.892 560.33C562.742 563.355 560.533 568.499 557.841 574.368C552.183 564.535 539.688 542.843 535.967 533.645C530.884 521.544 523.865 518.518 512.459 519.668C501.053 520.818 490.857 533.01 490.857 541.905C490.857 558.757 505.773 581.236 512.368 596.363C519.448 612.398 524.198 618.388 536.148 631.791C551.276 648.764 568.43 642.895 580.017 626.376C588.912 613.669 611.573 567.41 611.573 567.41C611.573 567.41 605.825 469.96 600.742 455.498Z" fill="#EB5B14" stroke="#2E353A" stroke-linecap="round" stroke-linejoin="round"/>
<path d="M557.811 574.217C557.811 574.217 545.285 592.218 544.105 601.748" stroke="#2E353A" stroke-linecap="round" stroke-linejoin="round"/>
<path d="M871.671 491.108C871.671 491.108 880.536 486.872 882.109 484.542C883.998 480.624 886.257 476.896 888.856 473.409C892.819 468.628 903.439 466.238 908.068 460.49C912.697 454.742 919.625 444.455 922.227 442.821C924.829 441.188 927.4 442.821 926.825 449.326C926.251 455.831 910.7 467.721 909.429 469.597C908.158 471.472 924.102 465.936 933.935 467.963C943.768 469.99 955.476 465.573 964.19 464.03C972.903 462.487 972.328 468.992 969.363 471.866C966.398 474.74 939.109 480.73 931.001 484.754C922.892 488.778 915.873 491.924 909.187 494.98C904.386 497.345 899.728 499.992 895.24 502.907L885.437 508.564L871.671 491.108Z" fill="white" stroke="#2E353A" stroke-linecap="round" stroke-linejoin="round"/>
<path d="M893.092 526.536L903.892 503.028C901.768 499.961 899.037 497.364 895.867 495.396C892.698 493.429 889.158 492.134 885.467 491.592C872.125 489.05 870.34 491.592 870.34 491.592L863.351 515.795C863.351 515.795 886.224 517.641 893.092 526.536Z" fill="#EB5B14" stroke="#2E353A" stroke-miterlimit="10"/>
<path d="M876.694 509.956C865.257 508.685 858.269 511.862 853.186 523.934C849.313 533.01 837 554.824 831.312 564.656C828.589 558.787 826.38 553.765 825.261 550.618C820.813 538.516 788.411 445.786 788.411 445.786C783.328 460.399 777.61 557.728 777.61 557.728C777.61 557.728 801.814 603.957 810.89 616.694C816.124 624.167 820.269 631.095 829.86 632.517C858.057 636.723 866.498 610.189 875.241 590.584C880.717 578.21 886.163 565.806 891.246 553.25C893.727 547.199 898.447 539.061 898.447 532.314C898.295 523.359 888.13 511.287 876.694 509.956Z" fill="#EB5B14" stroke="#2E353A" stroke-linecap="round" stroke-linejoin="round"/>
<path d="M831.312 564.717C831.312 564.717 844.019 582.688 846.439 592.218" stroke="#2E353A" stroke-linecap="round" stroke-linejoin="round"/>
<path d="M651.055 285.044C651.055 285.044 642.16 318.082 644.066 321.349C645.972 324.617 650.42 323.255 647.878 329.609C645.337 335.962 639.619 348.064 640.89 353.147C642.16 358.23 649.149 362.042 649.149 362.042C649.149 362.042 652.326 384.914 655.502 389.271C658.679 393.627 675.834 391.177 675.834 391.177L677.104 408.331L727.962 405.306L726.056 374.809L723.515 280.748L651.055 285.044Z" fill="white"/>
<mask id="mask0_694_565" style="mask-type:luminance" maskUnits="userSpaceOnUse" x="640" y="280" width="88" height="129">
<path d="M651.055 285.044C651.055 285.044 642.16 318.082 644.066 321.349C645.972 324.617 650.42 323.255 647.878 329.609C645.337 335.962 639.619 348.064 640.89 353.147C642.16 358.23 649.149 362.042 649.149 362.042C649.149 362.042 652.326 384.914 655.502 389.271C658.679 393.627 675.834 391.177 675.834 391.177L677.104 408.331L727.962 405.306L726.056 374.809L723.515 280.748L651.055 285.044Z" fill="white"/>
</mask>
<g mask="url(#mask0_694_565)">
<g style="mix-blend-mode:multiply" opacity="0.5">
<path d="M675.713 391.177L676.983 408.331L727.841 405.306L725.935 374.809L724.846 335.236C718.22 335.236 712.169 335.508 710.294 335.508C705.665 335.508 695.56 334.722 693.23 335.508C690.9 336.295 687.814 337.051 687.814 337.051L676.197 349.456C676.197 349.456 676.953 365.733 671.537 374.264C666.999 381.405 655.079 384.218 654.413 387.455C654.687 388.134 655.011 388.791 655.381 389.422C655.987 389.876 656.652 390.36 657.378 390.844C662.885 393.053 675.713 391.177 675.713 391.177Z" fill="#EB5B14"/>
</g>
</g>
<path d="M651.055 285.044C651.055 285.044 642.16 318.082 644.066 321.349C645.972 324.617 650.42 323.255 647.878 329.609C645.337 335.962 639.619 348.064 640.89 353.147C642.16 358.23 649.149 362.042 649.149 362.042C649.149 362.042 652.326 384.914 655.502 389.271C658.679 393.627 675.834 391.177 675.834 391.177L677.104 408.331L727.962 405.306L726.056 374.809L723.515 280.748L651.055 285.044Z" stroke="#2E353A" stroke-miterlimit="10"/>
<path d="M655.593 330.819C655.593 333.391 654.655 335.448 653.506 335.448C652.356 335.448 651.388 333.391 651.388 330.819C651.388 328.247 652.326 326.19 653.506 326.19C654.686 326.19 655.593 328.247 655.593 330.819Z" fill="#2E353A"/>
<path d="M711.958 259.63C708.932 260.114 684.728 259.63 665.547 262.807C646.366 265.983 640.769 267.254 641.343 275.514C641.918 283.773 640.073 286.95 647.061 290.127C650.036 291.688 653.262 292.712 656.592 293.152C656.592 293.152 654.686 302.047 654.05 308.279C653.415 314.512 664.851 321.622 664.851 321.622C664.487 325.876 664.701 330.161 665.486 334.359C666.757 337.384 669.934 338.171 671.84 335.629C673.746 333.088 675.017 320.986 676.923 326.069C678.829 331.152 686.453 369.303 691.566 373.75C696.679 378.198 719.521 375.656 725.875 374.385C732.228 373.115 744.3 346.43 750.078 330.516C755.857 314.602 753.104 286.678 744.995 273.971C736.887 261.264 720.217 258.359 711.958 259.63Z" fill="white" stroke="#2E353A" stroke-miterlimit="10"/>
<path d="M746.932 277.813C744.663 283.864 742.333 291.427 735.889 291.912C725.814 292.698 725.814 279.507 718.825 274.848C711.836 270.189 723.484 298.114 718.069 290.369C712.653 282.623 698.676 274.848 686.271 274.092C673.867 273.335 693.23 296.571 688.601 296.571C683.972 296.571 676.197 281.837 676.197 277.964C676.197 274.092 664.549 273.971 651.358 273.971C638.167 273.971 643.613 281.716 643.613 286.375C643.616 287.039 643.805 287.688 644.157 288.251C645.091 288.956 646.107 289.545 647.183 290.006C650.157 291.567 653.383 292.591 656.713 293.031C656.713 293.031 654.807 301.926 654.171 308.158C653.536 314.391 664.972 321.501 664.972 321.501C664.608 325.755 664.822 330.04 665.608 334.238C666.878 337.263 670.055 338.05 671.961 335.508C673.867 332.967 675.138 320.865 677.044 325.948C678.95 331.031 686.574 369.182 691.687 373.629C696.8 378.077 719.642 375.535 725.996 374.264C732.349 372.994 744.421 346.309 750.199 330.395C755.312 316.327 753.588 291.609 746.932 277.813Z" fill="#2E353A"/>
<path d="M664.912 406.425L650.934 431.839C650.934 431.839 685.878 421.673 704.969 421.673C718.389 421.914 731.771 423.188 744.995 425.485L736.101 400.707C736.101 400.707 687.784 395.624 664.912 406.425Z" fill="#EB5B14" stroke="#2E353A" stroke-miterlimit="10"/>
<path d="M656.017 428.662C656.017 428.662 633.144 440.764 619.711 447.087C613.508 450.175 607.146 452.932 600.651 455.347C600.651 455.347 616.535 657.598 616.535 668.399C616.535 679.2 615.899 679.835 619.711 683.012C623.523 686.189 643.249 687.641 678.193 687.006C713.137 686.37 756.855 679.2 760.153 679.2C762.721 679.016 765.209 678.23 767.417 676.905C769.624 675.581 771.489 673.755 772.86 671.576C776.672 665.858 788.744 450.264 789.379 447.692C790.014 445.121 747.446 426.726 742.999 425.455C738.551 424.184 713.228 407.091 656.017 428.662Z" fill="#EB5B14" stroke="#2E353A" stroke-miterlimit="10"/>
<path d="M733.045 590.584C729.046 594.232 724.767 597.561 720.247 600.538" stroke="#2E353A" stroke-linecap="round" stroke-linejoin="round"/>
<path d="M779.758 507.717C779.758 507.717 770.924 546.715 745.147 577.847" stroke="#2E353A" stroke-linecap="round" stroke-linejoin="round"/>
<path d="M671.537 326.039C672.379 331.956 672.894 337.915 673.08 343.889C673.08 350.847 668.421 354.72 671.537 357.836C674.654 360.952 676.953 359.379 679.282 353.964C681.784 347.547 682.818 340.652 682.308 333.784C681.612 328.429 680.825 316.72 671.537 326.039Z" fill="white" stroke="#2E353A" stroke-miterlimit="10"/>
<path d="M705.755 956.029L722.789 781.884L749.292 749.693" stroke="white" stroke-miterlimit="10"/>
</svg>
