<svg width="1227" height="1087" viewBox="0 0 1227 1087" fill="none" xmlns="http://www.w3.org/2000/svg">
<path d="M1125.14 889.843C1134.64 835.263 1224.8 730.851 1198.71 666.777C1172.61 602.704 1108.51 806.725 1084.78 809.167C1061.04 811.609 1082.42 716.61 1115.65 626.44C1148.88 536.27 1174.97 441.325 1115.65 405.735C1056.32 370.144 1058.68 652.536 1044.44 643.041C1030.2 633.547 1053.93 514.894 1037.33 441.325C1020.73 367.757 982.751 427.084 982.751 512.671C982.751 598.258 1008.85 645.566 989.858 652.618C970.869 659.67 912.613 633.135 913.93 726.187C915.247 819.238 987.498 930.29 961.375 916.048C935.251 901.807 887.806 847.227 897.301 935.037C904.024 997.108 952.182 1056.76 979.897 1086.43H1106.78C1126.13 1066.53 1163.72 1024.6 1189.1 975.375C1224.8 906.472 1115.65 944.449 1125.14 889.843Z" fill="#EB5B14"/>
<path d="M970.869 1080.88C947.38 1047.21 936.404 1006.05 925.428 967.637C919.939 942.94 919.939 915.5 939.148 899.035C958.356 885.315 969.333 910.011 980.309 920.988C988.541 915.5 983.053 907.267 983.053 901.779C977.578 858.088 974.829 814.097 974.821 770.064C974.821 742.623 985.797 720.671 996.773 695.974C1002.26 687.742 1007.75 679.51 1015.98 676.766C1024.21 674.022 1032.45 676.766 1035.19 684.998C1040.68 704.207 1040.68 723.415 1043.42 742.623C1048.91 737.135 1046.17 728.903 1046.17 723.415C1057.14 643.837 1048.91 567.003 1073.61 490.17C1076.35 484.681 1084.58 479.193 1090.07 481.937C1109.28 484.681 1109.28 509.378 1109.28 525.842C1120.26 605.42 1095.56 682.254 1087.33 761.832C1087.33 767.32 1084.58 772.808 1090.07 778.296C1092.82 759.088 1103.79 739.879 1109.28 720.671C1112.02 712.439 1117.51 701.463 1125.74 695.974C1131.23 693.23 1136.72 695.974 1142.21 701.463C1153.18 717.927 1155.93 734.391 1153.18 753.6C1144.95 800.249 1128.49 838.666 1109.28 879.827L1101.05 904.523C1098.3 920.988 1087.33 940.196 1098.3 953.916C1117.51 951.172 1123 929.22 1139.46 918.244C1155.93 907.267 1161.42 920.988 1164.16 931.964C1175.14 986.845 1155.93 1036.24 1128.27 1080.77" stroke="#263238" stroke-linecap="round" stroke-linejoin="round"/>
<path d="M1047.73 1070.4C1047.73 1070.4 1041.34 942.172 1057.36 825.192" stroke="#263238" stroke-linecap="round" stroke-linejoin="round"/>
<path d="M994.852 988.656L1047.73 1046.36L1094.21 1006.27" stroke="#263238" stroke-linecap="round" stroke-linejoin="round"/>
<path d="M1033.3 844.428L1047.73 918.134L1089.41 844.428" stroke="#263238" stroke-linecap="round" stroke-linejoin="round"/>
<path d="M1058.95 805.956L1068.56 737.053" stroke="#263238" stroke-linecap="round" stroke-linejoin="round"/>
<path d="M299.369 244.054H126.548V460.095H299.369V244.054Z" stroke="#263238" stroke-linecap="round" stroke-linejoin="round"/>
<path d="M515.41 244.054H342.588V460.095H515.41V244.054Z" stroke="#263238" stroke-linecap="round" stroke-linejoin="round"/>
<path d="M299.369 495.438H126.548V711.478H299.369V495.438Z" stroke="#263238" stroke-linecap="round" stroke-linejoin="round"/>
<path d="M515.41 495.438H342.588V711.478H515.41V495.438Z" stroke="#263238" stroke-linecap="round" stroke-linejoin="round"/>
<path d="M299.369 746.822H126.548V962.862H299.369V746.822Z" stroke="#263238" stroke-linecap="round" stroke-linejoin="round"/>
<path d="M515.41 746.822H342.588V962.862H515.41V746.822Z" stroke="#263238" stroke-linecap="round" stroke-linejoin="round"/>
<path d="M322.941 20.1663C271.895 20.1663 222.94 40.4441 186.845 76.539C150.75 112.634 130.472 161.589 130.472 212.635H515.409C515.409 161.589 495.132 112.634 459.037 76.539C422.942 40.4441 373.987 20.1663 322.941 20.1663Z" stroke="#263238" stroke-linecap="round" stroke-linejoin="round"/>
<path d="M571.855 123.343C571.855 123.343 571.855 82.182 501.195 90.4142C430.536 98.6464 400.927 161.074 379.578 174.218C358.229 187.362 318.77 198.915 317.123 218.589C315.477 238.264 333.588 246.524 315.477 261.315C297.366 276.105 269.596 289.331 276.045 309.061C282.493 328.791 300.741 348.493 292.509 361.665C284.277 374.837 261.282 387.953 282.631 402.826C303.979 417.699 313.858 420.909 313.858 440.612C313.858 460.314 305.626 473.541 325.383 480.071C345.14 486.602 356.583 473.486 368.108 498.127C379.633 522.769 391.103 529.355 410.833 524.415C430.563 519.476 458.47 511.271 468.459 517.857C478.447 524.443 509.619 542.554 522.681 532.648C535.743 522.742 547.378 507.951 567.053 516.183C586.728 524.415 603.22 535.913 611.424 521.123C619.629 506.332 611.424 503.039 642.652 496.426C673.879 489.813 685.377 491.514 685.377 465.226C685.377 438.938 683.73 432.297 698.521 420.854C713.311 409.412 726.455 414.269 721.544 386.334C716.632 358.4 706.753 351.814 711.665 323.879C716.577 295.945 703.433 286.093 693.582 277.861C683.73 269.629 672.233 254.866 675.526 240.076C678.818 225.285 703.46 223.611 678.791 197.35C654.122 171.09 642.652 179.267 637.63 159.537C632.608 139.807 616.226 97.0549 571.855 123.343Z" fill="#263238" stroke="#263238" stroke-linecap="round" stroke-linejoin="round"/>
<path d="M508.769 172.818C498.643 188.844 490.823 206.927 474.523 222.212C450.979 244.164 390.664 263.373 387.728 284.008C384.792 304.643 395.082 316.36 374.502 334.005C353.921 351.649 321.541 355.957 321.541 373.739C321.541 391.52 330.35 397.283 325.959 410.509" stroke="#EB996E" stroke-miterlimit="10"/>
<path d="M552.509 153.061C552.509 153.061 545.155 133.853 524.547 153.061C522.956 154.543 521.446 156.08 520.02 157.644" stroke="#EB996E" stroke-miterlimit="10"/>
<path d="M386.329 237.139C368.218 241.53 353.921 244.686 352.44 257.528C349.476 282.526 353.894 298.689 336.25 306.07C318.605 313.452 295.089 325.279 302.415 339.905C309.742 354.53 311.224 359.113 309.769 364.903" stroke="#EB996E" stroke-miterlimit="10"/>
<path d="M549.491 129.517C549.491 129.517 508.33 103.064 486.377 126.581C464.425 150.098 474.605 179.541 440.771 211.921C432.178 219.923 422.036 226.077 410.97 230.005" stroke="#EB996E" stroke-miterlimit="10"/>
<path d="M692.649 338.148C695.118 341.982 698.528 345.119 702.555 347.259" stroke="#EB996E" stroke-miterlimit="10"/>
<path d="M578.989 166.37C578.989 166.37 615.76 154.598 624.568 175.178C633.377 195.759 637.822 232.557 654.012 238.457C670.202 244.356 677.529 253.165 677.529 285.517C677.51 295.944 679.064 306.315 682.139 316.278" stroke="#EB996E" stroke-miterlimit="10"/>
<path d="M340.667 428.154C352.44 408.945 368.602 416.409 370.084 395.801C371.566 375.193 359.794 369.321 371.538 356.095C383.283 342.868 402.436 336.886 402.436 336.886" stroke="#EB996E" stroke-miterlimit="10"/>
<path d="M356.83 469.369C351.395 464.869 346.676 459.567 342.835 453.646" stroke="#EB996E" stroke-miterlimit="10"/>
<path d="M764.131 1086.34C764.131 1086.34 769.043 1018.98 739.435 951.584C709.826 884.19 703.158 879.333 703.158 859.603C703.158 839.873 722.971 816.85 726.263 772.479C729.556 728.107 727.91 706.621 727.91 706.621C727.91 706.621 798.569 818.36 847.88 824.945C897.191 831.531 926.772 785.513 908.689 723.058C890.605 660.603 811.714 609.674 780.514 568.567C749.314 527.461 678.599 527.407 642.46 527.407C606.32 527.407 588.237 514.262 581.651 489.621C575.065 464.979 575.093 415.531 575.093 415.531C575.093 415.531 532.34 441.819 460.034 412.238C460.034 412.238 466.62 502.628 458.388 515.772C450.156 528.916 438.74 542.307 389.429 542.307C340.119 542.307 299.04 552.185 276.045 575.236C253.05 598.286 157.721 690.267 133.079 726.433C108.437 762.6 121.554 802.032 151.135 816.823C180.716 831.613 210.297 818.442 231.673 798.74C253.05 779.037 320.416 716.555 320.416 716.555C320.416 716.555 320.416 754.368 338.5 808.591C356.583 862.813 371.428 856.255 358.202 895.687C344.976 935.12 318.77 946.645 310.565 997.574C305.651 1026.89 303.446 1056.6 303.979 1086.32" fill="#EB5B14"/>
<mask id="mask0_692_479" style="mask-type:luminance" maskUnits="userSpaceOnUse" x="120" y="412" width="795" height="675">
<path d="M764.131 1086.34C764.131 1086.34 769.043 1018.98 739.435 951.584C709.826 884.19 703.158 879.333 703.158 859.603C703.158 839.873 722.971 816.85 726.263 772.479C729.556 728.107 727.91 706.621 727.91 706.621C727.91 706.621 798.569 818.36 847.88 824.945C897.191 831.531 926.772 785.513 908.689 723.058C890.605 660.603 811.714 609.674 780.514 568.567C749.314 527.461 678.599 527.407 642.46 527.407C606.32 527.407 588.237 514.262 581.651 489.621C575.065 464.979 575.093 415.531 575.093 415.531C575.093 415.531 532.34 441.819 460.034 412.238C460.034 412.238 466.62 502.628 458.388 515.772C450.156 528.916 438.74 542.307 389.429 542.307C340.119 542.307 299.04 552.185 276.045 575.236C253.05 598.286 157.721 690.267 133.079 726.433C108.437 762.6 121.554 802.032 151.135 816.823C180.716 831.613 210.297 818.442 231.673 798.74C253.05 779.037 320.416 716.555 320.416 716.555C320.416 716.555 320.416 754.368 338.5 808.591C356.583 862.813 371.428 856.255 358.202 895.687C344.976 935.12 318.77 946.645 310.565 997.574C305.651 1026.89 303.446 1056.6 303.979 1086.32" fill="white"/>
</mask>
<g mask="url(#mask0_692_479)">
<g opacity="0.2">
<path d="M656.29 578.94C655.165 578.94 651.049 581.684 656.29 589.669C661.531 581.739 657.415 578.94 656.29 578.94Z" fill="black"/>
<path d="M788.005 578.94C786.88 578.94 782.764 581.684 788.005 589.669C793.246 581.739 789.13 578.94 788.005 578.94Z" fill="black"/>
<path d="M788.005 644.798C786.88 644.798 782.764 647.542 788.005 655.527C793.246 647.597 789.13 644.798 788.005 644.798Z" fill="black"/>
<path d="M656.29 644.798C655.165 644.798 651.049 647.542 656.29 655.527C661.531 647.597 657.415 644.798 656.29 644.798Z" fill="black"/>
<path d="M722.147 611.869C721.022 611.869 716.906 614.613 722.147 622.598C727.389 614.668 723.272 611.869 722.147 611.869Z" fill="black"/>
<path d="M722.147 546.011C721.022 546.011 716.906 548.755 722.147 556.741C727.389 548.81 723.272 546.011 722.147 546.011Z" fill="black"/>
<path d="M659.253 591.316C668.748 591.837 669.077 586.87 668.528 585.828C667.979 584.785 663.342 582.782 659.253 591.316Z" fill="black"/>
<path d="M799.009 589.422L795.359 585.663C793.356 587.085 791.796 589.045 790.859 591.316C793.719 591.785 796.648 591.105 799.009 589.422Z" fill="black"/>
<path d="M725.111 624.244C734.605 624.766 734.935 619.799 734.386 618.756C733.837 617.714 729.2 615.71 725.111 624.244Z" fill="black"/>
<path d="M725.111 558.387C734.605 558.908 734.935 553.942 734.386 552.899C733.837 551.856 729.2 549.853 725.111 558.387Z" fill="black"/>
<path d="M775.876 585.91C775.327 586.87 775.684 591.837 785.151 591.398C780.953 582.782 776.452 584.922 775.876 585.91Z" fill="black"/>
<path d="M775.876 651.768C775.684 652.464 775.718 653.205 775.975 653.88C776.231 654.556 776.697 655.133 777.303 655.527C779.638 656.997 782.422 657.582 785.151 657.173C784.892 656.607 784.599 656.057 784.273 655.527C780.349 648.941 776.425 650.835 775.876 651.768Z" fill="black"/>
<path d="M710.019 618.839C709.47 619.799 709.826 624.766 719.294 624.327C715.095 615.711 710.595 617.851 710.019 618.839Z" fill="black"/>
<path d="M710.019 552.981C709.47 553.942 709.826 558.908 719.294 558.469C715.095 549.853 710.595 551.993 710.019 552.981Z" fill="black"/>
<path d="M656.29 776.513C655.165 776.513 651.049 779.257 656.29 787.242C661.531 779.312 657.415 776.513 656.29 776.513Z" fill="black"/>
<path d="M788.005 776.513C787.182 776.513 784.822 777.994 785.563 781.809C786.715 783.043 787.868 784.278 789.048 785.486C792.615 778.9 789.048 776.513 788.005 776.513Z" fill="black"/>
<path d="M656.29 842.37C655.165 842.37 651.049 845.114 656.29 853.099C661.531 845.169 657.415 842.37 656.29 842.37Z" fill="black"/>
<path d="M853.862 809.441C852.737 809.441 848.621 812.185 853.862 820.171C859.104 812.24 854.988 809.441 853.862 809.441Z" fill="black"/>
<path d="M656.29 710.655C655.165 710.655 651.049 713.399 656.29 721.384C661.531 713.454 657.415 710.655 656.29 710.655Z" fill="black"/>
<path d="M788.005 710.655C786.88 710.655 782.764 713.399 788.005 721.384C793.246 713.454 789.13 710.655 788.005 710.655Z" fill="black"/>
<path d="M722.147 743.584C721.022 743.584 716.906 746.328 722.147 754.313C727.389 746.383 723.272 743.584 722.147 743.584Z" fill="black"/>
<path d="M853.862 743.584C852.737 743.584 848.621 746.328 853.862 754.313C859.104 746.383 854.988 743.584 853.862 743.584Z" fill="black"/>
<path d="M722.147 677.726C721.022 677.726 716.906 680.47 722.147 688.456C727.389 680.525 723.272 677.726 722.147 677.726Z" fill="black"/>
<path d="M853.862 677.726C852.737 677.726 848.621 680.47 853.862 688.456C859.104 680.525 854.988 677.726 853.862 677.726Z" fill="black"/>
<path d="M659.253 788.888C668.748 789.41 669.077 784.443 668.528 783.4C667.979 782.357 663.342 780.354 659.253 788.888Z" fill="black"/>
<path d="M791.38 787.9L792.368 788.916C800.353 788.916 800.6 784.388 800.134 783.428C799.667 782.467 795.414 780.546 791.38 787.9Z" fill="black"/>
<path d="M666.333 848.352C665.133 848.328 663.964 848.737 663.04 849.505C662.481 849.948 661.966 850.444 661.504 850.986C660.952 851.649 660.457 852.356 660.022 853.099C660.03 853.154 660.03 853.209 660.022 853.264C659.775 853.703 659.5 854.197 659.253 854.746C661.982 855.159 664.769 854.575 667.101 853.099C667.296 852.949 667.48 852.784 667.65 852.605C667.924 852.31 668.155 851.978 668.336 851.618C668.604 851.302 668.767 850.912 668.804 850.5C668.841 850.088 668.749 849.675 668.542 849.317C668.334 848.959 668.021 848.674 667.645 848.502C667.27 848.329 666.849 848.277 666.443 848.352H666.333Z" fill="black"/>
<path d="M856.826 821.817C866.293 822.338 866.65 817.372 866.101 816.329C865.552 815.286 860.915 813.283 856.826 821.817Z" fill="black"/>
<path d="M659.253 723.031C668.748 723.552 669.077 718.585 668.528 717.543C667.979 716.5 663.342 714.497 659.253 723.031Z" fill="black"/>
<path d="M800.134 717.625C799.557 716.637 795.057 714.497 790.859 723.113C800.326 723.552 800.682 718.585 800.134 717.625Z" fill="black"/>
<path d="M725.111 755.96C725.906 756.001 726.703 756.001 727.498 755.96C727.498 754.588 727.635 753.216 727.69 751.953C726.651 753.164 725.784 754.512 725.111 755.96Z" fill="black"/>
<path d="M856.826 755.96C866.293 756.481 866.65 751.514 866.101 750.471C865.552 749.429 860.915 747.426 856.826 755.96Z" fill="black"/>
<path d="M725.111 690.102C734.605 690.623 734.935 685.657 734.386 684.614C733.837 683.571 729.2 681.568 725.111 690.102Z" fill="black"/>
<path d="M856.826 690.102C866.293 690.623 866.65 685.657 866.101 684.614C865.552 683.571 860.915 681.568 856.826 690.102Z" fill="black"/>
<path d="M714.93 821.598L716.44 817.509C713.257 814.216 710.458 815.643 710.019 816.411C709.579 817.18 709.717 820.637 714.93 821.598Z" fill="black"/>
<path d="M907.591 783.483C907.386 784.268 907.456 785.1 907.791 785.839C908.126 786.578 908.704 787.18 909.43 787.544C910.006 785.952 910.5 784.306 910.966 782.632C910.382 782.434 909.752 782.409 909.153 782.56C908.555 782.711 908.012 783.031 907.591 783.483Z" fill="black"/>
<path d="M841.734 816.411C841.157 817.372 841.542 822.339 851.009 821.9C846.81 813.283 842.31 815.424 841.734 816.411Z" fill="black"/>
<path d="M775.876 717.625C775.327 718.585 775.684 723.552 785.151 723.113C780.953 714.497 776.452 716.637 775.876 717.625Z" fill="black"/>
<path d="M710.019 750.554C709.47 751.514 709.826 756.481 719.294 756.042C715.095 747.426 710.595 749.566 710.019 750.554Z" fill="black"/>
<path d="M841.734 750.554C841.157 751.514 841.542 756.481 851.009 756.042C846.81 747.426 842.31 749.566 841.734 750.554Z" fill="black"/>
<path d="M710.019 684.696C709.47 685.657 709.826 690.623 719.294 690.184C715.095 681.568 710.595 683.708 710.019 684.696Z" fill="black"/>
<path d="M841.734 684.696C841.157 685.657 841.542 690.623 851.009 690.184C846.81 681.568 842.31 683.708 841.734 684.696Z" fill="black"/>
<path d="M798.707 655.527C799.313 655.133 799.778 654.556 800.035 653.881C800.291 653.205 800.326 652.464 800.134 651.768C799.585 650.835 795.661 649.023 791.737 655.527C791.411 656.057 791.118 656.607 790.859 657.173C793.588 657.587 796.374 657.002 798.707 655.527Z" fill="black"/>
<path d="M666.992 655.527C667.598 655.133 668.063 654.556 668.32 653.881C668.576 653.205 668.611 652.464 668.419 651.768C667.87 650.835 663.946 649.023 660.022 655.527C659.696 656.057 659.402 656.607 659.144 657.173C661.872 657.587 664.659 657.002 666.992 655.527Z" fill="black"/>
<path d="M656.29 974.085C655.165 974.085 651.049 976.829 656.29 984.815C661.531 976.884 657.415 974.085 656.29 974.085Z" fill="black"/>
<path d="M656.29 1039.94C655.165 1039.94 651.049 1042.69 656.29 1050.67C661.531 1042.74 657.415 1039.94 656.29 1039.94Z" fill="black"/>
<path d="M722.147 1007.01C721.022 1007.01 716.906 1009.76 722.147 1017.74C727.389 1009.81 723.272 1007.01 722.147 1007.01Z" fill="black"/>
<path d="M656.29 908.228C655.165 908.228 651.049 910.972 656.29 918.957C661.531 911.027 657.415 908.228 656.29 908.228Z" fill="black"/>
<path d="M722.147 941.156C721.022 941.156 716.906 943.901 722.147 951.886C727.389 943.955 723.272 941.156 722.147 941.156Z" fill="black"/>
<path d="M659.253 986.461C668.748 986.982 669.077 982.016 668.528 980.973C667.979 979.93 663.342 977.927 659.253 986.461Z" fill="black"/>
<path d="M666.333 1045.92H665.757C665.049 1045.98 664.363 1046.19 663.754 1046.56L663.04 1047.05C661.819 1048.05 660.795 1049.27 660.022 1050.64C659.696 1051.18 659.402 1051.72 659.144 1052.29C661.872 1052.7 664.659 1052.12 666.992 1050.64C667.598 1050.25 668.063 1049.67 668.32 1049C668.576 1048.32 668.611 1047.58 668.419 1046.89C668.161 1046.58 667.841 1046.34 667.481 1046.18C667.121 1046.01 666.729 1045.92 666.333 1045.92Z" fill="black"/>
<path d="M725.111 1019.39C734.605 1019.91 734.935 1014.94 734.386 1013.9C733.837 1012.86 729.2 1010.86 725.111 1019.39Z" fill="black"/>
<path d="M659.253 920.603C668.748 921.125 669.077 916.158 668.528 915.115C667.979 914.073 663.342 912.069 659.253 920.603Z" fill="black"/>
<path d="M725.111 953.532C734.605 954.054 734.935 949.087 734.386 948.044C733.837 947.001 729.2 944.998 725.111 953.532Z" fill="black"/>
<path d="M710.019 1013.98C709.47 1014.94 709.826 1019.91 719.294 1019.47C715.095 1010.86 710.595 1013 710.019 1013.98Z" fill="black"/>
<path d="M710.019 948.126C709.47 949.087 709.826 954.054 719.294 953.615C715.095 944.998 710.595 947.139 710.019 948.126Z" fill="black"/>
<path d="M722.147 1072.87C721.022 1072.87 716.906 1075.62 722.147 1083.6C727.389 1075.67 723.272 1072.87 722.147 1072.87Z" fill="black"/>
<path d="M725.111 1085.25C734.605 1085.77 734.935 1080.8 734.386 1079.76C733.837 1078.72 729.2 1076.71 725.111 1085.25Z" fill="black"/>
<path d="M710.019 1079.84C709.47 1080.8 709.826 1085.77 719.294 1085.33C715.095 1076.71 710.595 1078.85 710.019 1079.84Z" fill="black"/>
<path d="M524.575 447.225C523.45 447.225 519.333 449.969 524.575 457.954C529.816 450.024 525.7 447.225 524.575 447.225Z" fill="black"/>
<path d="M460.281 415.202C460.281 416.683 460.501 418.742 460.665 421.321C461.187 420.369 461.428 419.289 461.36 418.206C461.292 417.122 460.918 416.081 460.281 415.202Z" fill="black"/>
<path d="M534.618 453.207C533.417 453.183 532.248 453.592 531.325 454.36C530.766 454.802 530.251 455.299 529.788 455.841C529.237 456.504 528.741 457.21 528.307 457.954V458.119C528.06 458.558 527.785 459.052 527.538 459.601C530.267 460.014 533.054 459.429 535.386 457.954C535.581 457.804 535.765 457.638 535.935 457.46C536.209 457.165 536.44 456.832 536.621 456.472C536.815 456.129 536.932 455.748 536.966 455.355C536.999 454.962 536.947 454.566 536.813 454.195C536.546 453.874 536.21 453.619 535.83 453.447C535.449 453.276 535.035 453.194 534.618 453.207Z" fill="black"/>
<path d="M461.681 426.672C471.175 427.193 471.504 422.227 470.956 421.184C470.407 420.141 465.769 418.138 461.681 426.672Z" fill="black"/>
<path d="M395.384 581.986C395.335 581.566 395.215 581.157 395.027 580.778C394.948 580.608 394.856 580.442 394.753 580.285C394.579 580.017 394.366 579.777 394.122 579.571C393.925 579.401 393.702 579.262 393.463 579.159C393.294 579.071 393.106 579.024 392.914 579.024C392.723 579.024 392.535 579.071 392.366 579.159C391.103 579.708 389.045 581.904 391.35 587.008C391.807 587.958 392.33 588.874 392.914 589.752C393.499 588.874 394.022 587.958 394.479 587.008C395.126 585.72 395.482 584.305 395.521 582.864C395.536 582.608 395.536 582.352 395.521 582.096L395.384 581.986Z" fill="black"/>
<path d="M524.575 578.94C523.45 578.94 519.333 581.684 524.575 589.669C529.816 581.739 525.7 578.94 524.575 578.94Z" fill="black"/>
<path d="M524.575 644.798C523.45 644.798 519.333 647.542 524.575 655.527C529.816 647.597 525.7 644.798 524.575 644.798Z" fill="black"/>
<path d="M395.384 647.843C395.335 647.423 395.215 647.015 395.027 646.636C394.948 646.465 394.856 646.3 394.753 646.142C394.579 645.875 394.366 645.634 394.122 645.429C393.925 645.259 393.702 645.12 393.463 645.017C393.294 644.928 393.106 644.882 392.914 644.882C392.723 644.882 392.535 644.928 392.366 645.017C391.103 645.566 389.045 647.761 391.35 652.865C391.807 653.815 392.33 654.732 392.914 655.609C393.499 654.732 394.022 653.815 394.479 652.865C395.126 651.577 395.482 650.163 395.521 648.722C395.536 648.466 395.536 648.209 395.521 647.953L395.384 647.843Z" fill="black"/>
<path d="M458.717 611.869C457.592 611.869 453.476 614.613 458.717 622.598C463.958 614.668 459.842 611.869 458.717 611.869Z" fill="black"/>
<path d="M590.432 611.869C589.307 611.869 585.191 614.613 590.432 622.598C595.673 614.668 591.557 611.869 590.432 611.869Z" fill="black"/>
<path d="M524.575 513.083C523.45 513.083 519.333 515.827 524.575 523.812C529.816 515.881 525.7 513.083 524.575 513.083Z" fill="black"/>
<path d="M458.717 546.011C457.592 546.011 453.476 548.755 458.717 556.741C463.958 548.81 459.842 546.011 458.717 546.011Z" fill="black"/>
<path d="M590.432 546.011C589.307 546.011 585.191 548.755 590.432 556.741C595.673 548.81 591.557 546.011 590.432 546.011Z" fill="black"/>
<path d="M395.823 591.316C405.318 591.837 405.647 586.87 405.098 585.828C404.549 584.785 399.912 582.782 395.823 591.316Z" fill="black"/>
<path d="M527.538 591.316C537.005 591.837 537.362 586.87 536.813 585.828C536.264 584.785 531.627 582.782 527.538 591.316Z" fill="black"/>
<path d="M461.681 624.244C471.175 624.766 471.504 619.799 470.956 618.756C470.407 617.714 465.769 615.71 461.681 624.244Z" fill="black"/>
<path d="M593.396 624.244C602.863 624.766 603.22 619.799 602.671 618.756C602.122 617.714 597.484 615.71 593.396 624.244Z" fill="black"/>
<path d="M527.538 525.458C537.005 525.98 537.362 521.013 536.813 519.97C536.264 518.927 531.627 516.924 527.538 525.458Z" fill="black"/>
<path d="M461.681 558.387C471.175 558.908 471.504 553.942 470.956 552.899C470.407 551.856 465.769 549.853 461.681 558.387Z" fill="black"/>
<path d="M593.396 558.387C602.863 558.908 603.22 553.942 602.671 552.899C602.122 551.856 597.484 549.853 593.396 558.387Z" fill="black"/>
<path d="M470.846 487.124C470.297 486.191 466.291 484.38 462.312 491.102C462.312 491.596 462.312 492.063 462.312 492.529C471.038 492.914 471.395 488.057 470.846 487.124Z" fill="black"/>
<path d="M512.446 585.91C511.897 586.87 512.254 591.837 521.721 591.398C517.522 582.782 513.022 584.922 512.446 585.91Z" fill="black"/>
<path d="M512.446 651.768C512.254 652.464 512.288 653.205 512.545 653.88C512.801 654.556 513.266 655.133 513.873 655.527C516.207 656.997 518.992 657.582 521.721 657.173C521.462 656.607 521.169 656.057 520.843 655.527C516.919 648.941 512.995 650.835 512.446 651.768Z" fill="black"/>
<path d="M446.588 618.839C446.04 619.799 446.396 624.766 455.863 624.327C451.665 615.711 447.165 617.851 446.588 618.839Z" fill="black"/>
<path d="M644.161 585.91C643.585 586.87 643.969 591.837 653.436 591.398C649.238 582.782 644.737 584.922 644.161 585.91Z" fill="black"/>
<path d="M652.558 655.527C648.634 648.941 644.71 650.835 644.161 651.768C643.969 652.464 644.003 653.205 644.26 653.88C644.516 654.556 644.982 655.133 645.588 655.527C647.921 657.002 650.707 657.587 653.436 657.173C653.177 656.607 652.884 656.057 652.558 655.527Z" fill="black"/>
<path d="M578.303 618.839C577.727 619.799 578.111 624.766 587.578 624.327C583.38 615.711 578.88 617.851 578.303 618.839Z" fill="black"/>
<path d="M512.446 520.052C511.897 521.013 512.254 525.98 521.721 525.541C517.522 516.924 513.022 519.065 512.446 520.052Z" fill="black"/>
<path d="M446.588 552.981C446.04 553.942 446.396 558.908 455.863 558.469C451.665 549.853 447.165 551.993 446.588 552.981Z" fill="black"/>
<path d="M578.303 552.981C577.727 553.942 578.111 558.908 587.578 558.469C583.38 549.853 578.88 551.993 578.303 552.981Z" fill="black"/>
<path d="M582.42 492.118C582.173 491.349 581.926 490.609 581.706 489.813C581.487 489.017 581.102 487.425 580.828 486.136C580.359 486.083 579.883 486.145 579.444 486.318C579.004 486.49 578.612 486.766 578.303 487.124C577.864 487.864 578.002 490.993 582.42 492.118Z" fill="black"/>
<path d="M520.843 457.954C520.408 457.21 519.912 456.504 519.361 455.841C518.905 455.292 518.39 454.795 517.824 454.359C516.901 453.592 515.732 453.183 514.531 453.207C514.133 453.21 513.74 453.3 513.38 453.471C513.02 453.642 512.701 453.889 512.446 454.195C512.312 454.566 512.26 454.962 512.294 455.355C512.327 455.748 512.444 456.129 512.638 456.472C512.819 456.832 513.05 457.165 513.324 457.46L513.873 457.954C516.207 459.425 518.992 460.009 521.721 459.601C521.474 459.052 521.2 458.558 520.953 458.119L520.843 457.954Z" fill="black"/>
<path d="M395.384 779.558C395.335 779.138 395.215 778.73 395.027 778.351C394.948 778.18 394.856 778.015 394.753 777.857C394.579 777.59 394.366 777.349 394.122 777.144C393.925 776.974 393.702 776.835 393.463 776.732C393.294 776.643 393.106 776.597 392.914 776.597C392.723 776.597 392.535 776.643 392.366 776.732C391.103 777.281 389.045 779.476 391.35 784.58C391.807 785.53 392.33 786.447 392.914 787.324C393.499 786.447 394.022 785.53 394.479 784.58C395.126 783.292 395.482 781.878 395.521 780.437C395.536 780.181 395.536 779.924 395.521 779.668L395.384 779.558Z" fill="black"/>
<path d="M524.575 776.513C523.45 776.513 519.333 779.257 524.575 787.242C529.816 779.312 525.7 776.513 524.575 776.513Z" fill="black"/>
<path d="M524.575 842.37C523.45 842.37 519.333 845.114 524.575 853.099C529.816 845.169 525.7 842.37 524.575 842.37Z" fill="black"/>
<path d="M395.384 845.416C395.335 844.996 395.215 844.588 395.027 844.209C394.948 844.038 394.856 843.873 394.753 843.715C394.579 843.447 394.366 843.207 394.122 843.001C393.925 842.831 393.702 842.692 393.463 842.59C393.295 842.498 393.106 842.451 392.914 842.451C392.723 842.451 392.534 842.498 392.366 842.59C391.103 843.139 389.045 845.334 391.35 850.438C391.807 851.388 392.33 852.305 392.914 853.182C393.499 852.305 394.022 851.388 394.479 850.438C395.126 849.15 395.482 847.735 395.521 846.294C395.536 846.038 395.536 845.782 395.521 845.526L395.384 845.416Z" fill="black"/>
<path d="M458.717 809.441C457.592 809.441 453.476 812.185 458.717 820.171C463.958 812.24 459.842 809.441 458.717 809.441Z" fill="black"/>
<path d="M590.432 809.441C589.307 809.441 585.191 812.185 590.432 820.171C595.673 812.24 591.557 809.441 590.432 809.441Z" fill="black"/>
<path d="M395.384 713.701C395.335 713.281 395.215 712.872 395.027 712.494C394.948 712.323 394.856 712.158 394.753 712C394.579 711.732 394.366 711.492 394.122 711.286C393.925 711.116 393.702 710.977 393.463 710.875C393.294 710.786 393.106 710.739 392.914 710.739C392.723 710.739 392.535 710.786 392.366 710.875C391.103 711.423 389.045 713.619 391.35 718.723C391.807 719.673 392.33 720.59 392.914 721.467C393.499 720.59 394.022 719.673 394.479 718.723C395.126 717.435 395.482 716.02 395.521 714.579C395.536 714.323 395.536 714.067 395.521 713.811L395.384 713.701Z" fill="black"/>
<path d="M524.575 710.655C523.45 710.655 519.333 713.399 524.575 721.384C529.816 713.454 525.7 710.655 524.575 710.655Z" fill="black"/>
<path d="M458.717 743.584C457.592 743.584 453.476 746.328 458.717 754.313C463.958 746.383 459.842 743.584 458.717 743.584Z" fill="black"/>
<path d="M590.432 743.584C589.307 743.584 585.191 746.328 590.432 754.313C595.673 746.383 591.557 743.584 590.432 743.584Z" fill="black"/>
<path d="M458.717 677.726C457.592 677.726 453.476 680.47 458.717 688.456C463.958 680.525 459.842 677.726 458.717 677.726Z" fill="black"/>
<path d="M590.432 677.726C589.307 677.726 585.191 680.47 590.432 688.456C595.673 680.525 591.557 677.726 590.432 677.726Z" fill="black"/>
<path d="M395.823 788.888C405.318 789.41 405.647 784.443 405.098 783.4C404.549 782.357 399.912 780.354 395.823 788.888Z" fill="black"/>
<path d="M527.538 788.888C537.005 789.41 537.362 784.443 536.813 783.4C536.264 782.357 531.627 780.354 527.538 788.888Z" fill="black"/>
<path d="M534.618 848.352C533.417 848.328 532.248 848.737 531.325 849.505C530.766 849.948 530.251 850.444 529.788 850.987C529.237 851.649 528.741 852.356 528.307 853.099V853.264C528.06 853.703 527.785 854.197 527.538 854.746C530.267 855.159 533.054 854.575 535.386 853.099C535.581 852.949 535.765 852.784 535.935 852.605C536.209 852.31 536.44 851.978 536.621 851.618C536.815 851.274 536.932 850.893 536.966 850.5C536.999 850.107 536.947 849.711 536.813 849.34C536.546 849.019 536.21 848.764 535.83 848.593C535.449 848.421 535.035 848.339 534.618 848.352Z" fill="black"/>
<path d="M402.903 848.352C401.702 848.328 400.533 848.737 399.61 849.505C399.051 849.948 398.536 850.444 398.073 850.986C397.522 851.649 397.026 852.356 396.592 853.099V853.264C396.345 853.703 396.07 854.197 395.823 854.746C398.552 855.159 401.338 854.575 403.671 853.099C403.866 852.949 404.05 852.784 404.22 852.605C404.494 852.31 404.725 851.978 404.906 851.618C405.174 851.302 405.337 850.912 405.374 850.5C405.411 850.088 405.319 849.675 405.111 849.317C404.904 848.959 404.591 848.674 404.215 848.502C403.839 848.329 403.419 848.277 403.013 848.352H402.903Z" fill="black"/>
<path d="M461.681 821.817C471.175 822.338 471.504 817.372 470.956 816.329C470.407 815.286 465.769 813.283 461.681 821.817Z" fill="black"/>
<path d="M593.396 821.817C602.863 822.338 603.22 817.372 602.671 816.329C602.122 815.286 597.484 813.283 593.396 821.817Z" fill="black"/>
<path d="M395.823 723.031C405.318 723.552 405.647 718.585 405.098 717.543C404.549 716.5 399.912 714.497 395.823 723.031Z" fill="black"/>
<path d="M527.538 723.031C537.005 723.552 537.362 718.585 536.813 717.543C536.264 716.5 531.627 714.497 527.538 723.031Z" fill="black"/>
<path d="M461.681 755.96C471.175 756.481 471.504 751.514 470.956 750.471C470.407 749.429 465.769 747.426 461.681 755.96Z" fill="black"/>
<path d="M593.396 755.96C602.863 756.481 603.22 751.514 602.671 750.471C602.122 749.429 597.484 747.426 593.396 755.96Z" fill="black"/>
<path d="M461.681 690.102C471.175 690.623 471.504 685.657 470.956 684.614C470.407 683.571 465.769 681.568 461.681 690.102Z" fill="black"/>
<path d="M593.396 690.102C602.863 690.623 603.22 685.657 602.671 684.614C602.122 683.571 597.484 681.568 593.396 690.102Z" fill="black"/>
<path d="M512.446 783.483C511.897 784.443 512.254 789.41 521.721 788.971C517.522 780.354 513.022 782.495 512.446 783.483Z" fill="black"/>
<path d="M446.588 816.411C446.04 817.372 446.396 822.339 455.863 821.9C451.665 813.283 447.165 815.424 446.588 816.411Z" fill="black"/>
<path d="M644.161 783.483C643.585 784.443 643.969 789.41 653.436 788.971C649.238 780.354 644.737 782.495 644.161 783.483Z" fill="black"/>
<path d="M578.303 816.411C577.727 817.372 578.111 822.339 587.578 821.9C583.38 813.283 578.88 815.424 578.303 816.411Z" fill="black"/>
<path d="M408.418 861.332C408.418 861.332 479.764 879.635 569.385 810.127C659.006 740.62 693.801 768.033 690.124 817.427C686.447 866.82 609.641 912.563 576.712 918.051C522.571 927.079 474.276 941.842 408.418 861.332Z" fill="black"/>
<path d="M512.446 717.625C511.897 718.585 512.254 723.552 521.721 723.113C517.522 714.497 513.022 716.637 512.446 717.625Z" fill="black"/>
<path d="M446.588 750.554C446.04 751.514 446.396 756.481 455.863 756.042C451.665 747.426 447.165 749.566 446.588 750.554Z" fill="black"/>
<path d="M644.161 717.625C643.585 718.585 643.969 723.552 653.436 723.113C649.238 714.497 644.737 716.637 644.161 717.625Z" fill="black"/>
<path d="M578.303 750.554C577.727 751.514 578.111 756.481 587.578 756.042C583.38 747.426 578.88 749.566 578.303 750.554Z" fill="black"/>
<path d="M446.588 684.696C446.04 685.657 446.396 690.623 455.863 690.184C451.665 681.568 447.165 683.708 446.588 684.696Z" fill="black"/>
<path d="M578.303 684.696C577.727 685.657 578.111 690.623 587.578 690.184C583.38 681.568 578.88 683.708 578.303 684.696Z" fill="black"/>
<path d="M535.277 655.527C535.883 655.133 536.348 654.556 536.605 653.881C536.861 653.205 536.896 652.464 536.703 651.768C536.155 650.835 532.231 649.023 528.307 655.527C527.981 656.057 527.687 656.607 527.429 657.173C530.157 657.587 532.944 657.002 535.277 655.527Z" fill="black"/>
<path d="M403.561 655.527C404.168 655.133 404.633 654.556 404.89 653.881C405.146 653.205 405.181 652.464 404.988 651.768C404.44 650.835 400.516 649.023 396.592 655.527C396.266 656.057 395.972 656.607 395.713 657.173C398.442 657.587 401.229 657.002 403.561 655.527Z" fill="black"/>
<path d="M395.384 977.131C395.335 976.711 395.215 976.303 395.027 975.924C394.948 975.753 394.856 975.588 394.753 975.43C394.579 975.162 394.366 974.922 394.122 974.716C393.925 974.546 393.702 974.408 393.463 974.305C393.295 974.213 393.106 974.166 392.914 974.166C392.723 974.166 392.534 974.213 392.366 974.305C391.103 974.854 389.045 977.049 391.35 982.153C391.807 983.103 392.33 984.02 392.914 984.897C393.499 984.02 394.022 983.103 394.479 982.153C395.126 980.865 395.482 979.45 395.521 978.009C395.536 977.753 395.536 977.497 395.521 977.241L395.384 977.131Z" fill="black"/>
<path d="M524.575 974.085C523.45 974.085 519.333 976.829 524.575 984.815C529.816 976.884 525.7 974.085 524.575 974.085Z" fill="black"/>
<path d="M524.575 1039.94C523.45 1039.94 519.333 1042.69 524.575 1050.67C529.816 1042.74 525.7 1039.94 524.575 1039.94Z" fill="black"/>
<path d="M395.384 1042.99C395.335 1042.57 395.215 1042.16 395.027 1041.78C394.948 1041.61 394.856 1041.45 394.753 1041.29C394.579 1041.02 394.366 1040.78 394.122 1040.57C393.925 1040.4 393.702 1040.27 393.463 1040.16C393.295 1040.07 393.106 1040.02 392.914 1040.02C392.723 1040.02 392.534 1040.07 392.366 1040.16C391.103 1040.71 389.045 1042.91 391.35 1048.01C391.807 1048.96 392.33 1049.88 392.914 1050.75C393.499 1049.88 394.022 1048.96 394.479 1048.01C395.126 1046.72 395.482 1045.31 395.521 1043.87C395.536 1043.61 395.536 1043.35 395.521 1043.1L395.384 1042.99Z" fill="black"/>
<path d="M458.717 1007.01C457.592 1007.01 453.476 1009.76 458.717 1017.74C463.958 1009.81 459.842 1007.01 458.717 1007.01Z" fill="black"/>
<path d="M590.432 1007.01C589.307 1007.01 585.191 1009.76 590.432 1017.74C595.673 1009.81 591.557 1007.01 590.432 1007.01Z" fill="black"/>
<path d="M395.384 911.274C395.335 910.854 395.215 910.445 395.027 910.066C394.948 909.895 394.856 909.73 394.753 909.572C394.579 909.305 394.366 909.065 394.122 908.859C393.925 908.689 393.702 908.55 393.463 908.447C393.295 908.356 393.106 908.308 392.914 908.308C392.723 908.308 392.534 908.356 392.366 908.447C391.103 908.996 389.045 911.191 391.35 916.295C391.807 917.245 392.33 918.162 392.914 919.039C393.499 918.162 394.022 917.245 394.479 916.295C395.126 915.007 395.482 913.593 395.521 912.152C395.536 911.896 395.536 911.639 395.521 911.383L395.384 911.274Z" fill="black"/>
<path d="M524.575 908.228C523.45 908.228 519.333 910.972 524.575 918.957C529.816 911.027 525.7 908.228 524.575 908.228Z" fill="black"/>
<path d="M458.717 941.156C457.592 941.156 453.476 943.901 458.717 951.886C463.958 943.955 459.842 941.156 458.717 941.156Z" fill="black"/>
<path d="M590.432 941.156C589.307 941.156 585.191 943.901 590.432 951.886C595.673 943.955 591.557 941.156 590.432 941.156Z" fill="black"/>
<path d="M458.717 875.299C457.592 875.299 453.476 878.043 458.717 886.028C463.958 878.098 459.842 875.299 458.717 875.299Z" fill="black"/>
<path d="M590.432 875.299C589.307 875.299 585.191 878.043 590.432 886.028C595.673 878.098 591.557 875.299 590.432 875.299Z" fill="black"/>
<path d="M395.823 986.461C405.318 986.982 405.647 982.016 405.098 980.973C404.549 979.93 399.912 977.927 395.823 986.461Z" fill="black"/>
<path d="M527.538 986.461C537.005 986.982 537.362 982.016 536.813 980.973C536.264 979.93 531.627 977.927 527.538 986.461Z" fill="black"/>
<path d="M534.618 1045.92H534.042C533.334 1045.98 532.648 1046.19 532.039 1046.56L531.325 1047.05C530.104 1048.05 529.08 1049.27 528.307 1050.64C527.981 1051.18 527.687 1051.72 527.429 1052.29C530.157 1052.7 532.944 1052.12 535.277 1050.64C535.883 1050.25 536.348 1049.67 536.605 1049C536.861 1048.32 536.896 1047.58 536.703 1046.89C536.446 1046.58 536.126 1046.34 535.766 1046.18C535.406 1046.01 535.014 1045.92 534.618 1045.92Z" fill="black"/>
<path d="M402.903 1045.92H402.327C401.619 1045.98 400.933 1046.19 400.323 1046.56L399.61 1047.05C398.389 1048.05 397.365 1049.27 396.592 1050.64C396.266 1051.18 395.972 1051.72 395.713 1052.29C398.442 1052.7 401.229 1052.12 403.561 1050.64C404.168 1050.25 404.633 1049.67 404.89 1049C405.146 1048.32 405.181 1047.58 404.988 1046.89C404.731 1046.58 404.411 1046.34 404.051 1046.18C403.691 1046.01 403.299 1045.92 402.903 1045.92Z" fill="black"/>
<path d="M461.681 1019.39C471.175 1019.91 471.504 1014.94 470.956 1013.9C470.407 1012.86 465.769 1010.86 461.681 1019.39Z" fill="black"/>
<path d="M593.396 1019.39C602.863 1019.91 603.22 1014.94 602.671 1013.9C602.122 1012.86 597.484 1010.86 593.396 1019.39Z" fill="black"/>
<path d="M395.823 920.603C405.318 921.125 405.647 916.158 405.098 915.115C404.549 914.073 399.912 912.069 395.823 920.603Z" fill="black"/>
<path d="M527.538 920.603C537.005 921.125 537.362 916.158 536.813 915.115C536.264 914.073 531.627 912.069 527.538 920.603Z" fill="black"/>
<path d="M461.681 953.532C471.175 954.054 471.504 949.087 470.956 948.044C470.407 947.001 465.769 944.998 461.681 953.532Z" fill="black"/>
<path d="M593.396 953.532C602.863 954.054 603.22 949.087 602.671 948.044C602.122 947.001 597.484 944.998 593.396 953.532Z" fill="black"/>
<path d="M461.681 887.675C471.175 888.196 471.504 883.229 470.956 882.187C470.407 881.144 465.769 879.141 461.681 887.675Z" fill="black"/>
<path d="M593.396 887.675C602.863 888.196 603.22 883.229 602.671 882.187C602.122 881.144 597.484 879.141 593.396 887.675Z" fill="black"/>
<path d="M512.446 981.055C511.897 982.016 512.254 986.982 521.721 986.543C517.522 977.927 513.022 980.067 512.446 981.055Z" fill="black"/>
<path d="M517.824 1047.21L517.111 1046.72C516.503 1046.35 515.816 1046.14 515.108 1046.09H514.531C514.133 1046.09 513.74 1046.18 513.38 1046.35C513.02 1046.52 512.701 1046.77 512.446 1047.08C512.254 1047.77 512.288 1048.51 512.545 1049.19C512.801 1049.87 513.266 1050.44 513.873 1050.84C516.207 1052.31 518.992 1052.89 521.721 1052.48C521.462 1051.92 521.169 1051.37 520.843 1050.84C520.081 1049.45 519.056 1048.21 517.824 1047.21Z" fill="black"/>
<path d="M446.588 1013.98C446.04 1014.94 446.396 1019.91 455.863 1019.47C451.665 1010.86 447.165 1013 446.588 1013.98Z" fill="black"/>
<path d="M644.161 981.055C643.585 982.016 643.969 986.982 653.436 986.543C649.238 977.927 644.737 980.067 644.161 981.055Z" fill="black"/>
<path d="M652.558 1050.67C651.784 1049.3 650.761 1048.08 649.539 1047.08L648.826 1046.58C648.217 1046.22 647.531 1046 646.823 1045.95H646.247C645.848 1045.96 645.455 1046.05 645.095 1046.22C644.735 1046.39 644.416 1046.63 644.161 1046.94C643.969 1047.64 644.003 1048.38 644.26 1049.05C644.516 1049.73 644.982 1050.31 645.588 1050.7C647.921 1052.17 650.707 1052.76 653.436 1052.35C653.177 1051.78 652.884 1051.23 652.558 1050.7V1050.67Z" fill="black"/>
<path d="M578.303 1013.98C577.727 1014.94 578.111 1019.91 587.578 1019.47C583.38 1010.86 578.88 1013 578.303 1013.98Z" fill="black"/>
<path d="M512.446 915.198C511.897 916.158 512.254 921.125 521.721 920.686C517.522 912.069 513.022 914.21 512.446 915.198Z" fill="black"/>
<path d="M446.588 948.126C446.04 949.087 446.396 954.054 455.863 953.615C451.665 944.998 447.165 947.139 446.588 948.126Z" fill="black"/>
<path d="M644.161 915.198C643.585 916.158 643.969 921.125 653.436 920.686C649.238 912.069 644.737 914.21 644.161 915.198Z" fill="black"/>
<path d="M578.303 948.126C577.727 949.087 578.111 954.054 587.578 953.615C583.38 944.998 578.88 947.139 578.303 948.126Z" fill="black"/>
<path d="M446.588 882.269C446.04 883.229 446.396 888.196 455.863 887.757C451.665 879.141 447.165 881.281 446.588 882.269Z" fill="black"/>
<path d="M578.303 882.269C577.727 883.229 578.111 888.196 587.578 887.757C583.38 879.141 578.88 881.281 578.303 882.269Z" fill="black"/>
<path d="M520.843 853.099C520.408 852.356 519.912 851.649 519.361 850.986C518.905 850.437 518.39 849.94 517.824 849.505C516.901 848.737 515.732 848.328 514.531 848.352C514.133 848.356 513.74 848.446 513.38 848.616C513.02 848.787 512.701 849.034 512.446 849.34C512.312 849.711 512.26 850.107 512.294 850.5C512.327 850.893 512.444 851.274 512.638 851.618C512.819 851.978 513.05 852.31 513.324 852.605L513.873 853.099C516.207 854.57 518.992 855.154 521.721 854.746C521.474 854.197 521.2 853.703 520.953 853.264L520.843 853.099Z" fill="black"/>
<path d="M652.558 853.099C652.123 852.356 651.627 851.649 651.076 850.986C650.613 850.444 650.099 849.948 649.539 849.505C648.616 848.737 647.447 848.328 646.247 848.352C645.848 848.356 645.455 848.446 645.095 848.616C644.735 848.787 644.416 849.034 644.161 849.34C644.027 849.711 643.975 850.107 644.009 850.5C644.042 850.893 644.159 851.274 644.353 851.618C644.534 851.978 644.765 852.31 645.039 852.605C645.209 852.784 645.393 852.949 645.588 853.099C647.921 854.575 650.707 855.159 653.436 854.746C653.189 854.197 652.915 853.703 652.668 853.264C652.622 853.216 652.585 853.16 652.558 853.099Z" fill="black"/>
<path d="M458.717 1072.87C457.592 1072.87 453.476 1075.62 458.717 1083.6C463.958 1075.67 459.842 1072.87 458.717 1072.87Z" fill="black"/>
<path d="M590.432 1072.87C589.307 1072.87 585.191 1075.62 590.432 1083.6C595.673 1075.67 591.557 1072.87 590.432 1072.87Z" fill="black"/>
<path d="M461.681 1085.25C471.175 1085.77 471.504 1080.8 470.956 1079.76C470.407 1078.72 465.769 1076.71 461.681 1085.25Z" fill="black"/>
<path d="M593.396 1085.25C602.863 1085.77 603.22 1080.8 602.671 1079.76C602.122 1078.72 597.484 1076.71 593.396 1085.25Z" fill="black"/>
<path d="M446.588 1079.84C446.04 1080.8 446.396 1085.77 455.863 1085.33C451.665 1076.71 447.165 1078.85 446.588 1079.84Z" fill="black"/>
<path d="M578.303 1079.84C577.727 1080.8 578.111 1085.77 587.578 1085.33C583.38 1076.71 578.88 1078.85 578.303 1079.84Z" fill="black"/>
<path d="M261.145 644.798C260.019 644.798 255.903 647.542 261.145 655.527C266.386 647.597 262.27 644.798 261.145 644.798Z" fill="black"/>
<path d="M327.002 611.869C325.877 611.869 321.761 614.613 327.002 622.598C332.243 614.668 328.127 611.869 327.002 611.869Z" fill="black"/>
<path d="M329.417 548.536L324.395 549.825C324.563 552.337 325.47 554.743 327.002 556.741C329.554 552.899 329.966 550.237 329.417 548.536Z" fill="black"/>
<path d="M264.108 591.316C273.575 591.837 273.932 586.87 273.383 585.828C272.834 584.785 268.197 582.782 264.108 591.316Z" fill="black"/>
<path d="M329.966 624.244C339.433 624.766 339.789 619.799 339.241 618.756C338.692 617.714 334.054 615.71 329.966 624.244Z" fill="black"/>
<path d="M329.966 558.387C339.433 558.908 339.789 553.942 339.241 552.899C338.692 551.856 334.054 549.853 329.966 558.387Z" fill="black"/>
<path d="M249.016 651.768C248.823 652.464 248.858 653.205 249.114 653.88C249.371 654.556 249.836 655.133 250.443 655.527C252.777 656.997 255.562 657.582 258.291 657.173C258.032 656.607 257.739 656.057 257.413 655.527C253.489 648.941 249.565 650.835 249.016 651.768Z" fill="black"/>
<path d="M380.731 585.91C380.155 586.87 380.539 591.837 390.006 591.398C385.807 582.782 381.307 584.922 380.731 585.91Z" fill="black"/>
<path d="M389.128 655.527C385.204 648.941 381.28 650.835 380.731 651.768C380.538 652.464 380.573 653.205 380.83 653.88C381.086 654.556 381.551 655.133 382.158 655.527C384.49 657.002 387.277 657.587 390.006 657.173C389.747 656.607 389.454 656.057 389.128 655.527Z" fill="black"/>
<path d="M314.873 618.839C314.297 619.799 314.681 624.766 324.148 624.327C319.95 615.711 315.45 617.851 314.873 618.839Z" fill="black"/>
<path d="M316.876 552.021L315.45 552.46C315.222 552.59 315.025 552.768 314.873 552.981C314.297 553.942 314.681 558.908 324.148 558.469C321.486 552.954 318.715 551.856 316.876 552.021Z" fill="black"/>
<path d="M129.429 776.513C128.304 776.513 124.188 779.257 129.429 787.242C134.671 779.312 130.554 776.513 129.429 776.513Z" fill="black"/>
<path d="M195.287 809.441C194.162 809.441 190.046 812.185 195.287 820.171C200.528 812.24 196.412 809.441 195.287 809.441Z" fill="black"/>
<path d="M261.145 710.655C260.019 710.655 255.903 713.399 261.145 721.384C266.386 713.454 262.27 710.655 261.145 710.655Z" fill="black"/>
<path d="M195.287 743.584C194.162 743.584 190.046 746.328 195.287 754.313C200.528 746.383 196.412 743.584 195.287 743.584Z" fill="black"/>
<path d="M327.002 743.584C325.877 743.584 321.761 746.328 327.002 754.313C332.243 746.383 328.127 743.584 327.002 743.584Z" fill="black"/>
<path d="M195.287 677.726C194.162 677.726 190.046 680.47 195.287 688.456C200.528 680.525 196.412 677.726 195.287 677.726Z" fill="black"/>
<path d="M327.002 677.726C325.877 677.726 321.761 680.47 327.002 688.456C332.243 680.525 328.127 677.726 327.002 677.726Z" fill="black"/>
<path d="M132.393 788.888C141.887 789.41 142.244 784.443 141.668 783.4C141.092 782.357 136.482 780.354 132.393 788.888Z" fill="black"/>
<path d="M199.76 819.018C202.202 818.113 204.589 817.097 206.949 815.945C205.797 815.176 202.833 814.655 199.76 819.018Z" fill="black"/>
<path d="M141.558 717.625C141.235 717.212 140.78 716.921 140.268 716.802C138.567 718.97 136.948 721.028 135.549 722.976C141.833 722.317 142.052 718.476 141.558 717.625Z" fill="black"/>
<path d="M264.108 723.031C273.575 723.552 273.932 718.585 273.383 717.543C272.834 716.5 268.197 714.497 264.108 723.031Z" fill="black"/>
<path d="M198.251 755.96C207.745 756.481 208.074 751.514 207.525 750.471C206.977 749.429 202.339 747.426 198.251 755.96Z" fill="black"/>
<path d="M329.966 755.96C339.433 756.481 339.789 751.514 339.241 750.471C338.692 749.429 334.054 747.426 329.966 755.96Z" fill="black"/>
<path d="M198.251 690.102C207.745 690.623 208.074 685.657 207.525 684.614C206.977 683.571 202.339 681.568 198.251 690.102Z" fill="black"/>
<path d="M329.966 690.102C339.433 690.623 339.789 685.657 339.241 684.614C338.692 683.571 334.054 681.568 329.966 690.102Z" fill="black"/>
<path d="M183.158 816.411C182.637 817.289 182.911 821.46 190.128 821.899L192.186 821.433C188.07 813.393 183.734 815.451 183.158 816.411Z" fill="black"/>
<path d="M380.731 783.483C380.155 784.443 380.539 789.41 390.006 788.971C385.807 780.354 381.307 782.495 380.731 783.483Z" fill="black"/>
<path d="M249.016 717.625C248.467 718.585 248.824 723.552 258.291 723.113C254.092 714.497 249.592 716.637 249.016 717.625Z" fill="black"/>
<path d="M183.158 750.554C182.609 751.514 182.966 756.481 192.433 756.042C188.235 747.426 183.734 749.566 183.158 750.554Z" fill="black"/>
<path d="M380.731 717.625C380.155 718.585 380.539 723.552 390.006 723.113C385.807 714.497 381.307 716.637 380.731 717.625Z" fill="black"/>
<path d="M183.158 684.696C182.609 685.657 182.966 690.623 192.433 690.184C188.235 681.568 183.734 683.708 183.158 684.696Z" fill="black"/>
<path d="M314.873 684.696C314.297 685.657 314.681 690.623 324.148 690.184C319.95 681.568 315.45 683.708 314.873 684.696Z" fill="black"/>
<path d="M271.846 655.527C272.453 655.133 272.918 654.556 273.175 653.881C273.431 653.205 273.466 652.464 273.273 651.768C272.724 650.835 268.8 649.023 264.876 655.527C264.55 656.057 264.257 656.607 263.998 657.173C266.727 657.587 269.514 657.002 271.846 655.527Z" fill="black"/>
<path d="M327.002 1007.01C325.877 1007.01 321.761 1009.76 327.002 1017.74C332.243 1009.81 328.127 1007.01 327.002 1007.01Z" fill="black"/>
<path d="M329.115 947.715L326.81 951.584L327.002 951.886C327.89 950.596 328.6 949.193 329.115 947.715Z" fill="black"/>
<path d="M329.966 1019.39C339.433 1019.91 339.789 1014.94 339.241 1013.9C338.692 1012.86 334.054 1010.86 329.966 1019.39Z" fill="black"/>
<path d="M329.966 953.532C339.433 954.054 339.789 949.087 339.241 948.044C338.692 947.001 334.054 944.998 329.966 953.532Z" fill="black"/>
<path d="M380.731 981.055C380.155 982.016 380.539 986.982 390.006 986.543C385.807 977.927 381.307 980.067 380.731 981.055Z" fill="black"/>
<path d="M389.128 1050.67C388.354 1049.3 387.33 1048.08 386.109 1047.08L385.396 1046.58C384.786 1046.22 384.1 1046 383.393 1045.95H382.816C382.418 1045.96 382.025 1046.05 381.665 1046.22C381.305 1046.39 380.986 1046.63 380.731 1046.94C380.538 1047.64 380.573 1048.38 380.83 1049.05C381.086 1049.73 381.551 1050.31 382.158 1050.7C384.49 1052.17 387.277 1052.76 390.006 1052.35C389.747 1051.78 389.454 1051.23 389.128 1050.7V1050.67Z" fill="black"/>
<path d="M314.873 1013.98C314.297 1014.94 314.681 1019.91 324.148 1019.47C319.95 1010.86 315.45 1013 314.873 1013.98Z" fill="black"/>
<path d="M380.731 915.198C380.155 916.158 380.539 921.125 390.006 920.686C385.807 912.069 381.307 914.21 380.731 915.198Z" fill="black"/>
<path d="M389.128 853.099C388.693 852.356 388.197 851.649 387.646 850.986C387.183 850.444 386.668 849.948 386.109 849.505C385.186 848.737 384.017 848.328 382.816 848.352C382.418 848.356 382.025 848.446 381.665 848.616C381.305 848.787 380.986 849.034 380.731 849.34C380.597 849.711 380.545 850.107 380.578 850.5C380.612 850.893 380.729 851.274 380.923 851.618C381.104 851.978 381.335 852.31 381.609 852.605C381.779 852.784 381.963 852.949 382.158 853.099C384.49 854.575 387.277 855.159 390.006 854.746C389.759 854.197 389.484 853.703 389.237 853.264L389.128 853.099Z" fill="black"/>
<path d="M327.002 1072.87C325.877 1072.87 321.761 1075.62 327.002 1083.6C332.243 1075.67 328.127 1072.87 327.002 1072.87Z" fill="black"/>
<path d="M329.966 1085.25C339.433 1085.77 339.789 1080.8 339.241 1079.76C338.692 1078.72 334.054 1076.71 329.966 1085.25Z" fill="black"/>
<path d="M314.873 1079.84C314.297 1080.8 314.681 1085.77 324.148 1085.33C319.95 1076.71 315.45 1078.85 314.873 1079.84Z" fill="black"/>
<path d="M122.981 783.922C123.526 785.618 124.158 787.285 124.874 788.916H126.576C125.742 787.017 124.517 785.315 122.981 783.922Z" fill="black"/>
</g>
</g>
<path d="M764.131 1086.34C764.131 1086.34 769.043 1018.98 739.435 951.584C709.826 884.19 703.158 879.333 703.158 859.603C703.158 839.873 722.971 816.85 726.263 772.479C729.556 728.107 727.91 706.621 727.91 706.621C727.91 706.621 798.569 818.36 847.88 824.945C897.191 831.531 926.772 785.513 908.689 723.058C890.605 660.603 811.714 609.674 780.514 568.567C749.314 527.461 678.599 527.407 642.46 527.407C606.32 527.407 588.237 514.262 581.651 489.621C575.065 464.979 575.093 415.531 575.093 415.531C575.093 415.531 532.34 441.819 460.034 412.238C460.034 412.238 466.62 502.628 458.388 515.772C450.156 528.916 438.74 542.307 389.429 542.307C340.119 542.307 299.04 552.185 276.045 575.236C253.05 598.286 157.721 690.267 133.079 726.433C108.437 762.6 121.554 802.032 151.135 816.823C180.716 831.613 210.297 818.442 231.673 798.74C253.05 779.037 320.416 716.555 320.416 716.555C320.416 716.555 320.416 754.368 338.5 808.591C356.583 862.813 371.428 856.255 358.202 895.687C344.976 935.12 318.77 946.645 310.565 997.574C305.651 1026.89 303.446 1056.6 303.979 1086.32" stroke="#263238" stroke-linecap="round" stroke-linejoin="round"/>
<path d="M320.416 716.582C321.764 698.808 325.407 681.284 331.255 664.445Z" fill="white"/>
<path d="M320.416 716.582C321.764 698.808 325.407 681.284 331.255 664.445" stroke="#263238" stroke-linecap="round" stroke-linejoin="round"/>
<path d="M727.855 706.731C724.236 693.092 719.206 679.867 712.845 667.271" stroke="#263238" stroke-linecap="round" stroke-linejoin="round"/>
<path d="M486.46 888.882L589.966 855.706" stroke="#263238" stroke-linecap="round" stroke-linejoin="round"/>
<path d="M533.328 861.551C557.509 851.821 582.742 844.941 608.516 841.053" stroke="#263238" stroke-linecap="round" stroke-linejoin="round"/>
<path d="M504.461 652.508C586.453 668.314 618.092 589.724 629.096 526.913C601.793 523.894 587.414 511.189 581.706 489.813C575.148 465.116 575.148 415.723 575.148 415.723C575.148 415.723 532.395 442.011 460.089 412.43C460.089 412.43 466.675 502.82 458.443 515.964C452.735 525.129 445.381 534.294 424.801 538.986C424.06 567.195 429.74 638.075 504.461 652.508Z" fill="#FFBE9D"/>
<mask id="mask1_692_479" style="mask-type:luminance" maskUnits="userSpaceOnUse" x="424" y="412" width="206" height="243">
<path d="M504.461 652.508C586.453 668.314 618.092 589.724 629.096 526.913C601.793 523.894 587.414 511.189 581.706 489.813C575.148 465.116 575.148 415.723 575.148 415.723C575.148 415.723 532.395 442.011 460.089 412.43C460.089 412.43 466.675 502.82 458.443 515.964C452.735 525.129 445.381 534.294 424.801 538.986C424.06 567.195 429.74 638.075 504.461 652.508Z" fill="white"/>
</mask>
<g mask="url(#mask1_692_479)">
<path opacity="0.2" d="M579.922 481.69C575.148 455.731 575.148 415.833 575.148 415.833C575.148 415.833 532.395 442.121 460.089 412.54C460.089 412.54 462.833 450.326 462.559 480.593C524.794 502.216 560.796 493.051 579.922 481.69Z" fill="black"/>
</g>
<path d="M504.461 652.508C586.453 668.314 618.092 589.724 629.096 526.913C601.793 523.894 587.414 511.189 581.706 489.813C575.148 465.116 575.148 415.723 575.148 415.723C575.148 415.723 532.395 442.011 460.089 412.43C460.089 412.43 466.675 502.82 458.443 515.964C452.735 525.129 445.381 534.294 424.801 538.986C424.06 567.195 429.74 638.075 504.461 652.508Z" stroke="#263238" stroke-linecap="round" stroke-linejoin="round"/>
<path d="M628.437 384.331C639.683 384.331 648.798 375.215 648.798 363.97C648.798 352.725 639.683 343.609 628.437 343.609C617.192 343.609 608.077 352.725 608.077 363.97C608.077 375.215 617.192 384.331 628.437 384.331Z" fill="#EB5B14" stroke="#263238" stroke-linecap="round" stroke-linejoin="round"/>
<path d="M410.943 384.331C422.188 384.331 431.304 375.215 431.304 363.97C431.304 352.725 422.188 343.609 410.943 343.609C399.698 343.609 390.582 352.725 390.582 363.97C390.582 375.215 399.698 384.331 410.943 384.331Z" fill="#EB5B14" stroke="#263238" stroke-linecap="round" stroke-linejoin="round"/>
<path d="M626.572 294.573C626.572 294.573 636.752 263.098 648.798 274.212C660.845 285.325 645.094 327.886 636.752 338.066C628.41 348.247 620.096 348.247 621.029 334.362C621.962 320.477 626.572 294.573 626.572 294.573Z" fill="#FFBE9D" stroke="#263238" stroke-linecap="round" stroke-linejoin="round"/>
<path d="M416.102 326.239C416.102 326.239 418.846 399.753 472.959 435.81C527.072 471.867 567.272 451.067 589.472 420.553C611.671 390.039 625.556 359.525 625.556 315.153C625.556 270.782 631.044 251.326 615.842 223.584C600.64 195.841 547.872 181.984 547.872 181.984C525.95 209.342 502.322 235.288 477.13 259.668C435.502 299.869 416.102 326.239 416.102 326.239Z" fill="#FFBE9D"/>
<mask id="mask2_692_479" style="mask-type:luminance" maskUnits="userSpaceOnUse" x="416" y="181" width="211" height="274">
<path d="M416.102 326.239C416.102 326.239 418.846 399.753 472.959 435.81C527.072 471.867 567.272 451.067 589.472 420.553C611.671 390.039 625.556 359.525 625.556 315.153C625.556 270.782 631.044 251.326 615.842 223.584C600.64 195.841 547.872 181.984 547.872 181.984C525.95 209.342 502.322 235.288 477.13 259.668C435.502 299.869 416.102 326.239 416.102 326.239Z" fill="white"/>
</mask>
<g mask="url(#mask2_692_479)">
<path opacity="0.2" d="M547.872 181.984C525.95 209.342 502.322 235.288 477.13 259.668C435.502 299.869 416.102 326.239 416.102 326.239C417.107 340.563 419.938 354.699 424.526 368.306C497.628 312.382 537.554 211.894 548.174 182.066L547.872 181.984Z" fill="black"/>
</g>
<path d="M416.102 326.239C416.102 326.239 418.846 399.753 472.959 435.81C527.072 471.867 567.272 451.067 589.472 420.553C611.671 390.039 625.556 359.525 625.556 315.153C625.556 270.782 631.044 251.326 615.842 223.584C600.64 195.841 547.872 181.984 547.872 181.984C525.95 209.342 502.322 235.288 477.13 259.668C435.502 299.869 416.102 326.239 416.102 326.239Z" stroke="#263238" stroke-linecap="round" stroke-linejoin="round"/>
<path d="M467.279 317.595L498.424 320.504" stroke="#263238" stroke-linecap="round" stroke-linejoin="round"/>
<path d="M561.674 316.608C561.674 316.608 582.118 312.711 591.859 316.608" stroke="#263238" stroke-linecap="round" stroke-linejoin="round"/>
<path d="M494.225 303.354C494.225 310.763 490.905 316.772 486.816 316.772C482.728 316.772 479.435 310.763 479.435 303.354C479.435 295.945 482.728 289.935 486.816 289.935C490.905 289.935 494.225 295.945 494.225 303.354Z" fill="#263238"/>
<path d="M510.882 350.222C515.851 353.34 521.699 354.758 527.544 354.263C533.389 353.768 538.915 351.387 543.289 347.478" stroke="#263238" stroke-linecap="round" stroke-linejoin="round"/>
<path d="M519.306 381.559C519.306 381.559 547.982 393.606 564.638 354.723" stroke="#263238" stroke-linecap="round" stroke-linejoin="round"/>
<path d="M556.241 303.82C556.241 303.82 573.831 291.774 591.42 299.183" stroke="#263238" stroke-width="2" stroke-linecap="round" stroke-linejoin="round"/>
<path d="M550.698 273.388C550.698 273.388 570.126 253.96 596.963 269.684" stroke="#263238" stroke-width="2" stroke-linecap="round" stroke-linejoin="round"/>
<path d="M509.043 261.232C509.043 261.232 492.387 244.576 469.227 260.327" stroke="#263238" stroke-width="2" stroke-linecap="round" stroke-linejoin="round"/>
<path d="M133.079 726.461C133.079 726.461 103.498 759.39 103.498 793.828C103.498 828.266 123.2 859.685 177.588 908.859C231.975 958.032 282.74 994.309 304.117 1005.83C325.493 1017.36 346.842 1002.54 346.842 1002.54C346.842 1002.54 382.185 1037.86 386.274 1029.65C390.363 1021.45 373.953 1009.1 370.66 1004.19C367.77 1000.29 364.467 996.707 360.809 993.513C360.809 993.513 378.069 995.955 384.655 1001.75C391.241 1007.54 401.888 1017.36 406.827 1016.54C411.766 1015.71 411.766 1011.6 404.357 1001.75C398.384 994.03 391.17 987.363 383.008 982.016C378.069 978.75 361.632 969.695 361.632 969.695C361.632 969.695 385.451 968.048 393.683 972.988C401.915 977.927 424.087 992.717 425.733 986.132C427.38 979.546 427.38 975.457 419.148 968.048C410.916 960.639 394.451 951.584 384.655 949.965C377.902 948.723 371.292 946.801 364.925 944.23C364.925 944.23 383.832 937.644 390.39 937.644C396.948 937.644 423.319 950.788 430.645 949.169C437.972 947.55 433.938 940.937 428.203 936.821C422.468 932.705 396.976 922.854 386.274 922.03C375.572 921.207 315.614 941.76 308.233 941.76C300.851 941.76 281.945 915.472 262.215 880.128C242.485 844.785 235.103 789.739 193.201 770.86" fill="#EB5B14"/>
<mask id="mask3_692_479" style="mask-type:luminance" maskUnits="userSpaceOnUse" x="103" y="726" width="332" height="305">
<path d="M133.079 726.461C133.079 726.461 103.498 759.39 103.498 793.828C103.498 828.266 123.2 859.685 177.588 908.859C231.975 958.032 282.74 994.309 304.117 1005.83C325.493 1017.36 346.842 1002.54 346.842 1002.54C346.842 1002.54 382.185 1037.86 386.274 1029.65C390.363 1021.45 373.953 1009.1 370.66 1004.19C367.77 1000.29 364.467 996.707 360.809 993.513C360.809 993.513 378.069 995.955 384.655 1001.75C391.241 1007.54 401.888 1017.36 406.827 1016.54C411.766 1015.71 411.766 1011.6 404.357 1001.75C398.384 994.03 391.17 987.363 383.008 982.016C378.069 978.75 361.632 969.695 361.632 969.695C361.632 969.695 385.451 968.048 393.683 972.988C401.915 977.927 424.087 992.717 425.733 986.132C427.38 979.546 427.38 975.457 419.148 968.048C410.916 960.639 394.451 951.584 384.655 949.965C377.902 948.723 371.292 946.801 364.925 944.23C364.925 944.23 383.832 937.644 390.39 937.644C396.948 937.644 423.319 950.788 430.645 949.169C437.972 947.55 433.938 940.937 428.203 936.821C422.468 932.705 396.976 922.854 386.274 922.03C375.572 921.207 315.614 941.76 308.233 941.76C300.851 941.76 281.945 915.472 262.215 880.128C242.485 844.785 235.103 789.739 193.201 770.86" fill="white"/>
</mask>
<g mask="url(#mask3_692_479)">
<g opacity="0.2">
<path d="M129.429 842.37C130.555 842.37 134.671 845.114 129.429 853.099C134.671 845.169 130.555 842.37 129.429 842.37Z" fill="black"/>
<path d="M195.287 809.441C194.162 809.441 190.046 812.185 195.287 820.171C200.528 812.24 196.412 809.441 195.287 809.441Z" fill="black"/>
<path d="M141.558 783.483C140.982 782.495 136.482 780.354 132.283 788.971C141.778 789.41 142.134 784.443 141.558 783.483Z" fill="black"/>
<path d="M140.625 852.605C140.899 852.31 141.13 851.978 141.311 851.618C141.579 851.302 141.742 850.912 141.779 850.5C141.816 850.088 141.724 849.675 141.517 849.317C141.309 848.959 140.996 848.674 140.62 848.502C140.245 848.329 139.824 848.277 139.418 848.352C138.217 848.328 137.048 848.737 136.125 849.505C135.566 849.948 135.051 850.444 134.588 850.986C134.037 851.649 133.541 852.356 133.106 853.099H140.076C140.271 852.949 140.455 852.784 140.625 852.605Z" fill="black"/>
<path d="M207.416 816.411C206.839 815.424 202.339 813.283 198.141 821.9C207.635 822.339 207.965 817.372 207.416 816.411Z" fill="black"/>
<path d="M192.433 821.817C188.235 813.283 183.734 815.423 183.158 816.329C182.582 817.234 182.966 822.338 192.433 821.817Z" fill="black"/>
<path d="M129.429 776.513V787.242C134.671 779.312 130.555 776.513 129.429 776.513Z" fill="black"/>
<path d="M129.429 842.37V853.099C134.671 845.169 130.555 842.37 129.429 842.37Z" fill="black"/>
<path d="M261.145 974.085C260.658 974.186 260.205 974.406 259.826 974.728C259.447 975.049 259.155 975.46 258.977 975.924L263.614 979.326C264.3 975.54 261.968 974.085 261.145 974.085Z" fill="black"/>
<path d="M327.002 1007.01C326.31 1007.18 325.691 1007.57 325.237 1008.12C324.782 1008.67 324.516 1009.35 324.478 1010.06C326.126 1009.93 327.765 1009.71 329.389 1009.4C329.258 1008.82 328.964 1008.28 328.542 1007.86C328.119 1007.44 327.585 1007.15 327.002 1007.01Z" fill="black"/>
<path d="M261.145 908.228C260.019 908.228 255.903 910.972 261.145 918.957C266.386 911.027 262.27 908.228 261.145 908.228Z" fill="black"/>
<path d="M327.002 951.886C332.243 943.955 328.127 941.156 327.002 941.156C325.877 941.156 321.733 943.955 327.002 951.886Z" fill="black"/>
<path d="M195.287 886.028C200.528 878.098 196.412 875.299 195.287 875.299C194.162 875.299 190.018 878.098 195.287 886.028Z" fill="black"/>
<path d="M273.273 981.055C272.834 980.314 270.2 978.915 267.154 981.851C268.636 982.949 270.118 983.991 271.572 985.007C272.26 984.637 272.803 984.045 273.112 983.328C273.421 982.61 273.478 981.809 273.273 981.055Z" fill="black"/>
<path d="M264.108 920.603C273.575 921.125 273.932 916.158 273.383 915.115C272.834 914.073 268.197 912.069 264.108 920.603Z" fill="black"/>
<path d="M329.966 953.532C339.433 954.054 339.789 949.087 339.241 948.044C338.692 947.001 334.054 944.998 329.966 953.532Z" fill="black"/>
<path d="M198.251 887.675C207.745 888.196 208.074 883.229 207.525 882.187C206.977 881.144 202.339 879.141 198.251 887.675Z" fill="black"/>
<path d="M389.045 986.488C386.685 984.622 384.518 983.113 382.871 981.988L380.95 980.781L380.731 981.055C380.182 981.988 380.539 986.626 389.045 986.488Z" fill="black"/>
<path d="M258.291 920.603C254.092 912.069 249.592 914.21 249.016 915.115C248.439 916.021 248.824 921.125 258.291 920.603Z" fill="black"/>
<path d="M314.873 948.126C314.297 949.087 314.681 954.054 324.148 953.615C319.95 944.998 315.45 947.139 314.873 948.126Z" fill="black"/>
<path d="M183.158 882.269C182.609 883.229 182.966 888.196 192.433 887.757C188.235 879.141 183.734 881.281 183.158 882.269Z" fill="black"/>
<path d="M140.131 853.099H133.161C133.169 853.154 133.169 853.21 133.161 853.264C132.914 853.703 132.64 854.197 132.393 854.746C135.086 855.132 137.829 854.549 140.131 853.099Z" fill="black"/>
<path d="M129.429 776.513C128.304 776.513 124.188 779.257 129.429 787.242V776.513Z" fill="black"/>
<path d="M129.429 853.099V842.37C128.304 842.37 124.161 845.169 129.429 853.099Z" fill="black"/>
<path d="M126.576 788.888C122.377 780.354 117.877 782.495 117.301 783.4C116.724 784.306 117.109 789.41 126.576 788.888Z" fill="black"/>
<path d="M124.161 850.986C123.698 850.444 123.183 849.948 122.624 849.505L122.432 849.367C123.283 850.602 124.133 851.865 125.176 853.099H125.78C125.301 852.35 124.76 851.644 124.161 850.986Z" fill="black"/>
<path d="M125.807 853.264C125.799 853.21 125.799 853.154 125.807 853.099H125.204L126.411 854.746H126.685C126.329 854.197 126.054 853.703 125.807 853.264Z" fill="black"/>
</g>
</g>
<path d="M133.079 726.461C133.079 726.461 103.498 759.39 103.498 793.828C103.498 828.266 123.2 859.685 177.588 908.859C231.975 958.032 282.74 994.309 304.117 1005.83C325.493 1017.36 346.842 1002.54 346.842 1002.54C346.842 1002.54 382.185 1037.86 386.274 1029.65C390.363 1021.45 373.953 1009.1 370.66 1004.19C367.77 1000.29 364.467 996.707 360.809 993.513C360.809 993.513 378.069 995.955 384.655 1001.75C391.241 1007.54 401.888 1017.36 406.827 1016.54C411.766 1015.71 411.766 1011.6 404.357 1001.75C398.384 994.03 391.17 987.363 383.008 982.016C378.069 978.75 361.632 969.695 361.632 969.695C361.632 969.695 385.451 968.048 393.683 972.988C401.915 977.927 424.087 992.717 425.733 986.132C427.38 979.546 427.38 975.457 419.148 968.048C410.916 960.639 394.451 951.584 384.655 949.965C377.902 948.723 371.292 946.801 364.925 944.23C364.925 944.23 383.832 937.644 390.39 937.644C396.948 937.644 423.319 950.788 430.645 949.169C437.972 947.55 433.938 940.937 428.203 936.821C422.468 932.705 396.976 922.854 386.274 922.03C375.572 921.207 315.614 941.76 308.233 941.76C300.851 941.76 281.945 915.472 262.215 880.128C242.485 844.785 235.103 789.739 193.201 770.86" stroke="#263238" stroke-linecap="round" stroke-linejoin="round"/>
<path d="M428.066 936.793C422.303 932.705 396.838 922.826 386.137 922.003C375.435 921.18 315.477 941.733 308.095 941.733C300.714 941.733 281.807 915.445 262.077 880.101C251.101 860.481 243.967 834.769 232.579 812.57C172.209 804.337 146.333 839.626 134.369 865.009C147.69 880.629 162.085 895.3 177.451 908.914C231.673 958.307 282.603 994.364 303.979 1005.89C325.356 1017.41 346.704 1002.6 346.704 1002.6C346.704 1002.6 382.048 1037.91 386.137 1029.71C390.225 1021.5 373.816 1009.15 370.523 1004.24C367.633 1000.34 364.33 996.762 360.672 993.568C360.672 993.568 377.932 996.01 384.518 1001.8C391.103 1007.59 401.75 1017.41 406.69 1016.59C411.629 1015.77 411.629 1011.65 404.22 1001.8C398.247 994.085 391.032 987.418 382.871 982.07C377.932 978.805 361.495 969.75 361.495 969.75C361.495 969.75 385.313 968.103 393.546 973.042C401.778 977.982 423.95 992.772 425.596 986.187C427.243 979.601 427.243 975.512 419.011 968.103C410.778 960.694 394.314 951.639 384.518 950.02C377.765 948.778 371.154 946.856 364.788 944.285C364.788 944.285 383.694 937.699 390.253 937.699C396.811 937.699 423.181 950.843 430.508 949.224C437.835 947.605 433.801 940.91 428.066 936.793Z" fill="#FFBE9D" stroke="#263238" stroke-linecap="round" stroke-linejoin="round"/>
<path d="M784.822 757.304C777.962 741.636 783.834 707.335 790.694 658.353C797.554 609.372 804.414 559.402 804.414 532.95C804.414 506.497 808.777 469.836 800.161 458.009C791.545 446.182 760.18 414.104 757.848 399.231C755.515 384.358 776.644 361.61 776.644 361.61C776.644 361.61 782.928 349.838 788.417 356.122C793.905 362.406 791.545 370.227 788.417 381.203C785.288 392.179 782.133 400.795 782.133 400.795C782.133 400.795 809.573 409.412 816.625 404.719C823.678 400.027 823.047 373.19 822.553 360.046C821.537 334.416 811.275 345.365 804.167 357.494C800.737 363.311 780.651 359.854 792.395 344.954C804.14 330.053 815.061 316.909 826.038 328.681C837.014 340.453 844.834 363.174 844.834 363.174C844.834 363.174 852.682 325.828 859.817 303.875C866.952 281.923 879.739 273.224 884.349 274.761C888.959 276.297 888.438 283.953 883.828 294.682C879.218 305.412 869.01 335.02 866.458 344.734C863.906 354.448 863.412 365.671 868.516 364.656C873.62 363.641 891.484 332.468 896.615 319.187C901.746 305.906 909.375 293.667 918.046 288.042C926.717 282.416 933.879 289.578 930.312 298.771C923.226 315.395 915.182 331.594 906.219 347.286C900.586 357.428 895.804 368.02 891.923 378.953C900.335 369.989 909.201 361.462 918.485 353.405C930.751 343.197 944.032 341.167 948.094 344.734C952.155 348.301 948.615 348.823 938.407 357C928.199 365.177 912.942 374.919 900.731 394.786C891.274 409.354 883.886 425.164 878.779 441.764C874.983 452.661 870.014 463.113 863.961 472.937C863.961 472.937 873.537 550.704 890.139 593.484C906.741 636.264 936.102 698.828 927.156 743.529C918.211 788.23 900.978 811.198 876.72 818.222C869.687 820.276 862.271 820.653 855.066 819.324C847.861 817.994 841.067 814.995 835.23 810.567" fill="#EB5B14"/>
<mask id="mask4_692_479" style="mask-type:luminance" maskUnits="userSpaceOnUse" x="757" y="274" width="193" height="547">
<path d="M784.822 757.304C777.962 741.636 783.834 707.335 790.694 658.353C797.554 609.372 804.414 559.402 804.414 532.95C804.414 506.497 808.777 469.836 800.161 458.009C791.545 446.182 760.18 414.104 757.848 399.231C755.515 384.358 776.644 361.61 776.644 361.61C776.644 361.61 782.928 349.838 788.417 356.122C793.905 362.406 791.545 370.227 788.417 381.203C785.288 392.179 782.133 400.795 782.133 400.795C782.133 400.795 809.573 409.412 816.625 404.719C823.678 400.027 823.047 373.19 822.553 360.046C821.537 334.416 811.275 345.365 804.167 357.494C800.737 363.311 780.651 359.854 792.395 344.954C804.14 330.053 815.061 316.909 826.038 328.681C837.014 340.453 844.834 363.174 844.834 363.174C844.834 363.174 852.682 325.828 859.817 303.875C866.952 281.923 879.739 273.224 884.349 274.761C888.959 276.297 888.438 283.953 883.828 294.682C879.218 305.412 869.01 335.02 866.458 344.734C863.906 354.448 863.412 365.671 868.516 364.656C873.62 363.641 891.484 332.468 896.615 319.187C901.746 305.906 909.375 293.667 918.046 288.042C926.717 282.416 933.879 289.578 930.312 298.771C923.226 315.395 915.182 331.594 906.219 347.286C900.586 357.428 895.804 368.02 891.923 378.953C900.335 369.989 909.201 361.462 918.485 353.405C930.751 343.197 944.032 341.167 948.094 344.734C952.155 348.301 948.615 348.823 938.407 357C928.199 365.177 912.942 374.919 900.731 394.786C891.274 409.354 883.886 425.164 878.779 441.764C874.983 452.661 870.014 463.113 863.961 472.937C863.961 472.937 873.537 550.704 890.139 593.484C906.741 636.264 936.102 698.828 927.156 743.529C918.211 788.23 900.978 811.198 876.72 818.222C869.687 820.276 862.271 820.653 855.066 819.324C847.861 817.994 841.067 814.995 835.23 810.567" fill="white"/>
</mask>
<g mask="url(#mask4_692_479)">
<g opacity="0.2">
<path d="M919.72 315.51C920.214 315.618 920.674 315.848 921.057 316.179C921.441 316.509 921.735 316.93 921.915 317.403C921.742 316.926 921.449 316.501 921.065 316.17C920.68 315.838 920.217 315.611 919.72 315.51Z" fill="black"/>
<path d="M919.72 315.51V321.931L921.915 317.403C921.735 316.93 921.441 316.509 921.057 316.179C920.674 315.848 920.214 315.618 919.72 315.51Z" fill="black"/>
<path d="M928.693 722.317C928.693 720.488 928.611 718.659 928.446 716.829C926.745 717.268 924.604 718.887 922.574 723.058C924.643 723.24 926.727 722.987 928.693 722.317Z" fill="black"/>
<path d="M919.72 710.655V721.384C924.961 713.454 920.845 710.655 919.72 710.655Z" fill="black"/>
<path d="M788.005 381.367C787.045 381.367 784.026 383.37 786.166 388.666C786.852 386.444 787.593 384.002 788.334 381.422L788.005 381.367Z" fill="black"/>
<path d="M853.862 425.025C859.104 417.095 854.987 414.296 853.862 414.296C852.737 414.296 848.594 417.095 853.862 425.025Z" fill="black"/>
<path d="M918.567 324.263L919.72 321.931V315.51C918.677 315.51 915.192 317.87 918.567 324.263Z" fill="black"/>
<path d="M853.862 348.439C852.737 348.439 848.621 351.183 853.862 359.168C859.104 351.238 854.988 348.439 853.862 348.439Z" fill="black"/>
<path d="M799.941 456.472C800.135 456.129 800.253 455.748 800.286 455.355C800.319 454.962 800.267 454.566 800.134 454.195C799.879 453.889 799.56 453.642 799.2 453.471C798.84 453.3 798.447 453.21 798.048 453.207C797.536 453.193 797.026 453.267 796.539 453.426C797.664 454.799 798.679 456.033 799.502 457.131C799.677 456.931 799.824 456.71 799.941 456.472Z" fill="black"/>
<path d="M865.991 421.266C865.415 420.278 860.915 418.138 856.716 426.754C866.183 427.193 866.54 422.226 865.991 421.266Z" fill="black"/>
<path d="M864.647 359.113C864.539 357.606 864.539 356.093 864.647 354.585C862.89 354.036 859.68 354.585 856.634 360.814C859.423 361.266 862.281 360.659 864.647 359.113Z" fill="black"/>
<path d="M866.073 289.853C865.333 291.088 864.647 292.432 863.933 293.832C864.673 293.49 865.282 292.917 865.668 292.2C866.054 291.482 866.196 290.658 866.073 289.853Z" fill="black"/>
<path d="M775.876 388.337C775.327 389.27 775.684 394.045 784.547 393.825L784.794 393.112C780.706 385.374 776.452 387.377 775.876 388.337Z" fill="black"/>
<path d="M841.734 421.266C841.157 422.226 841.542 427.193 851.009 426.754C846.81 418.138 842.31 420.278 841.734 421.266Z" fill="black"/>
<path d="M907.591 322.48C907.042 323.44 907.399 328.379 916.756 327.968C912.64 319.379 908.167 321.492 907.591 322.48Z" fill="black"/>
<path d="M851.009 360.814C850.065 358.608 848.526 356.707 846.563 355.326C846.124 357.384 845.74 359.113 845.466 360.43C847.277 360.881 849.153 361.011 851.009 360.814Z" fill="black"/>
<path d="M843.407 359.36C842.968 358.207 842.42 356.863 841.788 355.354C841.568 356.106 841.608 356.911 841.902 357.638C842.196 358.365 842.726 358.972 843.407 359.36Z" fill="black"/>
<path d="M853.862 622.598C859.104 614.668 854.987 611.869 853.862 611.869C852.737 611.869 848.594 614.668 853.862 622.598Z" fill="black"/>
<path d="M853.862 546.011C852.737 546.011 848.621 548.755 853.862 556.741C859.104 548.81 854.988 546.011 853.862 546.011Z" fill="black"/>
<path d="M853.862 480.154C852.737 480.154 848.621 482.898 853.862 490.883C859.104 482.953 854.988 480.154 853.862 480.154Z" fill="black"/>
<path d="M800.243 586.212C800.243 586.788 800.106 587.392 800.024 587.968C800.271 587.418 800.347 586.806 800.243 586.212Z" fill="black"/>
<path d="M800.134 651.767C799.585 650.834 795.661 649.023 791.737 655.527H798.707C799.313 655.133 799.778 654.556 800.035 653.88C800.291 653.204 800.326 652.464 800.134 651.767Z" fill="black"/>
<path d="M856.826 624.244C866.293 624.766 866.65 619.799 866.101 618.756C865.552 617.714 860.915 615.71 856.826 624.244Z" fill="black"/>
<path d="M865.991 552.981C865.415 551.993 860.915 549.853 856.716 558.469C866.183 558.908 866.54 553.942 865.991 552.981Z" fill="black"/>
<path d="M856.826 492.529C863.796 492.914 865.827 490.334 866.183 488.551L865.936 486.932C864.894 485.916 860.668 484.489 856.826 492.529Z" fill="black"/>
<path d="M912.832 651.822C910.088 649.929 907.975 651.081 907.591 651.822C907.399 652.519 907.433 653.259 907.69 653.935C907.947 654.611 908.412 655.188 909.018 655.582H914.122L912.832 651.822Z" fill="black"/>
<path d="M841.734 618.839C841.157 619.799 841.542 624.766 851.009 624.327C846.81 615.71 842.31 617.851 841.734 618.839Z" fill="black"/>
<path d="M841.734 552.981C841.157 553.942 841.542 558.908 851.009 558.469C846.81 549.853 842.31 551.993 841.734 552.981Z" fill="black"/>
<path d="M841.734 487.124C841.157 488.084 841.542 493.051 851.009 492.612C846.81 483.995 842.31 486.136 841.734 487.124Z" fill="black"/>
<path d="M853.862 809.441C852.792 809.441 849.06 811.966 853.094 818.936L854.466 819.21C858.747 812.021 854.933 809.441 853.862 809.441Z" fill="black"/>
<path d="M788.005 721.384C793.246 713.454 789.13 710.655 788.005 710.655C786.88 710.655 782.736 713.454 788.005 721.384Z" fill="black"/>
<path d="M919.72 710.655C918.595 710.655 914.479 713.399 919.72 721.384V710.655Z" fill="black"/>
<path d="M853.862 754.313C859.104 746.383 854.987 743.584 853.862 743.584C852.737 743.584 848.594 746.383 853.862 754.313Z" fill="black"/>
<path d="M853.862 677.726C852.737 677.726 848.621 680.47 853.862 688.456C859.104 680.525 854.988 677.726 853.862 677.726Z" fill="black"/>
<path d="M865.991 816.411C865.47 815.506 861.71 813.667 857.759 819.732C860.015 820.02 862.29 820.14 864.564 820.088C865.158 819.702 865.615 819.14 865.871 818.48C866.127 817.82 866.169 817.096 865.991 816.411Z" fill="black"/>
<path d="M790.968 723.031C800.435 723.552 800.792 718.585 800.243 717.543C799.695 716.5 795.057 714.497 790.968 723.031Z" fill="black"/>
<path d="M856.826 755.959C866.293 756.481 866.65 751.514 866.101 750.471C865.552 749.429 860.915 747.425 856.826 755.959Z" fill="black"/>
<path d="M865.991 684.696C865.415 683.708 860.915 681.568 856.716 690.184C866.183 690.623 866.54 685.657 865.991 684.696Z" fill="black"/>
<path d="M907.591 783.483C907.152 784.223 907.289 787.324 911.68 788.477C912.421 787.159 913.162 785.733 913.848 784.443C910.747 781.315 908.03 782.714 907.591 783.483Z" fill="black"/>
<path d="M843.298 815.506C844.864 816.245 846.467 816.905 848.1 817.481C847.542 816.761 846.805 816.2 845.962 815.853C845.12 815.507 844.201 815.387 843.298 815.506Z" fill="black"/>
<path d="M785.151 723.031C784.519 721.643 783.697 720.35 782.709 719.189C782.709 720.479 782.489 721.741 782.407 723.003C783.32 723.068 784.237 723.078 785.151 723.031Z" fill="black"/>
<path d="M916.866 723.031C912.668 714.497 908.167 716.637 907.591 717.543C907.015 718.448 907.399 723.552 916.866 723.031Z" fill="black"/>
<path d="M841.734 750.554C841.157 751.514 841.542 756.481 851.009 756.042C846.81 747.426 842.31 749.566 841.734 750.554Z" fill="black"/>
<path d="M841.734 684.696C841.157 685.657 841.542 690.623 851.009 690.184C846.81 681.568 842.31 683.708 841.734 684.696Z" fill="black"/>
<path d="M791.737 655.527C791.435 656.021 791.16 656.57 790.859 657.146C793.588 657.559 796.374 656.974 798.707 655.499H791.737V655.527Z" fill="black"/>
<path d="M914.122 655.527H908.963C910.64 656.651 912.625 657.226 914.643 657.173L914.122 655.527Z" fill="black"/>
</g>
</g>
<path d="M784.822 757.304C777.962 741.636 783.834 707.335 790.694 658.353C797.554 609.372 804.414 559.402 804.414 532.95C804.414 506.497 808.777 469.836 800.161 458.009C791.545 446.182 760.18 414.104 757.848 399.231C755.515 384.358 776.644 361.61 776.644 361.61C776.644 361.61 782.928 349.838 788.417 356.122C793.905 362.406 791.545 370.227 788.417 381.203C785.288 392.179 782.133 400.795 782.133 400.795C782.133 400.795 809.573 409.412 816.625 404.719C823.678 400.027 823.047 373.19 822.553 360.046C821.537 334.416 811.275 345.365 804.167 357.494C800.737 363.311 780.651 359.854 792.395 344.954C804.14 330.053 815.061 316.909 826.038 328.681C837.014 340.453 844.834 363.174 844.834 363.174C844.834 363.174 852.682 325.828 859.817 303.875C866.952 281.923 879.739 273.224 884.349 274.761C888.959 276.297 888.438 283.953 883.828 294.682C879.218 305.412 869.01 335.02 866.458 344.734C863.906 354.448 863.412 365.671 868.516 364.656C873.62 363.641 891.484 332.468 896.615 319.187C901.746 305.906 909.375 293.667 918.046 288.042C926.717 282.416 933.879 289.578 930.312 298.771C923.226 315.395 915.182 331.594 906.219 347.286C900.586 357.428 895.804 368.02 891.923 378.953C900.335 369.989 909.201 361.462 918.485 353.405C930.751 343.197 944.032 341.167 948.094 344.734C952.155 348.301 948.615 348.823 938.407 357C928.199 365.177 912.942 374.919 900.731 394.786C891.274 409.354 883.886 425.164 878.779 441.764C874.983 452.661 870.014 463.113 863.961 472.937C863.961 472.937 873.537 550.704 890.139 593.484C906.741 636.264 936.102 698.828 927.156 743.529C918.211 788.23 900.978 811.198 876.72 818.222C869.687 820.276 862.271 820.653 855.066 819.324C847.861 817.994 841.067 814.995 835.23 810.567" stroke="#263238" stroke-linecap="round" stroke-linejoin="round"/>
<path d="M900.731 394.786C912.997 374.864 928.336 365.15 938.544 357C948.752 348.85 952.264 348.301 948.231 344.734C944.197 341.167 930.888 343.197 918.622 353.405C909.338 361.462 900.472 369.989 892.06 378.953C895.897 368.024 900.633 357.432 906.219 347.286C915.153 331.592 923.17 315.393 930.23 298.771C933.797 289.578 926.662 282.307 917.964 288.042C909.265 293.777 901.636 305.906 896.533 319.187C891.429 332.468 873.537 363.641 868.433 364.656C863.329 365.671 863.823 354.421 866.375 344.734C868.927 335.048 879.163 305.412 883.745 294.682C888.328 283.953 888.849 276.297 884.267 274.76C879.684 273.224 866.897 281.895 859.735 303.875C852.573 325.855 844.752 363.174 844.752 363.174C844.752 363.174 836.931 340.426 825.955 328.681C814.979 316.937 804.003 330.053 792.313 344.954C780.623 359.854 800.545 363.311 804.085 357.494C811.192 345.365 821.455 334.416 822.47 360.046C822.964 373.19 823.595 400 816.543 404.719C809.491 409.439 782.05 400.795 782.05 400.795C782.05 400.795 785.178 392.179 788.334 381.203C791.49 370.226 793.822 362.378 788.334 356.122C782.846 349.865 776.562 361.61 776.562 361.61C776.562 361.61 755.405 384.331 757.765 399.231C760.125 414.131 791.462 446.237 800.079 458.009C808.695 469.781 804.332 506.497 804.332 532.949C804.332 559.402 797.472 609.372 790.612 658.353C790.612 659.012 790.42 659.615 790.337 660.247C801.176 671.634 823.266 687.962 860.613 686.699C885.639 685.849 903.365 673.253 915.357 659.396C907.399 635.715 897.411 612.747 890.002 593.538C873.4 550.758 863.823 472.992 863.823 472.992C869.877 463.168 874.846 452.716 878.641 441.819C883.787 425.192 891.221 409.363 900.731 394.786Z" fill="#FFBE9D" stroke="#263238" stroke-linecap="round" stroke-linejoin="round"/>
<path d="M825.599 469.863C825.599 469.863 821.016 450.463 827.657 438.197C831.149 431.222 836.905 425.64 843.984 422.364" stroke="#263238" stroke-linecap="round" stroke-linejoin="round"/>
</svg>
