<svg width="1402" height="873" viewBox="0 0 1402 873" fill="none" xmlns="http://www.w3.org/2000/svg">
<path d="M226.623 872.667C237.32 867.656 249.339 866.198 260.924 868.506C267.154 869.539 273.642 871.401 277.881 876.079C282.12 880.758 283.051 889.004 278.036 892.984C274.891 895.07 271.112 895.985 267.361 895.569C258.288 895.569 248.233 893.863 240.995 899.317C236.859 902.445 234.093 907.615 229.156 909.14C226.674 909.734 224.065 909.497 221.73 908.465C219.395 907.433 217.464 905.663 216.232 903.427C213.873 898.885 213.355 893.608 214.784 888.693C215.392 885.291 216.776 882.075 218.83 879.296C220.883 876.516 223.55 874.248 226.623 872.667Z" fill="#EBEBEB"/>
<path d="M202.636 826.527C209.02 835.652 221.428 832.627 227.166 827.07C232.904 821.512 235.36 813.448 237.505 805.745C242.675 788.193 247.664 769.763 243.89 751.876C242.968 746.471 240.571 741.426 236.963 737.297C235.141 735.251 232.815 733.718 230.216 732.852C227.617 731.986 224.836 731.816 222.151 732.36C215.896 734.015 212.019 740.115 209.227 745.957C200.952 763.164 196.616 781.999 196.535 801.092C196.535 809.958 197.543 819.186 202.558 826.605" fill="#EBEBEB"/>
<path d="M185.11 839.606C192.038 831.387 193.356 819.393 190.28 809.079C186.759 798.852 180.5 789.787 172.186 782.869C162.737 774.466 151.746 767.978 139.823 763.766C135.194 761.918 130.224 761.081 125.245 761.311C122.762 761.453 120.352 762.201 118.225 763.49C116.098 764.778 114.319 766.569 113.044 768.704C109.632 775.192 112.889 783.075 116.43 789.512C122.66 800.836 129.764 811.656 137.678 821.874C144.062 830.094 151.352 838.185 160.942 841.907C170.531 845.629 180.742 845.164 185.886 838.443" fill="#EBEBEB"/>
<path d="M202.972 955.305C203.06 954.662 203.06 954.01 202.972 953.367C202.972 951.945 202.972 950.11 202.972 947.887C202.972 943.105 202.972 936.203 203.23 927.699C203.644 910.665 205.117 892.312 207.935 866.463C210.519 842.14 214.242 813.835 218.041 795.431C218.843 791.269 219.67 787.496 220.445 784.187C221.221 780.878 221.815 778.035 222.41 775.734C223.004 773.434 223.366 771.805 223.702 770.41C223.875 769.784 223.988 769.144 224.038 768.497C223.755 769.076 223.529 769.682 223.366 770.306L221.764 775.476C221.066 777.751 220.342 780.646 219.515 783.877C218.688 787.108 217.731 790.908 216.93 795.095C212.209 816.85 208.671 838.845 206.332 860.983C203.489 886.832 202.196 910.484 202.093 927.57C202.093 936.1 202.093 943.079 202.377 947.809C202.532 950.032 202.636 951.842 202.713 953.289C202.725 953.969 202.812 954.645 202.972 955.305Z" fill="#E0E0E0"/>
<path d="M203.101 909.786C203.248 907.876 203.248 905.957 203.101 904.047C202.894 900.377 202.377 895.026 201.343 888.538C200.052 880.89 198.326 873.321 196.173 865.869C193.694 856.707 190.523 847.746 186.687 839.064C180.14 823.055 170.743 808.368 158.951 795.715C156.899 793.548 154.706 791.519 152.386 789.641C151.404 788.788 150.499 787.935 149.594 787.263L147.009 785.505C145.483 784.352 143.867 783.323 142.176 782.429C147.754 786.789 153.047 791.503 158.021 796.543C169.491 809.278 178.704 823.876 185.265 839.71C189.043 848.341 192.23 857.219 194.803 866.282C196.972 873.666 198.767 881.154 200.18 888.719C201.369 895.181 202.067 900.454 202.481 904.099C202.529 906.009 202.736 907.911 203.101 909.786Z" fill="#E0E0E0"/>
<path d="M874.159 848.912H486.739V914.206H874.159V848.912Z" fill="#E0E0E0"/>
<path d="M783.378 776.07C785.692 771.307 789.671 767.557 794.562 765.528C799.454 763.499 804.919 763.332 809.925 765.059C811.253 761.36 813.622 758.125 816.747 755.743C819.872 753.361 823.619 751.933 827.537 751.633C831.455 751.332 835.377 752.171 838.829 754.049C842.28 755.927 845.115 758.763 846.992 762.215C849.67 761.786 852.414 762.137 854.899 763.224C857.383 764.312 859.502 766.091 861.003 768.35C862.505 770.609 863.325 773.251 863.365 775.963C863.406 778.675 862.667 781.341 861.234 783.644" fill="#E0E0E0"/>
<path d="M825.822 837.926C812.488 837.926 799.7 832.629 790.272 823.201C780.843 813.772 775.546 800.985 775.546 787.651V775.889H876.098V787.651C876.098 800.985 870.801 813.772 861.372 823.201C851.944 832.629 839.156 837.926 825.822 837.926Z" fill="#F5F5F5"/>
<path d="M737.859 837.926H709.58L699.137 784.29H748.767L737.859 837.926Z" fill="#E0E0E0"/>
<path d="M901.222 837.926H456.056V859.923H901.222V837.926Z" fill="#E0E0E0"/>
<path d="M533.266 837.926H504.988L494.545 784.29H544.174L533.266 837.926Z" fill="#EBEBEB"/>
<path d="M714.853 837.926H686.575L676.132 784.29H725.761L714.853 837.926Z" fill="#F5F5F5"/>
<path d="M576.434 837.926V726.57C576.434 722.457 578.068 718.512 580.976 715.603C583.885 712.695 587.83 711.061 591.943 711.061H592.563V685.212H612.493V710.389C616.606 710.389 620.551 712.023 623.459 714.931C626.368 717.84 628.002 721.785 628.002 725.898V837.875L576.434 837.926Z" fill="#E0E0E0"/>
<path d="M474.952 1061.44H486.739V859.924H474.952V1061.44Z" fill="#E0E0E0"/>
<path d="M885.558 859.898H874.185V1061.41H885.558V859.898Z" fill="#E0E0E0"/>
<path d="M897.216 859.897C897.216 860.647 798.81 861.242 677.502 861.242C556.194 861.242 457.788 860.647 457.788 859.897C457.788 859.148 556.168 858.553 677.502 858.553C798.836 858.553 897.216 859.174 897.216 859.897Z" fill="#EBEBEB"/>
<path d="M357.934 123.882H110.433V482.61H357.934V123.882Z" fill="#E0E0E0"/>
<path d="M345.553 123.882H98.0516V482.61H345.553V123.882Z" fill="#F5F5F5"/>
<path d="M314.767 162.732H128.786V443.76H314.767V162.732Z" fill="white"/>
<path d="M314.793 443.733C314.793 443.733 314.793 443.268 314.793 442.363C314.793 441.459 314.793 440.115 314.793 438.383C314.793 434.867 314.793 429.672 314.793 422.873C314.793 409.406 314.793 389.761 314.638 364.972C314.638 315.42 314.457 245.241 314.328 162.629L314.948 163.223H128.967L129.639 162.551C129.639 268.531 129.639 366.291 129.639 443.552L129.096 443.035L264.491 443.32H301.895H311.691H315.103H311.82H302.101L264.828 443.449L129.096 443.733H128.398V443.191C128.398 365.929 128.398 268.195 128.243 162.189V161.517H128.941H315.052H315.672V162.138C315.672 244.854 315.439 315.24 315.362 364.895C315.362 389.632 315.362 409.2 315.207 422.641C315.207 429.31 315.207 434.428 315.207 437.943C315.207 439.649 315.207 440.942 315.207 441.846C315.207 442.751 314.793 443.733 314.793 443.733Z" fill="#E0E0E0"/>
<path d="M346.225 123.882C344.963 126.143 343.492 128.28 341.831 130.266C338.936 134.118 334.878 139.365 330.199 145C325.52 150.635 321.204 155.676 317.972 159.217C316.337 161.24 314.511 163.101 312.518 164.774C313.94 162.601 315.521 160.536 317.249 158.597C320.583 154.59 324.641 149.627 329.165 144.147C333.689 138.667 337.747 133.808 341.081 129.698C342.618 127.609 344.34 125.663 346.225 123.882Z" fill="#E0E0E0"/>
<path d="M315.724 442.829C324.965 457.527 335.83 471.14 348.112 483.411L315.724 442.829Z" fill="white"/>
<path d="M348.112 483.411C346.059 481.889 344.17 480.156 342.477 478.242C338.161 473.852 334.072 469.245 330.225 464.439C325.727 458.804 322.005 453.453 319.446 449.472C317.967 447.382 316.702 445.148 315.672 442.803C317.347 444.728 318.877 446.776 320.247 448.929C322.987 452.755 326.813 458.002 331.284 463.611C335.756 469.221 340.021 474.08 343.175 477.596C344.973 479.4 346.624 481.345 348.112 483.411Z" fill="#E0E0E0"/>
<path d="M98 482.326L130.414 442.312L98 482.326Z" fill="white"/>
<path d="M130.414 442.312C125.563 449.395 120.334 456.212 114.75 462.732C109.518 469.556 103.927 476.096 98 482.326C102.879 475.248 108.116 468.423 113.69 461.879C118.922 455.071 124.504 448.54 130.414 442.312Z" fill="#E0E0E0"/>
<path d="M98.0516 123.882C103.64 129.881 108.887 136.189 113.768 142.777C119.024 149.047 123.925 155.606 128.45 162.422C122.877 156.436 117.631 150.155 112.734 143.604C107.479 137.307 102.577 130.723 98.0516 123.882Z" fill="#E0E0E0"/>
<path d="M256.84 219.78H194.571V396.611H256.84V219.78Z" fill="#E0E0E0"/>
<path d="M1298 100.98V290.684H1025.55L1015.73 102.324L1298 100.98Z" fill="#E0E0E0"/>
<path d="M1015.73 102.324V290.296H1288.2V102.324L1015.73 102.324Z" fill="white"/>
<path d="M1289.5 291.588H1014.44V101.032H1289.5V291.588ZM1017.02 289.003H1286.91V103.616H1017.02V289.003Z" fill="#E0E0E0"/>
<path d="M1258.68 125.665H1045.25V266.928H1258.68V125.665Z" fill="white"/>
<path d="M1258.68 125.665H1257.62H1254.6H1242.86L1198.92 125.82L1045.28 126.131L1045.87 125.51C1045.87 168.678 1045.87 216.498 1045.87 266.773L1045.2 266.101L1258.63 266.256L1258.09 266.773C1258.22 223.787 1258.32 188.529 1258.37 163.999C1258.37 151.721 1258.37 142.131 1258.5 135.565C1258.5 132.334 1258.5 129.827 1258.5 128.095C1258.5 126.363 1258.5 125.51 1258.5 125.51C1258.5 125.51 1258.5 126.337 1258.5 128.095C1258.5 129.853 1258.5 132.257 1258.5 135.462C1258.5 142.002 1258.5 151.54 1258.63 163.896C1258.63 188.529 1258.79 223.89 1258.92 267.006V267.549H1258.37H1044.94H1044.24V266.851C1044.24 216.575 1044.24 168.755 1044.24 125.588V124.967H1044.86L1198.9 125.278L1242.84 125.433H1254.42H1257.39L1258.68 125.665Z" fill="#E0E0E0"/>
<path d="M1015.73 101.781C1017.4 102.62 1018.97 103.643 1020.41 104.831C1023.2 106.822 1027 109.691 1031.09 112.974C1035.17 116.256 1038.84 119.358 1041.43 121.685C1042.88 122.854 1044.19 124.19 1045.33 125.665C1040.14 122.035 1035.13 118.144 1030.34 114.008C1025.21 110.252 1020.33 106.168 1015.73 101.781Z" fill="#E0E0E0"/>
<path d="M1288.2 102.324C1283.71 106.716 1278.91 110.793 1273.86 114.525C1269.07 118.591 1264 122.314 1258.68 125.665C1263.16 121.256 1267.96 117.179 1273.03 113.465C1277.8 109.378 1282.87 105.654 1288.2 102.324Z" fill="#E0E0E0"/>
<path d="M1287.97 290.321L1257.6 265.688L1287.97 290.321Z" fill="white"/>
<path d="M1257.6 265.688C1263.03 269.264 1268.21 273.202 1273.11 277.475C1278.32 281.433 1283.25 285.752 1287.87 290.399C1282.44 286.823 1277.26 282.885 1272.36 278.612C1267.15 274.645 1262.22 270.327 1257.6 265.688Z" fill="#E0E0E0"/>
<path d="M1015.73 290.296C1020.16 285.925 1024.9 281.89 1029.92 278.224C1034.66 274.193 1039.68 270.504 1044.94 267.187C1040.51 271.549 1035.77 275.584 1030.75 279.258C1026.01 283.29 1020.99 286.978 1015.73 290.296Z" fill="#E0E0E0"/>
<path d="M1088.57 169.686V216.989H1222.88V169.686H1088.57Z" fill="#E0E0E0"/>
<path d="M958.881 487.331C960.638 481.929 983.463 488.133 985.453 488.52C987.443 488.908 988.038 485.935 986.229 485.935C983.644 485.574 956.58 481.102 958.26 475.803C959.191 472.856 964.309 475.001 964.309 475.001C964.309 475.001 989.33 481.024 990.158 478.491C990.985 475.958 976.303 471.874 971.288 470.866C966.273 469.858 964.8 467.118 967.075 465.282C968.6 464.042 984.031 466.782 988.943 467.867C993.854 468.953 1007.35 472.287 1002.05 465.282C996.749 458.277 995.301 450.859 996.31 448.584C996.59 448.071 997.026 447.661 997.555 447.412C998.083 447.162 998.677 447.087 999.252 447.196C999.826 447.305 1000.35 447.593 1000.75 448.019C1001.15 448.445 1001.41 448.986 1001.48 449.566C1002.41 452.387 1003.72 455.067 1005.38 457.528C1006.66 459.594 1008.29 461.423 1010.19 462.93C1012.34 464.636 1014.22 466.006 1015.88 467.118C1028.1 468.281 1073.26 468.203 1103.76 458.381C1111.08 456.028 1143.67 397.3 1143.67 397.3L1183.12 423.433L1155.72 471.434C1131.11 524.967 1007.01 501.832 1007.01 501.832C997.536 502.264 988.045 502.195 978.577 501.626C965.653 500.256 965.653 499.041 966.067 497.593C967.178 493.587 989.098 499.118 985.065 495.189C981.033 491.26 957.537 491.467 958.881 487.331Z" fill="#EB996E"/>
<g opacity="0.3">
<path d="M1036.63 648.007C1027.59 727.052 1017.58 804.805 1016.7 884.341C1016.7 890.39 1016.7 896.852 1020.09 901.867C1023.48 906.881 1031.49 909.156 1035.6 904.71C1038.55 901.531 1038.18 896.619 1037.77 892.303C1028.98 811.086 1030.71 729.456 1036.63 648.007Z" fill="black"/>
</g>
<g opacity="0.3">
<path d="M1109.53 909.595C1106.94 854.874 1105.8 793.095 1100.87 737.003C1113.79 783.893 1117.59 830.783 1130.57 877.672C1132.12 883.255 1135.58 892.328 1135.12 898.118C1134.65 903.909 1132.84 909.569 1127.62 912.077C1122.4 914.584 1108.73 912.077 1109.53 909.492" fill="black"/>
</g>
<path d="M1275.09 264.903L1266.84 360.543L1218.94 356.718C1218.63 351.134 1218.94 329.499 1218.94 329.499C1218.94 329.499 1199.01 326.397 1198.76 306.468C1198.63 296.801 1200.02 276.794 1201.34 258.777C1202.12 249.174 1206.63 240.257 1213.9 233.934C1221.17 227.61 1230.62 224.383 1240.24 224.941C1245.18 225.197 1250.02 226.444 1254.47 228.608C1258.92 230.772 1262.89 233.808 1266.14 237.537C1269.39 241.265 1271.85 245.609 1273.39 250.31C1274.93 255.012 1275.51 259.974 1275.09 264.903Z" fill="#EB996E"/>
<path d="M1219 329.189C1228.2 329.366 1237.24 326.792 1244.97 321.796C1244.97 321.796 1238.85 336.142 1218.94 334.359L1219 329.189Z" fill="#D1734A"/>
<path d="M1206.46 272.011C1206.46 272.751 1206.74 273.461 1207.25 273.996C1207.76 274.53 1208.46 274.847 1209.2 274.881C1209.56 274.909 1209.93 274.864 1210.28 274.748C1210.62 274.633 1210.94 274.449 1211.22 274.209C1211.49 273.968 1211.72 273.674 1211.87 273.346C1212.03 273.017 1212.13 272.66 1212.15 272.296C1212.15 271.557 1211.86 270.846 1211.35 270.311C1210.84 269.777 1210.14 269.46 1209.41 269.427C1209.04 269.398 1208.68 269.443 1208.33 269.559C1207.98 269.674 1207.66 269.858 1207.39 270.099C1207.11 270.339 1206.89 270.633 1206.73 270.961C1206.57 271.29 1206.48 271.647 1206.46 272.011Z" fill="#263238"/>
<path d="M1205.84 268.806C1206.2 269.168 1208.42 267.591 1211.42 267.591C1214.42 267.591 1216.72 269.116 1217.06 268.755C1217.39 268.393 1216.85 267.927 1215.87 267.204C1214.54 266.294 1212.98 265.807 1211.37 265.808C1209.78 265.821 1208.22 266.327 1206.92 267.255C1205.99 267.953 1205.55 268.625 1205.84 268.806Z" fill="#263238"/>
<path d="M1236.57 272.709C1236.57 273.453 1236.85 274.17 1237.36 274.71C1237.87 275.25 1238.57 275.571 1239.31 275.604C1239.68 275.632 1240.04 275.588 1240.39 275.472C1240.74 275.357 1241.06 275.173 1241.33 274.932C1241.61 274.692 1241.83 274.398 1241.99 274.07C1242.15 273.741 1242.24 273.384 1242.26 273.02C1242.27 272.279 1241.98 271.564 1241.47 271.028C1240.96 270.492 1240.26 270.177 1239.52 270.15C1239.16 270.122 1238.79 270.166 1238.45 270.28C1238.1 270.394 1237.79 270.575 1237.51 270.813C1237.24 271.051 1237.01 271.342 1236.85 271.667C1236.69 271.993 1236.6 272.347 1236.57 272.709Z" fill="#263238"/>
<path d="M1235.93 269.375C1236.29 269.737 1238.51 268.16 1241.51 268.16C1244.51 268.16 1246.68 269.685 1247.15 269.323C1247.61 268.961 1246.96 268.496 1245.98 267.772C1244.65 266.862 1243.07 266.376 1241.46 266.376C1239.86 266.39 1238.31 266.896 1237.01 267.824C1236.08 268.548 1235.77 269.22 1235.93 269.375Z" fill="#263238"/>
<path d="M1224.84 292.07C1223.21 291.589 1221.54 291.294 1219.85 291.191C1219.07 291.191 1218.32 290.959 1218.19 290.416C1218.14 289.606 1218.32 288.798 1218.71 288.089C1219.46 286.202 1220.24 284.212 1221.04 282.144C1223.16 277.116 1224.89 271.931 1226.21 266.635C1223.64 271.478 1221.49 276.528 1219.77 281.731C1219 283.824 1218.25 285.815 1217.55 287.727C1217.06 288.675 1216.92 289.761 1217.13 290.803C1217.26 291.075 1217.43 291.317 1217.66 291.513C1217.88 291.709 1218.14 291.855 1218.43 291.941C1218.87 292.056 1219.32 292.117 1219.77 292.122C1221.45 292.336 1223.16 292.318 1224.84 292.07Z" fill="#263238"/>
<path d="M1233.83 294.19C1233.34 294.19 1233.34 297.498 1230.5 299.851C1227.66 302.203 1224.11 301.841 1224.09 302.306C1224.06 302.771 1224.86 302.952 1226.36 303.004C1228.31 303.026 1230.2 302.368 1231.71 301.143C1233.16 299.955 1234.09 298.249 1234.3 296.387C1234.43 294.991 1233.99 294.19 1233.83 294.19Z" fill="#263238"/>
<path d="M1235.15 257.381C1235.46 258.208 1238.51 257.821 1242.1 258.234C1245.7 258.648 1248.59 259.656 1249.08 258.906C1249.29 258.544 1248.77 257.769 1247.61 256.968C1246.06 255.962 1244.28 255.342 1242.44 255.158C1240.61 254.933 1238.74 255.155 1237.01 255.804C1235.67 256.321 1235.02 256.968 1235.15 257.381Z" fill="#263238"/>
<path d="M1206.98 259.94C1207.49 260.638 1209.56 259.94 1212.15 259.94C1214.73 259.94 1216.82 260.406 1217.32 259.682C1217.81 258.958 1217.32 258.622 1216.26 257.976C1215.01 257.147 1213.54 256.739 1212.04 256.813C1210.55 256.855 1209.11 257.351 1207.91 258.234C1207.03 258.88 1206.72 259.604 1206.98 259.94Z" fill="#263238"/>
<path d="M1253.45 243.035C1256.64 245.525 1258.72 249.161 1259.27 253.168V253.555C1260.07 259.242 1259.91 265.032 1260.74 270.693C1261.27 276.502 1263.74 281.965 1267.75 286.202C1269.48 287.805 1272.53 288.787 1273.95 287.03C1274.43 286.253 1274.67 285.355 1274.65 284.445C1275.71 270.719 1279.46 258.596 1279.43 244.198C1279.44 242.276 1278.99 240.379 1278.12 238.666C1277.24 236.953 1275.98 235.474 1274.42 234.35C1271.42 232.204 1267.75 229.981 1264.41 231.558C1261.08 233.135 1256.66 239.313 1254.07 242.027" fill="#263238"/>
<path d="M1268.37 273.898C1268.7 273.769 1282.04 269.866 1281.6 283.488C1281.16 297.111 1267.59 293.828 1267.59 293.466C1267.59 293.104 1268.37 273.898 1268.37 273.898Z" fill="#EB996E"/>
<path d="M1271.91 288.451C1271.91 288.451 1272.14 288.606 1272.53 288.813C1273.1 289.045 1273.74 289.045 1274.31 288.813C1275.21 288.287 1275.95 287.529 1276.45 286.62C1276.96 285.711 1277.21 284.683 1277.18 283.643C1277.26 282.48 1277.07 281.313 1276.64 280.231C1276.52 279.801 1276.31 279.404 1276 279.075C1275.7 278.747 1275.33 278.496 1274.91 278.344C1274.63 278.266 1274.34 278.285 1274.08 278.398C1273.82 278.511 1273.61 278.712 1273.49 278.965C1273.3 279.327 1273.49 279.611 1273.3 279.611C1273.12 279.611 1273.02 279.378 1273.15 278.836C1273.23 278.49 1273.43 278.186 1273.72 277.983C1274.1 277.712 1274.57 277.601 1275.04 277.672C1275.59 277.807 1276.1 278.079 1276.52 278.463C1276.94 278.847 1277.26 279.331 1277.44 279.87C1277.98 281.068 1278.22 282.382 1278.14 283.695C1278.17 284.909 1277.84 286.105 1277.19 287.131C1276.54 288.158 1275.6 288.968 1274.49 289.459C1274.12 289.555 1273.74 289.568 1273.36 289.496C1272.99 289.425 1272.63 289.271 1272.32 289.046C1271.93 288.761 1271.86 288.451 1271.91 288.451Z" fill="#D1734A"/>
<path d="M1265.01 233.6C1268.34 228.146 1259.16 220.34 1252.44 218.22C1245.72 216.101 1236.93 219.358 1230.16 221.581C1225.95 223.002 1221.74 224.941 1217.24 224.76C1214.27 224.45 1211.36 223.71 1208.6 222.563C1205.85 221.39 1202.89 220.8 1199.89 220.831C1198.4 220.867 1196.94 221.309 1195.68 222.111C1194.42 222.912 1193.4 224.043 1192.73 225.38C1192.46 226.059 1192.32 226.79 1192.35 227.523C1192.38 228.256 1192.56 228.976 1192.88 229.633C1193.21 230.291 1193.67 230.872 1194.24 231.338C1194.8 231.803 1195.46 232.143 1196.17 232.334C1195.22 231.813 1194.16 231.53 1193.08 231.509C1192 231.488 1190.93 231.729 1189.96 232.212C1188.99 232.696 1188.16 233.406 1187.52 234.284C1186.89 235.161 1186.48 236.179 1186.32 237.25C1186.17 238.321 1186.28 239.413 1186.64 240.433C1187 241.454 1187.6 242.371 1188.39 243.108C1189.19 243.844 1190.15 244.377 1191.19 244.662C1192.23 244.946 1193.33 244.973 1194.39 244.741C1192.45 243.268 1189.48 245.697 1189.71 248.101C1189.98 249.291 1190.55 250.392 1191.37 251.297C1192.19 252.202 1193.23 252.882 1194.39 253.271C1200.25 255.393 1206.69 255.292 1212.48 252.987C1218.38 250.996 1223.83 247.817 1229.65 245.801C1235.46 243.785 1245.15 239.856 1251.1 241.923C1255.39 243.449 1258.39 248.644 1260.82 247.481C1261.97 246.868 1262.96 245.995 1263.71 244.931C1264.46 243.867 1264.95 242.642 1265.14 241.355C1265.46 238.773 1265.38 236.155 1264.88 233.6" fill="#263238"/>
<path d="M1194.59 231.972C1194.72 231.972 1195.32 232.98 1196.77 234.556C1198.86 236.776 1201.46 238.453 1204.34 239.442C1208.56 240.937 1213.19 240.743 1217.26 238.899C1221.89 236.831 1225.85 232.67 1230.42 228.766C1234.65 224.799 1239.99 222.228 1245.72 221.399C1248.08 221.137 1250.46 221.407 1252.7 222.19C1254.94 222.973 1256.97 224.249 1258.65 225.923C1259.76 227.094 1260.62 228.479 1261.18 229.995C1261.74 231.51 1261.99 233.124 1261.9 234.737C1261.85 235.624 1261.66 236.496 1261.34 237.322C1261.22 237.606 1261.08 237.875 1260.9 238.124C1261.14 237.034 1261.31 235.928 1261.39 234.815C1261.4 231.782 1260.23 228.864 1258.13 226.673C1256.52 225.147 1254.59 224.003 1252.48 223.323C1250.37 222.643 1248.13 222.445 1245.93 222.744C1240.46 223.613 1235.38 226.108 1231.35 229.904C1226.88 233.729 1222.8 237.994 1217.83 240.243C1214.18 241.804 1210.11 242.143 1206.25 241.212C1202.38 240.281 1198.92 238.128 1196.38 235.073C1195.82 234.424 1195.35 233.713 1194.96 232.954C1194.79 232.647 1194.67 232.315 1194.59 231.972Z" fill="#455A64"/>
<path d="M1271.83 273.304C1271.83 273.304 1271.24 272.942 1270.72 271.856C1270.04 270.306 1269.81 268.596 1270.05 266.919C1270.36 262.525 1274.23 257.821 1274.73 251.772C1275.07 248.968 1274.55 246.126 1273.23 243.63C1272.03 241.641 1270.22 240.105 1268.06 239.261C1266.62 238.655 1265.05 238.441 1263.51 238.641C1262.4 238.822 1261.83 239.054 1261.78 238.951C1261.72 238.848 1262.24 238.486 1263.4 238.124C1265.04 237.707 1266.77 237.788 1268.37 238.357C1270.78 239.194 1272.84 240.837 1274.18 243.009C1275.71 245.699 1276.33 248.805 1275.97 251.875C1275.63 254.876 1274.75 257.791 1273.38 260.483C1272.27 262.551 1271.45 264.76 1270.93 267.049C1270.58 269.177 1270.9 271.36 1271.83 273.304Z" fill="#455A64"/>
<path d="M1312.93 573.692L1391.2 1029.17L1329.47 1036.67L1241.82 630.378L1249.14 1030.83H1190.02L1166.65 569.685L1312.93 573.692Z" fill="#263238"/>
<path d="M1401.18 439.201L1380.73 319.47H1380.45L1388.2 292.871C1388.28 292.162 1388.17 291.443 1387.87 290.794C1387.57 290.145 1387.1 289.591 1386.51 289.191C1385.92 288.791 1385.23 288.561 1384.51 288.526C1383.8 288.492 1383.09 288.653 1382.46 288.994C1382.46 288.994 1382.77 281.989 1376.75 284.005C1376.75 284.005 1376.34 276.793 1371.97 278.99C1371.97 278.99 1370.18 272.347 1365.95 276.845C1365.25 277.595 1352.71 292.535 1352.71 292.535L1354.34 320.581L1354.55 324.045V324.174L1359.95 416.997L1340.98 396.731L1306.88 431.369L1349.38 467.143C1354.23 471.213 1360.2 473.729 1366.5 474.367C1372.8 475.005 1379.15 473.734 1384.73 470.719C1390.3 467.705 1394.84 463.086 1397.75 457.461C1400.67 451.836 1401.82 445.466 1401.07 439.175L1401.18 439.201Z" fill="#EB996E"/>
<path d="M1366.2 256.037L1345.53 212.43L1322.26 223.39L1342.94 267.023C1344.27 269.776 1346.53 271.97 1349.32 273.215C1352.11 274.46 1355.26 274.674 1358.19 273.821L1386.62 333.867C1381.3 336.452 1377.42 338.882 1377.68 339.451C1377.94 340.019 1383.24 338.184 1389.47 335.263C1395.7 332.342 1400.48 329.447 1400.17 328.827C1399.86 328.206 1395.59 329.757 1390.19 332.187L1361.76 272.141C1364.29 270.417 1366.12 267.852 1366.93 264.904C1367.75 261.955 1367.49 258.813 1366.2 256.037Z" fill="#E0E0E0"/>
<path d="M1334.59 245.206C1335.59 244.425 1336.78 243.933 1338.04 243.783C1339.3 243.632 1340.57 243.83 1341.73 244.353C1343.53 245.555 1345.69 246.1 1347.84 245.897C1350 245.695 1352.02 244.757 1353.56 243.242C1354.99 242.285 1354.93 241.484 1356.64 241.794C1356.64 241.794 1364.39 256.812 1364.81 261.853C1365.43 269.349 1352.74 276.044 1346.56 268.625C1342.99 264.334 1334.59 245.206 1334.59 245.206Z" fill="#EB5B14"/>
<path d="M1374.32 316.859C1374.92 313.877 1374.59 310.786 1373.4 307.99C1372.2 305.194 1370.19 302.826 1367.63 301.195C1366.8 300.818 1366.09 300.229 1365.56 299.489C1365.19 298.487 1365.19 297.389 1365.56 296.387C1366.29 293.411 1366.48 290.331 1366.13 287.288C1365.94 285.766 1365.43 284.301 1364.63 282.991C1363.83 281.681 1362.77 280.555 1361.5 279.688L1354.11 300.781" fill="#EB996E"/>
<path d="M1354.03 300.781C1354.44 298.714 1355.01 296.683 1355.74 294.707C1356.95 290.933 1358.71 285.608 1360.91 279.482L1361.14 278.732L1361.84 279.146C1363.33 280.127 1364.57 281.44 1365.47 282.983C1366.36 284.526 1366.89 286.257 1367.01 288.038C1367.19 290.267 1367.07 292.511 1366.64 294.707C1366.31 296.801 1365.45 298.894 1366.82 299.877C1367.47 300.368 1368.38 300.859 1369.15 301.427C1369.88 301.989 1370.56 302.621 1371.17 303.314C1372.24 304.556 1373.12 305.961 1373.75 307.476C1374.72 309.651 1375.14 312.03 1374.97 314.404C1374.98 315.295 1374.8 316.179 1374.42 316.988C1374.37 316.128 1374.37 315.264 1374.42 314.404C1374.39 312.145 1373.86 309.922 1372.87 307.89C1372.21 306.507 1371.34 305.234 1370.29 304.116C1369.69 303.494 1369.04 302.923 1368.35 302.41C1367.65 301.893 1366.85 301.531 1365.97 300.859C1365.49 300.487 1365.12 299.985 1364.91 299.411C1364.73 298.845 1364.66 298.246 1364.73 297.654C1364.73 296.542 1365.12 295.586 1365.27 294.552C1365.66 292.473 1365.77 290.351 1365.58 288.245C1365.5 286.675 1365.06 285.144 1364.3 283.769C1363.54 282.394 1362.48 281.211 1361.19 280.309L1362.12 279.973C1359.95 286.099 1358.01 291.346 1356.59 295.043C1355.92 297.033 1355.06 298.954 1354.03 300.781Z" fill="#D1734A"/>
<path d="M1386.11 299.36C1386.11 299.36 1386.44 299.877 1385.9 300.652C1385.53 301.075 1385.03 301.366 1384.48 301.479C1384.1 301.518 1383.71 301.471 1383.35 301.341C1382.99 301.211 1382.66 301.002 1382.39 300.73C1381.74 300.093 1381.34 299.252 1381.25 298.352C1381.11 297.383 1381.11 296.399 1381.25 295.431C1381.25 294.448 1381.43 293.414 1381.53 292.355C1381.53 291.812 1381.53 291.269 1381.66 290.7V289.847V289.02C1381.66 289.02 1381.84 288.529 1382.08 288.477C1382.16 288.438 1382.25 288.418 1382.35 288.418C1382.44 288.418 1382.53 288.438 1382.62 288.477C1382.72 288.538 1382.81 288.624 1382.88 288.728C1382.94 288.832 1382.97 288.95 1382.98 289.072C1382.7 290.82 1382.3 292.547 1381.79 294.242C1381.42 295.765 1380.68 297.175 1379.65 298.352C1379.31 298.684 1378.9 298.92 1378.44 299.033C1377.99 299.147 1377.51 299.135 1377.06 298.998C1376.64 298.843 1376.26 298.567 1375.99 298.204C1375.72 297.841 1375.56 297.408 1375.54 296.956C1375.54 294.164 1375.87 292.019 1376.03 290.028C1376.09 287.919 1376.38 285.822 1376.88 283.773C1377.1 285.869 1377.1 287.983 1376.88 290.08C1376.88 291.967 1376.62 294.448 1376.67 296.801C1376.67 297.343 1376.98 297.679 1377.32 297.757C1377.55 297.812 1377.79 297.805 1378.02 297.737C1378.24 297.669 1378.45 297.542 1378.61 297.369C1379.44 296.336 1380.04 295.137 1380.37 293.854C1380.86 292.174 1381.25 290.494 1381.56 288.943H1381.79C1381.79 288.943 1382 289.124 1382.1 289.098C1382.2 289.072 1382.1 288.865 1382.1 288.968C1382.1 289.072 1382.36 288.968 1382.67 288.968V289.33V289.77V290.623L1382.51 292.303C1382.51 293.389 1382.26 294.423 1382.1 295.405C1381.84 296.156 1381.75 296.957 1381.85 297.746C1381.95 298.535 1382.23 299.291 1382.67 299.954C1382.81 300.157 1383 300.327 1383.21 300.45C1383.43 300.573 1383.67 300.647 1383.91 300.667C1384.16 300.687 1384.41 300.652 1384.64 300.564C1384.87 300.477 1385.08 300.339 1385.25 300.161C1386.08 299.825 1386 299.36 1386.11 299.36Z" fill="#D1734A"/>
<path d="M1365.95 278.68C1365.95 280.955 1366.18 283.256 1366.28 285.53C1366.29 286.722 1366.47 287.906 1366.82 289.046C1366.99 289.625 1367.29 290.159 1367.69 290.607C1368.09 291.055 1368.59 291.405 1369.15 291.63C1369.71 291.819 1370.32 291.809 1370.88 291.602C1371.43 291.395 1371.9 291.004 1372.2 290.493" fill="#EB996E"/>
<path d="M1372.2 290.39C1372.2 290.39 1372.2 290.726 1371.99 291.139C1371.77 291.428 1371.48 291.664 1371.16 291.834C1370.83 292.003 1370.47 292.101 1370.11 292.122C1369.56 292.16 1369.01 292.068 1368.51 291.852C1368.01 291.637 1367.56 291.303 1367.21 290.881C1366.39 289.911 1365.88 288.711 1365.76 287.443C1365.33 284.507 1365.39 281.518 1365.95 278.603C1366.74 281.42 1367.13 284.335 1367.11 287.262C1367.29 289.537 1368.74 291.191 1370.08 291.191C1371.43 291.191 1372.05 290.286 1372.2 290.39Z" fill="#D1734A"/>
<path d="M1376.72 293.673C1376.72 293.673 1376.57 293.957 1376.16 294.267C1375.54 294.707 1374.82 294.982 1374.06 295.068C1373.46 295.105 1372.87 294.931 1372.38 294.577C1371.85 294.163 1371.46 293.581 1371.3 292.923C1371.03 291.622 1370.97 290.288 1371.12 288.968C1371.04 285.715 1371.43 282.468 1372.28 279.327C1372.77 282.544 1372.83 285.812 1372.46 289.046C1372.32 290.23 1372.32 291.428 1372.46 292.613C1372.51 293.005 1372.7 293.368 1372.98 293.641C1373.27 293.914 1373.64 294.08 1374.04 294.112C1375.56 294.19 1376.65 293.44 1376.72 293.673Z" fill="#D1734A"/>
<path d="M1367.26 435.168C1363.48 429.512 1360.96 423.1 1359.9 416.376C1361.3 419.443 1362.53 422.584 1363.59 425.785C1364.99 428.841 1366.22 431.974 1367.26 435.168Z" fill="#D1734A"/>
<path d="M1221.24 223.493C1221.24 223.493 1257.67 172.907 1263.04 177.974C1268.01 182.627 1270.95 234.66 1270.95 234.66C1270.95 234.66 1234.27 238.331 1221.24 223.493Z" fill="#455A64"/>
<path d="M1237.84 203.952C1237.12 204.159 1236.55 205.968 1237.12 207.105C1237.27 207.378 1237.48 207.617 1237.73 207.808C1237.98 207.999 1238.26 208.138 1238.56 208.218C1238.87 208.297 1239.18 208.315 1239.49 208.271C1239.81 208.226 1240.1 208.12 1240.37 207.958C1240.89 207.589 1241.25 207.029 1241.36 206.4C1241.47 205.771 1241.33 205.124 1240.97 204.598C1240.56 204.115 1239.98 203.8 1239.35 203.714C1238.72 203.629 1238.08 203.777 1237.56 204.133" fill="#FAFAFA"/>
<path d="M1247.97 224.217C1247.27 224.398 1246.68 226.207 1247.25 227.345C1247.4 227.621 1247.61 227.863 1247.86 228.057C1248.11 228.25 1248.4 228.391 1248.71 228.47C1249.01 228.55 1249.33 228.567 1249.65 228.52C1249.96 228.473 1250.26 228.364 1250.53 228.198C1251.05 227.824 1251.4 227.263 1251.5 226.634C1251.61 226.005 1251.47 225.36 1251.1 224.837C1250.68 224.358 1250.11 224.049 1249.48 223.968C1248.85 223.887 1248.21 224.04 1247.69 224.398" fill="#FAFAFA"/>
<path d="M1259.84 210.13C1259.11 210.336 1258.54 212.146 1259.11 213.283C1259.27 213.556 1259.48 213.795 1259.73 213.986C1259.97 214.177 1260.26 214.316 1260.56 214.396C1260.87 214.475 1261.18 214.493 1261.49 214.449C1261.8 214.404 1262.1 214.298 1262.37 214.136C1262.89 213.767 1263.25 213.207 1263.36 212.578C1263.47 211.949 1263.33 211.302 1262.96 210.776C1262.55 210.293 1261.98 209.978 1261.35 209.892C1260.72 209.806 1260.08 209.955 1259.55 210.311" fill="#FAFAFA"/>
<path d="M1259.68 181.929C1258.98 182.11 1258.39 183.919 1258.96 185.056C1259.12 185.33 1259.33 185.569 1259.58 185.761C1259.83 185.952 1260.12 186.092 1260.42 186.171C1260.73 186.25 1261.04 186.268 1261.36 186.223C1261.67 186.178 1261.97 186.072 1262.24 185.909C1262.73 185.513 1263.05 184.954 1263.16 184.336C1263.26 183.718 1263.14 183.083 1262.81 182.549C1262.4 182.066 1261.82 181.751 1261.19 181.665C1260.56 181.58 1259.92 181.729 1259.4 182.084" fill="#FAFAFA"/>
<path d="M1248.67 192.424C1247.97 192.604 1247.38 194.414 1247.95 195.551C1248.1 195.825 1248.31 196.064 1248.57 196.256C1248.82 196.447 1249.1 196.586 1249.41 196.666C1249.71 196.745 1250.03 196.763 1250.35 196.718C1250.66 196.673 1250.96 196.566 1251.23 196.404C1251.72 196.008 1252.04 195.449 1252.15 194.831C1252.25 194.213 1252.13 193.578 1251.8 193.044C1251.39 192.561 1250.81 192.246 1250.18 192.16C1249.55 192.075 1248.91 192.223 1248.39 192.579" fill="#FAFAFA"/>
<path d="M1234.74 223.416C1234.3 223.416 1233.94 224.682 1234.3 225.406C1234.4 225.579 1234.53 225.73 1234.69 225.851C1234.85 225.972 1235.03 226.06 1235.22 226.111C1235.41 226.161 1235.61 226.173 1235.81 226.145C1236.01 226.117 1236.2 226.051 1236.37 225.949C1236.69 225.715 1236.92 225.361 1236.98 224.964C1237.05 224.567 1236.96 224.159 1236.73 223.829C1236.47 223.518 1236.11 223.314 1235.72 223.256C1235.32 223.199 1234.91 223.293 1234.58 223.519" fill="#FAFAFA"/>
<path d="M1260.85 226.983C1260.38 226.983 1260.02 228.25 1260.38 228.948C1260.48 229.12 1260.61 229.272 1260.77 229.393C1260.93 229.514 1261.11 229.602 1261.3 229.652C1261.49 229.703 1261.69 229.715 1261.89 229.687C1262.09 229.659 1262.28 229.592 1262.45 229.49C1262.78 229.257 1263 228.902 1263.07 228.505C1263.13 228.108 1263.04 227.7 1262.81 227.371C1262.56 227.059 1262.19 226.855 1261.79 226.802C1261.39 226.75 1260.99 226.851 1260.66 227.086" fill="#FAFAFA"/>
<path d="M1231.14 215.118C1230.71 215.248 1230.32 216.385 1230.68 217.109C1230.78 217.281 1230.91 217.433 1231.07 217.554C1231.23 217.675 1231.41 217.763 1231.6 217.813C1231.79 217.864 1231.99 217.876 1232.19 217.848C1232.39 217.82 1232.58 217.753 1232.75 217.652C1233.08 217.418 1233.3 217.063 1233.37 216.666C1233.43 216.269 1233.34 215.861 1233.11 215.532C1232.86 215.221 1232.49 215.016 1232.1 214.959C1231.7 214.902 1231.3 214.995 1230.96 215.222" fill="#FAFAFA"/>
<path d="M1247.92 211.215C1247.48 211.215 1247.12 212.482 1247.48 213.206C1247.58 213.378 1247.71 213.53 1247.87 213.651C1248.03 213.772 1248.21 213.86 1248.4 213.91C1248.59 213.961 1248.79 213.973 1248.99 213.945C1249.19 213.917 1249.38 213.85 1249.55 213.748C1249.87 213.51 1250.09 213.157 1250.16 212.762C1250.22 212.366 1250.14 211.96 1249.91 211.629C1249.66 211.311 1249.29 211.102 1248.89 211.044C1248.48 210.987 1248.07 211.085 1247.74 211.319" fill="#FAFAFA"/>
<path d="M1260.87 197.619C1260.43 197.619 1260.04 198.886 1260.41 199.609C1260.5 199.783 1260.64 199.934 1260.8 200.054C1260.95 200.175 1261.14 200.262 1261.33 200.31C1261.52 200.359 1261.72 200.367 1261.92 200.336C1262.12 200.304 1262.31 200.233 1262.47 200.126C1262.8 199.892 1263.02 199.538 1263.09 199.141C1263.16 198.744 1263.07 198.336 1262.84 198.007C1262.58 197.695 1262.22 197.491 1261.82 197.438C1261.42 197.386 1261.02 197.487 1260.69 197.722" fill="#FAFAFA"/>
<path d="M1304.61 430.335L1307.66 500.669L1318.93 580.8H1166.42C1166.42 580.8 1166.08 561.879 1167.48 535.565C1169.42 498.601 1171.28 445.792 1171.28 445.792L1164.3 459.234C1157.23 452.028 1150.58 444.415 1144.4 436.435L1146.54 434.6L1130.54 403.581L1159.65 370.676C1167.21 362.013 1176.45 354.977 1186.81 349.997C1192.17 347.412 1194.21 347.412 1206.25 345.706C1211.91 344.931 1216.2 344.569 1219 344.207C1235.09 349.286 1252.35 349.286 1268.44 344.207C1270.38 344.207 1272.24 344.44 1274.08 344.646L1286.18 347.464C1300.23 350.847 1312.93 358.408 1322.6 369.151L1354.88 404.46L1320.14 443.078L1304.61 430.335Z" fill="#EB5B14"/>
<path d="M1170.94 469.289C1171.52 465.775 1171.85 462.225 1171.93 458.665C1172.34 452.125 1172.96 443.156 1173.76 433.1C1174.56 423.045 1175.49 414.076 1176.14 407.536C1176.65 404.027 1176.9 400.484 1176.89 396.938C1175.94 400.366 1175.28 403.868 1174.92 407.407C1173.97 413.921 1172.91 422.916 1172.08 432.945C1171.25 442.975 1170.84 452.047 1170.71 458.613C1170.47 462.171 1170.55 465.744 1170.94 469.289Z" fill="#263238"/>
<path d="M1331.05 378.379C1330.71 378.915 1330.28 379.388 1329.78 379.775C1328.31 380.95 1326.5 381.628 1324.61 381.713C1321.72 381.798 1318.84 381.361 1316.11 380.421C1312.58 379.14 1309.13 377.664 1305.77 376.001C1301.71 374.106 1297.32 373.026 1292.85 372.821C1287.66 372.761 1282.5 373.546 1277.57 375.148C1272.11 376.946 1266.79 379.167 1261.67 381.791C1256.32 384.376 1250.82 387.478 1244.95 390.037C1239.2 392.668 1233.11 394.462 1226.85 395.361C1220.99 396.158 1215.02 395.474 1209.48 393.371C1204.6 391.359 1199.98 388.755 1195.73 385.616C1191.73 382.747 1187.98 379.956 1184.64 377.629C1181.58 375.491 1178.3 373.688 1174.85 372.253C1172.24 371.198 1169.48 370.57 1166.68 370.392C1164.27 370.328 1161.86 370.518 1159.49 370.96C1161.8 370.113 1164.25 369.743 1166.7 369.875C1169.58 369.957 1172.42 370.525 1175.1 371.555C1178.64 372.938 1182.02 374.716 1185.16 376.854C1188.7 379.128 1192.37 381.894 1196.38 384.608C1200.56 387.684 1205.11 390.228 1209.92 392.182C1215.27 394.183 1221.04 394.814 1226.7 394.017C1232.78 393.132 1238.71 391.392 1244.3 388.847C1250.12 386.263 1255.6 383.342 1261 380.653C1266.17 377.993 1271.56 375.77 1277.1 374.01C1282.16 372.371 1287.46 371.602 1292.77 371.736C1297.41 371.962 1301.95 373.123 1306.13 375.148C1309.49 376.873 1312.94 378.401 1316.47 379.723C1319.11 380.706 1321.9 381.205 1324.72 381.196C1326.49 381.147 1328.21 380.552 1329.63 379.49C1330.58 378.844 1331 378.327 1331.05 378.379Z" fill="white"/>
<path d="M1342.97 391.691C1342.87 392.448 1342.63 393.178 1342.24 393.837C1341.16 395.76 1339.52 397.311 1337.54 398.282C1334.42 399.801 1330.98 400.537 1327.51 400.428C1323.05 400.142 1318.57 400.526 1314.22 401.565C1309.1 403.316 1304.35 406.007 1300.21 409.501C1295.42 413.572 1290.4 417.361 1285.17 420.848C1278.88 424.61 1271.75 426.721 1264.42 426.983C1257.1 427.245 1249.83 425.65 1243.29 422.348C1236.42 418.781 1230.63 413.869 1223.86 411.62C1217.29 409.64 1210.42 408.938 1203.59 409.553C1197 409.889 1190.67 410.561 1184.77 410.561C1171.19 410.535 1157.99 406.089 1147.16 397.895C1145.45 396.588 1143.82 395.181 1142.28 393.681C1141.72 393.169 1141.2 392.616 1140.73 392.027C1141.34 392.47 1141.91 392.954 1142.46 393.475C1143.57 394.431 1145.22 395.827 1147.47 397.481C1153.87 402.08 1161.07 405.462 1168.69 407.459C1173.94 408.824 1179.35 409.484 1184.77 409.423C1190.64 409.423 1196.87 408.699 1203.51 408.312C1210.47 407.657 1217.5 408.359 1224.19 410.38C1231.25 412.732 1237.12 417.695 1243.81 421.133C1250.15 424.343 1257.19 425.903 1264.29 425.668C1271.39 425.433 1278.31 423.411 1284.42 419.789C1289.63 416.344 1294.64 412.616 1299.44 408.622C1303.69 405.069 1308.59 402.367 1313.86 400.661C1318.3 399.654 1322.87 399.315 1327.41 399.652C1330.77 399.826 1334.13 399.197 1337.2 397.817C1339.13 396.93 1340.77 395.503 1341.91 393.707C1342.73 392.415 1342.89 391.665 1342.97 391.691Z" fill="white"/>
<path d="M1304.27 451.117C1303.91 451.442 1303.52 451.728 1303.11 451.97C1302.31 452.487 1301.14 453.237 1299.62 454.167C1295.3 456.835 1290.82 459.235 1286.2 461.353C1279.37 464.684 1271.91 466.534 1264.31 466.781C1259.8 466.782 1255.33 466.022 1251.07 464.533C1246.57 462.886 1242.21 460.889 1238.02 458.561C1233.7 456.261 1229.54 453.935 1225.35 452.099C1221.33 450.331 1217.15 448.946 1212.87 447.964C1205.6 446.286 1198.12 445.745 1190.69 446.361C1185.68 446.782 1180.73 447.709 1175.91 449.127C1172.47 450.109 1170.74 450.859 1170.58 450.729C1170.99 450.477 1171.42 450.269 1171.87 450.109C1172.75 449.721 1174.02 449.178 1175.73 448.61C1180.55 446.991 1185.55 445.916 1190.61 445.405C1202.64 444.19 1214.78 446.077 1225.87 450.884C1230.14 452.746 1234.35 455.072 1238.64 457.372C1242.79 459.664 1247.11 461.634 1251.57 463.266C1255.71 464.759 1260.08 465.528 1264.49 465.541C1271.93 465.332 1279.24 463.617 1286 460.5C1291.86 457.915 1296.34 455.33 1299.51 453.702L1303.13 451.737C1303.49 451.485 1303.87 451.277 1304.27 451.117Z" fill="white"/>
<path d="M1308.41 506.149C1308.41 506.149 1306.47 505.606 1302.95 504.934C1297.94 504.069 1292.81 504.21 1287.86 505.348C1281.52 506.563 1274.16 508.734 1265.89 511.034C1261.56 512.241 1257.18 513.224 1252.75 513.981C1247.96 514.72 1243.13 515.1 1238.28 515.118C1218.3 515.118 1200.9 509.483 1188.7 505.348C1182.58 503.228 1177.69 501.341 1174.33 500.023L1170.45 498.446C1170 498.293 1169.56 498.085 1169.16 497.826C1169.64 497.882 1170.11 498.004 1170.56 498.188L1174.51 499.532C1177.92 500.695 1182.86 502.453 1189.01 504.443C1201.26 508.346 1218.58 513.774 1238.28 513.774C1243.05 513.76 1247.81 513.397 1252.52 512.689C1256.92 511.952 1261.27 510.994 1265.58 509.819C1273.82 507.596 1281.29 505.529 1287.68 504.417C1292.79 503.318 1298.07 503.318 1303.19 504.417C1304.54 504.737 1305.88 505.125 1307.19 505.58C1307.62 505.718 1308.03 505.909 1308.41 506.149Z" fill="white"/>
<path d="M1311.33 545.491C1310.81 545.565 1310.29 545.565 1309.78 545.491H1307.92C1307.17 545.491 1306.31 545.284 1305.33 545.155C1299.95 544.147 1294.78 542.252 1290.03 539.546C1283.9 536.47 1277.1 531.791 1268.34 529.49C1263.81 528.306 1259.09 528.042 1254.46 528.715C1249.48 529.546 1244.64 531.014 1240.04 533.083C1230.5 537.219 1221.79 542.337 1213 545.025C1205.3 547.603 1197.21 548.861 1189.09 548.748C1183.62 548.601 1178.2 547.732 1172.96 546.163C1171.12 545.62 1169.7 545.155 1168.77 544.767C1168.28 544.598 1167.81 544.391 1167.35 544.147C1167.35 543.992 1169.39 544.741 1173.09 545.672C1178.32 546.978 1183.69 547.655 1189.09 547.688C1197.09 547.64 1205.04 546.296 1212.61 543.707C1221.22 541.122 1229.85 535.953 1239.52 531.713C1244.22 529.6 1249.19 528.114 1254.28 527.293C1259.08 526.605 1263.97 526.895 1268.65 528.146C1277.6 530.731 1284.44 535.436 1290.47 538.486C1295.12 541.222 1300.17 543.219 1305.43 544.405L1308.02 544.87L1309.88 545.051C1310.37 545.162 1310.86 545.309 1311.33 545.491Z" fill="white"/>
<path d="M1315.13 571.469C1314.9 571.954 1314.6 572.407 1314.25 572.813C1313.31 574.023 1312.21 575.093 1310.97 575.992C1306.22 579.156 1300.58 580.673 1294.89 580.309C1287.65 580.309 1279.59 577.104 1271 573.588C1266.57 571.66 1261.95 570.171 1257.23 569.142L1253.48 568.47C1252.24 568.237 1250.89 568.238 1249.65 568.108C1247.03 567.901 1244.4 567.849 1241.77 567.953C1231.72 568.718 1221.74 570.221 1211.91 572.451C1203.81 574.251 1195.59 575.409 1187.31 575.915C1181.7 576.142 1176.09 575.603 1170.63 574.312C1168.75 573.769 1167.3 573.226 1166.32 572.89C1165.8 572.762 1165.3 572.562 1164.84 572.296C1165.37 572.349 1165.89 572.462 1166.39 572.632L1170.76 573.821C1176.2 574.874 1181.75 575.256 1187.28 574.958C1195.49 574.324 1203.63 573.08 1211.65 571.236C1221.55 568.907 1231.61 567.36 1241.74 566.609C1244.42 566.505 1247.11 566.557 1249.78 566.764C1251.1 566.893 1252.37 566.919 1253.68 567.152L1257.51 567.85C1262.31 568.91 1267 570.442 1271.49 572.425C1280.08 576.018 1287.91 579.223 1294.94 579.378C1300.46 579.814 1305.98 578.473 1310.68 575.553C1312.32 574.373 1313.81 573.002 1315.13 571.469Z" fill="white"/>
<g opacity="0.3">
<path d="M1301.82 407.924C1301.82 407.924 1290.57 459.363 1294.06 476.397C1297.55 493.431 1312.15 541.458 1312.15 541.458L1306.98 504.133L1304.76 450.6L1301.82 407.924Z" fill="black"/>
</g>
<path d="M1302.1 405.623C1301.67 408.037 1301.54 410.493 1301.71 412.938C1301.71 417.436 1302 423.666 1302.51 430.541C1303.03 437.417 1303.7 443.595 1304.35 448.067C1304.52 450.506 1305.01 452.912 1305.8 455.227C1305.99 452.795 1305.9 450.35 1305.54 447.938C1305.15 442.768 1304.71 436.9 1304.22 430.412C1303.73 423.924 1303.31 418.031 1302.93 412.887C1302.92 410.442 1302.65 408.006 1302.1 405.623Z" fill="#263238"/>
<g opacity="0.3">
<path d="M1174.54 408.493C1172.2 414.974 1169.04 421.126 1165.13 426.794C1161.53 432.635 1158.28 437.572 1156.98 444.319C1155.69 451.066 1159.36 454.529 1164.27 459.337C1168.2 451.763 1171.54 445.586 1171.54 445.586C1171.9 436.022 1173.27 418.858 1174.87 408.493" fill="black"/>
</g>
<path d="M100.966 589.386L22.696 1044.87L84.4227 1052.36L172.076 646.072L164.76 1046.52H223.876L247.244 585.379L100.966 589.386Z" fill="#263238"/>
<path d="M420.947 352.482C420.947 352.482 426.117 347.881 420.611 344.909C420.611 344.909 425.548 339.739 420.947 337.981C420.947 337.981 424.514 332.088 418.362 332.139C417.328 332.139 397.89 333.354 397.89 333.354L375.893 356.101L327.581 422.377L256.11 398.234L246.83 461.021L315.665 479.115C322.386 480.872 329.504 480.294 335.853 477.476C342.202 474.658 347.406 469.768 350.613 463.606L395.046 377.995L422.136 359.435C422.741 359.011 423.213 358.424 423.497 357.742C423.781 357.06 423.866 356.311 423.741 355.583C423.617 354.854 423.288 354.176 422.793 353.628C422.299 353.079 421.658 352.682 420.947 352.482Z" fill="#FFBE9D"/>
<path d="M429.141 288.972L437.18 241.436L411.822 237.145L403.783 284.681C403.298 287.696 403.896 290.787 405.471 293.403C407.047 296.02 409.499 297.994 412.391 298.975L401.328 364.45C395.46 363.571 390.988 363.313 390.782 363.907C390.575 364.502 396.08 366.053 402.853 367.216C409.625 368.379 415.209 368.741 415.312 368.069C415.415 367.397 411.021 366.208 405.205 365.122L416.294 299.544C419.338 299.576 422.295 298.534 424.645 296.6C426.995 294.666 428.587 291.964 429.141 288.972Z" fill="#E0E0E0"/>
<path d="M390.782 340.902L413.089 330.795C413.536 331.916 413.715 333.127 413.612 334.329C413.508 335.532 413.126 336.694 412.494 337.723C411.19 339.759 409.494 341.516 407.506 342.892C405.534 344.239 403.668 345.734 401.922 347.364C402.726 349.574 403.022 351.937 402.789 354.277C402.557 356.617 401.801 358.874 400.578 360.883C399.273 362.838 397.34 364.291 395.099 365C392.857 365.71 390.441 365.634 388.248 364.786" fill="#FFBE9D"/>
<path d="M409.393 262.012C410.657 261.941 411.917 262.219 413.034 262.816C414.151 263.413 415.082 264.307 415.725 265.398C416.519 267.409 417.979 269.086 419.861 270.15C421.743 271.213 423.933 271.598 426.065 271.24C427.771 271.24 428.185 270.593 429.399 271.808C429.399 271.808 427.176 288.584 424.643 292.953C420.844 299.466 406.549 297.683 405.8 288.093C405.334 282.51 409.393 262.012 409.393 262.012Z" fill="#EB5B14"/>
<path d="M392.798 339.946C394.559 338.8 396.418 337.813 398.355 336.999C401.922 335.267 406.989 332.889 412.882 330.175L413.606 329.839L413.787 330.614C414.069 332.368 413.951 334.163 413.44 335.864C412.93 337.565 412.041 339.128 410.84 340.437C409.315 342.098 407.577 343.549 405.67 344.754C403.913 345.969 401.819 346.796 402.077 348.424C402.077 349.225 402.439 350.234 402.543 351.19C402.633 352.11 402.633 353.036 402.543 353.956C402.404 355.603 402.002 357.217 401.354 358.738C400.45 360.936 399.021 362.88 397.192 364.399C396.559 364.999 395.8 365.45 394.969 365.717C394.969 365.717 395.693 365.122 396.83 364.011C398.442 362.421 399.686 360.498 400.475 358.376C401.012 356.932 401.334 355.416 401.431 353.878C401.509 353.018 401.509 352.153 401.431 351.293C401.431 350.44 401.043 349.613 400.914 348.476C400.842 347.872 400.95 347.26 401.224 346.718C401.511 346.207 401.898 345.759 402.362 345.4C403.266 344.702 404.119 344.237 404.947 343.642C406.728 342.496 408.345 341.113 409.754 339.532C410.803 338.373 411.58 336.993 412.027 335.495C412.474 333.997 412.581 332.418 412.339 330.873L413.244 331.312C407.299 333.897 402.155 336.172 398.51 337.697C396.672 338.604 394.761 339.356 392.798 339.946Z" fill="#EB996E"/>
<path d="M415.932 362.176C415.932 362.176 415.777 362.822 414.769 362.899C414.473 362.926 414.174 362.889 413.894 362.791C413.613 362.693 413.356 362.536 413.141 362.331C412.854 362.043 412.639 361.692 412.513 361.306C412.387 360.92 412.354 360.509 412.417 360.108C412.511 359.132 412.94 358.218 413.632 357.523C414.358 356.809 415.145 356.16 415.984 355.584L421.567 351.5L422.317 352.56C420.9 353.622 419.375 354.532 417.768 355.274C416.345 355.948 414.855 356.468 413.322 356.825C412.875 356.913 412.415 356.908 411.97 356.81C411.525 356.712 411.105 356.524 410.737 356.256C410.362 355.955 410.097 355.538 409.985 355.07C409.872 354.602 409.919 354.11 410.116 353.671C410.485 353.029 410.988 352.474 411.59 352.043L413.037 350.854L415.622 348.786C417.268 347.301 419.07 346.001 420.999 344.909C419.565 346.591 417.972 348.132 416.242 349.51L413.658 351.707C412.83 352.508 411.564 353.335 411.073 354.292C410.582 355.248 411.693 355.946 412.934 355.636C414.345 355.294 415.714 354.8 417.018 354.163C418.545 353.443 420 352.577 421.361 351.578L422.136 352.637L416.449 356.592C414.692 357.73 413.244 358.815 413.063 360.211C412.994 360.46 412.98 360.721 413.022 360.976C413.064 361.231 413.161 361.474 413.306 361.688C413.451 361.902 413.641 362.082 413.862 362.215C414.084 362.348 414.331 362.432 414.588 362.46C415.545 362.538 415.881 362.098 415.932 362.176Z" fill="#EB996E"/>
<path d="M413.58 351.474C413.58 351.474 413.244 351.474 412.753 351.474C412.003 351.356 411.303 351.024 410.737 350.518C410.288 350.113 409.996 349.565 409.91 348.967C409.856 348.288 410.019 347.609 410.375 347.028C411.131 345.941 412.056 344.981 413.115 344.185C415.419 341.898 418.029 339.941 420.869 338.369C418.887 340.952 416.566 343.256 413.968 345.219C412.995 345.962 412.126 346.831 411.383 347.804C411.129 348.113 410.99 348.502 410.99 348.902C410.99 349.303 411.129 349.691 411.383 350.001C412.443 350.957 413.683 351.242 413.58 351.474Z" fill="#EB996E"/>
<path d="M412.805 346.072C412.805 346.072 412.65 346.356 412.133 346.434C411.768 346.471 411.4 346.43 411.052 346.315C410.705 346.199 410.386 346.01 410.116 345.762C409.712 345.388 409.403 344.924 409.214 344.407C409.025 343.89 408.963 343.335 409.031 342.789C409.177 341.527 409.699 340.338 410.53 339.377C412.36 337.044 414.561 335.027 417.044 333.406C415.559 335.928 413.722 338.225 411.59 340.23C410.91 340.819 410.457 341.627 410.311 342.515C410.164 343.403 410.333 344.314 410.788 345.09C411.719 346.072 412.779 345.762 412.805 346.072Z" fill="#EB996E"/>
<path d="M48.3121 341.031L55.8341 232.337H56.0409L56.3769 230.528C57.3075 228.796 58.4965 226.78 59.944 224.505C61.223 222.523 62.8316 220.775 64.7002 219.335C66.7651 217.671 68.9904 216.217 71.3433 214.993L71.8861 214.812C72.2562 214.716 72.6005 214.54 72.8942 214.295C73.3512 214.072 73.7323 213.72 73.99 213.281C74.2476 212.843 74.3703 212.339 74.3428 211.831C74.3152 211.324 74.1385 210.835 73.8349 210.428C73.5312 210.02 73.1142 209.711 72.6357 209.539C70.4903 208.841 64.2866 210.624 58.3414 215.51L58.0571 215.742C51.9051 220.525 54.7484 208.712 55.7048 204.395C56.6612 200.078 59.0393 186.585 57.9278 185.293C56.3252 183.354 53.8954 184.776 53.0424 189.092C52.1894 193.409 48.674 206.256 46.3993 205.713C44.1246 205.17 49.3719 183.225 49.3719 183.225C49.3719 183.225 51.2589 178.701 48.674 178.055C43.9695 176.711 40.1698 200.388 39.8596 202.663C39.6528 204.24 37.2747 203.697 37.4815 202.043C37.6883 200.388 43.1941 180.278 38.4379 178.779C34.7932 177.693 35.1293 198.217 31.6914 201.81C28.2535 205.403 33.0355 186.301 29.4943 185.319C28.2018 184.983 27.1679 184.931 26.0047 196.33C25.5215 205.284 25.5215 214.258 26.0047 223.213V225.798C26.0047 225.798 -6.69392 353.128 1.24163 370.55C9.17718 387.972 99.751 426.513 99.751 426.513L119.06 370.757L48.3121 341.031Z" fill="#FFBE9D"/>
<path d="M397.14 202.482C391.763 201.979 386.437 201.028 381.217 199.639C375.896 198.686 370.664 197.285 365.579 195.451C370.956 195.971 376.281 196.931 381.502 198.32C386.82 199.277 392.05 200.669 397.14 202.482Z" fill="#263238"/>
<path d="M398.123 222.308C395.642 224.148 392.908 225.62 390.006 226.676C387.253 228.129 384.3 229.166 381.243 229.752C383.724 227.912 386.458 226.441 389.36 225.384C392.119 223.945 395.07 222.909 398.123 222.308Z" fill="#263238"/>
<path d="M175.901 235.982C168.835 234.757 161.635 234.496 154.499 235.207C150.924 235.571 147.459 236.652 144.31 238.384C141.162 240.116 138.394 242.464 136.172 245.288C133.587 248.906 132.243 253.378 129.063 256.454C125.109 260.28 118.362 262.115 117.432 267.543C116.501 272.972 122.756 277.624 122.937 283.259C122.626 286.493 121.467 289.587 119.577 292.229C118.026 295.072 116.759 298.536 118.181 301.457C119.318 303.809 121.929 305.101 123.351 307.299C125.548 310.659 124.514 315.053 125.47 319.06C126.892 324.772 132.682 328.572 138.395 329.399C144.287 329.962 150.232 329.365 155.894 327.642" fill="#263238"/>
<path d="M181.511 237.921C186.115 236.202 191.029 235.471 195.934 235.775C198.376 235.988 200.705 236.904 202.636 238.414C204.568 239.923 206.02 241.961 206.816 244.28C207.54 247.226 206.816 250.664 208.833 252.965C210.849 255.265 215.243 255.369 217.673 257.721C222.843 262.891 214.907 273.23 220.103 278.4C221.498 279.77 223.541 280.287 225.04 281.553C226.238 282.722 227.009 284.259 227.23 285.918C227.45 287.578 227.107 289.263 226.255 290.704C225.35 292.118 224.144 293.314 222.723 294.208C221.302 295.101 219.701 295.67 218.035 295.874C214.707 296.231 211.342 295.923 208.135 294.969C196.985 292.403 187.211 285.73 180.761 276.28C174.738 266.742 173.911 253.611 180.322 244.305" fill="#263238"/>
<path d="M140.411 279.822L148.657 375.462L196.554 371.636C196.839 366.053 196.554 344.418 196.554 344.418C196.554 344.418 216.484 341.316 216.716 321.386C216.846 311.719 215.45 291.712 214.002 273.696C213.228 264.113 208.741 255.212 201.498 248.891C194.254 242.57 184.828 239.329 175.229 239.86C170.29 240.115 165.453 241.363 161.007 243.527C156.56 245.691 152.594 248.728 149.345 252.456C146.096 256.185 143.631 260.53 142.096 265.231C140.561 269.932 139.988 274.894 140.411 279.822Z" fill="#FFBE9D"/>
<path d="M196.477 344.107C187.321 344.24 178.329 341.669 170.628 336.714C170.628 336.714 176.78 351.06 196.658 349.251L196.477 344.107Z" fill="#EB996E"/>
<path d="M209.014 286.93C209.021 287.671 208.738 288.386 208.227 288.922C207.715 289.457 207.014 289.772 206.274 289.799C205.912 289.824 205.548 289.776 205.205 289.659C204.861 289.542 204.545 289.358 204.273 289.117C204.001 288.877 203.78 288.585 203.622 288.258C203.464 287.932 203.372 287.577 203.353 287.214C203.345 286.473 203.628 285.759 204.14 285.223C204.651 284.687 205.352 284.372 206.093 284.345C206.455 284.317 206.82 284.362 207.165 284.478C207.51 284.594 207.828 284.778 208.101 285.019C208.373 285.26 208.595 285.553 208.751 285.882C208.908 286.21 208.997 286.567 209.014 286.93Z" fill="#263238"/>
<path d="M209.634 283.725C209.298 284.087 207.049 282.484 204.076 282.51C201.104 282.536 198.751 284.035 198.441 283.673C198.131 283.311 198.622 282.82 199.605 282.122C200.93 281.197 202.512 280.709 204.128 280.726C205.714 280.722 207.262 281.22 208.548 282.148C209.505 282.872 209.815 283.544 209.634 283.725Z" fill="#263238"/>
<path d="M179.029 287.628C179.036 288.369 178.754 289.083 178.242 289.619C177.73 290.155 177.03 290.47 176.289 290.497C175.923 290.545 175.55 290.514 175.196 290.406C174.843 290.297 174.517 290.115 174.24 289.87C173.963 289.625 173.742 289.323 173.592 288.985C173.441 288.648 173.365 288.282 173.368 287.912C173.361 287.171 173.643 286.456 174.155 285.921C174.667 285.385 175.368 285.07 176.108 285.043C176.471 285.015 176.836 285.06 177.181 285.176C177.526 285.291 177.844 285.475 178.116 285.716C178.389 285.957 178.61 286.251 178.767 286.579C178.924 286.908 179.013 287.264 179.029 287.628Z" fill="#263238"/>
<path d="M179.623 284.293C179.262 284.655 177.039 283.053 174.04 283.078C171.042 283.104 168.87 284.604 168.405 284.242C167.94 283.88 168.612 283.414 169.594 282.691C170.903 281.767 172.465 281.271 174.066 281.271C175.667 281.271 177.23 281.767 178.538 282.691C179.391 283.44 179.623 284.035 179.623 284.293Z" fill="#263238"/>
<path d="M190.661 306.989C192.275 306.502 193.941 306.207 195.624 306.11C196.399 306.11 197.149 305.851 197.278 305.334C197.351 304.524 197.17 303.711 196.761 303.008L194.461 297.063C192.305 292.047 190.576 286.859 189.291 281.553C191.825 286.419 193.977 291.475 195.727 296.675C196.477 298.769 197.226 300.759 197.924 302.672C198.423 303.616 198.569 304.706 198.338 305.748C198.225 306.024 198.049 306.271 197.825 306.468C197.601 306.665 197.334 306.808 197.046 306.885C196.616 307.002 196.173 307.063 195.727 307.066C194.042 307.256 192.339 307.23 190.661 306.989Z" fill="#263238"/>
<path d="M181.64 309.108C182.131 309.108 182.157 312.417 185 314.769C187.843 317.121 191.385 316.76 191.41 317.354C191.436 317.949 190.609 318 189.11 318.052C187.161 318.067 185.268 317.399 183.759 316.165C182.308 314.991 181.379 313.291 181.174 311.435C181.045 309.884 181.407 309.108 181.64 309.108Z" fill="#263238"/>
<path d="M180.321 272.3C180.037 273.127 176.987 272.739 173.394 273.153C169.801 273.566 166.88 274.574 166.415 273.825C165.95 273.075 166.699 272.687 167.862 271.886C169.417 270.881 171.19 270.261 173.032 270.077C174.874 269.858 176.741 270.07 178.486 270.697C179.804 271.24 180.476 271.886 180.321 272.3Z" fill="#263238"/>
<path d="M208.522 274.859C207.979 275.557 205.937 274.859 203.353 274.859C200.768 274.859 198.674 275.324 198.183 274.6C197.692 273.876 198.183 273.54 199.243 272.868C200.504 272.081 201.97 271.686 203.456 271.732C204.942 271.778 206.381 272.263 207.592 273.127C208.471 273.695 208.755 274.523 208.522 274.859Z" fill="#263238"/>
<path d="M147.132 294.762C146.77 294.607 133.432 290.704 133.871 304.326C134.311 317.948 147.881 314.666 147.907 314.33C147.933 313.994 147.132 294.762 147.132 294.762Z" fill="#FFBE9D"/>
<path d="M143.565 309.289C143.565 309.289 143.332 309.47 142.944 309.651C142.381 309.881 141.75 309.881 141.187 309.651C140.283 309.13 139.537 308.374 139.028 307.464C138.518 306.554 138.264 305.524 138.291 304.481C138.225 303.31 138.41 302.137 138.834 301.043C138.951 300.616 139.17 300.224 139.471 299.9C139.773 299.575 140.149 299.329 140.566 299.182C140.835 299.096 141.126 299.109 141.386 299.218C141.647 299.327 141.86 299.525 141.988 299.777C142.08 299.991 142.141 300.217 142.169 300.449C142.169 300.449 142.479 300.216 142.35 299.647C142.254 299.318 142.054 299.028 141.781 298.82C141.593 298.684 141.379 298.586 141.153 298.533C140.927 298.48 140.692 298.472 140.463 298.51C139.905 298.641 139.389 298.911 138.964 299.295C138.54 299.679 138.219 300.165 138.033 300.707C137.501 301.909 137.261 303.22 137.335 304.533C137.303 305.747 137.632 306.943 138.281 307.969C138.93 308.995 139.869 309.806 140.98 310.297C141.352 310.389 141.739 310.398 142.115 310.322C142.49 310.246 142.844 310.087 143.151 309.858C143.565 309.625 143.616 309.315 143.565 309.289Z" fill="#EB996E"/>
<path d="M187.895 239.394C186.098 237.467 183.96 235.889 181.588 234.741C178.827 233.512 175.819 232.937 172.799 233.061C166.681 233.108 160.624 234.291 154.938 236.551C149.174 238.826 144.533 243.272 142.014 248.932C140.256 253.378 140.178 258.6 137.154 262.27C134.698 265.269 130.511 266.975 129.399 270.645C127.254 277.159 136.249 283.57 134.207 290.006C133.664 291.099 133.323 292.281 133.199 293.496C133.316 294.213 133.637 294.881 134.122 295.422C134.608 295.963 135.239 296.352 135.939 296.546C137.352 296.891 138.819 296.953 140.256 296.727C145.426 296.261 151.474 294.969 153.18 290.135C154.886 285.301 151.552 280.261 154.059 276.28C156.256 272.842 160.599 273.695 163.907 271.317C165.301 270.319 166.561 269.147 167.655 267.828C169.948 267.465 172.188 266.822 174.324 265.915C177.037 264.812 179.234 262.725 180.476 260.073C181.717 257.126 181.329 253.508 183.371 251.052C185.414 248.596 189.859 247.692 190.661 244.461C190.828 243.429 190.647 242.371 190.146 241.453C189.645 240.536 188.853 239.811 187.895 239.394Z" fill="#263238"/>
<path d="M180.89 233.035C180.89 233.035 137.645 188.188 133.096 193.952C128.831 199.277 133.329 251.181 133.329 251.181C133.329 251.181 170.111 249.604 180.89 233.035Z" fill="#EB5B14"/>
<path d="M161.685 216.078C162.408 216.078 163.261 217.888 162.848 219.103C162.732 219.393 162.559 219.658 162.339 219.881C162.119 220.103 161.857 220.28 161.568 220.401C161.279 220.521 160.969 220.582 160.657 220.582C160.344 220.581 160.034 220.517 159.746 220.395C159.182 220.102 158.755 219.6 158.557 218.996C158.358 218.392 158.405 217.734 158.686 217.164C159.028 216.63 159.553 216.241 160.163 216.069C160.773 215.898 161.425 215.956 161.995 216.233" fill="#FAFAFA"/>
<path d="M154.524 237.507C155.248 237.507 156.101 239.291 155.688 240.506C155.574 240.799 155.403 241.066 155.184 241.291C154.966 241.517 154.704 241.696 154.415 241.819C154.126 241.942 153.815 242.006 153.501 242.007C153.187 242.008 152.875 241.945 152.586 241.824C152.042 241.504 151.634 240.996 151.439 240.396C151.244 239.796 151.275 239.146 151.526 238.567C151.868 238.033 152.393 237.644 153.003 237.472C153.613 237.301 154.265 237.359 154.835 237.636" fill="#FAFAFA"/>
<path d="M140.851 225.332C141.574 225.332 142.427 227.116 142.014 228.331C141.897 228.625 141.724 228.892 141.503 229.118C141.281 229.344 141.018 229.523 140.726 229.646C140.435 229.769 140.123 229.832 139.807 229.833C139.491 229.833 139.178 229.771 138.886 229.649C138.347 229.325 137.944 228.815 137.754 228.216C137.564 227.616 137.599 226.968 137.852 226.392C138.194 225.858 138.719 225.469 139.329 225.297C139.939 225.126 140.591 225.184 141.161 225.462" fill="#FAFAFA"/>
<path d="M136.921 197.39C137.645 197.39 138.498 199.174 138.085 200.389C137.968 200.682 137.794 200.95 137.573 201.176C137.352 201.402 137.089 201.581 136.797 201.704C136.506 201.827 136.193 201.89 135.877 201.891C135.561 201.891 135.249 201.829 134.957 201.707C134.418 201.383 134.015 200.873 133.825 200.274C133.635 199.674 133.67 199.026 133.923 198.45C134.265 197.916 134.79 197.527 135.4 197.355C136.01 197.184 136.662 197.242 137.232 197.519" fill="#FAFAFA"/>
<path d="M149.329 206.205C150.053 206.205 150.88 207.988 150.466 209.203C150.352 209.496 150.181 209.763 149.963 209.989C149.744 210.214 149.482 210.394 149.193 210.517C148.904 210.64 148.593 210.703 148.279 210.704C147.965 210.705 147.654 210.643 147.364 210.521C146.821 210.201 146.413 209.693 146.218 209.094C146.022 208.494 146.053 207.843 146.305 207.264C146.646 206.731 147.172 206.341 147.782 206.17C148.392 205.998 149.043 206.056 149.613 206.334" fill="#FAFAFA"/>
<path d="M167.526 234.922C167.966 234.922 168.509 236.06 168.25 236.835C168.176 237.019 168.067 237.186 167.928 237.328C167.789 237.469 167.623 237.582 167.44 237.659C167.258 237.735 167.062 237.775 166.863 237.776C166.665 237.777 166.469 237.738 166.286 237.662C165.927 237.48 165.655 237.162 165.529 236.78C165.403 236.397 165.433 235.98 165.614 235.62C165.819 235.271 166.152 235.014 166.541 234.904C166.931 234.793 167.349 234.837 167.707 235.026" fill="#FAFAFA"/>
<path d="M142.195 242.031C142.634 242.031 143.177 243.168 142.918 243.943C142.845 244.127 142.735 244.295 142.596 244.436C142.457 244.578 142.292 244.69 142.109 244.767C141.926 244.844 141.73 244.884 141.532 244.884C141.334 244.885 141.137 244.846 140.954 244.771C140.595 244.588 140.323 244.271 140.197 243.888C140.071 243.506 140.102 243.089 140.282 242.729C140.488 242.379 140.82 242.123 141.21 242.012C141.6 241.901 142.017 241.945 142.376 242.134" fill="#FAFAFA"/>
<path d="M169.904 226.185C170.37 226.185 170.887 227.323 170.628 228.072C170.56 228.261 170.454 228.433 170.317 228.579C170.179 228.724 170.012 228.84 169.828 228.917C169.643 228.995 169.444 229.034 169.244 229.031C169.043 229.028 168.846 228.983 168.664 228.9C168.309 228.712 168.043 228.393 167.922 228.011C167.801 227.629 167.835 227.214 168.017 226.857C168.228 226.513 168.56 226.261 168.948 226.15C169.336 226.04 169.751 226.08 170.111 226.263" fill="#FAFAFA"/>
<path d="M152.741 224.712C153.18 224.712 153.723 225.85 153.465 226.599C153.394 226.785 153.286 226.955 153.148 227.099C153.009 227.242 152.843 227.356 152.659 227.433C152.476 227.51 152.278 227.55 152.079 227.549C151.88 227.547 151.683 227.506 151.5 227.426C151.141 227.244 150.869 226.926 150.743 226.544C150.617 226.161 150.648 225.744 150.828 225.384C151.038 225.04 151.371 224.787 151.759 224.677C152.147 224.567 152.562 224.607 152.922 224.79" fill="#FAFAFA"/>
<path d="M137.981 213.08C138.447 213.08 138.964 214.217 138.731 214.993C138.674 215.195 138.573 215.382 138.437 215.542C138.3 215.701 138.13 215.829 137.939 215.916C137.748 216.004 137.54 216.048 137.33 216.047C137.12 216.046 136.912 215.999 136.722 215.909C136.532 215.82 136.364 215.69 136.229 215.529C136.094 215.368 135.995 215.18 135.941 214.977C135.886 214.774 135.876 214.562 135.911 214.355C135.947 214.148 136.027 213.951 136.146 213.778C136.347 213.424 136.679 213.163 137.071 213.052C137.463 212.94 137.883 212.988 138.24 213.183" fill="#FAFAFA"/>
<path d="M197.33 344.495C196.946 344.683 196.537 344.813 196.115 344.883C194.928 345.195 193.718 345.411 192.496 345.529C187.987 345.988 183.432 345.404 179.184 343.823C168.25 340.075 156.334 328.055 149.691 311.977C146.734 304.359 144.922 296.345 144.314 288.196C143.736 281.587 143.546 274.95 143.746 268.319C143.901 262.658 144.185 258.109 144.392 254.955C144.392 253.507 144.599 252.37 144.676 251.336C144.692 250.907 144.762 250.482 144.883 250.07C144.95 250.489 144.95 250.917 144.883 251.336C144.883 252.318 144.883 253.533 144.883 254.981C144.883 258.134 144.702 262.735 144.676 268.319C144.609 274.912 144.894 281.504 145.529 288.067C146.192 296.082 148.002 303.96 150.906 311.46C157.42 327.228 169 339.092 179.494 342.944C183.609 344.533 188.013 345.238 192.419 345.012C195.598 344.831 197.304 344.34 197.33 344.495Z" fill="#455A64"/>
<path d="M110.116 449.467L95.7962 600.035H250.32C250.707 584.035 243.547 465.027 243.547 465.027L274.566 471.903L304.705 407.281L255.308 382.906C232.768 371.92 227.935 367.655 208.781 365.019C203.12 364.243 198.829 363.881 196.037 363.52C179.948 368.612 162.678 368.612 146.589 363.52C144.65 363.52 142.789 363.752 140.954 363.959L98.6912 354.343L64.5968 345.374L42.9356 413.925L110.116 449.467Z" fill="#EB5B14"/>
<path d="M112.934 421.395C113.242 423.832 113.242 426.299 112.934 428.736C112.727 433.234 112.21 439.437 111.409 446.287C110.608 453.137 109.677 459.212 108.824 463.735C108.541 466.169 107.95 468.558 107.066 470.844C107.001 468.401 107.191 465.957 107.635 463.554C108.229 458.384 108.927 452.543 109.703 446.081C110.478 439.618 111.125 433.777 111.693 428.633C111.847 426.183 112.263 423.756 112.934 421.395Z" fill="#263238"/>
<path d="M243.78 488.239C243.202 484.735 242.874 481.193 242.798 477.641C242.384 471.076 241.79 462.132 240.963 452.051C240.135 441.97 239.257 433.052 238.61 426.513C238.097 422.995 237.838 419.444 237.835 415.889C238.79 419.272 239.447 422.731 239.799 426.228C240.756 432.742 241.841 441.738 242.669 451.767C243.496 461.796 243.883 470.869 244.013 477.461C244.264 481.053 244.186 484.661 243.78 488.239Z" fill="#263238"/>
<path d="M240.911 483.561C240.145 483.261 239.409 482.889 238.714 482.449L232.665 478.96L211.081 466.216H211.65L174.144 486.895L173.782 487.102L173.472 486.895L140.902 466.216H141.497L116.682 479.296L109.625 483.07C108.795 483.523 107.93 483.912 107.04 484.233C107.773 483.664 108.561 483.17 109.393 482.76L116.243 478.882L140.851 465.234L141.135 465.079L141.419 465.26C150.957 471.231 162.098 478.184 174.066 485.706H173.446L211.056 465.312L211.34 465.157L211.598 465.312L232.949 478.469L238.843 482.191C239.572 482.584 240.264 483.043 240.911 483.561Z" fill="white"/>
<path d="M239.231 499.587C238.468 499.269 237.733 498.889 237.034 498.45L230.959 494.986L209.401 482.243H209.944L172.464 502.922L172.102 503.103L171.766 502.896L139.222 482.217H139.817L115.002 495.374L108.023 498.967C107.196 499.428 106.331 499.817 105.438 500.13C106.19 499.569 106.986 499.068 107.816 498.631L114.666 494.779L139.248 481.26L139.558 481.08L139.842 481.26L172.489 501.707H171.869L209.479 481.312L209.763 481.157L210.022 481.338L231.347 494.469L237.266 498.217C237.96 498.616 238.617 499.074 239.231 499.587Z" fill="white"/>
<path d="M253.111 467.095C252.842 466.541 252.658 465.948 252.569 465.338L251.405 460.349C250.449 455.774 249.157 449.699 247.657 442.539V442.074L248.097 441.893L268.776 432.639L279.994 427.676L279.606 428.348C278.443 418.216 277.461 409.401 276.841 403.146C276.548 400.199 276.315 397.743 276.143 395.779C276.056 394.919 276.056 394.053 276.143 393.194C276.425 394.031 276.607 394.899 276.685 395.779C276.97 397.718 277.332 400.173 277.771 403.094C278.624 409.324 279.761 418.112 281.002 428.245V428.71L280.537 428.917L269.086 433.957L248.407 443.056L248.769 442.384C250.087 449.596 251.199 455.696 252.052 460.297C252.388 462.313 252.646 463.968 252.879 465.467C253.018 465.999 253.096 466.546 253.111 467.095Z" fill="white"/>
<path d="M83.9833 350.725C84.2403 351.277 84.4312 351.859 84.552 352.456L85.8703 357.419C86.9818 361.995 88.4551 368.017 90.1612 375.1V375.565L89.7217 375.772L70.4903 385.129L58.3931 390.919L58.755 390.299C59.4271 399.889 59.9699 408.134 60.3059 414.028C60.3059 416.768 60.5386 419.198 60.6419 420.904C60.727 421.763 60.727 422.629 60.6419 423.489C60.3994 422.691 60.2604 421.866 60.2284 421.033C60.0474 419.198 59.8148 416.923 59.5305 414.183C58.9618 408.315 58.2639 400.07 57.4884 390.506V390.015L57.8761 389.808L69.9475 383.966L89.2565 374.764L88.9204 375.41C87.3954 368.276 86.1029 362.227 85.0948 357.626C84.7071 355.636 84.3969 353.981 84.1126 352.586C83.9659 351.977 83.9222 351.348 83.9833 350.725Z" fill="white"/>
<path d="M388 619.361L395.16 623.781C395.16 623.781 399.037 614.294 405.758 613.7C412.479 613.105 413.668 621.454 423.645 606.54L420.75 600C420.75 600 417.002 609.564 411.471 608.918C405.939 608.272 398.624 601.706 388 619.361Z" fill="#EB5B14"/>
<path d="M146.182 584.609L150.731 577.501C150.731 577.501 141.322 573.468 140.831 566.696C140.34 559.924 148.586 558.941 133.981 548.602L127.416 551.368C127.416 551.368 136.902 555.297 136.153 560.802C135.403 566.308 128.708 573.778 146.182 584.609Z" fill="#EB5B14"/>
<path d="M972.001 47.5775H980.427C980.427 47.5775 978.851 37.4448 984.279 33.4641C989.707 29.4834 995.032 36.0489 995.911 18.1099L990.095 14C990.095 14 991.801 24.1327 986.735 26.4332C981.668 28.7338 971.897 27.0277 972.001 47.5775Z" fill="#EB5B14"/>
<path d="M467.088 693.042L458.92 691C458.92 691 458.093 701.21 451.889 703.924C445.685 706.638 441.989 699.013 437 716.177L441.73 721.501C441.73 721.501 442.402 711.162 447.882 710.206C453.362 709.249 462.409 713.049 467.088 693.042Z" fill="#EB5B14"/>
<path d="M417.288 524.864L415.582 519.203C415.582 519.203 409.146 522.382 405.243 519.59C401.339 516.799 404.648 511.836 392.499 515.041L391 519.823C391 519.823 397.41 516.54 400.021 519.435C402.632 522.33 403.485 529.258 417.288 524.864Z" fill="#455A64"/>
<path d="M804.06 14.9903L800.467 13C800.467 13 798.787 17.7045 795.556 18.1697C792.325 18.635 791.498 14.6285 787 22.0729L788.551 25.2006C788.551 25.2006 790.154 20.4444 792.868 20.6254C795.582 20.8063 799.356 23.8564 804.06 14.9903Z" fill="#455A64"/>
<path d="M598.979 25.3834L600.841 18.6628C600.841 18.6628 592.388 17.7581 590.501 12.5625C588.614 7.36688 594.766 4.47183 580.653 0L576 3.77391C576 3.77391 584.478 4.54937 585.228 9.12459C585.978 13.6998 582.488 21.0925 598.979 25.3834Z" fill="#455A64"/>
<path d="M1043.98 640.383L1045.84 633.663C1045.84 633.663 1037.41 632.758 1035.37 627.563C1033.33 622.367 1039.64 619.472 1025.52 615L1021 618.8C1021 618.8 1029.48 619.549 1030.25 624.125C1031.03 628.7 1027.49 636.118 1043.98 640.383Z" fill="#455A64"/>
<path d="M1000.3 345L996.245 345.646C996.245 345.646 997.822 350.377 995.547 352.755C993.273 355.133 990.171 352.419 991.205 361.078L994.333 362.577C994.333 362.577 992.678 357.847 994.953 356.322C997.228 354.797 1002.04 354.874 1000.3 345Z" fill="#455A64"/>
<path d="M495.181 30.9163V26.8063C495.181 26.8063 490.244 27.5042 488.331 24.816C486.419 22.1277 489.65 19.6462 480.939 19L479 21.8434C479 21.8434 483.963 21.0937 485.023 23.5752C486.083 26.0567 485.152 30.787 495.181 30.9163Z" fill="#E0E0E0"/>
<path d="M400.309 70L397 76.7982C397 76.7982 405.814 79.3831 406.978 85.3541C408.141 91.3252 400.851 93.1087 414.991 100.657L420.574 97.503C420.574 97.503 411.682 94.9181 411.76 90.0327C411.837 85.1473 417.033 77.7805 400.309 70Z" fill="#EB5B14"/>
<path d="M1234.9 533.248L1229.73 526.579C1229.73 526.579 1222.78 534.101 1216.27 532.291C1209.75 530.482 1211.56 522.34 1197.01 532.705L1197.42 539.839C1197.42 539.839 1204.3 532.084 1209.24 534.669C1214.17 537.254 1218.85 546.017 1234.9 533.248Z" fill="#EB5B14"/>
</svg>
