<svg width="789" height="730" viewBox="0 0 789 730" fill="none" xmlns="http://www.w3.org/2000/svg">
<path d="M1.03313 709.053L0.204987 707.612L431.206 458.77L431.62 459.019L788.204 664.896L787.376 666.32L431.206 460.691L1.03313 709.053Z" fill="#E0E0E0"/>
<path d="M759.169 385.578L755.161 386.953L607.121 301.488L611.129 300.114L759.169 385.578Z" fill="#FAFAFA"/>
<path d="M611.129 300.114L755.161 383.243L755.144 134.948L611.129 51.8351V300.114Z" fill="white"/>
<path d="M599.635 303.973L762.813 398.199V132.414L599.635 38.2535V303.973ZM607.204 49.4832L755.227 134.948V386.953L607.187 301.488L607.204 49.4832Z" fill="#F0F0F0"/>
<path d="M607.121 301.488L611.129 300.114V51.8351L607.121 49.4832V301.488Z" fill="#E0E0E0"/>
<path d="M755.161 309.025V312.735L607.121 227.27L611.129 225.879L755.161 309.025Z" fill="#FAFAFA"/>
<path d="M755.161 198.633V202.343L607.121 116.861L611.129 115.487L755.161 198.633Z" fill="#FAFAFA"/>
<path d="M599.552 38.2535L603.626 36.9285L766.804 131.139L762.73 132.464L599.552 38.2535Z" fill="#FAFAFA"/>
<path d="M766.804 131.139L762.73 132.464V398.183L766.804 396.874V131.139Z" fill="#E0E0E0"/>
<path d="M689.141 96.8367L685.066 94.4847V346.507L689.141 345.182V96.8367Z" fill="#E0E0E0"/>
<path d="M677.497 90.1287L685.066 94.4847V346.507L677.497 342.117V90.1287Z" fill="#F0F0F0"/>
<path d="M599.552 112.489V119.346L762.73 213.572V206.715L599.552 112.489Z" fill="#F0F0F0"/>
<path d="M599.552 222.881V229.738L762.73 323.948V317.091L599.552 222.881Z" fill="#F0F0F0"/>
<path d="M685.066 161.863L689.141 160.521L755.161 198.633V202.343L685.066 161.863Z" fill="#FAFAFA"/>
<path d="M685.066 272.222L689.141 270.88L755.161 308.991V312.685L685.066 272.222Z" fill="#FAFAFA"/>
<path d="M568.231 254.367L564.869 256.371L495.818 216.322L499.197 214.318L568.231 254.367Z" fill="#FAFAFA"/>
<path d="M499.197 214.318L564.869 252.396L565.001 183.544L499.329 145.482L499.197 214.318Z" fill="white"/>
<path d="M489.458 219.966L571.196 267.385L571.378 179.883L489.623 132.414L489.458 219.966ZM495.951 143.494L565.001 183.544L564.869 256.421L495.818 216.371L495.951 143.494Z" fill="#F0F0F0"/>
<path d="M495.818 216.322L499.197 214.318L499.329 145.482L495.951 143.494L495.818 216.322Z" fill="#E0E0E0"/>
<path d="M489.623 132.463L493.052 130.526L574.79 177.929L571.378 179.883L489.623 132.463Z" fill="#FAFAFA"/>
<path d="M574.79 177.929L571.378 179.883L571.196 267.385L574.624 265.431L574.79 177.929Z" fill="#E0E0E0"/>
<path d="M501.764 212.264L562.318 247.377L562.351 229.887L547.263 194.856L537.805 203.585L541.167 218.26L520.315 173.457L501.797 194.757L501.764 212.264Z" fill="#F0F0F0"/>
<path d="M538.352 177.929C539.656 178.784 540.74 179.935 541.517 181.287C542.294 182.64 542.741 184.156 542.824 185.713C542.824 188.562 540.803 189.722 538.335 188.281C537.033 187.427 535.95 186.279 535.174 184.929C534.397 183.58 533.948 182.067 533.863 180.513C533.946 177.647 535.95 176.504 538.352 177.929Z" fill="#F0F0F0"/>
<path d="M568.231 136.853L564.869 138.857L495.818 98.8076L499.197 96.8035L568.231 136.853Z" fill="#FAFAFA"/>
<path d="M499.197 96.8034L564.869 134.882L565.001 66.0294L499.329 27.9678L499.197 96.8034Z" fill="white"/>
<path d="M489.458 102.468L571.196 149.871L571.378 62.3691L489.623 14.9659L489.458 102.468ZM495.951 25.9803L565.001 66.0295L564.869 138.906L495.818 98.8076L495.951 25.9803Z" fill="#F0F0F0"/>
<path d="M495.818 98.8075L499.197 96.8034L499.329 27.9678L495.951 25.9802L495.818 98.8075Z" fill="#E0E0E0"/>
<path d="M489.623 14.9659L493.052 13.0115L574.79 60.4146L571.378 62.3691L489.623 14.9659Z" fill="#FAFAFA"/>
<path d="M574.79 60.4147L571.378 62.3691L571.196 149.871L574.624 147.917L574.79 60.4147Z" fill="#E0E0E0"/>
<path d="M501.764 94.7496L562.318 129.863L562.351 112.373L547.263 77.342L537.805 86.0706L541.167 100.745L520.315 55.9426L501.797 77.2426L501.764 94.7496Z" fill="#F0F0F0"/>
<path d="M538.352 60.4146C539.656 61.2703 540.74 62.4208 541.517 63.7731C542.294 65.1255 542.741 66.6418 542.824 68.1992C542.824 71.048 540.803 72.2074 538.335 70.7665C537.033 69.9125 535.95 68.7646 535.174 67.4153C534.397 66.066 533.948 64.553 533.863 62.9984C533.946 60.1331 535.95 58.9902 538.352 60.4146Z" fill="#F0F0F0"/>
<path d="M246.248 576.781L51.0201 689.359L58.4734 471.457L246.248 576.781Z" fill="#E0E0E0"/>
<g opacity="0.15">
<path d="M246.248 576.781L51.0201 689.359L51.1692 464.418L246.248 576.781Z" fill="black"/>
</g>
<path d="M42.1424 151.561V684.357L237.37 571.729V38.9822L42.1424 151.561ZM127.789 338.291L70.9619 370.92V157.258L127.789 124.563V338.291ZM209.859 290.789L153.213 323.534V109.872L209.875 77.1432L209.859 290.789Z" fill="#EB5B14"/>
<path opacity="0.4" d="M42.1424 151.561V684.357L237.37 571.729V38.9822L42.1424 151.561ZM127.789 338.291L70.9619 370.92V157.258L127.789 124.563V338.291ZM209.859 290.789L153.213 323.534V109.872L209.875 77.1432L209.859 290.789Z" fill="white"/>
<path opacity="0.4" d="M127.773 338.291L133.918 341.836L70.9619 378.075V370.986L127.773 338.291Z" fill="white"/>
<path opacity="0.4" d="M209.859 290.805L216.004 294.35L153.23 330.622L147.085 327.078L209.859 290.805Z" fill="white"/>
<path opacity="0.7" d="M209.859 290.805V77.1101L216.02 73.5491L216.004 294.35L209.859 290.805Z" fill="#EB5B14"/>
<path d="M133.918 341.836L153.23 330.623V109.921L133.918 121.134V341.836Z" fill="#EB5B14"/>
<path opacity="0.4" d="M133.918 341.836L153.23 330.623V109.921L133.918 121.134V341.836Z" fill="white"/>
<path opacity="0.7" d="M133.918 341.836L127.773 338.291V124.679L133.918 121.134V341.836Z" fill="#EB5B14"/>
<path opacity="0.4" d="M133.918 371.318L70.9619 407.574V635.116L133.918 598.859V371.318Z" fill="white"/>
<path d="M129.595 385.645L80.8831 413.669L80.8997 617.542L129.595 589.534V385.645Z" fill="#EB5B14"/>
<path opacity="0.4" d="M129.595 385.645L80.8831 413.669L80.8997 617.542L129.595 589.534V385.645Z" fill="white"/>
<path opacity="0.7" d="M70.9619 407.574L80.8831 413.669L80.8997 617.542L70.9619 635.116V407.574Z" fill="#EB5B14"/>
<path opacity="0.7" d="M133.918 371.318L129.595 385.645V589.534L133.918 598.859V371.318Z" fill="#EB5B14"/>
<path d="M133.918 598.859L129.595 589.534L80.8997 617.542L70.9619 635.116L133.918 598.859Z" fill="#EB5B14"/>
<path opacity="0.4" d="M216.02 323.832L153.23 360.105V587.646L216.02 551.374V323.832Z" fill="white"/>
<path d="M211.697 338.159L163.168 366.2V570.073L211.697 542.032V338.159Z" fill="#EB5B14"/>
<path opacity="0.4" d="M211.697 338.159L163.168 366.2V570.073L211.697 542.032V338.159Z" fill="white"/>
<path opacity="0.7" d="M153.23 360.105L163.168 366.2V570.073L153.23 587.646V360.105Z" fill="#EB5B14"/>
<path opacity="0.7" d="M216.02 323.832L211.697 338.159V542.032L216.02 551.374V323.832Z" fill="#EB5B14"/>
<path d="M216.02 551.374L211.697 542.032L163.168 570.073L153.23 587.646L216.02 551.374Z" fill="#EB5B14"/>
<path d="M53.1733 389.189L56.3202 391.011V443.251L53.1733 441.429V389.189Z" fill="#E0E0E0"/>
<path d="M56.3203 391.011L73.2973 381.206V433.445L56.3203 443.251V391.011Z" fill="#FAFAFA"/>
<path opacity="0.05" d="M73.2973 395.582L65.8605 399.872V408.369C65.8641 408.546 65.9133 408.719 66.0033 408.871C66.0934 409.023 66.2213 409.15 66.3746 409.238C66.5279 409.326 66.7014 409.374 66.8783 409.375C67.0552 409.377 67.2295 409.332 67.3843 409.247L73.2973 405.835V395.582Z" fill="black"/>
<path d="M73.2973 381.206L70.1503 379.4L53.1733 389.189L56.3202 391.011L73.2973 381.206Z" fill="#EBEBEB"/>
<path d="M62.8295 398.117L70.6141 402.622L73.7279 397.222L65.9433 392.734C65.6941 392.617 65.4183 392.57 65.1445 392.596C64.8707 392.622 64.609 392.721 64.3864 392.883C63.7459 393.3 63.2128 393.862 62.8301 394.524C62.4474 395.186 62.2259 395.929 62.1835 396.692C62.1542 396.966 62.1987 397.242 62.3123 397.492C62.4259 397.743 62.6044 397.958 62.8295 398.117Z" fill="#E0E0E0"/>
<path opacity="0.1" d="M65.8605 399.872L68.6928 401.512V397.785L71.7072 396.046L68.875 394.423L65.8605 396.162V399.872Z" fill="black"/>
<path d="M69.6368 398.382V406.547L100.742 388.593V380.427L69.6368 398.382Z" fill="#FAFAFA"/>
<path d="M69.6369 398.382L66.8046 396.742V404.907L69.6369 406.547V398.382Z" fill="#E0E0E0"/>
<path d="M100.742 380.427L97.9098 378.788L66.8046 396.742L69.6369 398.382L100.742 380.427Z" fill="#EBEBEB"/>
<path d="M61.9516 421.122C61.9996 420.128 62.2828 419.159 62.7781 418.295C63.2733 417.431 63.9664 416.697 64.8005 416.154C66.4568 415.243 67.6658 415.971 67.6658 417.81C67.6028 419.304 67.0166 420.729 66.0096 421.835V427.234C65.988 427.566 65.8901 427.888 65.7235 428.175C65.5568 428.462 65.3259 428.707 65.0489 428.891L64.7011 429.089C64.1711 429.387 63.7404 429.089 63.7404 428.526V423.193C62.6638 423.243 61.9516 422.481 61.9516 421.122Z" fill="#455A64"/>
<path d="M33.2149 679.206L42.1424 684.357V151.561L33.1984 146.409L33.2149 679.206Z" fill="#263238"/>
<path d="M228.426 33.8146L33.1984 146.409L42.1424 151.561L237.37 38.9822L228.426 33.8146Z" fill="#37474F"/>
<path d="M237.37 571.796L246.248 576.781V33.8477L237.37 38.9656V571.796Z" fill="#E0E0E0"/>
<path d="M246.248 576.781L260.972 568.268V6.03857L36.2459 135.66L36.2625 697.823L51.0201 689.359V146.443L246.231 33.8478L246.248 576.781Z" fill="#F0F0F0"/>
<path d="M260.972 6.03852L36.246 135.66L27.5338 130.592L252.26 0.986816L260.972 6.03852Z" fill="#FAFAFA"/>
<path d="M36.246 697.823V135.66L27.5338 130.592V692.788L36.246 697.823Z" fill="#E0E0E0"/>
<path d="M557.2 411.963C557.2 408.187 559.685 404.411 564.687 401.512L579.411 393.015C589.349 387.251 605.597 387.251 615.585 393.015L749.065 470.083C754.034 472.965 756.552 476.708 756.552 480.534V656.83C756.552 660.623 754.067 664.416 749.065 667.298L734.341 675.794C724.403 681.558 708.155 681.558 698.167 675.794L564.687 598.727C559.718 595.845 557.2 592.102 557.2 588.292V411.963Z" fill="#EB5B14"/>
<path opacity="0.4" d="M557.2 411.963C557.2 408.187 559.685 404.411 564.687 401.512L579.411 393.015C589.349 387.251 605.597 387.251 615.585 393.015L749.065 470.083C754.034 472.965 756.552 476.708 756.552 480.534V656.83C756.552 660.623 754.067 664.416 749.065 667.298L734.341 675.794C724.403 681.558 708.155 681.558 698.167 675.794L564.687 598.727C559.718 595.845 557.2 592.102 557.2 588.292V411.963Z" fill="white"/>
<path opacity="0.4" d="M734.341 499.465L749.065 490.968C759.003 485.205 759.003 475.846 749.065 470.083L615.585 393.015C605.647 387.251 589.399 387.251 579.411 393.015L564.687 401.512C554.749 407.292 554.749 416.634 564.687 422.398L698.167 499.465C708.155 505.229 724.353 505.229 734.341 499.465Z" fill="white"/>
<path opacity="0.3" d="M716.238 503.788V680.117C722.535 680.25 728.762 678.767 734.324 675.811L749.065 667.298C754.034 664.416 756.585 660.672 756.535 656.813V480.517C756.535 484.327 754.067 488.086 749.065 490.968L734.324 499.482C728.762 502.438 722.535 503.921 716.238 503.788Z" fill="#EB5B14"/>
<path d="M619.096 591.009L650.98 609.427L646.011 551.771C649.82 549.75 652.255 544.798 652.255 537.676C652.255 524.972 644.537 510.231 635.013 504.732C625.489 499.233 617.854 505.08 617.854 517.751C618.05 525.273 620.202 532.614 624.098 539.051L619.096 591.009Z" fill="#455A64"/>
<path d="M619.096 591.009L647.965 574.33L650.963 609.41L619.096 591.009Z" fill="#37474F"/>
<path d="M635.03 504.716C641.257 508.31 646.706 515.879 649.737 524.227L624.032 539.133C620.145 532.666 618.015 525.295 617.854 517.751C617.854 505.08 625.506 499.217 635.03 504.716Z" fill="#37474F"/>
<path d="M593.258 415.889V345.38C593.258 323.534 601.539 306.258 615.899 297.944C629.63 290.01 646.624 291.087 663.733 300.975C695.203 319.111 719.766 363.384 719.766 401.76V472.633C719.766 474.77 718.358 476.906 715.542 478.53C712.382 480.13 708.89 480.965 705.348 480.965C701.805 480.965 698.313 480.13 695.153 478.53C692.337 476.873 690.913 474.77 690.913 472.633V401.76C690.913 373.603 671.866 338.987 649.307 325.952C641.605 321.513 634.698 320.403 630.326 322.937C625.191 325.902 622.044 334.3 622.044 345.38V415.872C622.044 417.992 620.603 420.096 617.821 421.702C614.661 423.303 611.168 424.137 607.626 424.137C604.084 424.137 600.592 423.303 597.432 421.702C594.633 420.046 593.225 417.992 593.208 415.872L593.258 415.889Z" fill="#455A64"/>
<path d="M535.271 654.147V658.602C535.271 663.852 538.699 669.103 545.639 673.111C556.074 679.14 571.411 680.598 584.248 677.533L596.173 684.407L605.332 682.337L611.593 685.947L611.924 693.517L615.237 695.455L623.684 696.2L629.779 699.595V703.835L637.398 708.241H656.81L663.766 704.233V699.728L601.705 668.391C604.34 665.814 605.878 662.319 605.995 658.635V654.147C605.067 649.791 601.44 647.521 595.643 644.209C581.813 636.225 559.403 636.225 545.573 644.209C539.412 647.786 535.884 649.443 535.271 654.147ZM554.269 648.929C556.467 647.811 558.899 647.228 561.366 647.228C563.833 647.228 566.264 647.811 568.463 648.929C572.372 651.198 572.372 654.859 568.463 657.111C566.264 658.23 563.833 658.813 561.366 658.813C558.899 658.813 556.467 658.23 554.269 657.111C550.36 654.859 550.36 651.198 554.269 648.929Z" fill="#E0E0E0"/>
<path d="M545.639 668.606C556.074 674.618 571.411 676.092 584.247 673.028L596.173 679.902L605.332 677.832L611.593 681.442L611.924 689.012L615.237 690.949L623.684 691.695L630.309 695.372L629.796 699.347L637.415 703.753H656.826L663.783 699.744L601.721 663.902C609.026 656.151 607.022 646.246 595.659 639.687C581.829 631.704 559.42 631.704 545.59 639.687C531.76 647.67 531.809 660.623 545.639 668.606ZM554.269 644.424C556.467 643.306 558.899 642.723 561.366 642.723C563.833 642.723 566.264 643.306 568.463 644.424C572.372 646.677 572.372 650.354 568.463 652.606C566.264 653.725 563.833 654.308 561.366 654.308C558.899 654.308 556.467 653.725 554.269 652.606C550.36 650.354 550.36 646.677 554.269 644.424Z" fill="#F0F0F0"/>
<g opacity="0.1">
<path d="M547.677 665.078C542.376 662.014 539.395 658.039 539.395 654.147C539.395 650.254 542.443 646.279 547.677 643.215C554.815 639.639 562.69 637.777 570.674 637.777C578.659 637.777 586.533 639.639 593.672 643.215C598.972 646.279 601.953 650.254 601.953 654.147C601.953 658.039 598.922 662.014 593.672 665.078C586.533 668.654 578.659 670.516 570.674 670.516C562.69 670.516 554.815 668.654 547.677 665.078ZM548.306 644.325C543.42 647.14 540.604 650.718 540.604 654.147C540.604 657.575 543.42 661.153 548.306 663.968C555.252 667.429 562.906 669.231 570.666 669.231C578.426 669.231 586.08 667.429 593.026 663.968C597.995 661.153 600.728 657.558 600.728 654.147C600.728 650.735 597.912 647.14 593.026 644.325C586.084 640.853 578.428 639.045 570.666 639.045C562.904 639.045 555.248 640.853 548.306 644.325Z" fill="black"/>
</g>
<path opacity="0.1" d="M557.929 673.211V677.716C566.607 679.602 575.596 679.54 584.248 677.533V673.028C575.596 675.035 566.607 675.097 557.929 673.211Z" fill="black"/>
<path opacity="0.1" d="M596.173 679.902V684.407L605.332 682.337V677.832L596.173 679.902Z" fill="black"/>
<path opacity="0.1" d="M611.593 681.442V685.947L611.924 693.517V689.011L611.593 681.442Z" fill="black"/>
<path opacity="0.1" d="M615.303 690.949V695.454L623.75 696.2V691.695L615.303 690.949Z" fill="black"/>
<path opacity="0.1" d="M656.876 703.753H637.464V708.258H656.876V703.753Z" fill="black"/>
<path opacity="0.15" d="M663.833 699.728V704.249L656.876 708.258V703.753L659.924 701.997V703.935L661.597 702.958V701.003L663.833 699.728Z" fill="black"/>
<path d="M661.597 701.003L659.924 701.997V703.935L661.597 702.957V701.003Z" fill="#EB5B14"/>
<path opacity="0.15" d="M661.597 701.003V702.958L597.962 666.221L599.635 665.227L661.597 701.003Z" fill="black"/>
<path opacity="0.15" d="M599.635 665.227V667.182L597.962 666.221L599.635 665.227Z" fill="black"/>
<path d="M246.678 633.923L245.784 634.437L244.956 633.923V632.946L242.769 631.671L180.708 667.496C167.292 663.273 150.133 664.432 138.771 670.991C131.798 675.016 128.353 680.299 128.419 685.566V689.889C128.419 695.107 131.864 700.324 138.771 704.299C152.601 712.283 175.01 712.283 188.84 704.299C195.78 700.308 199.225 695.057 199.192 689.823V685.451C199.182 683.914 198.89 682.393 198.331 680.962L208.434 675.132V670.71L206.993 668.589L211.101 666.221L224.186 666.022L227.498 664.068L228.79 659.182L235.167 655.372L242.041 655.67L249.676 651.265V635.662L246.678 633.923ZM146.969 694.908C146.113 694.444 145.367 693.8 144.783 693.02C145.376 692.248 146.12 691.606 146.969 691.132C149.168 690.013 151.6 689.43 154.066 689.43C156.533 689.43 158.965 690.013 161.164 691.132C162.012 691.601 162.751 692.245 163.333 693.02C162.76 693.804 162.019 694.449 161.164 694.908C158.965 696.027 156.533 696.61 154.066 696.61C151.6 696.61 149.168 696.027 146.969 694.908Z" fill="#E0E0E0"/>
<path opacity="0.1" d="M199.143 686.643V690.585C198.878 695.554 195.466 700.523 188.84 704.382C184.172 706.964 179.088 708.707 173.818 709.533V705.094C179.091 704.292 184.179 702.553 188.84 699.96C195.217 696.2 198.679 691.479 199.143 686.643Z" fill="black"/>
<path opacity="0.15" d="M183.673 669.103L182.994 668.722L244.956 632.946" fill="black"/>
<path opacity="0.15" d="M211.101 666.237V661.832L204.84 665.426L206.993 668.606L211.101 666.237Z" fill="black"/>
<path opacity="0.1" d="M224.186 661.633V666.039L211.101 666.238V661.832L224.186 661.633Z" fill="black"/>
<path opacity="0.1" d="M228.84 654.793V659.198L227.548 664.084V659.679L228.84 654.793Z" fill="black"/>
<path opacity="0.15" d="M235.217 655.389V650.983L228.84 654.793V659.198L235.217 655.389Z" fill="black"/>
<path opacity="0.1" d="M235.217 650.983L242.09 651.281V655.687L235.217 655.389V650.983Z" fill="black"/>
<path d="M188.873 699.893C199.325 693.881 201.859 684.987 196.542 677.616L208.467 670.726L204.873 665.443L211.134 661.832L224.219 661.633L227.531 659.679L228.823 654.793L235.2 650.983L242.074 651.281L249.709 646.875V635.679L246.662 633.923L245.767 634.437L244.939 633.923V632.946L242.753 631.671L180.691 667.496C167.275 663.273 150.116 664.432 138.754 670.991C124.924 678.974 124.924 691.91 138.754 699.893C152.584 707.877 175.01 707.877 188.873 699.893ZM147.002 694.925C143.094 692.672 143.094 688.995 147.002 686.742C149.201 685.624 151.633 685.041 154.1 685.041C156.566 685.041 158.998 685.624 161.197 686.742C165.106 688.995 165.106 692.672 161.197 694.925C158.993 696.046 156.554 696.629 154.081 696.626C151.608 696.623 149.171 696.035 146.969 694.908L147.002 694.925Z" fill="#F0F0F0"/>
<g opacity="0.1">
<path d="M163.814 701.815C155.818 701.99 147.911 700.12 140.841 696.382C135.541 693.318 132.559 689.326 132.559 685.451C132.559 681.575 135.59 677.567 140.841 674.519C147.905 670.763 155.815 668.881 163.814 669.053C171.817 668.872 179.733 670.748 186.803 674.503C192.103 677.55 195.085 681.542 195.085 685.434C195.085 689.326 192.037 693.301 186.803 696.366C179.73 700.112 171.816 701.988 163.814 701.815ZM163.814 670.345C156.022 670.184 148.318 672.02 141.437 675.678C136.468 678.511 133.752 682.088 133.752 685.517C133.752 688.945 136.551 692.506 141.437 695.339C148.332 698.946 156.035 700.73 163.814 700.523C171.595 700.705 179.292 698.892 186.174 695.256C191.06 692.44 193.875 688.846 193.875 685.434C193.875 682.022 191.06 678.428 186.174 675.596C179.291 671.966 171.593 670.158 163.814 670.345Z" fill="black"/>
</g>
<path opacity="0.15" d="M244.956 632.946V633.923L245.8 634.437L184.716 669.699L182.994 668.722L244.956 632.946Z" fill="black"/>
<path opacity="0.15" d="M244.956 632.946V633.923L183.673 669.103" fill="black"/>
<path d="M476.87 505.478C461.549 508.095 447.057 534.198 444.258 560.632C442.989 575.264 443.652 589.999 446.229 604.458L449.624 606.926L451.529 608.317L458.154 613.104L462.245 616.085C461.821 605.113 462.936 594.135 465.557 583.473C467.069 577.536 469.265 571.794 472.1 566.363C477.665 555.68 485.93 545.262 489.491 537.891C498.418 519.54 491.147 503.043 476.87 505.478Z" fill="#EB5B14"/>
<path opacity="0.65" d="M476.87 505.478C461.549 508.095 447.057 534.198 444.258 560.632C442.989 575.264 443.652 589.999 446.229 604.458L449.624 606.926L451.529 608.317L458.154 613.104L462.245 616.085C461.821 605.113 462.936 594.135 465.557 583.473C467.069 577.536 469.265 571.794 472.1 566.363C477.665 555.68 485.93 545.262 489.491 537.891C498.418 519.54 491.147 503.043 476.87 505.478Z" fill="white"/>
<path d="M480.696 516.078C464.133 531.233 449.226 567.688 451.529 608.35L449.624 606.959C447.719 566.313 462.791 529.908 479.437 514.703C479.524 514.605 479.631 514.526 479.75 514.472C479.87 514.418 479.999 514.39 480.13 514.389C480.262 514.389 480.391 514.416 480.511 514.47C480.631 514.523 480.738 514.602 480.825 514.7C480.912 514.797 480.978 514.913 481.017 515.038C481.057 515.163 481.069 515.295 481.054 515.425C481.039 515.555 480.996 515.681 480.928 515.794C480.861 515.906 480.771 516.003 480.663 516.078H480.696Z" fill="white"/>
<path d="M490.485 554.769C480.829 558.446 473.922 565.667 465.557 583.473C461.294 592.811 458.79 602.856 458.17 613.104L462.261 616.085L464.166 617.46L465.905 618.702L468.324 620.491C470.559 614.332 474.031 608.695 478.526 603.928C491.942 588.541 508.986 578.189 511.139 568.914C513.723 557.783 506.087 548.873 490.485 554.769Z" fill="#EB5B14"/>
<path opacity="0.3" d="M490.485 554.769C480.829 558.446 473.922 565.667 465.557 583.473C461.294 592.811 458.79 602.856 458.17 613.104L462.261 616.085L464.166 617.46L465.905 618.702L468.324 620.491C470.559 614.332 474.031 608.695 478.526 603.928C491.942 588.541 508.986 578.189 511.139 568.914C513.723 557.783 506.087 548.873 490.485 554.769Z" fill="white"/>
<path d="M494.41 568.284C494.628 568.168 494.791 567.971 494.865 567.736C494.94 567.501 494.919 567.246 494.808 567.025C494.75 566.918 494.672 566.822 494.578 566.744C494.483 566.667 494.374 566.609 494.257 566.573C494.14 566.538 494.018 566.526 493.896 566.538C493.774 566.55 493.657 566.587 493.549 566.645C483.031 572.177 466.667 587.978 461.218 615.356L462.261 616.118L462.924 616.598C468.241 589.203 484.787 573.336 494.41 568.284Z" fill="white"/>
<path d="M394.933 729.955C458.59 729.955 510.195 700.16 510.195 663.405C510.195 626.651 458.59 596.855 394.933 596.855C331.276 596.855 279.672 626.651 279.672 663.405C279.672 700.16 331.276 729.955 394.933 729.955Z" fill="#E0E0E0"/>
<path d="M323.381 622.495C325.153 597.915 322.404 579.083 324.441 540.723C324.623 530.885 324.988 520.351 325.65 510.993C327.853 479.523 332.723 468.741 333.17 462.662C333.17 462.662 333.998 413.669 336.052 344.767C337.029 312.354 346.42 302.532 353.923 285.323H443.131C453.069 327.774 455.934 420.361 455.636 464.203C455.487 486.496 446.477 605.832 446.295 608.582C445.665 618.321 446.51 622.163 450.32 626.255C458.32 634.834 469.897 643 479.918 650.47C478.477 654.296 466.419 654.163 460.456 651.248C452.653 647.169 445.217 642.426 438.229 637.07C429.947 630.975 419.479 626.089 419.347 616.814C419.311 616.253 419.217 615.698 419.065 615.157C418.916 609.758 406.295 529.924 405.252 511.407C404.341 495.474 406.279 468.459 406.279 468.459L396.01 400.982C396.01 400.982 389.666 440.866 383.256 468.095C378.055 490.173 369.41 527.987 363.579 555.266C357.931 586.735 349.65 609.046 348.226 624.83C347.778 628.59 343.538 665.442 341.783 673.89C340.027 682.337 321.625 682.552 320.433 668.026C319.721 658.32 323.033 627.116 323.381 622.495Z" fill="#FFBDA7"/>
<path d="M396.01 400.899L403.513 352.237C403.513 352.237 432.564 348.792 443.131 338.639C443.131 338.639 429.881 357.438 410.105 360.502L401.823 400.849L406.196 467.797L396.01 400.899Z" fill="#F28F8F"/>
<path d="M496.944 660.176C497.458 660.176 498.286 665.774 495.536 668.192C492.373 670.991 483.048 675.612 470.692 674.138C458.336 672.664 451.529 668.904 446.543 664.813C441.558 660.722 434.535 654.875 428.904 653.766C423.703 652.672 418.022 650.453 416.332 648.797C414.643 647.14 414.809 640.052 414.809 640.052L496.944 660.176Z" fill="#263238"/>
<path d="M418.817 612.458C418.817 612.458 417.873 612.458 417.575 614.114C417.21 616.085 416.862 621.816 416.084 625.062C414.991 629.567 414.328 638.793 415.057 642.453C415.786 646.113 424.283 648.565 429.732 650.569C436.141 653.293 442.099 656.973 447.404 661.484C453.284 666.221 465.624 670.892 473.64 670.925C485.98 670.925 493.913 667.612 496.331 663.09C499.329 657.575 496.895 654.428 482.667 648.018C479.967 646.809 470.493 641.393 467.263 639.356C463.839 637.27 460.592 634.904 457.558 632.283C456.024 630.951 454.564 629.536 453.185 628.043C451.751 626.725 450.527 625.195 449.558 623.505C449.392 623.141 449.276 622.693 449.127 622.312C448.707 621.24 448.385 620.131 448.166 619C447.918 617.824 447.769 616.118 446.626 615.422C445.023 614.785 443.277 614.596 441.574 614.876C439.736 615.026 437.909 615.303 436.109 615.704C434.038 616.201 431.62 616.416 430.411 618.387C429.604 619.974 429.222 621.743 429.301 623.522C429.301 624.35 429.301 625.178 429.301 626.006C429.301 626.37 429.45 627 428.953 626.851C428.457 626.702 427.943 625.493 427.761 625.079C427.363 624.151 427.098 623.157 426.668 622.263C426.183 621.202 425.578 620.202 424.862 619.281C424.201 618.441 423.445 617.68 422.61 617.012C421.759 616.554 420.941 616.039 420.158 615.472C419.425 614.62 418.959 613.572 418.817 612.458Z" fill="#37474F"/>
<path d="M484.969 649.178C467.131 650.602 461.632 661.683 460.953 668.507C465.029 669.988 469.308 670.837 473.64 671.024C485.98 671.024 494.427 667.712 496.828 663.19C499.661 657.94 497.656 653.799 484.969 649.178Z" fill="#FAFAFA"/>
<path d="M458.22 649.592C458.022 649.597 457.829 649.532 457.674 649.41C457.492 649.266 457.375 649.057 457.347 648.827C457.319 648.598 457.383 648.367 457.525 648.184C459.583 646.013 462.08 644.306 464.851 643.178C467.622 642.05 470.601 641.526 473.591 641.642C473.822 641.667 474.035 641.781 474.183 641.96C474.332 642.14 474.404 642.37 474.386 642.602C474.375 642.717 474.342 642.829 474.288 642.93C474.234 643.032 474.16 643.122 474.07 643.195C473.98 643.267 473.877 643.321 473.766 643.353C473.655 643.385 473.539 643.394 473.425 643.381C470.727 643.297 468.041 643.779 465.539 644.794C463.038 645.81 460.776 647.337 458.899 649.277C458.814 649.374 458.71 649.452 458.593 649.506C458.476 649.56 458.349 649.589 458.22 649.592Z" fill="#F0F0F0"/>
<path d="M450.568 645.203C450.369 645.199 450.176 645.129 450.021 645.004C449.932 644.934 449.857 644.848 449.801 644.749C449.746 644.65 449.711 644.54 449.698 644.427C449.686 644.315 449.696 644.2 449.729 644.092C449.762 643.983 449.816 643.882 449.889 643.795C451.94 641.619 454.434 639.909 457.203 638.78C459.972 637.652 462.951 637.13 465.938 637.252C466.17 637.277 466.382 637.392 466.531 637.571C466.679 637.751 466.752 637.981 466.733 638.213C466.708 638.443 466.593 638.654 466.413 638.8C466.234 638.946 466.003 639.015 465.773 638.991C463.075 638.904 460.39 639.382 457.888 640.395C455.386 641.407 453.124 642.932 451.247 644.871C451.167 644.975 451.065 645.06 450.947 645.117C450.829 645.175 450.699 645.204 450.568 645.203Z" fill="#F0F0F0"/>
<path d="M443.313 640.167C443.149 640.166 442.988 640.118 442.85 640.03C442.711 639.941 442.6 639.816 442.529 639.667C442.458 639.519 442.43 639.353 442.449 639.19C442.468 639.027 442.532 638.872 442.634 638.743C444.69 636.575 447.186 634.87 449.954 633.745C452.722 632.619 455.698 632.099 458.684 632.217C458.807 632.217 458.928 632.242 459.04 632.291C459.153 632.34 459.253 632.412 459.336 632.503C459.419 632.593 459.482 632.7 459.52 632.817C459.559 632.933 459.573 633.056 459.562 633.178C459.55 633.3 459.513 633.419 459.453 633.525C459.393 633.632 459.311 633.725 459.213 633.799C459.114 633.872 459.002 633.924 458.882 633.951C458.763 633.978 458.639 633.98 458.518 633.956C455.821 633.873 453.137 634.353 450.636 635.365C448.135 636.378 445.872 637.9 443.993 639.836C443.911 639.938 443.808 640.021 443.69 640.079C443.573 640.136 443.444 640.166 443.313 640.167Z" fill="#F0F0F0"/>
<path d="M436.291 635.132C436.094 635.13 435.903 635.066 435.744 634.95C435.563 634.807 435.446 634.597 435.418 634.368C435.39 634.138 435.454 633.907 435.595 633.724C438.908 629.368 446.659 626.453 453.135 627.099C453.366 627.124 453.577 627.239 453.722 627.419C453.868 627.599 453.937 627.829 453.914 628.06C453.903 628.173 453.871 628.283 453.818 628.384C453.764 628.485 453.692 628.574 453.604 628.646C453.516 628.718 453.415 628.773 453.306 628.806C453.197 628.839 453.083 628.85 452.97 628.838C447.123 628.259 439.951 630.942 436.97 634.801C436.89 634.905 436.787 634.989 436.669 635.047C436.552 635.104 436.422 635.134 436.291 635.132Z" fill="#F0F0F0"/>
<path d="M347.563 680.415C347.066 688.829 345.758 694.411 342.776 699.347C339.795 704.283 334.164 705.84 328.449 704.316C322.735 702.792 315.448 699.016 313.808 691.761C312.168 684.506 311.224 679.521 312.516 671.72L347.563 680.415Z" fill="#263238"/>
<path d="M323.58 619.48C321.228 619.663 320.532 630.975 319.174 642.288C317.717 654.412 314.106 659.414 312.814 669.368C311.323 680.73 313.212 685.798 317.187 692.672C321.162 699.546 335.257 706.27 342.197 696.432C347.861 688.415 348.093 679.521 347.58 668.175C347.275 658.59 347.524 648.995 348.325 639.439C348.789 630.925 350.677 622.362 348.623 621.418C348.474 622.66 348.325 624.25 348.159 625.476C348.073 627.012 347.817 628.534 347.397 630.014C347.149 630.644 346.636 631.306 346.42 630.279C346.304 629.577 346.304 628.861 346.42 628.159C346.768 625.029 345.178 624.764 344.333 624.532C340.73 623.826 337.092 623.306 333.435 622.975C331.63 622.859 325.435 622.594 324.623 623.605C324.104 624.631 323.837 625.767 323.845 626.917C323.646 628.573 323.249 629.882 323.199 629.335C323.083 628.11 323.315 624.93 323.348 624.168C323.381 623.406 323.497 622.429 323.514 621.683C323.53 620.938 323.53 620.209 323.58 619.48Z" fill="#37474F"/>
<path d="M312.151 675.943C311.721 682.021 313.266 688.075 316.557 693.202C320.532 700.076 335.754 706.833 342.694 696.995C346.155 692.109 347.083 686.312 347.547 680.432C343.389 672.83 318.71 669.484 312.151 675.943Z" fill="#FAFAFA"/>
<path d="M342.429 668.059C342.33 668.081 342.229 668.081 342.13 668.059C342.048 668.059 331.166 663.521 320.599 665.972C320.403 665.971 320.213 665.903 320.06 665.782C319.907 665.66 319.799 665.49 319.753 665.3C319.707 665.109 319.727 664.909 319.808 664.731C319.889 664.553 320.027 664.407 320.201 664.316C331.398 661.732 342.495 666.353 342.909 666.536C343.089 666.628 343.231 666.78 343.312 666.965C343.393 667.151 343.407 667.358 343.353 667.553C343.298 667.748 343.178 667.918 343.013 668.034C342.847 668.151 342.647 668.206 342.445 668.192L342.429 668.059Z" fill="#F0F0F0"/>
<path d="M321.112 657.459C320.923 657.434 320.747 657.346 320.613 657.21C320.479 657.074 320.393 656.898 320.371 656.708C320.348 656.518 320.389 656.326 320.487 656.163C320.585 655.999 320.735 655.872 320.913 655.803C331.447 652.225 343.141 657.592 343.588 657.824C343.69 657.876 343.781 657.948 343.854 658.036C343.928 658.124 343.984 658.225 344.017 658.335C344.051 658.444 344.063 658.56 344.052 658.674C344.041 658.788 344.007 658.899 343.952 659C343.84 659.199 343.656 659.348 343.437 659.416C343.218 659.484 342.982 659.465 342.776 659.364C342.677 659.364 331.282 654.113 321.476 657.443C321.359 657.48 321.233 657.486 321.112 657.459Z" fill="#F0F0F0"/>
<path d="M321.476 649.443C321.313 649.424 321.158 649.36 321.029 649.257C320.9 649.155 320.803 649.018 320.748 648.863C320.708 648.755 320.691 648.641 320.697 648.527C320.702 648.412 320.73 648.3 320.78 648.197C320.829 648.094 320.899 648.001 320.984 647.925C321.07 647.849 321.169 647.79 321.278 647.753C332.872 643.596 343.952 649.41 344.366 649.708C344.464 649.766 344.55 649.844 344.618 649.936C344.686 650.027 344.735 650.132 344.762 650.242C344.79 650.353 344.796 650.468 344.779 650.581C344.762 650.694 344.723 650.802 344.665 650.9C344.606 650.998 344.528 651.083 344.437 651.151C344.345 651.219 344.241 651.269 344.13 651.296C344.019 651.324 343.904 651.33 343.791 651.313C343.678 651.296 343.57 651.257 343.472 651.198C343.373 651.198 332.64 645.534 321.857 649.393C321.737 649.442 321.606 649.459 321.476 649.443Z" fill="#F0F0F0"/>
<path d="M322.056 641.575C321.895 641.563 321.741 641.506 321.612 641.409C321.483 641.312 321.384 641.18 321.327 641.029C321.285 640.921 321.265 640.806 321.268 640.691C321.271 640.575 321.298 640.462 321.345 640.357C321.393 640.252 321.462 640.157 321.547 640.079C321.632 640.001 321.732 639.941 321.841 639.902C332.69 635.828 344.648 641.84 345.029 642.089C345.228 642.206 345.372 642.397 345.431 642.62C345.49 642.844 345.459 643.081 345.344 643.281C345.288 643.383 345.213 643.472 345.123 643.544C345.033 643.616 344.929 643.669 344.818 643.7C344.706 643.73 344.59 643.739 344.476 643.724C344.361 643.709 344.251 643.671 344.151 643.613C344.052 643.613 332.458 637.749 322.387 641.526C322.282 641.565 322.169 641.581 322.056 641.575Z" fill="#EBEBEB"/>
<path d="M342.395 285.604C335.008 306.722 329.145 320.072 329.592 377.38C330.056 439.259 331.149 451.3 330.934 458.207C330.719 465.114 326.694 477.47 323.149 511.507C319.605 545.543 323.795 586.04 323.795 586.04C323.795 586.04 326.23 591.522 339.248 592.665C351.257 593.725 357.203 589.22 357.203 589.22C357.203 589.22 373.666 522.968 378.221 502.447C382.776 481.925 396.01 414.53 396.01 414.53L403.861 469.188C403.861 469.188 400.2 487.971 403.861 517.817C407.521 547.663 413.981 578.239 413.981 578.239C419.876 580.336 426.092 581.39 432.349 581.352C438.027 581.447 443.623 579.986 448.531 577.129C448.531 577.129 458.85 488.318 458.85 454.48C458.85 420.642 455.984 336.072 445.334 285.985L342.395 285.604Z" fill="#37474F"/>
<path d="M406.726 349.554L396.01 414.613L403.861 469.271L400.548 413.868L410.121 360.485C418.27 358.531 436.837 348.742 441.939 334.78C429.351 347.947 406.726 349.554 406.726 349.554ZM353.609 524.657C350.451 542.325 347.513 559.992 344.797 577.659C348.894 560.213 352.758 542.733 356.391 525.221C360.068 507.697 363.546 490.206 366.991 472.567C370.437 454.927 372.374 437.073 374.097 419.251C375.819 401.429 377.161 383.574 378.238 365.703C375.77 383.425 373.55 401.197 371.314 418.936C369.078 436.675 366.71 454.381 363.447 471.938C360.184 489.494 356.722 507.051 353.609 524.657ZM446.129 435.665C446.477 443.416 446.941 451.217 446.808 458.853C446.676 466.488 446.179 474.356 445.798 482.124L444.622 505.478C443.805 521.036 443.187 536.616 442.767 552.218C444.589 536.759 446.14 521.24 447.421 505.66C448.696 490.107 449.889 474.604 450.419 458.903C450.419 443.135 449.028 427.648 447.636 412.079C446.245 396.51 444.324 381.04 441.922 365.703L444.837 412.328C445.268 420.129 445.781 427.897 446.129 435.665Z" fill="#263238"/>
<path d="M422.146 182.732C443.032 183.941 449.376 196.893 459.297 209.746C467.131 219.982 483.363 243.386 483.363 243.386C483.363 243.386 515.81 227.833 521.126 222.748C524.77 219.253 523.66 217.779 529.656 211.85C533.88 207.709 538.733 205.225 541.151 201.465C543.056 198.517 547.66 201.664 544.894 207.709C543.981 209.466 542.9 211.13 541.664 212.678C544.093 211.658 546.333 210.236 548.289 208.471C552.977 203.502 554.385 197.953 560.977 195.784C563.759 194.856 564.736 196.728 564.107 199.096C564.589 199.198 565.045 199.399 565.444 199.688C565.843 199.977 566.177 200.347 566.424 200.774C566.671 201.2 566.825 201.674 566.877 202.164C566.928 202.654 566.876 203.149 566.724 203.618C568.48 203.75 569.275 207.013 568.844 208.09C569.921 209.133 572.057 212.413 567.188 220.578C564.663 224.571 561.696 228.265 558.343 231.593C553.701 234.159 548.905 236.438 543.983 238.417C538.487 240.52 533.3 243.355 528.563 246.847C521.656 251.535 504.563 265.265 488.911 275.004C475.909 283.087 470.295 275.849 461.086 264.702C455.007 257.332 435.214 233.034 435.214 233.034C426.535 217.63 419.297 193.829 422.146 182.732Z" fill="#FFBDA7"/>
<path d="M548.422 222.367C539.445 220.959 531.014 226.491 529.623 233.796C529.238 231.831 529.436 229.796 530.192 227.942C530.948 226.088 532.23 224.496 533.88 223.361C536.96 220.992 543.42 220.197 548.422 222.367Z" fill="#F0997A"/>
<path d="M371.447 90.6752C367.598 88.7548 363.367 87.7249 359.066 87.6618C354.765 87.5987 350.506 88.5041 346.602 90.3108C335.919 95.8097 333.882 101.772 332.839 114.344C331.265 133.225 329.924 138.906 327.638 143.196C326.665 145.061 325.334 146.715 323.719 148.062C322.104 149.41 320.239 150.424 318.23 151.047C319.822 152.036 321.64 152.603 323.511 152.696C325.383 152.789 327.248 152.404 328.93 151.577C326.942 160.637 324.226 168.256 326.495 177.879C328.019 184.355 331.331 191.709 336.267 196.38C340.474 200.372 346.52 201.63 351.604 203.916C348.292 196.496 346.453 189.506 348.905 181.225C351.604 172.099 357.816 164.364 360.631 155.155C364.524 142.418 368.913 129.234 370.155 115.934C371.01 107.541 371.441 99.1111 371.447 90.6752Z" fill="#263238"/>
<path d="M373.203 89.8636C372.01 87.9091 364.639 86.9154 358.958 90.8573C353.277 94.7993 348.656 101.507 352.747 106.923C356.606 112.008 381.004 97.35 373.203 89.8636Z" fill="#EB5B14"/>
<path d="M331.315 324.544C335.77 292.081 341.617 280.205 342.644 276.296C345.228 266.441 338.983 248.901 337.228 238.764C333.402 216.686 341.17 190.318 346.238 185.763C346.238 185.763 352.052 184.107 356.954 183.179C360.83 182.384 363.712 181.308 368.946 180.496C382.892 178.326 394.999 178.459 399.372 179.37C402.834 180.099 422.146 182.682 422.163 182.682C428.452 188.17 433.752 194.696 437.831 201.978C443.678 211.916 448.597 218.409 448.995 241.729C449.458 269.141 450.419 295.691 451.347 324.13C429.036 338.573 360.979 340.974 331.315 324.544Z" fill="#455A64"/>
<path d="M427.827 89.2011C423.243 87.2547 418.171 86.7689 413.301 87.8098C403.943 82.7084 391.571 81.1846 379.314 83.6359C370.155 85.4578 358.395 91.0064 357.435 104.141C345.36 108.232 339.894 124.646 347.812 141.822C353.542 154.31 364.573 160.322 369.675 167.941L408.531 138.443C413.02 143.577 419.049 143.18 427.082 131.122C441.922 108.828 434.817 92.9277 427.827 89.2011Z" fill="#37474F"/>
<path d="M357.468 126.186C365.203 122.592 368.3 130.675 368.3 130.675C373.451 133.722 377.029 128.008 376.83 121.168C376.664 115.47 378.238 106.261 384.118 103.892C388.49 102.137 390.378 103.164 400.266 105.118C405.037 106.046 406.478 105.118 412.954 102.269C418.602 99.7351 425.127 105.433 425.873 112.969C426.386 118.219 425.873 122.675 426.237 125.987C426.817 129.653 427.209 133.346 427.413 137.051C427.413 159.743 422.875 163.966 418.602 167.461C415.289 170.227 409.906 172.065 402.304 171.618V181.092C402.304 181.092 410.734 197.092 411.894 211.469C395.049 206.351 378.95 191.825 368.25 182.086L367.753 150.219C365.849 152.687 359.853 153.747 355.58 148.563C350.048 141.722 350.064 129.631 357.468 126.186Z" fill="#FFBDA7"/>
<path d="M402.304 171.618C394.9 171.039 387.861 169.564 382.66 166.434C379.299 164.467 376.557 161.598 374.743 158.153C374.743 158.153 375.008 163.867 382.08 168.985C388.573 173.656 402.304 174.682 402.304 174.682V171.618Z" fill="#F0997A"/>
<path d="M402.386 123.238L404.54 144.223L415.686 138.807L402.386 123.238Z" fill="#F0997A"/>
<path d="M394.983 147.983L405.716 150.666C405.567 151.382 405.276 152.062 404.86 152.663C404.444 153.265 403.911 153.776 403.292 154.167C402.674 154.558 401.983 154.821 401.261 154.939C400.54 155.058 399.801 155.03 399.09 154.857C397.646 154.47 396.409 153.536 395.643 152.253C394.876 150.969 394.639 149.438 394.983 147.983Z" fill="#B16668"/>
<path d="M398.494 150.799C397.399 150.274 396.15 150.168 394.983 150.501C395.194 151.537 395.69 152.494 396.416 153.264C397.142 154.033 398.068 154.585 399.09 154.857C399.839 155.013 400.611 155.013 401.36 154.857C401.272 153.991 400.962 153.162 400.46 152.451C399.958 151.74 399.281 151.171 398.494 150.799Z" fill="#F28F8F"/>
<path d="M421.666 127.445C422.378 129.201 421.152 129.863 419.446 130.542C417.74 131.221 416.134 131.668 415.488 129.896C415.327 129.491 415.247 129.057 415.254 128.621C415.26 128.184 415.353 127.754 415.526 127.353C415.699 126.952 415.949 126.59 416.262 126.286C416.575 125.982 416.945 125.743 417.351 125.582C417.757 125.421 418.19 125.341 418.626 125.348C419.063 125.354 419.494 125.447 419.894 125.62C420.295 125.793 420.658 126.043 420.962 126.356C421.265 126.669 421.505 127.039 421.666 127.445Z" fill="#263238"/>
<path d="M415.686 126.186C416.446 125.719 417.273 125.373 418.138 125.159C418.971 124.92 419.841 124.835 420.705 124.911C421.619 124.971 422.516 125.189 423.355 125.557C423.355 125.557 423.488 125.772 423.355 125.755C422.568 125.676 421.778 125.637 420.987 125.639C420.017 125.692 419.055 125.853 418.121 126.12C416.995 126.422 415.918 126.885 414.925 127.495C414.593 127.677 413.947 128.074 413.881 128.124C413.815 128.174 413.699 127.958 413.749 127.875C414.252 127.168 414.916 126.589 415.686 126.186Z" fill="#263238"/>
<path d="M415.786 117.043L423.604 119.23C423.872 118.163 423.718 117.034 423.175 116.078C422.632 115.122 421.742 114.412 420.688 114.095C420.173 113.955 419.634 113.92 419.104 113.993C418.575 114.067 418.066 114.246 417.607 114.522C417.149 114.797 416.752 115.163 416.439 115.596C416.126 116.03 415.903 116.522 415.786 117.043Z" fill="#263238"/>
<path d="M388.656 129.101C388.175 130.956 389.484 131.437 391.256 131.9C393.028 132.364 394.569 132.596 395.099 130.741C395.226 130.312 395.266 129.863 395.215 129.418C395.164 128.974 395.023 128.545 394.802 128.157C394.581 127.768 394.283 127.429 393.927 127.158C393.571 126.888 393.164 126.692 392.73 126.584C391.857 126.384 390.939 126.536 390.177 127.007C389.415 127.478 388.868 128.231 388.656 129.101Z" fill="#263238"/>
<path d="M394.436 127.081C393.62 126.724 392.755 126.494 391.869 126.401C391.016 126.236 390.138 126.236 389.285 126.401C388.383 126.581 387.52 126.917 386.734 127.395C386.734 127.395 386.635 127.627 386.734 127.594C387.43 127.461 388.043 127.296 389.053 127.18C390.025 127.097 391.004 127.13 391.968 127.279C393.11 127.444 394.224 127.761 395.281 128.223C395.629 128.372 396.308 128.671 396.374 128.72C396.44 128.77 396.54 128.521 396.49 128.439C395.908 127.847 395.209 127.384 394.436 127.081Z" fill="#263238"/>
<path d="M391.372 118.402L384.316 122.277C383.812 121.304 383.702 120.173 384.011 119.121C384.32 118.069 385.022 117.176 385.973 116.629C386.442 116.383 386.956 116.233 387.484 116.189C388.012 116.145 388.544 116.208 389.047 116.373C389.551 116.538 390.016 116.803 390.415 117.151C390.815 117.5 391.14 117.925 391.372 118.402Z" fill="#263238"/>
<path d="M541.118 193.051C511.901 180.264 467.413 185.216 441.74 204.115C430.974 212.032 424.266 217.365 423.372 226.143L424.365 235.104C425.127 241.729 428.722 248.122 435.065 253.522L318.81 329.397L319.804 338.341L334.495 344.767L373.004 340.477L387.182 330.043L386.238 321.596L397.55 313.513L414.113 310.2L420.374 305.612L419.38 290.524L430.974 281.977L449.624 284.064L471.769 267.766C497.921 271.079 528.083 264.735 547.412 250.458C560.298 240.984 565.995 229.804 564.803 219.402L563.809 210.541C561.54 201.332 554.236 198.798 541.118 193.051ZM526.758 220.611C519.486 225.961 506.882 227.369 498.601 223.742C490.319 220.115 489.524 212.843 496.795 207.494C504.066 202.144 516.671 200.736 524.952 204.363C533.234 207.99 534.095 215.228 526.758 220.611Z" fill="#EB5B14"/>
<path opacity="0.2" d="M541.118 193.051C511.901 180.264 467.413 185.216 441.74 204.115C430.974 212.032 424.266 217.365 423.372 226.143L424.365 235.104C425.127 241.729 428.722 248.122 435.065 253.522L318.81 329.397L319.804 338.341L334.495 344.767L373.004 340.477L387.182 330.043L386.238 321.596L397.55 313.513L414.113 310.2L420.374 305.612L419.38 290.524L430.974 281.977L449.624 284.064L471.769 267.766C497.921 271.079 528.083 264.735 547.412 250.458C560.298 240.984 565.995 229.804 564.803 219.402L563.809 210.541C561.54 201.332 554.236 198.798 541.118 193.051ZM526.758 220.611C519.486 225.961 506.882 227.369 498.601 223.742C490.319 220.115 489.524 212.843 496.795 207.494C504.066 202.144 516.671 200.736 524.952 204.363C533.234 207.99 534.095 215.228 526.758 220.611Z" fill="black"/>
<path d="M540.124 184.107C510.907 171.32 466.419 176.272 440.746 195.171C419.645 210.707 417.84 230.798 434.121 244.578L318.859 329.397L333.551 335.823L372.06 331.533L386.238 321.115L384.316 313.347L396.589 304.586L413.152 301.273L419.413 296.668L418.419 281.58L430.013 273.033L448.647 275.12L470.808 258.822C496.961 262.135 527.122 255.791 546.451 241.514C572.19 222.582 569.324 196.893 540.124 184.107ZM525.83 211.667C518.559 217.017 505.955 218.425 497.673 214.798C489.392 211.171 488.597 203.899 495.868 198.55C503.139 193.2 515.743 191.792 524.025 195.419C532.306 199.046 533.101 206.318 525.83 211.667Z" fill="#EB5B14"/>
<path opacity="0.3" d="M540.124 184.107C510.907 171.32 466.419 176.272 440.746 195.171C419.645 210.707 417.84 230.798 434.121 244.578L318.859 329.397L333.551 335.823L372.06 331.533L386.238 321.115L384.316 313.347L396.589 304.586L413.152 301.273L419.413 296.668L418.419 281.58L430.013 273.033L448.647 275.12L470.808 258.822C496.961 262.135 527.122 255.791 546.451 241.514C572.19 222.582 569.324 196.893 540.124 184.107ZM525.83 211.667C518.559 217.017 505.955 218.425 497.673 214.798C489.392 211.171 488.597 203.899 495.868 198.55C503.139 193.2 515.743 191.792 524.025 195.419C532.306 199.046 533.101 206.318 525.83 211.667Z" fill="white"/>
<g opacity="0.2">
<path d="M423.869 228.727L491.975 210.26C489.69 206.599 490.899 202.094 495.818 198.483C503.089 193.134 515.694 191.726 523.975 195.353C526.351 196.269 528.375 197.916 529.755 200.057L554.6 193.332C550.308 189.433 545.385 186.291 540.041 184.04C539.18 183.676 538.285 183.361 537.408 183.03L425.276 213.307C423.197 218.171 422.704 223.567 423.869 228.727Z" fill="white"/>
<path d="M561.424 224.404C563.515 220.199 564.377 215.489 563.911 210.816C563.445 206.143 561.67 201.696 558.79 197.986L530.484 205.639C529.639 208.106 528.003 210.225 525.83 211.667C518.559 217.017 505.955 218.425 497.673 214.798L497.276 214.599L425.724 233.928C427.735 238.038 430.604 241.67 434.138 244.578L403.529 267.037L561.424 224.404Z" fill="white"/>
</g>
<path d="M497.242 250.822C479.868 252.76 463.222 250.723 450.386 245.108C439.189 240.139 432.283 232.967 431.421 225.232C430.56 217.498 435.711 208.951 445.549 201.697C456.845 193.415 472.63 187.751 490.004 185.829C507.379 183.908 524.008 185.912 536.861 191.543C548.041 196.512 554.948 203.684 555.809 211.419C556.67 219.154 551.602 227.7 541.664 234.938C530.385 243.253 514.6 248.884 497.242 250.822ZM490.319 188.363C473.392 190.252 458.038 195.717 447.09 203.767C438.013 210.392 433.227 218.193 433.989 224.967C434.75 231.742 441.111 238.218 451.446 242.773C463.885 248.222 480.05 250.176 496.994 248.288C513.938 246.4 529.275 240.934 540.207 232.901C549.3 226.276 554.07 218.475 553.325 211.684C552.579 204.893 546.203 198.434 535.867 193.879C523.445 188.446 507.213 186.475 490.319 188.363Z" fill="#EB5B14"/>
<path opacity="0.1" d="M523.13 253.323L524.124 262.267C507.315 267.919 489.463 269.774 471.851 267.7L470.858 258.756C488.469 260.83 506.322 258.975 523.13 253.323Z" fill="black"/>
<path opacity="0.1" d="M448.713 275.087L449.707 284.031L431.057 281.944L430.063 273L448.713 275.087Z" fill="black"/>
<path opacity="0.1" d="M418.452 281.547L419.446 290.491L420.44 305.563L419.446 296.635L418.452 281.547Z" fill="black"/>
<path opacity="0.1" d="M413.185 301.24L414.179 310.167L397.55 313.513L396.556 304.569L413.185 301.24Z" fill="black"/>
<path opacity="0.1" d="M371.997 331.552L333.494 335.837L334.489 344.775L372.992 340.49L371.997 331.552Z" fill="black"/>
<path opacity="0.15" d="M318.81 329.397L319.804 338.341L334.495 344.767L333.501 335.823L327.058 333.008L327.489 336.867L323.944 335.31L323.514 331.418L318.81 329.397Z" fill="black"/>
<path d="M323.514 331.417L327.058 333.008L327.489 336.867L323.944 335.31L323.514 331.417Z" fill="#EB5B14"/>
<path opacity="0.3" d="M323.514 331.417L327.058 333.008L327.489 336.867L323.944 335.31L323.514 331.417Z" fill="white"/>
<path d="M323.514 331.418L323.944 335.31L442.138 248.321L438.576 246.715L323.514 331.418Z" fill="#EB5B14"/>
<path opacity="0.15" d="M438.576 246.715L439.007 250.623L442.138 248.321L438.576 246.715Z" fill="black"/>
<path d="M317.336 204.645C327.141 188.082 336.383 188.231 346.221 185.862C354.934 197.771 356.623 221.522 339.033 247.029L320.218 277.886C320.218 277.886 348.524 290.656 358.147 288.122C360.979 287.586 363.722 286.655 366.296 285.356C372.093 282.921 374.329 282.789 379.828 280.718C384.134 279.062 385.939 276.925 386.751 277.721C387.811 278.731 388.987 281.646 386.387 284.76C384.77 286.573 382.888 288.131 380.805 289.381C386.044 289.161 391.251 288.451 396.358 287.261C403.297 285.604 406.792 283.633 408.73 286.333C409.956 287.99 408.432 289.961 407.769 291.551C407.107 293.141 407.521 295.708 406.444 297.397C405.832 298.358 404.689 298.938 404.192 299.965C403.695 300.991 404.076 302.664 403.678 303.956C403.329 304.856 402.76 305.653 402.022 306.275C399.819 308.395 397.186 311.459 394.42 312.9C392.511 313.661 390.513 314.173 388.474 314.424C382.793 315.365 377.037 315.77 371.281 315.633C360.598 315.633 354.718 313.712 344.366 312.321C325.054 309.803 302.131 303.741 293.021 300.23C282.819 296.288 282.52 288.635 283.398 279.791C284.939 264.338 309.584 217.647 317.336 204.645Z" fill="#FFBDA7"/>
<path d="M518.095 52.3651L473.143 78.3689C472.249 78.8823 471.487 80.1246 471.487 82.5262V136.074C471.514 136.638 471.679 137.187 471.968 137.672C472.257 138.157 472.66 138.564 473.143 138.857L479.52 142.484C480.018 142.737 480.568 142.869 481.127 142.869C481.685 142.869 482.236 142.737 482.733 142.484L527.702 116.48C528.177 116.179 528.575 115.771 528.863 115.287C529.15 114.804 529.32 114.259 529.358 113.698V58.7418C529.324 58.1816 529.156 57.6378 528.868 57.1564C528.58 56.6749 528.18 56.27 527.702 55.9758L521.325 52.3485C520.822 52.1016 520.269 51.9746 519.708 51.9775C519.148 51.9803 518.596 52.113 518.095 52.3651Z" fill="#37474F"/>
<path d="M482.75 142.468C482.248 142.708 481.699 142.833 481.143 142.833C480.587 142.833 480.038 142.708 479.537 142.468L473.16 138.824C472.674 138.535 472.268 138.129 471.979 137.643C471.689 137.157 471.526 136.606 471.504 136.041V82.5262C471.438 81.5009 471.631 80.4756 472.067 79.5449L481.59 85.0273C481.271 85.52 481.104 86.0962 481.11 86.6835V141.623C481.143 142.501 481.806 143.014 482.75 142.468Z" fill="#263238"/>
<path d="M467.131 121.896C466.121 121.3 458.435 116.927 458.187 116.828C457.999 116.713 457.838 116.557 457.717 116.372C457.597 116.188 457.518 115.978 457.488 115.76C457.458 115.541 457.477 115.318 457.543 115.108C457.61 114.897 457.722 114.704 457.872 114.542L471.52 98.8738L481.127 104.389L466.849 119.644C466.709 119.805 466.604 119.995 466.541 120.2C466.479 120.405 466.46 120.62 466.487 120.833C466.514 121.045 466.585 121.25 466.696 121.433C466.807 121.616 466.955 121.774 467.131 121.896Z" fill="#37474F"/>
<path d="M527.718 57.8805L482.75 83.8844C482.274 84.1853 481.877 84.594 481.589 85.0775C481.301 85.561 481.131 86.1056 481.094 86.6669V104.389L466.816 119.644C466.617 119.838 466.479 120.086 466.418 120.357C466.357 120.629 466.376 120.912 466.472 121.173C466.568 121.434 466.738 121.661 466.961 121.828C467.184 121.994 467.45 122.093 467.727 122.112L481.094 121.134V141.54C481.094 142.567 481.822 142.981 482.75 142.468L527.718 116.464C528.194 116.163 528.591 115.754 528.879 115.271C529.167 114.787 529.337 114.242 529.375 113.681V58.7418C529.325 57.7149 528.596 57.3008 527.718 57.8805Z" fill="#455A64"/>
<path d="M519.371 73.1681C518.888 72.9635 518.369 72.856 517.845 72.8518C517.32 72.8476 516.8 72.9468 516.314 73.1437C515.828 73.3406 515.386 73.6313 515.012 73.9993C514.638 74.3672 514.341 74.8052 514.137 75.2882L499.048 111.213L495.454 107.718C494.694 106.98 493.672 106.575 492.612 106.59C491.553 106.606 490.544 107.041 489.806 107.801C489.068 108.561 488.662 109.583 488.677 110.642C488.693 111.702 489.128 112.711 489.888 113.449L497.673 121.018C498.417 121.745 499.416 122.149 500.456 122.145C500.72 122.177 500.987 122.177 501.251 122.145C501.889 122.019 502.487 121.738 502.992 121.328C503.497 120.919 503.894 120.391 504.149 119.793L521.507 78.3855C521.914 77.4101 521.918 76.3131 521.517 75.3351C521.117 74.357 520.345 73.5778 519.371 73.1681Z" fill="#FAFAFA"/>
</svg>
