<svg width="2634" height="1465" viewBox="0 0 2634 1465" fill="none" xmlns="http://www.w3.org/2000/svg">
<path d="M2270.82 530.692C2292.73 515.994 2298.57 486.319 2283.87 464.412C2269.18 442.505 2239.5 436.662 2217.59 451.361C2195.69 466.059 2189.84 495.734 2204.54 517.64C2219.24 539.547 2248.92 545.391 2270.82 530.692Z" fill="#E0E0E0"/>
<path d="M2102.4 541.879C2130.5 541.879 2153.27 519.102 2153.27 491.005C2153.27 462.909 2130.5 440.132 2102.4 440.132C2074.3 440.132 2051.52 462.909 2051.52 491.005C2051.52 519.102 2074.3 541.879 2102.4 541.879Z" fill="#E0E0E0"/>
<path d="M1993.43 454.967C2023.24 454.967 2047.41 430.799 2047.41 400.986C2047.41 371.173 2023.24 347.005 1993.43 347.005C1963.62 347.005 1939.45 371.173 1939.45 400.986C1939.45 430.799 1963.62 454.967 1993.43 454.967Z" fill="#E0E0E0"/>
<path d="M1971.29 319.044C2002.43 319.044 2027.68 293.798 2027.68 262.656C2027.68 231.513 2002.43 206.267 1971.29 206.267C1940.15 206.267 1914.9 231.513 1914.9 262.656C1914.9 293.798 1940.15 319.044 1971.29 319.044Z" fill="#E0E0E0"/>
<path d="M2040.38 199.821C2072.57 199.821 2098.67 173.723 2098.67 141.53C2098.67 109.336 2072.57 83.2383 2040.38 83.2383C2008.19 83.2383 1982.09 109.336 1982.09 141.53C1982.09 173.723 2008.19 199.821 2040.38 199.821Z" fill="#E0E0E0"/>
<path d="M2173.08 157.18C2208.17 157.18 2236.61 128.735 2236.61 93.6461C2236.61 58.5572 2208.17 30.1121 2173.08 30.1121C2137.99 30.1121 2109.54 58.5572 2109.54 93.6461C2109.54 128.735 2137.99 157.18 2173.08 157.18Z" fill="#E0E0E0"/>
<path d="M2394.31 410.331C2400.14 385.525 2384.75 360.695 2359.94 354.872C2335.14 349.05 2310.31 364.439 2304.48 389.245C2298.66 414.05 2314.05 438.88 2338.86 444.703C2363.66 450.525 2388.49 435.136 2394.31 410.331Z" fill="#E0E0E0"/>
<path d="M2374.2 303.899C2397.84 303.899 2417 284.738 2417 261.102C2417 237.467 2397.84 218.306 2374.2 218.306C2350.57 218.306 2331.41 237.467 2331.41 261.102C2331.41 284.738 2350.57 303.899 2374.2 303.899Z" fill="#E0E0E0"/>
<path d="M2303.02 179.044C2324.62 179.044 2342.13 161.535 2342.13 139.937C2342.13 118.339 2324.62 100.831 2303.02 100.831C2281.42 100.831 2263.91 118.339 2263.91 139.937C2263.91 161.535 2281.42 179.044 2303.02 179.044Z" fill="#E0E0E0"/>
<path d="M664.184 107.161C668.517 106.205 672.978 105.968 677.388 106.462C687.692 107.465 697.485 111.426 705.588 117.869C713.691 124.311 719.758 132.96 723.058 142.772C726.18 152.016 726.756 161.928 724.728 171.471C722.435 182.069 717.025 191.739 709.194 199.238C700.853 207.372 690.121 212.611 678.577 214.184C667.034 215.758 655.291 213.581 645.077 207.976C635.57 202.779 627.824 194.871 622.825 185.258C618.332 176.596 616.253 166.884 616.806 157.141C617.278 148.687 619.74 140.464 623.99 133.141C630.075 122.456 639.685 114.219 651.175 109.84C655.275 108.197 659.618 107.24 664.029 107.005C664.029 107.394 659.369 107.743 651.602 110.889C640.656 115.56 631.591 123.764 625.854 134.19C621.63 141.783 619.371 150.311 619.283 158.999C619.194 167.688 621.28 176.26 625.349 183.937C627.649 188.36 630.608 192.406 634.126 195.937C637.784 199.699 642.035 202.834 646.709 205.219C656.365 210.487 667.452 212.529 678.351 211.048C689.251 209.566 699.391 204.639 707.291 196.986C714.688 189.901 719.811 180.776 722.01 170.772C723.983 161.754 723.528 152.373 720.689 143.588C718.202 135.88 713.931 128.868 708.223 123.122C699.915 114.589 688.966 109.115 677.155 107.588C672.841 107.229 668.512 107.086 664.184 107.161Z" fill="#E0E0E0"/>
<path d="M684.417 38.8887C684.417 38.8887 684.146 38.345 683.679 37.1412L681.582 31.8984C679.679 27.0441 677 20.0149 673.466 10.9664L674.01 11.2771L624.844 18.2285L625.505 17.5295C624.767 26.578 623.912 36.6363 623.019 47.3936V47.9373L622.514 48.1703C612.598 52.3148 603.285 57.7748 594.825 64.4033L594.359 64.7916L593.776 64.5198L566.592 52.1703L567.912 51.8208L537.971 91.3936V89.9179L557.388 112.869L557.893 113.452L557.582 114.151C553.518 124.103 550.789 134.55 549.466 145.219V146.034L548.689 146.306L520.611 156.831L521.505 155.394C523.602 170.928 525.893 187.51 528.223 204.559L526.942 203.355L556.806 205.957H557.699L558.048 206.772C562.172 216.638 567.592 225.911 574.165 234.345L574.709 235.044L574.32 235.86C570.437 244.442 566.204 253.763 561.893 263.044L561.466 261.219L600.961 291.277H599.058L622.048 271.86L622.747 271.277L623.602 271.627C633.488 275.696 643.87 278.438 654.476 279.782C655.019 280.209 653.233 278.811 655.718 280.792V281.258L656.068 282.112L656.728 283.899L658.048 287.433L660.65 294.462C662.437 299.161 664.145 303.821 665.893 308.481L664.262 307.51L713.466 300.831L712.146 302.19C713.026 292.145 713.906 282.19 714.786 272.326V271.433L715.641 271.083C725.517 266.972 734.802 261.566 743.252 255.005L743.951 254.462L744.767 254.811L771.951 267.277L770.204 267.743L800.301 228.248V230.034C793.777 222.267 787.33 214.5 780.883 207.005L780.34 206.345L780.689 205.607C784.782 195.659 787.537 185.212 788.883 174.539V173.763L789.621 173.491L817.738 163.044L816.922 164.403C814.592 147.083 812.417 130.733 810.359 115.199L811.408 116.209L781.544 113.491H780.883L780.612 112.908C776.65 103.256 771.455 94.1576 765.155 85.8402L764.806 85.3353L765.039 84.7917C769.582 74.8887 773.699 65.9955 777.582 57.6072L777.854 58.6945L738.476 28.4421H739.33L716.029 47.5489H715.796H715.524C708.005 44.4057 700.202 41.987 692.223 40.3256L686.32 39.2382L684.34 38.8499C685.012 38.7969 685.687 38.7969 686.359 38.8499C687.68 38.8499 689.66 39.2382 692.34 39.7431C700.325 41.1795 708.135 43.4576 715.641 46.5392H715.136C721.388 41.2188 728.845 34.8887 738.01 27.1217L738.398 26.7722L738.864 27.0829L778.476 56.9858L779.058 57.413L778.747 58.0732C774.864 66.5392 770.981 75.4713 766.398 85.2577V84.2091C773.131 92.8157 778.682 102.285 782.903 112.364L782.01 111.704L811.874 114.267H812.806V115.199C814.942 130.733 817.155 147.044 819.563 164.365V165.374L818.631 165.724L790.553 176.248L791.408 175.199C790.041 186.069 787.246 196.711 783.097 206.85L782.864 205.452C789.207 212.934 795.68 220.585 802.281 228.403L803.019 229.258L802.32 230.151L772.301 269.685L771.602 270.617L770.553 270.112L743.369 257.724H744.883C736.22 264.457 726.7 270.007 716.573 274.229L717.505 272.986C716.65 282.85 715.757 292.792 714.903 302.85V304.054H713.699L664.534 310.772H663.33L662.903 309.607L657.66 295.627L655.019 288.559L653.699 285.025L653.039 283.277L652.689 282.384V281.957V281.724C655.175 283.704 653.388 282.267 653.932 282.695C643.058 281.327 632.415 278.52 622.281 274.345L623.874 274.112L600.844 293.53L599.912 294.306L598.98 293.568L559.33 263.704L558.359 263.005L558.864 261.918L571.33 234.733L571.524 236.248C564.803 227.584 559.265 218.063 555.058 207.937L556.262 208.831L526.398 206.19H525.272V205.064C522.942 187.976 520.728 171.316 518.631 155.86V154.772L519.641 154.423L547.718 143.937L546.903 145.025C548.26 134.157 551.082 123.524 555.291 113.413V114.695L536.029 91.4324L535.408 90.6946L535.99 89.9567C546.372 76.1832 556.378 63.0441 566.01 50.5392L566.514 49.8402L567.33 50.1897L594.514 62.6946H593.466C602.099 56.0004 611.596 50.501 621.699 46.345L621.155 47.0829C622.126 36.3256 623.058 26.2674 623.912 17.2188V16.5974H624.534L673.738 10.2285H674.126V10.578L681.66 31.5101C682.476 33.8013 683.097 35.3936 683.563 36.947C683.917 37.5616 684.203 38.2126 684.417 38.8887Z" fill="#E0E0E0"/>
<path fill-rule="evenodd" clip-rule="evenodd" d="M446.708 325.607C461.906 327.504 476.782 331.422 490.941 337.258L523.446 310.073L579.408 352.792L561.815 391.355C571.209 403.461 578.966 416.754 584.883 430.889L627.097 434.772L636.534 504.248L596.806 519.083C594.927 534.284 591.008 549.162 585.155 563.316L612.34 595.821L569.854 651.666L531.252 634.073C519.161 643.49 505.865 651.248 491.718 657.141L487.835 699.355L418.281 708.792L403.446 669.064C388.25 667.163 373.375 663.245 359.213 657.413L326.708 684.598L270.864 642.112L288.456 603.51C279.052 591.418 271.307 578.122 265.427 563.976L223.174 560.093L213.737 490.539L253.466 475.704C255.349 460.505 259.268 445.627 265.116 431.471L237.932 398.967L280.417 343.122L319.019 360.714C331.117 351.318 344.412 343.574 358.553 337.685L362.437 295.432L431.99 285.996L446.708 325.607ZM418.165 422.151C403.404 424.145 389.566 430.472 378.402 440.331C367.237 450.19 359.247 463.139 355.443 477.54C351.638 491.94 352.19 507.146 357.028 521.233C361.866 535.32 370.773 547.656 382.622 556.68C394.472 565.705 408.732 571.012 423.598 571.932C438.465 572.851 453.27 569.341 466.141 561.845C479.012 554.349 489.371 543.205 495.908 529.821C502.444 516.437 504.865 501.416 502.864 486.656C500.152 466.917 489.728 449.057 473.874 436.988C458.021 424.92 438.03 419.626 418.281 422.268L418.165 422.151Z" fill="#E0E0E0"/>
<path d="M2633.12 1463.47C2633.12 1464.05 2043.64 1464.48 1316.61 1464.48C589.582 1464.48 0.106323 1463.9 0.106323 1463.47C0.106323 1463.04 589.466 1462.46 1316.61 1462.46C2043.76 1462.46 2633.12 1462.77 2633.12 1463.47Z" fill="#263238"/>
<path d="M2159.72 314.811H574.592C543.342 314.811 518.009 340.144 518.009 371.394V1381.3C518.009 1412.55 543.342 1437.88 574.592 1437.88H2159.72C2190.97 1437.88 2216.3 1412.55 2216.3 1381.3V371.394C2216.3 340.144 2190.97 314.811 2159.72 314.811Z" fill="#455A64"/>
<path d="M451.641 1365.34H2291.6V1394.5C2291.6 1412.83 2284.32 1430.42 2271.36 1443.38C2258.39 1456.34 2240.81 1463.63 2222.48 1463.63H520.767C502.433 1463.63 484.851 1456.34 471.887 1443.38C458.923 1430.42 451.641 1412.83 451.641 1394.5V1365.34Z" fill="#455A64"/>
<path d="M2165.97 359.433H563.602V1307.86H2165.97V359.433Z" fill="#263238"/>
<path d="M1199.76 1354.81L1222.59 1391.12H1543.87L1565.08 1354.81H1199.76Z" fill="#263238"/>
<path d="M2123.56 391.549H609.31C602.297 391.549 596.611 397.235 596.611 404.248V1292.13C596.611 1299.15 602.297 1304.83 609.31 1304.83H2123.56C2130.58 1304.83 2136.26 1299.15 2136.26 1292.13V404.248C2136.26 397.235 2130.58 391.549 2123.56 391.549Z" fill="#EBEBEB"/>
<path d="M2134.63 1306.15H594.98L596.611 459.782H2134.63V1306.15Z" fill="#FAFAFA"/>
<path d="M722.864 426.811C722.864 429.248 722.141 431.629 720.786 433.655C719.432 435.68 717.507 437.258 715.255 438.188C713.004 439.119 710.526 439.361 708.137 438.882C705.748 438.404 703.555 437.228 701.835 435.502C700.114 433.777 698.945 431.58 698.474 429.189C698.004 426.798 698.253 424.322 699.191 422.073C700.129 419.824 701.713 417.904 703.742 416.556C705.772 415.208 708.156 414.493 710.592 414.501C712.207 414.501 713.806 414.819 715.297 415.438C716.789 416.058 718.143 416.965 719.283 418.109C720.423 419.252 721.327 420.61 721.941 422.103C722.555 423.596 722.869 425.196 722.864 426.811Z" fill="#263238"/>
<path d="M648.34 426.811C648.34 429.248 647.617 431.629 646.262 433.655C644.908 435.68 642.983 437.258 640.731 438.188C638.479 439.119 636.002 439.361 633.613 438.882C631.224 438.404 629.03 437.228 627.31 435.502C625.59 433.777 624.421 431.58 623.95 429.189C623.479 426.798 623.729 424.322 624.667 422.073C625.604 419.824 627.188 417.904 629.218 416.556C631.247 415.208 633.631 414.493 636.068 414.501C637.683 414.501 639.282 414.819 640.773 415.438C642.264 416.058 643.619 416.965 644.759 418.109C645.899 419.252 646.802 420.61 647.417 422.103C648.031 423.596 648.345 425.196 648.34 426.811Z" fill="#263238"/>
<path d="M684.145 426.811C684.145 429.246 683.423 431.626 682.071 433.651C680.718 435.675 678.795 437.253 676.546 438.185C674.296 439.117 671.821 439.36 669.433 438.885C667.045 438.41 664.851 437.238 663.13 435.516C661.408 433.794 660.236 431.601 659.761 429.213C659.286 426.825 659.529 424.35 660.461 422.1C661.393 419.851 662.971 417.928 664.995 416.575C667.02 415.222 669.4 414.5 671.835 414.5C675.1 414.5 678.231 415.797 680.54 418.106C682.848 420.415 684.145 423.546 684.145 426.811Z" fill="#263238"/>
<path d="M2201.7 1354.73C2201.7 1355.36 1824.77 1355.82 1359.91 1355.82C895.058 1355.82 518.009 1355.36 518.009 1354.73C518.009 1354.11 894.709 1353.65 1359.91 1353.65C1825.12 1353.65 2201.7 1354.19 2201.7 1354.73Z" fill="#263238"/>
<path d="M1905.35 879.977H859.097C846.809 879.977 835.025 875.095 826.337 866.407C817.648 857.718 812.767 845.934 812.767 833.646C812.767 821.355 817.647 809.567 826.334 800.872C835.022 792.178 846.806 787.288 859.097 787.277H1905.35C1917.64 787.288 1929.43 792.178 1938.11 800.872C1946.8 809.567 1951.68 821.355 1951.68 833.646C1951.68 845.934 1946.8 857.718 1938.11 866.407C1929.42 875.095 1917.64 879.977 1905.35 879.977Z" fill="#EBEBEB"/>
<path d="M1399.68 879.977H1343.8C1337.63 880.028 1331.51 878.854 1325.8 876.523C1320.09 874.192 1314.89 870.75 1310.52 866.397C1306.15 862.044 1302.69 856.866 1300.33 851.164C1297.98 845.462 1296.78 839.349 1296.81 833.18C1296.72 827.131 1297.84 821.125 1300.12 815.519C1302.39 809.912 1305.76 804.818 1310.04 800.538C1314.32 796.258 1319.41 792.88 1325.01 790.602C1330.62 788.324 1336.62 787.194 1342.67 787.278L1399.68 787.511C1412.19 787.715 1424.11 792.838 1432.87 801.771C1441.63 810.704 1446.52 822.728 1446.48 835.239C1446.48 861.064 1425.35 879.977 1399.68 879.977Z" fill="#E0E0E0"/>
<mask id="mask0_452_8221" style="mask-type:luminance" maskUnits="userSpaceOnUse" x="812" y="787" width="606" height="93">
<path d="M1383.84 879.977H859.097C846.809 879.977 835.025 875.095 826.337 866.407C817.648 857.718 812.767 845.934 812.767 833.646C812.767 821.355 817.647 809.567 826.334 800.872C835.022 792.178 846.806 787.288 859.097 787.277H1383.84C1392.64 787.277 1401.09 790.776 1407.31 797.003C1413.54 803.23 1417.04 811.675 1417.04 820.481V846.773C1417.04 855.579 1413.54 864.024 1407.31 870.251C1401.09 876.478 1392.64 879.977 1383.84 879.977Z" fill="white"/>
</mask>
<g mask="url(#mask0_452_8221)">
<path d="M1370.67 879.977H859.097C846.81 879.977 835.025 875.095 826.337 866.407C817.648 857.718 812.767 845.934 812.767 833.646C812.767 821.355 817.647 809.567 826.334 800.872C835.022 792.178 846.806 787.288 859.097 787.277H1370.67C1382.97 787.277 1394.76 792.163 1403.46 800.859C1412.15 809.554 1417.04 821.349 1417.04 833.646C1417.04 839.734 1415.84 845.762 1413.51 851.385C1411.18 857.009 1407.76 862.118 1403.46 866.42C1399.15 870.723 1394.04 874.135 1388.41 876.461C1382.79 878.787 1376.76 879.982 1370.67 879.977Z" fill="#EB5B14"/>
<g opacity="0.2">
<path d="M876.806 787.277L933.427 879.977H973.466L914.592 787.277H876.806Z" fill="white"/>
</g>
<g opacity="0.2">
<path d="M791.136 787.277L847.757 879.977H887.796L828.922 787.277H791.136Z" fill="white"/>
</g>
<g opacity="0.2">
<path d="M959.68 787.277L1016.26 879.977H1056.34L997.466 787.277H959.68Z" fill="white"/>
</g>
<g opacity="0.2">
<path d="M1042.55 787.277L1099.14 879.977H1139.21L1080.34 787.277H1042.55Z" fill="white"/>
</g>
<g opacity="0.2">
<path d="M1125.39 787.277L1182.01 879.977H1222.05L1163.17 787.277H1125.39Z" fill="white"/>
</g>
<g opacity="0.2">
<path d="M1208.26 787.277L1264.84 879.977H1304.92L1246.05 787.277H1208.26Z" fill="white"/>
</g>
<g opacity="0.2">
<path d="M1291.14 787.277L1347.72 879.977H1387.8L1328.92 787.277H1291.14Z" fill="white"/>
</g>
<g opacity="0.2">
<path d="M1373.97 787.277L1430.59 879.977H1470.63L1411.76 787.277H1373.97Z" fill="white"/>
</g>
</g>
<path d="M1129.08 968.792C1138.9 968.792 1144.61 973.685 1144.61 982.151C1144.61 990.617 1138.98 996.132 1129.08 996.132H1120.07V1007.78H1113.47V968.792H1129.08ZM1120.07 990.229H1128.81C1134.83 990.229 1138.24 987.627 1138.24 982.462C1138.24 977.297 1134.83 974.695 1128.81 974.695H1120.07V990.229Z" fill="#EB5B14"/>
<path d="M1152.11 1007.94V966.384H1158.55V1007.94H1152.11Z" fill="#EB5B14"/>
<path d="M1195.6 995.511H1173.16C1173.53 997.656 1174.67 999.593 1176.36 1000.96C1178.05 1002.33 1180.18 1003.05 1182.36 1002.97C1183.92 1002.98 1185.47 1002.67 1186.91 1002.07C1188.35 1001.47 1189.65 1000.59 1190.75 999.472L1194.17 1003.12C1192.58 1004.78 1190.67 1006.08 1188.55 1006.94C1186.42 1007.81 1184.14 1008.21 1181.85 1008.13C1179.84 1008.27 1177.82 1007.97 1175.92 1007.27C1174.03 1006.56 1172.31 1005.46 1170.87 1004.04C1169.44 1002.62 1168.32 1000.91 1167.6 999.024C1166.87 997.138 1166.56 995.12 1166.67 993.103C1166.57 991.098 1166.89 989.094 1167.61 987.219C1168.33 985.345 1169.43 983.641 1170.84 982.216C1172.26 980.791 1173.95 979.676 1175.82 978.943C1177.69 978.209 1179.69 977.874 1181.7 977.957C1192.34 978.035 1196.22 984.792 1195.6 995.511ZM1190.01 990.812C1190.01 989.748 1189.8 988.695 1189.37 987.718C1188.95 986.741 1188.33 985.861 1187.56 985.133C1186.78 984.405 1185.87 983.844 1184.87 983.484C1183.86 983.125 1182.8 982.976 1181.74 983.045C1179.57 982.968 1177.45 983.733 1175.83 985.18C1174.21 986.628 1173.21 988.645 1173.04 990.812H1190.01Z" fill="#EB5B14"/>
<path d="M1221.27 1004.29C1220.04 1005.64 1218.51 1006.7 1216.81 1007.37C1215.11 1008.04 1213.27 1008.32 1211.45 1008.17C1210.14 1008.32 1208.82 1008.19 1207.56 1007.79C1206.31 1007.4 1205.15 1006.74 1204.17 1005.87C1203.19 1005 1202.39 1003.93 1201.85 1002.74C1201.3 1001.54 1201.01 1000.24 1201 998.928C1201 993.53 1204.88 990.074 1212.22 989.996H1221.19V989.103C1221.19 985.219 1218.83 983.122 1214.13 983.122C1210.96 983.214 1207.9 984.271 1205.35 986.151L1202.71 981.685C1206.46 979.068 1210.95 977.708 1215.52 977.802C1223.29 977.802 1227.49 981.685 1227.52 988.249V1007.67H1221.23L1221.27 1004.29ZM1221.27 997.491V994.734H1213.23C1209.04 994.734 1207.1 995.86 1207.1 998.617C1207.1 1001.37 1209.27 1003.04 1212.84 1003.04C1217.35 1003.12 1220.88 1000.71 1221.19 997.452L1221.27 997.491Z" fill="#EB5B14"/>
<path d="M1256.61 980.947L1254.24 985.685C1251.68 984.069 1248.73 983.158 1245.7 983.045C1243.21 983.045 1241.35 983.899 1241.35 986.035C1241.35 991.511 1257.16 988.52 1257.12 999.316C1257.12 1005.41 1251.68 1008.13 1245.7 1008.13C1241.35 1008.21 1237.12 1006.75 1233.74 1004.02L1236.03 999.433C1238.84 1001.74 1242.34 1003.03 1245.97 1003.12C1248.73 1003.12 1250.86 1002.15 1250.86 999.938C1250.86 993.841 1235.33 997.258 1235.33 986.501C1235.33 980.481 1240.57 977.918 1246.28 977.918C1249.95 977.897 1253.54 978.95 1256.61 980.947Z" fill="#EB5B14"/>
<path d="M1290.86 995.51H1268.42C1268.8 997.652 1269.94 999.585 1271.63 1000.95C1273.32 1002.32 1275.45 1003.04 1277.62 1002.97C1279.18 1002.98 1280.73 1002.67 1282.17 1002.07C1283.61 1001.47 1284.92 1000.59 1286.01 999.472L1289.43 1003.12C1287.85 1004.78 1285.93 1006.08 1283.81 1006.95C1281.69 1007.81 1279.41 1008.22 1277.12 1008.13C1275.1 1008.27 1273.08 1007.97 1271.19 1007.27C1269.29 1006.56 1267.57 1005.46 1266.14 1004.04C1264.7 1002.62 1263.58 1000.91 1262.86 999.024C1262.13 997.138 1261.82 995.12 1261.93 993.103C1261.84 991.099 1262.16 989.098 1262.88 987.226C1263.61 985.354 1264.71 983.652 1266.12 982.229C1267.53 980.805 1269.23 979.69 1271.09 978.955C1272.96 978.219 1274.96 977.88 1276.96 977.957C1287.41 978.035 1291.64 984.792 1290.86 995.51ZM1285.27 990.811C1285.27 989.751 1285.06 988.702 1284.64 987.727C1284.22 986.753 1283.61 985.875 1282.83 985.148C1282.06 984.42 1281.15 983.858 1280.15 983.496C1279.16 983.135 1278.1 982.981 1277.04 983.044C1274.86 982.967 1272.74 983.731 1271.11 985.177C1269.49 986.624 1268.48 988.642 1268.3 990.811H1285.27Z" fill="#EB5B14"/>
<path d="M1348.15 1007.94L1338.86 977.413L1329.47 1007.94H1322.63L1309.7 968.792H1316.61L1326.13 1000.6L1335.56 968.87H1342.05L1351.56 1000.68L1361 968.87H1367.8L1354.75 1008.02L1348.15 1007.94Z" fill="#EB5B14"/>
<path d="M1388.5 1004.29C1387.26 1005.64 1385.74 1006.7 1384.03 1007.37C1382.33 1008.05 1380.5 1008.32 1378.67 1008.17C1377.36 1008.32 1376.04 1008.19 1374.79 1007.79C1373.53 1007.4 1372.38 1006.74 1371.39 1005.87C1370.41 1005 1369.62 1003.93 1369.07 1002.74C1368.53 1001.54 1368.24 1000.24 1368.22 998.928C1368.22 993.53 1372.11 990.074 1379.45 989.996H1388.46V989.103C1388.46 985.219 1386.05 983.122 1381.35 983.122C1378.18 983.214 1375.12 984.271 1372.57 986.151L1369.93 981.685C1373.69 979.075 1378.17 977.716 1382.75 977.802C1390.51 977.802 1394.71 981.685 1394.75 988.249V1007.67H1388.42L1388.5 1004.29ZM1388.5 997.491V994.734H1380.46C1376.26 994.734 1374.28 995.86 1374.28 998.617C1374.28 1001.37 1376.46 1003.04 1380.03 1003.04C1384.57 1003.12 1388.11 1000.71 1388.46 997.452L1388.5 997.491Z" fill="#EB5B14"/>
<path d="M1411.49 969.685C1411.49 970.453 1411.26 971.204 1410.83 971.843C1410.4 972.481 1409.8 972.979 1409.09 973.273C1408.38 973.567 1407.6 973.644 1406.84 973.494C1406.09 973.344 1405.4 972.974 1404.86 972.431C1404.31 971.888 1403.94 971.196 1403.79 970.443C1403.64 969.69 1403.72 968.909 1404.01 968.199C1404.31 967.489 1404.81 966.883 1405.44 966.456C1406.08 966.029 1406.83 965.802 1407.6 965.802C1408.63 965.802 1409.62 966.211 1410.35 966.939C1411.08 967.667 1411.49 968.655 1411.49 969.685ZM1404.57 1007.94V978.035H1410.94V1007.78L1404.57 1007.94Z" fill="#EB5B14"/>
<path d="M1438.4 1006.03C1436.19 1007.41 1433.66 1008.16 1431.06 1008.21C1429.91 1008.3 1428.76 1008.13 1427.69 1007.72C1426.62 1007.31 1425.65 1006.67 1424.86 1005.84C1424.06 1005.02 1423.46 1004.02 1423.1 1002.93C1422.73 1001.84 1422.61 1000.69 1422.75 999.549V984.015H1418.55V979.2H1422.75V971.044H1429.23V979.2H1438.01V984.015H1429.23V998.268C1429.23 1001.34 1430.4 1002.15 1432.42 1002.15C1433.98 1002.07 1435.51 1001.63 1436.88 1000.87L1438.4 1006.03Z" fill="#EB5B14"/>
<path d="M1473.16 966.384C1468.84 973.715 1466.56 982.069 1466.56 990.579C1466.56 999.088 1468.84 1007.44 1473.16 1014.77H1467.33C1462.9 1007.48 1460.56 999.111 1460.56 990.579C1460.56 982.046 1462.9 973.677 1467.33 966.384H1473.16Z" fill="#EB5B14"/>
<path d="M1495.52 992.443V983.161H1501.66V992.443H1507.37V998.307H1501.66V1007.94H1495.52V998.307H1476.84V993.569L1490.2 968.948H1496.57L1483.91 992.598L1495.52 992.443Z" fill="#EB5B14"/>
<path d="M1520.3 974.734V983.161H1525.66C1534.17 983.161 1539.64 988.171 1539.64 995.045C1539.64 1003.01 1533.93 1008.17 1525.16 1008.17C1520.19 1008.04 1515.37 1006.49 1511.25 1003.7L1513.85 998.346C1516.8 1000.89 1520.53 1002.36 1524.42 1002.5C1529.51 1002.5 1532.57 999.86 1532.57 995.433C1532.57 991.006 1529.51 989.025 1524.5 989.025C1522.13 989.025 1516.73 989.258 1514.2 989.53V968.831H1537.97V974.773L1520.3 974.734Z" fill="#EB5B14"/>
<path d="M1565.97 980.326C1565.97 987.627 1562.09 991.977 1555.64 991.977C1549.19 991.977 1545.31 987.549 1545.31 980.326C1545.31 973.103 1549.19 968.676 1555.64 968.676C1562.09 968.676 1565.97 973.064 1565.97 980.326ZM1549.58 980.326C1549.58 985.336 1551.76 988.093 1555.64 988.093C1559.52 988.093 1561.74 985.18 1561.74 980.326C1561.74 975.472 1559.49 972.559 1555.64 972.559C1551.8 972.559 1549.62 975.355 1549.62 980.326H1549.58ZM1581.47 968.676H1587.6L1558.86 1007.82H1552.69L1581.47 968.676ZM1595.41 996.248C1595.41 1003.55 1591.52 1007.9 1585.08 1007.9C1578.63 1007.9 1574.75 1003.51 1574.75 996.248C1574.75 988.986 1578.63 984.598 1585.08 984.598C1591.52 984.598 1595.41 989.103 1595.41 996.365V996.248ZM1579.06 996.248C1579.06 1001.26 1581.23 1004.02 1585.08 1004.02C1588.92 1004.02 1591.18 1001.14 1591.18 996.248C1591.18 991.355 1588.92 988.481 1585.08 988.481C1581.23 988.481 1579.06 991.394 1579.06 996.365V996.248Z" fill="#EB5B14"/>
<path d="M1611.18 966.384C1615.61 973.677 1617.95 982.046 1617.95 990.579C1617.95 999.111 1615.61 1007.48 1611.18 1014.77H1605.35C1609.67 1007.44 1611.95 999.088 1611.95 990.579C1611.95 982.069 1609.67 973.715 1605.35 966.384H1611.18Z" fill="#EB5B14"/>
<path d="M1195.1 677.607H1201.62V717.491H1226.28V723.161H1195.21L1195.1 677.607Z" fill="black"/>
<path d="M1229.19 700.365C1229.01 695.538 1230.27 690.766 1232.82 686.661C1235.36 682.556 1239.07 679.306 1243.48 677.327C1247.89 675.348 1252.78 674.731 1257.54 675.555C1262.3 676.379 1266.71 678.606 1270.19 681.951C1273.68 685.296 1276.08 689.606 1277.1 694.328C1278.12 699.05 1277.7 703.968 1275.9 708.451C1274.1 712.934 1271.01 716.778 1267.01 719.489C1263.01 722.2 1258.3 723.654 1253.47 723.666C1250.33 723.797 1247.19 723.291 1244.25 722.179C1241.31 721.066 1238.63 719.371 1236.36 717.194C1234.09 715.017 1232.29 712.404 1231.06 709.512C1229.82 706.619 1229.19 703.508 1229.19 700.365ZM1271.1 700.365C1271.14 696.851 1270.13 693.405 1268.2 690.466C1266.28 687.527 1263.52 685.227 1260.28 683.859C1257.05 682.491 1253.48 682.117 1250.03 682.784C1246.58 683.452 1243.4 685.131 1240.91 687.607C1238.42 690.084 1236.72 693.246 1236.03 696.692C1235.34 700.137 1235.69 703.71 1237.03 706.956C1238.38 710.202 1240.66 712.974 1243.59 714.919C1246.51 716.864 1249.95 717.894 1253.47 717.879C1255.79 717.954 1258.11 717.553 1260.27 716.701C1262.44 715.849 1264.41 714.563 1266.06 712.923C1267.71 711.283 1269.01 709.324 1269.87 707.164C1270.74 705.005 1271.16 702.691 1271.1 700.365Z" fill="black"/>
<path d="M1315.95 711.743H1291.72L1286.71 723.161H1280.03L1300.65 677.607H1307.1L1327.8 723.161H1320.96L1315.95 711.743ZM1313.66 706.539L1303.84 684.248L1294.01 706.539H1313.66Z" fill="black"/>
<path d="M1334.55 677.607H1353.74C1368.38 677.607 1378.32 686.85 1378.32 700.365C1378.32 713.879 1368.38 723.161 1353.74 723.161H1334.55V677.607ZM1353.35 717.491C1364.61 717.491 1371.84 710.578 1371.84 700.365C1371.84 690.151 1364.61 683.277 1353.35 683.277H1341.04V717.491H1353.35Z" fill="black"/>
<path d="M1388.3 677.607H1394.79V723.161H1388.3V677.607Z" fill="black"/>
<path d="M1447.64 677.607V723.161H1442.28L1415.1 689.18V723.161H1408.57V677.607H1413.7L1440.88 711.549V677.607H1447.64Z" fill="black"/>
<path d="M1492.84 700.132H1499.14V717.84C1494.24 721.715 1488.14 723.761 1481.89 723.627C1475.71 723.627 1469.79 721.172 1465.42 716.802C1461.05 712.432 1458.59 706.506 1458.59 700.326C1458.59 694.146 1461.05 688.219 1465.42 683.85C1469.79 679.48 1475.71 677.025 1481.89 677.025C1485.15 676.881 1488.39 677.433 1491.41 678.645C1494.43 679.858 1497.16 681.702 1499.41 684.054L1495.52 687.938C1493.79 686.214 1491.73 684.861 1489.46 683.96C1487.19 683.059 1484.76 682.628 1482.32 682.695C1479.93 682.535 1477.53 682.869 1475.27 683.675C1473.01 684.481 1470.94 685.742 1469.19 687.38C1467.44 689.019 1466.04 690.999 1465.09 693.199C1464.13 695.4 1463.64 697.772 1463.64 700.171C1463.64 702.569 1464.13 704.941 1465.09 707.142C1466.04 709.342 1467.44 711.322 1469.19 712.961C1470.94 714.599 1473.01 715.86 1475.27 716.666C1477.53 717.472 1479.93 717.806 1482.32 717.646C1486.09 717.732 1489.8 716.72 1493 714.734L1492.84 700.132Z" fill="black"/>
<path d="M1508.34 719.044C1508.33 718.46 1508.44 717.88 1508.66 717.338C1508.87 716.796 1509.2 716.304 1509.61 715.89C1510.03 715.477 1510.52 715.151 1511.06 714.933C1511.6 714.714 1512.18 714.607 1512.77 714.617C1513.34 714.617 1513.91 714.732 1514.44 714.957C1514.97 715.181 1515.45 715.51 1515.84 715.923C1516.24 716.336 1516.55 716.826 1516.76 717.362C1516.96 717.898 1517.06 718.47 1517.04 719.044C1517.06 719.622 1516.97 720.198 1516.76 720.739C1516.56 721.279 1516.25 721.774 1515.85 722.193C1515.45 722.613 1514.97 722.949 1514.44 723.181C1513.92 723.414 1513.35 723.539 1512.77 723.549C1512.18 723.549 1511.6 723.432 1511.05 723.205C1510.51 722.978 1510.02 722.645 1509.61 722.225C1509.2 721.806 1508.87 721.309 1508.65 720.762C1508.44 720.216 1508.33 719.632 1508.34 719.044Z" fill="black"/>
<path d="M1523.1 719.044C1523.09 718.46 1523.19 717.88 1523.41 717.338C1523.63 716.796 1523.96 716.304 1524.37 715.89C1524.78 715.477 1525.28 715.151 1525.82 714.933C1526.36 714.714 1526.94 714.607 1527.52 714.617C1528.1 714.617 1528.67 714.732 1529.2 714.956C1529.73 715.18 1530.21 715.508 1530.61 715.921C1531.02 716.333 1531.33 716.822 1531.54 717.359C1531.75 717.895 1531.85 718.469 1531.84 719.044C1531.85 719.624 1531.75 720.201 1531.54 720.742C1531.33 721.282 1531.02 721.777 1530.62 722.195C1530.22 722.614 1529.74 722.95 1529.21 723.182C1528.68 723.414 1528.1 723.539 1527.52 723.549C1526.94 723.549 1526.35 723.432 1525.81 723.205C1525.27 722.978 1524.78 722.645 1524.37 722.225C1523.95 721.806 1523.63 721.309 1523.41 720.762C1523.19 720.216 1523.09 719.632 1523.1 719.044Z" fill="black"/>
<path d="M1537.97 719.044C1537.96 718.46 1538.07 717.88 1538.29 717.338C1538.51 716.796 1538.83 716.304 1539.24 715.89C1539.66 715.477 1540.15 715.151 1540.69 714.933C1541.23 714.714 1541.81 714.607 1542.4 714.617C1542.98 714.612 1543.55 714.723 1544.08 714.945C1544.62 715.167 1545.1 715.495 1545.5 715.909C1545.9 716.323 1546.22 716.814 1546.43 717.353C1546.63 717.892 1546.73 718.467 1546.71 719.044C1546.73 719.625 1546.63 720.204 1546.43 720.748C1546.22 721.291 1545.91 721.787 1545.5 722.207C1545.1 722.627 1544.62 722.962 1544.09 723.193C1543.55 723.423 1542.98 723.544 1542.4 723.549C1541.81 723.549 1541.23 723.432 1540.69 723.205C1540.14 722.978 1539.65 722.645 1539.24 722.225C1538.83 721.806 1538.5 721.309 1538.29 720.762C1538.07 720.216 1537.96 719.632 1537.97 719.044Z" fill="black"/>
<path d="M1048.81 1461.65L1194.67 1460.09L1183.14 1407.9L1052.77 1398.23L1048.81 1461.65Z" fill="#B78876"/>
<path d="M1122.44 1396.48L1190.01 1400.91C1190.01 1400.91 1217.19 1333.72 1229.78 1333.34L1225.89 1464.64L1120.34 1462.04L1122.44 1396.48Z" fill="#EB5B14"/>
<path d="M1183.1 1441.34C1183.44 1442.61 1184.25 1443.71 1185.36 1444.43C1186.47 1445.15 1187.81 1445.43 1189.12 1445.22C1190.4 1444.92 1191.52 1444.14 1192.24 1443.04C1192.96 1441.95 1193.23 1440.61 1193 1439.32C1192.6 1438 1191.73 1436.87 1190.56 1436.16C1189.38 1435.44 1187.98 1435.18 1186.63 1435.43C1185.32 1435.88 1184.23 1436.82 1183.6 1438.05C1182.97 1439.28 1182.85 1440.71 1183.25 1442.04" fill="#E0E0E0"/>
<path d="M1225.85 1464.64L1215.21 1463.98L1222.98 1338.31C1222.98 1338.31 1225.7 1332.56 1229.82 1333.34L1225.85 1464.64Z" fill="#E0E0E0"/>
<path d="M1189.39 1398.77C1190.05 1398.77 1190.24 1402 1192.18 1405.22C1194.13 1408.44 1196.81 1410.19 1196.53 1410.77C1196.26 1411.36 1192.65 1410.31 1190.28 1406.38C1187.91 1402.46 1188.81 1398.62 1189.39 1398.77Z" fill="#263238"/>
<path d="M1195.49 1385.14C1196.11 1385.14 1197.12 1387.82 1199.76 1390.07C1202.4 1392.33 1205.27 1393.06 1205.23 1393.69C1205.19 1394.31 1201.54 1394.66 1198.32 1391.78C1195.1 1388.91 1194.9 1385.14 1195.49 1385.14Z" fill="#263238"/>
<path d="M1212.22 1377.8C1212.22 1378.42 1209.12 1379.2 1205.62 1377.45C1202.13 1375.7 1200.88 1372.68 1201.43 1372.4C1201.97 1372.13 1203.76 1374.07 1206.63 1375.47C1209.5 1376.87 1212.18 1377.18 1212.22 1377.8Z" fill="#263238"/>
<path d="M1173.89 1399.47C1174.44 1399.74 1173.47 1402.66 1173.62 1406.27C1173.78 1409.88 1174.83 1412.79 1174.24 1413.1C1173.66 1413.41 1171.49 1410.62 1171.41 1406.35C1171.33 1402.07 1173.39 1399.12 1173.89 1399.47Z" fill="#263238"/>
<path d="M1160.22 1398.81C1160.74 1400.98 1160.66 1403.25 1159.99 1405.37C1159.52 1407.74 1158.75 1410.04 1157.7 1412.21C1157.06 1413.54 1156.34 1414.84 1155.56 1416.09C1155.14 1416.81 1154.6 1417.45 1153.97 1418C1153.5 1418.4 1152.91 1418.64 1152.3 1418.68C1151.68 1418.71 1151.06 1418.54 1150.55 1418.19C1150.11 1417.86 1149.76 1417.43 1149.52 1416.94C1149.27 1416.45 1149.15 1415.9 1149.16 1415.36C1149.18 1414.52 1149.32 1413.7 1149.58 1412.91C1149.97 1411.57 1150.47 1410.27 1151.1 1409.03C1152.16 1406.82 1153.56 1404.81 1155.25 1403.04C1158.17 1400.09 1160.61 1399.16 1160.73 1399.36C1160.84 1399.55 1158.86 1401.06 1156.46 1404.09C1155.04 1405.86 1153.87 1407.81 1152.96 1409.88C1152.43 1411.14 1152.01 1412.44 1151.68 1413.76C1151.29 1415.16 1151.25 1416.33 1151.68 1416.71C1152.11 1417.1 1152.03 1416.71 1152.42 1416.71C1152.87 1416.28 1153.28 1415.8 1153.62 1415.28C1154.38 1414.18 1155.07 1413.04 1155.68 1411.86C1156.75 1409.85 1157.64 1407.74 1158.32 1405.57C1158.78 1403.27 1159.42 1401.01 1160.22 1398.81Z" fill="#263238"/>
<path d="M1161.27 1399.67C1159.36 1400.86 1157.11 1401.41 1154.86 1401.22C1152.44 1401.26 1150.02 1400.88 1147.72 1400.09C1146.36 1399.64 1145.06 1399.04 1143.84 1398.31C1142.98 1397.93 1142.23 1397.34 1141.67 1396.59C1141.12 1395.85 1140.76 1394.96 1140.65 1394.04C1140.68 1393.45 1140.88 1392.88 1141.21 1392.4C1141.55 1391.92 1142.01 1391.55 1142.55 1391.32C1143.34 1391.01 1144.16 1390.81 1145 1390.73C1146.97 1390.49 1148.98 1390.64 1150.89 1391.18C1152.8 1391.72 1154.59 1392.64 1156.15 1393.88C1159.45 1396.52 1160.03 1399.24 1160.03 1399.28C1160.03 1399.32 1158.55 1397.22 1155.33 1395.16C1153.48 1393.96 1151.38 1393.18 1149.19 1392.87C1147.91 1392.68 1146.6 1392.68 1145.31 1392.87C1143.87 1392.87 1142.75 1393.49 1142.86 1394.04C1142.98 1394.58 1143.87 1395.82 1144.96 1396.4C1146.08 1397.09 1147.26 1397.66 1148.5 1398.11C1150.59 1398.91 1152.79 1399.41 1155.02 1399.59C1158.63 1399.94 1161.04 1399.32 1161.27 1399.67Z" fill="#263238"/>
<path d="M141.932 1420.75L130.786 1463.47L5.73743 1462.35C5.73743 1462.35 22.8636 1449.41 85.6598 1450.35L91.7569 1420.75H141.932Z" fill="#B78876"/>
<path d="M269.932 842.112C266.237 835.08 263.233 827.705 260.961 820.093C258.681 812.493 258.681 804.392 260.961 796.792C262.192 792.997 264.326 789.558 267.181 786.77C270.036 783.983 273.526 781.932 277.349 780.792C282.087 779.627 287.252 780.171 291.757 778.229C297 776.015 300.301 770.928 304.223 766.85C310.485 760.432 318.662 756.221 327.524 754.85C332.106 753.949 336.85 754.381 341.194 756.093C343.356 756.98 345.259 758.4 346.725 760.219C348.192 762.039 349.175 764.2 349.582 766.501C354.824 764.176 360.346 762.544 366.009 761.646C371.732 760.779 377.567 762.172 382.281 765.53C384.564 767.276 386.229 769.707 387.033 772.467C387.836 775.226 387.736 778.171 386.747 780.87C389.109 779.542 391.881 779.141 394.522 779.744C397.164 780.347 399.487 781.911 401.039 784.132C402.513 786.404 403.297 789.054 403.297 791.763C403.297 794.471 402.513 797.122 401.039 799.394C397.281 804.386 391.872 807.882 385.776 809.258C380.305 810.607 374.605 810.74 369.077 809.646" fill="#263238"/>
<path d="M331.718 1010.73C342.494 1009.41 352.309 1003.88 359.018 995.343C365.727 986.807 368.785 975.964 367.524 965.18C366.048 952.637 364.767 942.19 364.767 942.19C364.767 942.19 396.378 935.588 395.136 903.705C393.893 871.821 384.689 798.85 384.689 798.85C366.176 791.982 346.166 790.178 326.723 793.625C307.28 797.073 289.11 805.647 274.087 818.462L269.543 822.345L285.815 974.151C286.373 979.589 288.011 984.861 290.632 989.658C293.254 994.455 296.806 998.68 301.08 1002.09C305.355 1005.49 310.267 1008.01 315.528 1009.5C320.789 1010.98 326.293 1011.4 331.718 1010.73Z" fill="#B78876"/>
<path d="M364.767 941.724C350.07 942.735 335.404 939.356 322.631 932.015C322.631 932.015 333.621 954.462 365.349 949.957L364.767 941.724Z" fill="#AA6550"/>
<path d="M275.174 855.239C274.592 855.044 252.922 849.879 254.747 871.627C256.572 893.375 278.048 887.161 278.048 886.462C278.048 885.763 275.174 855.239 275.174 855.239Z" fill="#B78876"/>
<path d="M270.67 878.773C270.67 878.773 270.32 879.083 269.699 879.433C268.822 879.879 267.809 879.976 266.864 879.705C265.382 878.937 264.132 877.786 263.245 876.373C262.357 874.959 261.863 873.334 261.815 871.666C261.615 869.804 261.827 867.921 262.437 866.151C262.586 865.457 262.9 864.808 263.353 864.261C263.806 863.713 264.384 863.283 265.038 863.006C265.466 862.861 265.93 862.867 266.354 863.023C266.778 863.178 267.136 863.473 267.369 863.86C267.718 864.443 267.602 864.87 267.718 864.909C267.835 864.947 268.184 864.52 267.718 863.627C267.56 863.097 267.215 862.641 266.747 862.345C266.435 862.142 266.085 862.002 265.719 861.935C265.352 861.869 264.975 861.876 264.611 861.957C263.696 862.174 262.854 862.629 262.171 863.277C261.489 863.926 260.991 864.743 260.728 865.646C259.973 867.612 259.694 869.727 259.912 871.821C259.967 873.769 260.598 875.656 261.724 877.246C262.851 878.836 264.423 880.056 266.242 880.753C266.839 880.89 267.46 880.884 268.054 880.736C268.647 880.587 269.198 880.301 269.66 879.899C270.67 879.316 270.747 878.812 270.67 878.773Z" fill="#AA6550"/>
<path d="M377.349 851.511C377.405 852.693 377.005 853.851 376.232 854.747C375.459 855.643 374.371 856.208 373.194 856.326C372.617 856.396 372.032 856.351 371.473 856.194C370.913 856.036 370.391 855.769 369.935 855.407C369.48 855.046 369.101 854.598 368.821 854.089C368.54 853.58 368.363 853.02 368.301 852.443C368.225 851.256 368.618 850.087 369.395 849.186C370.172 848.286 371.271 847.726 372.456 847.627C373.034 847.551 373.621 847.592 374.182 847.748C374.744 847.904 375.268 848.171 375.725 848.533C376.181 848.895 376.56 849.345 376.839 849.857C377.118 850.368 377.292 850.931 377.349 851.511Z" fill="#263238"/>
<path d="M380.922 844.054C380.417 844.676 376.806 842.307 371.912 842.579C367.019 842.85 363.563 845.452 363.019 844.87C362.475 844.287 363.252 843.549 364.767 842.307C366.812 840.731 369.294 839.822 371.874 839.705C374.414 839.574 376.929 840.254 379.058 841.647C380.689 842.734 381.194 843.782 380.922 844.054Z" fill="#263238"/>
<path d="M330.708 853.763C330.764 854.945 330.364 856.103 329.591 856.999C328.818 857.895 327.731 858.46 326.553 858.578C325.976 858.649 325.391 858.604 324.832 858.446C324.272 858.288 323.75 858.021 323.295 857.659C322.839 857.298 322.46 856.85 322.18 856.341C321.899 855.832 321.722 855.273 321.66 854.695C321.574 853.506 321.964 852.331 322.742 851.428C323.521 850.526 324.626 849.969 325.815 849.879C326.392 849.809 326.977 849.854 327.537 850.012C328.096 850.17 328.618 850.437 329.074 850.798C329.529 851.159 329.908 851.608 330.188 852.117C330.469 852.625 330.646 853.185 330.708 853.763Z" fill="#263238"/>
<path d="M332.844 847.433C332.301 848.054 328.728 845.646 323.835 845.918C318.941 846.19 315.446 848.831 314.903 848.248C314.359 847.666 315.136 846.889 316.65 845.685C318.691 844.1 321.175 843.191 323.757 843.083C326.311 842.933 328.845 843.615 330.98 845.025C332.534 845.996 333.116 847.122 332.844 847.433Z" fill="#263238"/>
<path d="M352.456 882.85C354.953 881.893 357.564 881.266 360.223 880.986C361.466 880.792 362.631 880.481 362.786 879.627C362.857 878.333 362.502 877.051 361.776 875.977C360.456 872.986 359.058 869.879 357.582 866.617C353.737 858.736 350.542 850.553 348.029 842.151C352.544 849.708 356.44 857.617 359.679 865.802L363.563 875.2C364.427 876.675 364.744 878.408 364.456 880.093C364.303 880.54 364.048 880.944 363.711 881.275C363.374 881.605 362.964 881.852 362.514 881.996C361.837 882.231 361.132 882.375 360.417 882.423C357.79 882.882 355.117 883.025 352.456 882.85Z" fill="#263238"/>
<path d="M338.204 886.967C339.019 886.967 339.291 892.171 344.029 895.743C348.767 899.316 354.398 898.384 354.475 899.122C354.553 899.86 353.272 900.248 350.864 900.404C347.755 900.632 344.668 899.736 342.165 897.879C339.758 896.096 338.131 893.453 337.621 890.501C337.31 888.287 337.971 886.928 338.204 886.967Z" fill="#263238"/>
<path d="M378.708 835.51C377.893 836.675 374.475 835.705 370.398 835.86C366.32 836.015 362.941 836.986 362.087 835.86C361.699 835.316 362.087 834.151 363.64 833.025C365.577 831.638 367.899 830.891 370.281 830.889C372.679 830.787 375.046 831.454 377.039 832.792C378.514 833.841 379.058 834.967 378.708 835.51Z" fill="#263238"/>
<path d="M325.582 830.035C325.039 830.656 323.796 830.501 322.126 830.229C320.109 829.91 318.07 829.754 316.029 829.763C313.993 829.823 311.966 830.057 309.971 830.462C308.34 830.773 307.097 830.967 306.553 830.462C306.009 829.957 306.553 828.481 308.068 826.967C310.248 825.146 312.995 824.144 315.835 824.132C318.639 824.082 321.378 824.986 323.602 826.695C325.621 828.054 326.048 829.452 325.582 830.035Z" fill="#263238"/>
<path d="M386.786 808.637C371.644 813.57 355.327 813.57 340.184 808.637C323.369 803.2 304.573 802.151 301 805.918C297.427 809.685 299.097 825.918 284.301 833.103C284.301 833.103 290.087 863.705 277.66 864.481C265.233 865.258 265.621 816.443 265.621 816.443L293.388 797.219L325.155 786.074L355.796 781.375L385.66 785.802L386.786 808.637Z" fill="#263238"/>
<path d="M433.582 1007.28L529.272 1096.83L680.728 993.452L728.029 1047.82L582.553 1164.33C567.958 1177.34 549.314 1184.92 529.776 1185.76C516.565 1186.33 503.404 1183.8 491.347 1178.38C479.289 1172.95 468.67 1164.77 460.34 1154.5L409.077 1111.24L433.582 1007.28Z" fill="#EB5B14"/>
<path d="M344.689 968.792L433.582 1007.28L430.631 1031.9L471.99 1195.94L516.961 1228.75L479.718 1283.47C471.331 1295.74 460.372 1306.04 447.602 1313.65L358.941 1366.38C350.621 1369.42 341.458 1369.19 333.305 1365.73C325.151 1362.26 318.616 1355.84 315.019 1347.74L236.611 1169.84L157.815 1414.23C155.348 1421.89 150.247 1428.44 143.416 1432.7C136.585 1436.97 128.465 1438.68 120.495 1437.53L89.4268 1432.99C86.9242 1432.62 84.5267 1431.73 82.3897 1430.38C80.2527 1429.02 78.4238 1427.24 77.0215 1425.13C75.6193 1423.03 74.6749 1420.65 74.2497 1418.16C73.8245 1415.66 73.9278 1413.11 74.553 1410.66L162.67 1068.05C167.306 1050.26 174.865 1033.36 185.039 1018.03C194.51 1003.91 207.235 992.259 222.142 984.069C237.049 975.878 253.704 971.385 270.708 970.967L344.689 968.792Z" fill="#EB5B14"/>
<path d="M375.835 971.355L372.534 953.53L278.32 947.2V970.889C278.98 977.647 289.971 975.627 300.223 979.86L346.359 989.064C357.621 989.957 381.621 985.802 375.835 971.355Z" fill="#EB5B14"/>
<path d="M472.922 1196.71C471.944 1194.7 471.126 1192.61 470.476 1190.46C469.039 1186.58 467.058 1180.52 464.689 1173.14C459.99 1158.46 453.932 1138.19 448.107 1115.28C442.281 1092.36 437.699 1071.63 434.747 1056.52C433.272 1048.95 432.184 1042.81 431.485 1038.54C431 1036.36 430.714 1034.13 430.631 1031.9C431.327 1034.02 431.872 1036.19 432.262 1038.38C433.272 1042.93 434.592 1048.95 436.145 1056.21C439.446 1071.28 444.223 1092.02 450.048 1114.77C455.874 1137.53 461.699 1157.96 466.087 1172.75C468.184 1179.9 469.971 1185.76 471.252 1190.23C471.967 1192.35 472.526 1194.51 472.922 1196.71Z" fill="#263238"/>
<path d="M265.077 1088.79C264.113 1092.97 262.814 1097.06 261.194 1101.03C258.398 1109.03 254.903 1119.08 251.019 1130.15C247.136 1141.22 243.64 1151.28 240.844 1159.28C239.621 1163.37 238.129 1167.38 236.378 1171.28C237.023 1167.05 238.063 1162.89 239.485 1158.85C241.738 1151.08 245.116 1140.87 249.116 1129.49C253.116 1118.11 256.883 1107.9 259.835 1100.52C261.248 1096.47 263.002 1092.55 265.077 1088.79Z" fill="#263238"/>
<g opacity="0.2">
<path d="M236.301 1170.23C243.886 1187.39 251.433 1204.56 258.941 1221.72C259.994 1224.56 261.532 1227.19 263.485 1229.49C264.482 1230.65 265.757 1231.54 267.191 1232.07C268.624 1232.6 270.169 1232.75 271.679 1232.52C277.272 1231.24 278.67 1224.05 278.864 1218.35C280.184 1180.79 278.864 1142.35 265.776 1107.08C264.844 1104.52 263.097 1101.49 260.378 1101.84C257.66 1102.19 256.806 1104.95 256.145 1107.28L237.738 1173.3" fill="black"/>
</g>
<g opacity="0.2">
<path d="M480.767 1173.76C482.27 1172.83 483.493 1171.51 484.307 1169.93C485.12 1168.36 485.494 1166.6 485.388 1164.83C485.118 1161.3 484.168 1157.86 482.592 1154.7C472.307 1130.69 458.469 1108.37 441.543 1088.48L460.145 1154.5L480.767 1173.76Z" fill="black"/>
</g>
<path d="M186.786 1144.17C186.553 1144.17 187.485 1121.72 188.883 1094.03C190.281 1066.35 191.524 1043.94 191.757 1043.94C191.99 1043.94 191.058 1066.42 189.699 1094.07C188.339 1121.72 187.019 1144.21 186.786 1144.17Z" fill="#E0E0E0"/>
<path d="M204.262 1066.35C204.443 1066.94 204.522 1067.55 204.495 1068.17C204.59 1069.87 204.59 1071.56 204.495 1073.26C203.89 1084.54 200.017 1095.4 193.349 1104.52C192.355 1105.88 191.279 1107.18 190.126 1108.4C189.732 1108.88 189.29 1109.31 188.805 1109.69C188.805 1109.69 190.475 1107.63 192.689 1104.13C199.005 1094.91 202.819 1084.2 203.757 1073.06C204.262 1068.99 204.145 1066.35 204.262 1066.35Z" fill="#E0E0E0"/>
<path d="M172.495 1069.45C172.495 1069.45 172.844 1071.78 173.543 1075.43C174.511 1080.23 175.995 1084.9 177.971 1089.37C179.976 1093.81 182.478 1098.01 185.427 1101.88C187.718 1104.87 189.31 1106.54 189.31 1106.66C188.855 1106.34 188.438 1105.98 188.068 1105.57C187.006 1104.52 186.007 1103.4 185.077 1102.23C181.95 1098.41 179.338 1094.19 177.31 1089.69C175.275 1085.18 173.851 1080.43 173.077 1075.55C172.819 1074.09 172.651 1072.61 172.572 1071.12C172.496 1070.57 172.47 1070.01 172.495 1069.45Z" fill="#E0E0E0"/>
<path d="M200.262 1053.06C200.321 1053.55 200.321 1054.05 200.262 1054.54C200.343 1055.83 200.343 1057.13 200.262 1058.42C199.879 1062.77 199.046 1067.06 197.776 1071.24C196.526 1075.44 194.834 1079.51 192.728 1083.36C192.123 1084.53 191.449 1085.67 190.708 1086.77C190.462 1087.2 190.161 1087.59 189.815 1087.94C189.815 1087.94 190.747 1086.07 192.223 1083.08C194.132 1079.27 195.73 1075.31 197 1071.24C198.208 1067.07 199.091 1062.81 199.64 1058.5C199.751 1056.68 199.958 1054.86 200.262 1053.06Z" fill="#E0E0E0"/>
<path d="M179.757 1055.7C179.757 1055.7 179.757 1058.07 179.757 1061.92C179.876 1066.89 180.5 1071.83 181.621 1076.68C182.785 1081.49 184.424 1086.17 186.514 1090.66C188.145 1094.11 189.349 1096.17 189.233 1096.25C188.87 1095.82 188.545 1095.37 188.262 1094.89C187.679 1093.96 186.903 1092.64 186.009 1091.01C183.756 1086.51 182.035 1081.77 180.883 1076.87C179.754 1071.98 179.194 1066.98 179.213 1061.96C179.217 1060.44 179.308 1058.92 179.485 1057.41C179.484 1056.83 179.576 1056.26 179.757 1055.7Z" fill="#E0E0E0"/>
<path d="M186.242 1048.36C186.242 1048.36 185.893 1049.76 185.621 1052.02C185.317 1054.93 185.475 1057.88 186.087 1060.75C187.679 1067.47 189.971 1072.68 189.971 1072.79C189.308 1071.74 188.749 1070.62 188.301 1069.45C187.076 1066.71 186.126 1063.84 185.466 1060.91C184.796 1057.95 184.717 1054.89 185.233 1051.9C185.327 1050.66 185.671 1049.46 186.242 1048.36Z" fill="#E0E0E0"/>
<path d="M174.281 1099.28C174.514 1099.28 176.767 1103.51 180.495 1108.17C184.223 1112.83 187.951 1115.94 187.796 1116.25C186.84 1115.74 185.964 1115.1 185.194 1114.35C181.347 1110.89 178.094 1106.82 175.563 1102.31C174.988 1101.37 174.556 1100.35 174.281 1099.28Z" fill="#E0E0E0"/>
<path d="M204.65 1104.44C204.124 1105.53 203.459 1106.55 202.67 1107.47C200.9 1109.81 198.994 1112.04 196.961 1114.15C194.907 1116.26 192.714 1118.23 190.398 1120.05C189.496 1120.86 188.506 1121.57 187.446 1122.15C188.217 1121.22 189.089 1120.37 190.048 1119.63C191.679 1118.11 193.932 1116.02 196.301 1113.57C198.67 1111.12 200.689 1108.83 202.165 1107.12C202.903 1106.15 203.736 1105.25 204.65 1104.44Z" fill="#E0E0E0"/>
<path d="M120.844 1395.24C120.611 1395.24 121.543 1372.79 122.941 1345.1C124.339 1317.41 125.582 1295.01 125.815 1295.01C126.048 1295.01 125.116 1317.45 123.718 1345.14C122.32 1372.83 121.077 1395.24 120.844 1395.24Z" fill="#E0E0E0"/>
<path d="M138.32 1317.38C138.4 1317.99 138.4 1318.62 138.32 1319.24C138.439 1320.93 138.439 1322.63 138.32 1324.33C137.715 1335.61 133.842 1346.47 127.174 1355.59C126.183 1356.95 125.107 1358.25 123.951 1359.47C123.563 1359.96 123.12 1360.4 122.631 1360.79C122.631 1360.79 124.301 1358.73 126.708 1355.2C129.843 1350.63 132.375 1345.67 134.242 1340.44C136.1 1335.22 137.287 1329.77 137.776 1324.25C138.32 1320.05 138.165 1317.38 138.32 1317.38Z" fill="#E0E0E0"/>
<path d="M106.553 1320.52C106.553 1320.52 106.903 1322.81 107.602 1326.5C109.491 1336.11 113.556 1345.16 119.485 1352.95C121.776 1355.94 123.369 1357.61 123.369 1357.69C122.904 1357.38 122.486 1357.02 122.126 1356.6C121.053 1355.57 120.054 1354.47 119.136 1353.3C112.849 1345.62 108.708 1336.41 107.136 1326.62C106.877 1325.14 106.708 1323.65 106.631 1322.15C106.554 1321.61 106.528 1321.07 106.553 1320.52Z" fill="#E0E0E0"/>
<path d="M134.281 1304.25C134.281 1304.25 134.281 1304.75 134.281 1305.69C134.281 1306.62 134.281 1307.98 134.281 1309.57C133.581 1318.34 131.041 1326.86 126.825 1334.58C126.009 1336.05 125.31 1337.22 124.805 1338C124.545 1338.41 124.246 1338.8 123.912 1339.16C123.912 1339.16 124.844 1337.3 126.32 1334.31C128.232 1330.41 129.829 1326.38 131.097 1322.23C132.316 1318.08 133.187 1313.83 133.699 1309.53C134.087 1306.19 134.165 1304.25 134.281 1304.25Z" fill="#E0E0E0"/>
<path d="M113.815 1306.81C113.815 1306.81 113.815 1309.18 113.815 1312.99C113.932 1317.96 114.557 1322.9 115.679 1327.74C116.814 1332.59 118.427 1337.31 120.495 1341.84C122.126 1345.3 123.33 1347.32 123.213 1347.39C123.097 1347.47 122.825 1346.97 122.242 1346.04C121.407 1344.79 120.654 1343.49 119.99 1342.15C117.719 1337.66 115.998 1332.92 114.864 1328.02C113.718 1323.12 113.157 1318.1 113.194 1313.06C113.201 1311.55 113.291 1310.03 113.466 1308.52C113.487 1307.94 113.605 1307.36 113.815 1306.81Z" fill="#E0E0E0"/>
<path d="M120.495 1299.43C120.495 1299.43 120.145 1300.79 119.873 1303.04C119.552 1305.98 119.709 1308.94 120.339 1311.82C121.893 1318.54 124.223 1323.7 124.223 1323.82C123.535 1322.79 122.974 1321.68 122.553 1320.52C121.335 1317.77 120.385 1314.91 119.718 1311.98C119.058 1309.02 118.966 1305.96 119.446 1302.97C119.542 1301.73 119.899 1300.52 120.495 1299.43Z" fill="#E0E0E0"/>
<path d="M108.339 1350.31C108.534 1350.31 110.825 1354.54 114.553 1359.24C118.281 1363.94 122.009 1367.01 121.854 1367.32C120.893 1366.81 120.015 1366.15 119.252 1365.37C117.322 1363.65 115.542 1361.77 113.932 1359.74C112.302 1357.72 110.859 1355.55 109.621 1353.26C109.026 1352.36 108.592 1351.36 108.339 1350.31Z" fill="#E0E0E0"/>
<path d="M138.708 1355.47C138.171 1356.57 137.506 1357.6 136.728 1358.54C134.955 1360.86 133.049 1363.08 131.019 1365.18C128.949 1367.32 126.73 1369.3 124.378 1371.12C123.497 1371.94 122.503 1372.64 121.427 1373.18C122.205 1372.26 123.078 1371.43 124.029 1370.7C125.66 1369.18 127.912 1367.08 130.281 1364.64C132.65 1362.19 134.67 1359.86 136.106 1358.19C136.882 1357.2 137.754 1356.29 138.708 1355.47Z" fill="#E0E0E0"/>
<path d="M264.534 1073.18C264.301 1073.18 265.233 1050.73 266.592 1023.04C267.951 995.355 269.272 972.948 269.505 972.948C269.738 972.948 268.767 995.394 267.407 1023.08C266.048 1050.77 264.767 1073.18 264.534 1073.18Z" fill="#E0E0E0"/>
<path d="M282.009 995.316C282.065 995.937 282.065 996.56 282.009 997.18C282.128 998.874 282.128 1000.57 282.009 1002.27C281.404 1013.55 277.532 1024.41 270.864 1033.53C269.861 1034.88 268.785 1036.18 267.64 1037.41C267.253 1037.9 266.81 1038.35 266.32 1038.73C266.32 1038.73 267.99 1036.68 270.398 1033.14C276.722 1023.93 280.525 1013.21 281.427 1002.07C281.971 997.957 281.854 995.316 282.009 995.316Z" fill="#E0E0E0"/>
<path d="M250.242 998.462C250.242 998.462 250.553 1000.75 251.291 1004.44C252.219 1009.23 253.692 1013.89 255.679 1018.35C257.706 1022.79 260.22 1027 263.174 1030.89C265.466 1033.84 267.058 1035.55 267.058 1035.63C266.611 1035.32 266.207 1034.95 265.854 1034.54C264.786 1033.49 263.775 1032.39 262.825 1031.24C259.698 1027.42 257.086 1023.2 255.058 1018.7C253.035 1014.19 251.6 1009.43 250.786 1004.56C250.514 1002.66 250.359 1001.14 250.32 1000.09C250.193 999.559 250.167 999.006 250.242 998.462Z" fill="#E0E0E0"/>
<path d="M277.971 981.918C277.971 981.918 277.971 982.423 277.971 983.355C277.971 984.287 277.971 985.647 277.971 987.239C277.597 991.609 276.777 995.929 275.524 1000.13C274.296 1004.34 272.616 1008.4 270.514 1012.25C269.699 1013.72 269 1014.89 268.456 1015.67C267.912 1016.44 267.64 1016.83 267.602 1016.79C267.563 1016.75 268.534 1014.97 270.009 1011.98C271.923 1008.09 273.508 1004.05 274.747 999.899C275.996 995.751 276.879 991.502 277.388 987.2C277.776 984.132 277.854 981.918 277.971 981.918Z" fill="#E0E0E0"/>
<path d="M257.466 984.715C257.466 984.715 257.466 987.122 257.466 990.928C257.585 995.898 258.209 1000.84 259.33 1005.69C260.458 1010.53 262.085 1015.24 264.184 1019.74C265.776 1023.24 267.019 1025.26 266.864 1025.34C266.489 1024.92 266.163 1024.47 265.893 1023.98C265.086 1022.72 264.348 1021.43 263.679 1020.09C261.392 1015.61 259.67 1010.86 258.553 1005.96C257.388 1001.06 256.827 996.039 256.883 991.006C256.883 989.103 256.883 987.55 257.116 986.462C257.19 985.872 257.307 985.288 257.466 984.715Z" fill="#E0E0E0"/>
<path d="M264.184 977.375C264.184 977.375 263.835 978.734 263.563 980.986C263.241 983.918 263.398 986.882 264.029 989.763C265.582 996.481 267.912 1001.65 267.912 1001.76C267.206 1000.75 266.644 999.634 266.242 998.462C265.012 995.717 264.062 992.854 263.407 989.918C262.748 986.959 262.655 983.902 263.136 980.909C263.231 979.67 263.588 978.465 264.184 977.375Z" fill="#E0E0E0"/>
<path d="M252.029 1028.25C252.029 1028.25 254.475 1032.48 258.242 1037.18C262.009 1041.88 265.699 1044.95 265.543 1045.26C264.582 1044.75 263.705 1044.09 262.941 1043.32C259.065 1039.86 255.807 1035.76 253.31 1031.2C252.722 1030.29 252.289 1029.3 252.029 1028.25Z" fill="#E0E0E0"/>
<path d="M282.398 1033.41C281.86 1034.51 281.196 1035.54 280.417 1036.48C278.644 1038.8 276.738 1041.02 274.708 1043.12C272.67 1045.23 270.504 1047.22 268.223 1049.06C267.327 1049.89 266.321 1050.58 265.233 1051.12C266.037 1050.2 266.921 1049.36 267.873 1048.6C269.505 1047.12 271.757 1045.03 274.126 1042.58C276.495 1040.13 278.514 1037.8 279.951 1036.09C280.67 1035.12 281.49 1034.22 282.398 1033.41Z" fill="#E0E0E0"/>
<path d="M348.728 1055.16C348.495 1055.16 349.427 1032.68 350.786 1005.03C352.145 977.375 353.466 954.928 353.66 954.928C353.854 954.928 352.961 977.375 351.602 1005.06C350.242 1032.75 348.922 1055.16 348.728 1055.16Z" fill="#E0E0E0"/>
<path d="M366.204 977.297C366.259 977.917 366.259 978.541 366.204 979.161C366.204 980.365 366.204 982.112 366.204 984.248C365.506 995.451 361.64 1006.22 355.058 1015.32C354.055 1016.67 352.979 1017.97 351.835 1019.2C351.019 1020.09 350.553 1020.56 350.475 1020.52C350.398 1020.48 352.145 1018.46 354.592 1014.93C360.917 1005.71 364.719 995.001 365.621 983.86C366.165 979.938 366.048 977.297 366.204 977.297Z" fill="#E0E0E0"/>
<path d="M334.437 980.443C334.437 980.443 334.747 982.734 335.485 986.423C336.414 991.21 337.886 995.874 339.874 1000.33C341.9 1004.77 344.414 1008.98 347.369 1012.87C349.621 1015.82 351.252 1017.53 351.252 1017.61C350.797 1017.3 350.38 1016.93 350.009 1016.52C349.272 1015.78 348.223 1014.66 347.019 1013.22C343.914 1009.38 341.304 1005.17 339.252 1000.68C337.24 996.165 335.817 991.414 335.019 986.54C334.747 984.637 334.553 983.122 334.514 982.074C334.396 981.538 334.37 980.987 334.437 980.443Z" fill="#E0E0E0"/>
<path d="M362.165 964.054C362.214 964.532 362.214 965.013 362.165 965.491C362.165 966.423 362.165 967.782 362.165 969.375C361.791 973.745 360.971 978.065 359.718 982.268C358.456 986.464 356.778 990.523 354.708 994.384C354.089 995.55 353.402 996.678 352.65 997.763C352.145 998.579 351.835 998.967 351.757 998.928C351.679 998.889 352.728 997.103 354.204 994.113C358.043 986.329 360.538 977.952 361.582 969.336C361.932 966.113 362.048 964.015 362.165 964.054Z" fill="#E0E0E0"/>
<path d="M341.854 966.695C341.854 966.695 341.854 969.103 341.854 972.909C342.008 977.878 342.645 982.82 343.757 987.666C344.886 992.507 346.513 997.218 348.611 1001.72C350.204 1005.22 351.407 1007.24 351.291 1007.32C350.916 1006.9 350.59 1006.45 350.32 1005.96C349.738 1005.06 348.961 1003.7 348.068 1002.07C345.814 997.578 344.094 992.833 342.941 987.938C341.805 983.037 341.258 978.017 341.31 972.986C341.307 971.469 341.385 969.952 341.543 968.443C341.577 967.85 341.682 967.263 341.854 966.695Z" fill="#E0E0E0"/>
<path d="M348.184 959.355C348.184 959.355 347.835 960.714 347.524 962.967C347.215 965.9 347.385 968.865 348.029 971.744C349.582 978.462 351.912 983.627 351.912 983.744C351.242 982.704 350.683 981.598 350.242 980.443C349.03 977.691 348.08 974.83 347.407 971.899C346.738 968.94 346.659 965.879 347.174 962.889C347.258 961.653 347.602 960.449 348.184 959.355Z" fill="#E0E0E0"/>
<path d="M336.184 1010.23C336.417 1010.23 338.67 1014.46 342.437 1019.16C346.204 1023.86 349.854 1026.93 349.699 1027.24C348.754 1026.72 347.891 1026.07 347.136 1025.3C345.191 1023.58 343.398 1021.69 341.776 1019.67C340.18 1017.62 338.751 1015.45 337.505 1013.18C336.917 1012.27 336.471 1011.27 336.184 1010.23Z" fill="#E0E0E0"/>
<path d="M366.553 1015.39C366.053 1016.51 365.385 1017.55 364.573 1018.46C362.826 1020.79 360.932 1023.01 358.903 1025.1C356.864 1027.21 354.698 1029.2 352.417 1031.04C351.522 1031.87 350.515 1032.56 349.427 1033.1C350.223 1032.19 351.093 1031.35 352.029 1030.58C353.699 1029.1 355.912 1027.01 358.32 1024.56C360.728 1022.11 362.708 1019.78 364.145 1018.07C364.873 1017.12 365.678 1016.22 366.553 1015.39Z" fill="#E0E0E0"/>
<path d="M383.33 1133.76C383.097 1133.76 384.029 1111.28 385.388 1083.63C386.747 1055.98 388.068 1033.53 388.301 1033.53C388.534 1033.53 387.602 1055.98 386.204 1083.67C384.806 1111.36 383.563 1133.76 383.33 1133.76Z" fill="#E0E0E0"/>
<path d="M400.806 1055.9C400.886 1056.52 400.886 1057.14 400.806 1057.76C400.924 1059.46 400.924 1061.16 400.806 1062.85C400.2 1074.13 396.328 1084.99 389.66 1094.11C388.657 1095.46 387.581 1096.76 386.437 1098C386.049 1098.49 385.606 1098.93 385.116 1099.32C385.116 1099.32 386.786 1097.26 389.194 1093.72C395.519 1084.51 399.321 1073.8 400.223 1062.66C400.806 1058.54 400.65 1055.9 400.806 1055.9Z" fill="#E0E0E0"/>
<path d="M369.039 1059.04C369.039 1059.04 369.349 1061.34 370.087 1065.03C371.012 1069.82 372.498 1074.48 374.514 1078.93C376.515 1083.38 379.017 1087.59 381.971 1091.47C384.262 1094.42 385.854 1096.13 385.854 1096.21C385.39 1095.91 384.971 1095.54 384.611 1095.12C383.835 1094.38 382.825 1093.26 381.582 1091.82C378.455 1088 375.844 1083.78 373.815 1079.28C371.793 1074.77 370.357 1070.02 369.544 1065.14C369.272 1063.24 369.116 1061.72 369.077 1060.68C369.014 1060.13 369.001 1059.59 369.039 1059.04Z" fill="#E0E0E0"/>
<path d="M396.767 1042.66C396.767 1042.66 396.767 1043.16 396.767 1044.09C396.767 1045.03 396.767 1046.38 396.767 1047.98C396.39 1052.34 395.583 1056.66 394.359 1060.87C393.103 1065.07 391.411 1069.13 389.31 1072.99C388.495 1074.46 387.796 1075.63 387.291 1076.37C386.786 1077.1 386.437 1077.57 386.398 1077.53C386.359 1077.49 387.33 1075.7 388.806 1072.71C390.717 1068.82 392.315 1064.78 393.582 1060.64C394.815 1056.48 395.698 1052.24 396.223 1047.94C396.573 1044.71 396.65 1042.62 396.767 1042.66Z" fill="#E0E0E0"/>
<path d="M376.262 1045.3C376.262 1045.3 376.262 1047.7 376.262 1051.51C376.381 1056.48 377.005 1061.42 378.126 1066.27C379.272 1071.1 380.898 1075.81 382.98 1080.33C384.611 1083.82 385.815 1085.84 385.699 1085.92C385.582 1086 385.272 1085.45 384.728 1084.56C383.892 1083.32 383.14 1082.02 382.476 1080.68C380.205 1076.19 378.484 1071.44 377.349 1066.54C376.184 1061.64 375.623 1056.62 375.679 1051.59C375.686 1050.07 375.777 1048.55 375.951 1047.04C376.002 1046.45 376.106 1045.87 376.262 1045.3Z" fill="#E0E0E0"/>
<path d="M382.786 1037.96C382.786 1037.96 382.437 1039.32 382.165 1041.57C381.843 1044.5 382 1047.46 382.631 1050.35C384.184 1057.06 386.514 1062.23 386.514 1062.35C385.826 1061.32 385.265 1060.21 384.844 1059.04C383.632 1056.29 382.682 1053.43 382.009 1050.5C381.35 1047.54 381.257 1044.48 381.738 1041.49C381.833 1040.25 382.19 1039.05 382.786 1037.96Z" fill="#E0E0E0"/>
<path d="M370.825 1088.83C370.825 1088.83 373.272 1093.06 377.039 1097.76C380.806 1102.46 384.495 1105.53 384.34 1105.84C383.378 1105.33 382.501 1104.68 381.738 1103.9C379.823 1102.22 378.044 1100.39 376.417 1098.42C374.796 1096.39 373.354 1094.22 372.107 1091.94C371.502 1090.98 371.068 1089.93 370.825 1088.83Z" fill="#E0E0E0"/>
<path d="M401.194 1094C400.657 1095.09 399.992 1096.12 399.213 1097.06C397.44 1099.39 395.534 1101.6 393.505 1103.7C391.466 1105.82 389.3 1107.8 387.019 1109.65C386.124 1110.47 385.117 1111.16 384.029 1111.7C384.846 1110.8 385.729 1109.96 386.67 1109.18C388.301 1107.7 390.553 1105.61 392.922 1103.16C395.291 1100.71 397.31 1098.38 398.747 1096.68C399.48 1095.71 400.299 1094.81 401.194 1094Z" fill="#E0E0E0"/>
<path d="M503.446 1164.91C503.213 1164.91 496.107 1143.67 487.563 1117.3C479.019 1090.93 472.262 1069.53 472.456 1069.45C472.65 1069.37 479.757 1090.7 488.34 1117.06C496.922 1143.43 503.641 1164.83 503.446 1164.91Z" fill="#E0E0E0"/>
<path d="M492.107 1085.92C492.448 1086.44 492.734 1087 492.961 1087.59C493.643 1089.13 494.24 1090.72 494.747 1092.33C496.457 1097.68 497.386 1103.25 497.505 1108.87C497.61 1114.49 496.917 1120.1 495.446 1125.53C495.004 1127.16 494.473 1128.77 493.854 1130.35C493.642 1130.94 493.382 1131.51 493.077 1132.05C493.077 1132.05 493.893 1129.53 494.903 1125.37C496.187 1119.98 496.787 1114.45 496.689 1108.91C496.565 1103.36 495.73 1097.85 494.204 1092.52C493.039 1088.4 491.99 1085.96 492.107 1085.92Z" fill="#E0E0E0"/>
<path d="M463.524 1100.13C463.524 1100.13 464.65 1102.19 466.631 1105.37C469.224 1109.51 472.272 1113.34 475.718 1116.79C479.162 1120.24 482.994 1123.28 487.136 1125.84C490.32 1127.82 492.417 1128.83 492.378 1128.95C491.838 1128.82 491.316 1128.62 490.825 1128.37C489.49 1127.77 488.193 1127.1 486.942 1126.35C482.688 1123.87 478.772 1120.85 475.291 1117.37C471.79 1113.9 468.76 1109.99 466.281 1105.72C465.543 1104.46 464.869 1103.17 464.262 1101.84C463.937 1101.31 463.688 1100.73 463.524 1100.13Z" fill="#E0E0E0"/>
<path d="M483.641 1075.12C483.916 1075.53 484.126 1075.97 484.262 1076.44C484.744 1077.71 485.159 1079.01 485.505 1080.33C486.734 1084.53 487.515 1088.85 487.835 1093.22C488.145 1097.58 488.015 1101.97 487.446 1106.31C487.213 1107.98 486.941 1109.34 486.747 1110.19C486.66 1110.67 486.516 1111.14 486.32 1111.59C486.32 1111.59 486.553 1109.53 486.864 1106.23C487.208 1101.9 487.208 1097.55 486.864 1093.22C486.534 1088.91 485.846 1084.64 484.806 1080.44C484.145 1076.95 483.524 1075.12 483.641 1075.12Z" fill="#E0E0E0"/>
<path d="M465.427 1084.75C465.427 1084.75 466.242 1086.97 467.679 1090.5C471.418 1099.76 477.053 1108.13 484.223 1115.08C486.942 1117.72 488.806 1119.2 488.728 1119.32C488.218 1119.08 487.747 1118.76 487.33 1118.38C486.09 1117.49 484.91 1116.52 483.796 1115.47C476.372 1108.65 470.663 1100.18 467.136 1090.73C466.475 1088.91 466.009 1087.43 465.738 1086.38C465.564 1085.86 465.46 1085.31 465.427 1084.75Z" fill="#E0E0E0"/>
<path d="M468.883 1075.55C468.883 1075.55 468.883 1076.95 469.582 1079.16C470.333 1082 471.539 1084.71 473.155 1087.16C477.039 1092.91 481.155 1096.87 480.922 1097.06C479.917 1096.35 479.004 1095.52 478.204 1094.58C476.084 1092.43 474.173 1090.09 472.495 1087.59C470.827 1085.07 469.667 1082.24 469.077 1079.28C468.752 1078.06 468.686 1076.79 468.883 1075.55Z" fill="#E0E0E0"/>
<path d="M475.796 1127.36C475.796 1127.16 479.679 1130.42 484.767 1133.49C489.854 1136.56 494.514 1138.19 494.437 1138.42C493.372 1138.32 492.333 1138.03 491.369 1137.57C488.935 1136.64 486.584 1135.51 484.34 1134.19C482.108 1132.87 480.002 1131.35 478.048 1129.65C477.172 1129.02 476.41 1128.24 475.796 1127.36Z" fill="#E0E0E0"/>
<path d="M506.01 1121.41C505.887 1122.62 505.626 1123.8 505.233 1124.95C504.419 1127.76 503.433 1130.53 502.281 1133.22C501.161 1135.89 499.864 1138.49 498.398 1140.99C497.859 1142.09 497.166 1143.11 496.34 1144.02C496.767 1142.87 497.286 1141.77 497.893 1140.71C498.903 1138.73 500.262 1135.98 501.776 1132.95C503.291 1129.92 504.184 1126.97 504.922 1124.87C505.154 1123.68 505.519 1122.52 506.01 1121.41Z" fill="#E0E0E0"/>
<path d="M631.718 1055.16C631.718 1055.16 617.815 1072.83 600.34 1094.31C582.864 1115.78 568.495 1133.14 568.34 1133.14C568.184 1133.14 582.204 1115.47 599.718 1093.96C617.233 1072.44 631.524 1055.04 631.718 1055.16Z" fill="#E0E0E0"/>
<path d="M571.485 1107.51C571.762 1106.96 572.073 1106.43 572.417 1105.92C573.356 1104.5 574.367 1103.12 575.446 1101.8C582.647 1093.11 592.189 1086.67 602.942 1083.24C604.56 1082.73 606.207 1082.31 607.874 1082C608.479 1081.82 609.107 1081.73 609.738 1081.72C609.738 1081.72 607.175 1082.38 603.136 1083.78C597.904 1085.63 592.921 1088.13 588.301 1091.2C583.713 1094.33 579.537 1098.02 575.874 1102.19C573.077 1105.41 571.641 1107.63 571.485 1107.51Z" fill="#E0E0E0"/>
<path d="M598.942 1123.82C598.942 1123.82 600.068 1121.76 601.66 1118.38C603.723 1113.96 605.286 1109.33 606.32 1104.56C607.348 1099.79 607.83 1094.92 607.757 1090.03C607.757 1086.15 607.369 1083.98 607.524 1083.98C607.687 1084.5 607.804 1085.03 607.874 1085.57C608.097 1087.05 608.239 1088.54 608.301 1090.03C608.56 1094.97 608.168 1099.92 607.136 1104.75C606.042 1109.57 604.333 1114.23 602.048 1118.62C601.399 1119.97 600.646 1121.27 599.796 1122.5C599.571 1122.98 599.283 1123.42 598.942 1123.82Z" fill="#E0E0E0"/>
<path d="M567.097 1120.6C567.097 1120.6 567.33 1120.13 567.874 1119.36C568.646 1118.28 569.476 1117.24 570.359 1116.25C573.234 1112.96 576.434 1109.96 579.912 1107.32C583.408 1104.68 587.169 1102.41 591.136 1100.56C592.398 1099.96 593.694 1099.44 595.019 1099.01C595.466 1098.81 595.936 1098.66 596.417 1098.58C596.417 1098.58 594.553 1099.51 591.602 1101.06C587.747 1103.05 584.07 1105.36 580.611 1107.98C577.166 1110.61 573.933 1113.5 570.942 1116.64C568.301 1119.08 567.097 1120.68 567.097 1120.6Z" fill="#E0E0E0"/>
<path d="M585 1130.58C585 1130.58 586.437 1128.68 588.611 1125.57C591.457 1121.48 593.89 1117.13 595.874 1112.56C597.822 1107.99 599.293 1103.22 600.262 1098.35C601.039 1094.46 601.272 1092.25 601.427 1092.25C601.487 1092.8 601.487 1093.36 601.427 1093.92C601.333 1095.44 601.152 1096.96 600.883 1098.46C600.036 1103.41 598.615 1108.25 596.65 1112.87C594.666 1117.5 592.137 1121.88 589.116 1125.92C587.951 1127.43 586.942 1128.64 586.204 1129.41C585.855 1129.85 585.45 1130.24 585 1130.58Z" fill="#E0E0E0"/>
<path d="M575.369 1132.68C575.369 1132.68 576.495 1131.78 578.048 1130.11C580.035 1127.95 581.649 1125.47 582.825 1122.77C585.582 1116.44 586.709 1110.81 586.98 1110.89C586.917 1112.2 586.708 1113.5 586.359 1114.77C585.705 1117.7 584.768 1120.57 583.563 1123.32C582.348 1126.1 580.608 1128.61 578.437 1130.73C577.558 1131.59 576.514 1132.25 575.369 1132.68Z" fill="#E0E0E0"/>
<path d="M615.175 1098.77C614.942 1098.77 615.679 1093.88 615.446 1087.9C615.213 1081.92 614.126 1077.14 614.359 1077.06C614.824 1078.05 615.139 1079.09 615.291 1080.17C615.841 1082.73 616.166 1085.33 616.262 1087.94C616.355 1090.53 616.225 1093.13 615.874 1095.7C615.806 1096.76 615.57 1097.79 615.175 1098.77Z" fill="#E0E0E0"/>
<path d="M593.777 1076.6C594.847 1076.04 595.982 1075.61 597.155 1075.32C599.961 1074.49 602.814 1073.82 605.699 1073.34C608.591 1072.85 611.508 1072.54 614.437 1072.4C615.65 1072.27 616.874 1072.27 618.087 1072.4C616.903 1072.69 615.693 1072.86 614.476 1072.91C612.262 1073.14 609.194 1073.49 605.854 1074.07C602.514 1074.66 599.485 1075.28 597.311 1075.82C596.163 1076.2 594.978 1076.46 593.777 1076.6Z" fill="#E0E0E0"/>
<path d="M370.825 1329.84C370.592 1329.84 369.854 1307.39 369.116 1279.7C368.378 1252.02 368.029 1229.53 368.262 1229.53C368.495 1229.53 369.233 1251.98 369.932 1279.67C370.631 1307.36 371.058 1329.84 370.825 1329.84Z" fill="#E0E0E0"/>
<path d="M382.398 1250.89C382.606 1251.49 382.723 1252.12 382.747 1252.75C382.974 1254.43 383.103 1256.11 383.136 1257.8C383.337 1269.09 380.29 1280.2 374.359 1289.8C373.194 1291.63 372.184 1293.06 371.446 1294C371.093 1294.51 370.675 1294.98 370.204 1295.39C370.204 1295.39 371.718 1293.22 373.854 1289.53C376.649 1284.73 378.803 1279.59 380.262 1274.23C381.713 1268.87 382.483 1263.35 382.553 1257.8C382.592 1253.76 382.242 1250.93 382.398 1250.89Z" fill="#E0E0E0"/>
<path d="M350.941 1256.4C350.941 1256.4 351.446 1258.7 352.456 1262.31C353.753 1267.01 355.577 1271.56 357.893 1275.86C360.246 1280.13 363.059 1284.13 366.281 1287.78C368.805 1290.58 370.514 1292.13 370.437 1292.25C369.953 1291.97 369.509 1291.63 369.116 1291.24C367.978 1290.29 366.901 1289.26 365.893 1288.17C362.484 1284.59 359.559 1280.59 357.194 1276.25C354.845 1271.9 353.07 1267.27 351.912 1262.46C351.558 1261 351.286 1259.52 351.097 1258.03C350.984 1257.5 350.932 1256.95 350.941 1256.4Z" fill="#E0E0E0"/>
<path d="M377.388 1238C377.536 1238.46 377.614 1238.95 377.621 1239.43C377.621 1240.37 377.621 1241.72 377.621 1243.32C377.593 1247.7 377.111 1252.08 376.184 1256.37C375.256 1260.64 373.876 1264.81 372.068 1268.79C371.369 1270.31 370.786 1271.55 370.32 1272.37C370.118 1272.81 369.843 1273.22 369.505 1273.57C369.505 1273.57 370.32 1271.67 371.563 1268.56C373.199 1264.54 374.498 1260.4 375.446 1256.17C376.338 1251.94 376.897 1247.64 377.116 1243.32C377.31 1240.05 377.272 1238 377.388 1238Z" fill="#E0E0E0"/>
<path d="M357.155 1242.11C357.155 1242.11 357.155 1244.48 357.66 1248.29C358.173 1253.24 359.174 1258.13 360.65 1262.89C362.148 1267.62 364.126 1272.19 366.553 1276.52C368.417 1279.86 369.776 1281.8 369.66 1281.88C369.247 1281.5 368.882 1281.07 368.573 1280.6C367.912 1279.74 367.058 1278.46 366.048 1276.71C363.459 1272.4 361.386 1267.8 359.874 1263.01C358.362 1258.2 357.436 1253.23 357.116 1248.21C357.116 1246.31 357.116 1244.75 357.116 1243.67C357.073 1243.15 357.086 1242.63 357.155 1242.11Z" fill="#E0E0E0"/>
<path d="M363.097 1234.35C363.097 1234.35 362.825 1235.74 362.747 1238C362.628 1240.94 363.008 1243.88 363.873 1246.7C365.932 1253.3 368.806 1258.35 368.495 1258.35C367.72 1257.37 367.067 1256.3 366.553 1255.16C365.136 1252.51 363.978 1249.73 363.097 1246.85C362.205 1243.95 361.888 1240.9 362.165 1237.88C362.24 1236.65 362.557 1235.45 363.097 1234.35Z" fill="#E0E0E0"/>
<path d="M354.98 1286C355.174 1286 357.776 1289.88 361.854 1294.42C365.932 1298.97 369.854 1301.72 369.621 1301.92C368.627 1301.5 367.709 1300.93 366.903 1300.21C364.834 1298.64 362.91 1296.88 361.155 1294.97C359.362 1293.09 357.761 1291.03 356.378 1288.83C355.745 1287.98 355.272 1287.02 354.98 1286Z" fill="#E0E0E0"/>
<path d="M385.66 1288.71C385.206 1289.84 384.62 1290.91 383.912 1291.9C380.722 1296.82 376.954 1301.35 372.689 1305.37C371.86 1306.26 370.92 1307.03 369.893 1307.67C370.617 1306.69 371.423 1305.78 372.301 1304.95C373.815 1303.36 375.912 1301.06 378.087 1298.46C380.262 1295.86 381.971 1293.37 383.407 1291.59C384.043 1290.55 384.799 1289.58 385.66 1288.71Z" fill="#E0E0E0"/>
<path d="M456.301 1250.38C456.068 1250.38 448.961 1229.14 440.417 1202.81C431.874 1176.48 425.077 1155.01 425.311 1154.93C425.544 1154.85 432.611 1176.17 441.194 1202.54C449.777 1228.91 456.495 1250.31 456.301 1250.38Z" fill="#E0E0E0"/>
<path d="M444.961 1171.39C445.291 1171.93 445.577 1172.48 445.815 1173.06C446.503 1174.62 447.1 1176.22 447.602 1177.84C449.314 1183.19 450.243 1188.77 450.359 1194.38C450.465 1199.99 449.772 1205.59 448.301 1211.01C447.855 1212.64 447.31 1214.25 446.67 1215.82C446.242 1216.95 445.971 1217.57 445.893 1217.53C445.815 1217.49 446.708 1215.01 447.718 1210.85C449.037 1205.46 449.65 1199.93 449.543 1194.38C449.416 1188.84 448.581 1183.33 447.058 1178C445.893 1173.88 444.806 1171.47 444.961 1171.39Z" fill="#E0E0E0"/>
<path d="M416.378 1185.61C416.378 1185.61 417.505 1187.67 419.485 1190.85C422.063 1194.98 425.099 1198.81 428.534 1202.27C432.07 1205.72 435.977 1208.77 440.184 1211.36C443.369 1213.3 445.466 1214.31 445.427 1214.42C445.388 1214.54 444.844 1214.42 443.874 1213.88C442.903 1213.34 441.543 1212.75 439.99 1211.82C435.736 1209.35 431.82 1206.33 428.34 1202.85C424.838 1199.38 421.808 1195.46 419.33 1191.2C418.584 1189.95 417.909 1188.65 417.31 1187.32C416.534 1186.19 416.301 1185.65 416.378 1185.61Z" fill="#E0E0E0"/>
<path d="M436.495 1160.56C436.734 1160.98 436.93 1161.42 437.077 1161.88C437.427 1162.77 437.893 1164.05 438.359 1165.76C440.775 1174.21 441.423 1183.07 440.262 1191.78C440.098 1193.09 439.865 1194.39 439.563 1195.67C439.492 1196.16 439.361 1196.64 439.174 1197.1C439.245 1195.29 439.427 1193.49 439.718 1191.7C440.063 1187.39 440.063 1183.05 439.718 1178.73C439.369 1174.41 438.68 1170.13 437.66 1165.92C437.167 1164.16 436.778 1162.37 436.495 1160.56Z" fill="#E0E0E0"/>
<path d="M418.281 1170.23C418.281 1170.23 419.058 1172.48 420.534 1176.02C422.416 1180.62 424.758 1185.01 427.524 1189.14C430.309 1193.25 433.497 1197.08 437.039 1200.56C439.796 1203.24 441.66 1204.71 441.543 1204.83C441.051 1204.56 440.583 1204.25 440.145 1203.9C439.291 1203.28 438.087 1202.27 436.65 1200.99C432.958 1197.58 429.662 1193.76 426.825 1189.61C424.038 1185.42 421.745 1180.92 419.99 1176.21C419.33 1174.38 418.864 1172.91 418.592 1171.86C418.394 1171.34 418.289 1170.79 418.281 1170.23Z" fill="#E0E0E0"/>
<path d="M421.738 1161.03C421.738 1161.03 421.738 1162.46 422.437 1164.64C423.154 1167.49 424.363 1170.2 426.01 1172.64C429.893 1178.38 434.01 1182.35 433.777 1182.58C432.82 1181.81 431.947 1180.93 431.175 1179.98C429.057 1177.85 427.157 1175.53 425.505 1173.03C423.834 1170.49 422.661 1167.65 422.048 1164.68C421.705 1163.49 421.6 1162.25 421.738 1161.03Z" fill="#E0E0E0"/>
<path d="M428.611 1212.87C428.611 1212.68 432.495 1215.94 437.621 1218.97C442.747 1222 447.369 1223.7 447.291 1223.94C446.219 1223.79 445.173 1223.49 444.184 1223.04C441.763 1222.12 439.425 1220.99 437.194 1219.67C434.967 1218.34 432.851 1216.83 430.864 1215.16C430.022 1214.49 429.266 1213.72 428.611 1212.87Z" fill="#E0E0E0"/>
<path d="M458.864 1206.89C458.749 1208.09 458.488 1209.28 458.087 1210.42C456.419 1216.05 454.099 1221.46 451.175 1226.54C450.597 1227.61 449.907 1228.61 449.116 1229.53C449.549 1228.4 450.068 1227.31 450.67 1226.27C451.679 1224.25 453.039 1221.49 454.359 1218.5C455.679 1215.51 456.767 1212.48 457.543 1210.38C457.858 1209.18 458.3 1208 458.864 1206.89Z" fill="#E0E0E0"/>
<path d="M191.019 1281.57C190.786 1281.57 183.679 1260.33 175.136 1234C166.592 1207.67 159.796 1186.19 160.029 1186.11C160.262 1186.03 167.33 1207.36 175.912 1233.72C184.495 1260.09 191.213 1281.53 191.019 1281.57Z" fill="#E0E0E0"/>
<path d="M179.679 1202.58C180.009 1203.11 180.295 1203.67 180.534 1204.25C181.222 1205.8 181.818 1207.4 182.32 1209.03C184.032 1214.38 184.961 1219.95 185.077 1225.57C185.176 1231.15 184.483 1236.72 183.019 1242.11C182.573 1243.75 182.028 1245.36 181.388 1246.93C180.961 1248.05 180.689 1248.68 180.611 1248.64C180.534 1248.6 181.466 1246.11 182.475 1241.96C183.76 1236.57 184.36 1231.03 184.262 1225.49C184.135 1219.94 183.299 1214.44 181.776 1209.1C180.611 1205.1 179.524 1202.66 179.679 1202.58Z" fill="#E0E0E0"/>
<path d="M151.097 1216.83C151.097 1216.83 152.223 1218.85 154.203 1222.03C156.769 1226.17 159.792 1230 163.213 1233.45C166.749 1236.9 170.657 1239.95 174.864 1242.54C178.048 1244.52 180.145 1245.49 180.106 1245.65C179.566 1245.52 179.044 1245.32 178.553 1245.06C177.582 1244.64 176.223 1243.94 174.67 1243.01C170.416 1240.53 166.5 1237.51 163.019 1234.04C159.517 1230.56 156.488 1226.65 154.009 1222.38C153.263 1221.13 152.589 1219.83 151.99 1218.5C151.625 1217.98 151.325 1217.42 151.097 1216.83Z" fill="#E0E0E0"/>
<path d="M171.213 1191.63C171.463 1192.04 171.658 1192.48 171.796 1192.95C172.145 1193.84 172.611 1195.12 173.077 1196.83C175.433 1205.24 176.041 1214.04 174.864 1222.7C174.631 1224.37 174.398 1225.69 174.165 1226.58C174.091 1227.06 173.96 1227.53 173.776 1227.98C173.776 1227.98 174.009 1225.88 174.32 1222.58C174.664 1218.26 174.664 1213.92 174.32 1209.61C173.971 1205.29 173.282 1201 172.262 1196.79C171.816 1195.09 171.466 1193.37 171.213 1191.63Z" fill="#E0E0E0"/>
<path d="M153 1201.41C153 1201.41 153.815 1203.67 155.252 1207.2C157.126 1211.8 159.469 1216.2 162.242 1220.33C165.028 1224.44 168.215 1228.26 171.757 1231.74C174.514 1234.42 176.378 1235.9 176.262 1236.02L174.903 1235.08C173.672 1234.18 172.493 1233.21 171.369 1232.17C167.657 1228.78 164.359 1224.96 161.543 1220.79C158.756 1216.6 156.463 1212.11 154.708 1207.39C154.048 1205.61 153.582 1204.09 153.31 1203.04C153.107 1202.52 153.002 1201.97 153 1201.41Z" fill="#E0E0E0"/>
<path d="M156.456 1192.21C156.456 1192.21 156.456 1193.65 157.155 1195.82C157.878 1198.69 159.087 1201.4 160.728 1203.86C164.611 1209.57 168.728 1213.53 168.495 1213.76C167.488 1213.02 166.563 1212.18 165.738 1211.24C163.62 1209.12 161.72 1206.79 160.068 1204.29C158.413 1201.74 157.242 1198.91 156.611 1195.94C156.31 1194.72 156.257 1193.45 156.456 1192.21Z" fill="#E0E0E0"/>
<path d="M163.213 1244.05C163.213 1243.86 167.097 1247.12 172.223 1250.15C177.349 1253.18 181.971 1254.89 181.893 1255.12C180.821 1254.97 179.775 1254.67 178.786 1254.23C176.365 1253.3 174.027 1252.17 171.796 1250.85C169.575 1249.53 167.47 1248.02 165.505 1246.35C164.646 1245.68 163.876 1244.91 163.213 1244.05Z" fill="#E0E0E0"/>
<path d="M193.582 1238.23C193.465 1239.45 193.204 1240.65 192.806 1241.8C191.973 1244.6 190.988 1247.35 189.854 1250.04C188.708 1252.7 187.412 1255.29 185.971 1257.8C185.453 1258.91 184.758 1259.92 183.912 1260.79C184.345 1259.67 184.864 1258.58 185.466 1257.53C186.475 1255.51 187.835 1252.75 189.349 1249.76C190.864 1246.77 191.796 1243.74 192.534 1241.65C192.766 1240.47 193.117 1239.33 193.582 1238.23Z" fill="#E0E0E0"/>
<path d="M303.912 1204.83C303.679 1204.83 304.611 1182.35 305.971 1154.7C307.33 1127.04 308.65 1104.6 308.883 1104.6C309.116 1104.6 308.145 1127.04 306.786 1154.73C305.427 1182.42 304.145 1204.83 303.912 1204.83Z" fill="#E0E0E0"/>
<path d="M321.388 1126.97C321.443 1127.59 321.443 1128.21 321.388 1128.83C321.507 1130.52 321.507 1132.22 321.388 1133.92C320.783 1145.2 316.91 1156.06 310.242 1165.18C309.24 1166.53 308.163 1167.83 307.019 1169.06C306.631 1169.55 306.188 1170 305.699 1170.38C305.699 1170.38 307.369 1168.29 309.776 1164.79C316.101 1155.58 319.903 1144.87 320.806 1133.72C321.349 1129.49 321.233 1126.97 321.388 1126.97Z" fill="#E0E0E0"/>
<path d="M289.621 1130.11C289.621 1130.11 289.932 1132.4 290.67 1136.09C291.598 1140.88 293.07 1145.54 295.058 1150C297.084 1154.44 299.598 1158.65 302.553 1162.54C304.806 1165.49 306.437 1167.2 306.437 1167.28C305.99 1166.97 305.585 1166.6 305.233 1166.19C304.164 1165.15 303.153 1164.04 302.204 1162.89C299.091 1159.04 296.481 1154.81 294.437 1150.31C292.414 1145.8 290.991 1141.05 290.204 1136.17C289.974 1134.7 289.819 1133.23 289.738 1131.74C289.598 1131.21 289.558 1130.66 289.621 1130.11Z" fill="#E0E0E0"/>
<path d="M317.349 1113.69C317.349 1113.69 317.349 1114.23 317.349 1115.16C317.349 1116.09 317.349 1117.45 317.349 1119.04C316.976 1123.41 316.156 1127.73 314.903 1131.94C313.657 1136.14 311.978 1140.2 309.893 1144.05C309.265 1145.21 308.578 1146.34 307.835 1147.43C307.607 1147.86 307.319 1148.25 306.98 1148.6C306.98 1148.6 307.912 1146.77 309.388 1143.78C311.301 1139.9 312.886 1135.86 314.126 1131.7C315.374 1127.56 316.258 1123.31 316.767 1119.01C317.116 1115.78 317.233 1113.69 317.349 1113.69Z" fill="#E0E0E0"/>
<path d="M296.844 1116.36C296.844 1116.36 296.844 1118.77 296.844 1122.58C296.963 1127.55 297.588 1132.49 298.708 1137.34C299.837 1142.18 301.464 1146.89 303.563 1151.39C305.155 1154.89 306.359 1156.91 306.242 1156.99C305.867 1156.57 305.541 1156.12 305.271 1155.63C304.465 1154.37 303.726 1153.08 303.058 1151.74C300.773 1147.26 299.038 1142.51 297.893 1137.61C296.757 1132.71 296.209 1127.69 296.262 1122.66C296.262 1120.75 296.262 1119.16 296.495 1118.11C296.569 1117.52 296.685 1116.94 296.844 1116.36Z" fill="#E0E0E0"/>
<path d="M303.369 1109.03C303.369 1109.03 303.019 1110.38 302.747 1112.64C302.423 1115.56 302.581 1118.51 303.213 1121.37C304.767 1128.13 307.097 1133.3 307.097 1133.41C306.385 1132.38 305.823 1131.26 305.427 1130.07C304.19 1127.34 303.24 1124.49 302.592 1121.57C301.932 1118.61 301.84 1115.55 302.32 1112.56C302.415 1111.32 302.773 1110.12 303.369 1109.03Z" fill="#E0E0E0"/>
<path d="M291.369 1159.9C291.369 1159.9 293.815 1164.13 297.582 1168.83C301.349 1173.53 305.039 1176.6 304.844 1176.91C303.907 1176.38 303.045 1175.73 302.281 1174.97C298.404 1171.51 295.147 1167.41 292.65 1162.85C292.062 1161.94 291.629 1160.95 291.369 1159.9Z" fill="#E0E0E0"/>
<path d="M321.776 1165.06C321.243 1166.15 320.577 1167.17 319.796 1168.09C316.273 1172.78 312.176 1177.01 307.602 1180.68C306.712 1181.52 305.705 1182.22 304.611 1182.77C305.416 1181.86 306.299 1181.01 307.252 1180.25C308.883 1178.77 311.136 1176.64 313.505 1174.23C315.873 1171.82 317.893 1169.45 319.33 1167.74C320.049 1166.77 320.869 1165.87 321.776 1165.06Z" fill="#E0E0E0"/>
<g opacity="0.3">
<path d="M281.271 972.948C296.479 985.007 313.796 994.132 332.339 999.86C340.183 1002.73 348.596 1003.69 356.883 1002.66C361.013 1002.08 364.909 1000.4 368.152 997.775C371.395 995.154 373.863 991.7 375.291 987.782C375.873 985.802 375.796 983.161 373.932 982.307C372.068 981.452 370.048 983.161 368.145 984.482C362.592 988.637 346.048 989.647 339.136 988.831C316.495 986.19 301.776 980.676 281.271 973.025" fill="black"/>
</g>
<path d="M427.291 1130.54C427.568 1131.14 427.776 1131.76 427.912 1132.4C428.262 1133.69 428.844 1135.51 429.31 1137.96C430.818 1144.84 431.689 1151.85 431.912 1158.89C432.934 1182.33 427.48 1205.61 416.15 1226.16C404.82 1246.71 388.05 1263.74 367.679 1275.39C361.589 1278.95 355.195 1281.95 348.573 1284.37C346.281 1285.26 344.378 1285.72 343.136 1286.15C342.513 1286.39 341.859 1286.53 341.194 1286.58C343.509 1285.47 345.881 1284.48 348.301 1283.63C354.745 1280.96 360.976 1277.8 366.942 1274.19C386.803 1262.38 403.158 1245.49 414.325 1225.26C425.491 1205.03 431.066 1182.18 430.476 1159.08C430.387 1152.1 429.738 1145.14 428.534 1138.27C427.976 1135.72 427.561 1133.14 427.291 1130.54Z" fill="#263238"/>
<g opacity="0.2">
<path d="M430.475 1156.05C430.745 1164.47 429.112 1172.84 425.696 1180.54C422.28 1188.24 417.17 1195.07 410.747 1200.52C402.398 1207.47 392.107 1211.86 383.563 1218.89C375.917 1225.36 370.205 1233.81 367.058 1243.32C365.466 1248.25 364.767 1254.27 368.34 1258C371.912 1261.72 379.33 1261.18 384.689 1258.89C402.204 1251.47 414.67 1235.04 421.388 1217.26C428.106 1199.47 429.738 1180.17 430.903 1161.18" fill="black"/>
</g>
<path d="M528.728 1141.69C522.688 1126.39 522.883 1109.34 529.272 1094.19C527.772 1102.03 526.799 1109.95 526.359 1117.92C526.606 1125.89 527.397 1133.83 528.728 1141.69Z" fill="#263238"/>
<path d="M540.456 1136.99C535.58 1130.99 532.295 1123.85 530.903 1116.25C528.862 1108.8 528.755 1100.95 530.592 1093.45C530.775 1100.96 531.541 1108.44 532.883 1115.82C534.901 1123.05 537.432 1130.12 540.456 1136.99Z" fill="#263238"/>
<path d="M732.495 1027.28C732.495 1027.28 731.291 1026.35 729.155 1025.34C726.263 1023.95 722.97 1023.65 719.874 1024.48L718.126 1024.99L719.019 1023.36C720.247 1021.08 721.062 1018.61 721.427 1016.05C722.158 1011.05 721.374 1005.93 719.175 1001.37C717.466 997.841 715.641 996.132 715.874 995.938C717.739 997.135 719.232 998.83 720.184 1000.83C722.865 1005.54 723.878 1011.01 723.058 1016.36C722.62 1019.09 721.699 1021.72 720.34 1024.13L719.446 1023.01C722.893 1022.15 726.537 1022.7 729.582 1024.52C731.796 1025.88 732.573 1027.2 732.495 1027.28Z" fill="#AA6550"/>
<path d="M758.553 1010.31C762.165 1001.45 798.359 985.841 793.505 980.287C787.33 973.064 756.417 998.307 753.66 1000.25C750.903 1002.19 748.107 998.19 750.709 996.365C754.398 994.035 792.883 968.676 786.903 961.413C783.563 957.53 777.116 964.287 777.116 964.287C777.116 964.287 742.786 990.734 740.068 987.239C737.349 983.744 756.922 967.511 763.913 962.54C770.903 957.569 771.408 952.248 766.748 950.889C763.563 949.996 741.815 964.753 734.98 969.879C728.146 975.006 709.738 989.297 713.311 974.695C716.883 960.093 714.204 947.511 711.213 944.714C708.223 941.918 703.175 945.142 703.99 949.724C704.421 954.772 704.16 959.854 703.213 964.831C702.377 968.852 701.074 972.762 699.33 976.481C695.702 984.948 689.834 992.265 682.359 997.646L720.612 1042.7L725.505 1039.39C744.417 1026.54 762.165 1021.61 772.417 1015.7C791.485 1004.68 790.553 1002.93 788.961 1000.87C784.883 995.627 754.942 1019.16 758.553 1010.31Z" fill="#B78876"/>
<path d="M706.903 939.2L719.291 1019.63L767.757 1018.81L770.01 1003.78C770.01 1003.78 797.466 1003.78 799.602 980.481C801.738 957.18 778.165 956.947 778.165 956.947L781.738 935.938L706.903 939.2ZM771.175 995.588L776.883 965.763C776.883 965.763 793.466 965.491 792.184 978.889C790.903 992.287 770.981 995.472 770.981 995.472L771.175 995.588Z" fill="#455A64"/>
<path d="M742.942 830.889C742.942 830.889 743.291 831.083 743.835 831.588C744.568 832.398 745.194 833.299 745.699 834.268C747.326 838.008 747.733 842.166 746.864 846.151C745.524 851.9 743.38 857.43 740.495 862.579C739.026 865.61 737.919 868.803 737.194 872.093C736.489 875.56 736.785 879.157 738.048 882.462C741.06 888.815 745.221 894.555 750.32 899.394C754.578 903.631 757.657 908.905 759.252 914.695C760.127 918.644 759.562 922.776 757.66 926.346C757.113 927.302 756.418 928.167 755.602 928.909C755.019 929.375 754.67 929.608 754.631 929.53C755.492 928.41 756.27 927.229 756.961 925.996C758.524 922.492 758.84 918.559 757.854 914.85C756.142 909.382 753.069 904.437 748.922 900.481C743.593 895.519 739.257 889.589 736.145 883.006C734.776 879.361 734.466 875.402 735.252 871.588C736.017 868.136 737.218 864.796 738.825 861.647C741.701 856.64 743.932 851.29 745.466 845.724C746.428 842.007 746.265 838.087 745 834.462C743.912 832.093 742.786 831.006 742.942 830.889Z" fill="#263238"/>
<path d="M730.204 831.083C730.204 831.083 730.553 831.083 731.097 831.821C731.863 832.613 732.504 833.517 733 834.501C734.642 838.237 735.051 842.4 734.165 846.384C732.801 852.125 730.659 857.652 727.796 862.811C726.298 865.831 725.189 869.028 724.495 872.326C723.799 875.791 724.081 879.382 725.311 882.695C728.356 889.027 732.512 894.762 737.582 899.627C741.859 903.834 744.941 909.1 746.514 914.889C747.463 918.899 746.896 923.117 744.922 926.734C744.389 927.689 743.692 928.544 742.864 929.258C742.281 929.763 741.971 929.957 741.932 929.918C741.893 929.879 743.058 928.792 744.223 926.346C745.787 922.842 746.102 918.908 745.116 915.2C743.403 909.752 740.345 904.823 736.223 900.87C730.879 895.912 726.529 889.981 723.408 883.394C722.05 879.732 721.754 875.761 722.553 871.938C723.294 868.484 724.482 865.142 726.087 861.996C728.988 857.016 731.221 851.675 732.728 846.112C733.714 842.385 733.552 838.446 732.262 834.811C731.058 832.326 729.893 831.2 730.204 831.083Z" fill="#263238"/>
<path d="M711.446 972.132C711.446 972.132 711.447 970.967 713.116 969.685C714.233 968.906 715.511 968.386 716.855 968.164C718.199 967.942 719.575 968.024 720.883 968.404C724.619 969.782 727.964 972.048 730.631 975.006C732.046 976.721 733.827 978.1 735.842 979.04C737.857 979.981 740.057 980.46 742.281 980.443C746.864 979.86 750.709 976.559 754.786 974.889C756.729 973.934 758.84 973.367 761 973.219C762.911 973.19 764.805 973.574 766.553 974.345C769.054 975.435 771.137 977.3 772.495 979.666C773.388 981.336 773.505 982.384 773.388 982.423C773.272 982.462 772.883 981.53 771.835 980.093C770.347 978.1 768.329 976.565 766.01 975.666C764.433 975.082 762.757 974.818 761.078 974.889C759.156 975.119 757.289 975.684 755.563 976.559C751.559 979.216 747.153 981.209 742.514 982.462C739.801 982.81 737.051 982.191 734.747 980.714C732.762 979.495 730.936 978.034 729.311 976.365C726.892 973.528 723.865 971.272 720.456 969.763C719.306 969.378 718.09 969.231 716.882 969.331C715.673 969.431 714.498 969.776 713.427 970.345C712.068 971.239 711.602 972.21 711.446 972.132Z" fill="#FAFAFA"/>
<path d="M709.699 961.763C709.699 961.763 709.699 960.52 711.446 959.239C712.644 958.393 714.016 957.828 715.462 957.586C716.907 957.344 718.389 957.431 719.796 957.841C723.745 959.337 727.285 961.745 730.126 964.87C733.349 967.899 737.466 971.355 742.437 970.695C747.408 970.035 751.408 966.812 755.718 964.753C757.785 963.749 760.027 963.155 762.32 963.006C764.774 962.951 767.198 963.552 769.341 964.746C771.485 965.941 773.271 967.686 774.514 969.802C775.485 971.549 775.602 972.715 775.485 972.715C775.369 972.715 774.942 971.744 773.854 970.229C772.261 968.106 770.11 966.466 767.641 965.491C765.965 964.873 764.182 964.595 762.398 964.676C760.338 964.908 758.338 965.513 756.495 966.462C752.612 968.287 748.456 971.86 742.631 972.715C739.835 973.02 737.018 972.377 734.631 970.889C732.523 969.573 730.58 968.008 728.845 966.229C726.261 963.223 723.036 960.835 719.408 959.239C718.184 958.816 716.885 958.653 715.595 958.76C714.304 958.867 713.05 959.242 711.912 959.86C710.32 960.831 709.854 961.88 709.699 961.763Z" fill="#FAFAFA"/>
<path d="M346.708 1368.52L413.621 1462.97L1148.18 1462.62L1147.76 1379.24L776.301 1343.9L467.679 1298L346.708 1368.52Z" fill="#263238"/>
<path d="M464.806 1300.75L516.961 1228.75L663.913 1047.32C674.037 1036.4 686.567 1028 700.509 1022.77C714.45 1017.55 729.418 1015.65 744.223 1017.22C762.24 1019.12 779.348 1026.1 793.557 1037.34C807.767 1048.58 818.495 1063.62 824.495 1080.71L921.583 1376.79L793.039 1356.6L727.718 1173.45L624.728 1317.14L464.806 1300.75Z" fill="#263238"/>
<path d="M921.466 1357.69H920.495H917.155L904.301 1356.75L857.078 1352.87L701.272 1339.78L615.485 1332.33C602.32 1331.08 589.777 1330.15 578.048 1328.87C567.181 1327.69 556.392 1325.88 545.738 1323.43C536.85 1321.59 528.254 1318.54 520.184 1314.38C514.153 1311.13 508.707 1306.89 504.068 1301.84C501.121 1298.65 498.673 1295.04 496.806 1291.12C496.125 1289.79 495.566 1288.4 495.136 1286.97C497.517 1292.22 500.729 1297.06 504.65 1301.3C509.291 1306.2 514.727 1310.28 520.728 1313.37C528.74 1317.39 537.257 1320.3 546.048 1322.04C556.67 1324.38 567.42 1326.11 578.243 1327.2C589.893 1328.4 602.476 1329.3 615.679 1330.46L701.427 1337.76L857.194 1351.43L904.379 1355.82L917.194 1357.1L920.534 1357.49L921.466 1357.69Z" fill="#455A64"/>
<path d="M737.971 1107.2C737.174 1110.42 736.175 1113.58 734.98 1116.68C730.089 1131.84 727.715 1147.7 727.951 1163.63C728.183 1166.94 728.183 1170.26 727.951 1173.57C727.004 1170.37 726.507 1167.05 726.476 1163.7C725.938 1155.65 726.277 1147.57 727.485 1139.59C728.697 1131.63 730.754 1123.81 733.621 1116.29C734.642 1113.07 736.106 1110.01 737.971 1107.2Z" fill="#455A64"/>
<path d="M709.621 1131.9C711.581 1139.42 713.941 1146.84 716.689 1154.11C720.043 1161.11 723.764 1167.93 727.835 1174.54C716.745 1163.01 710.266 1147.81 709.621 1131.82V1131.9Z" fill="#455A64"/>
<path d="M1129.08 1404.21C1126.16 1413.73 1124.09 1423.49 1122.9 1433.37C1122.42 1443.32 1122.81 1453.29 1124.07 1463.16C1122.85 1460.44 1122.07 1457.54 1121.74 1454.58C1120.57 1447.51 1120.28 1440.32 1120.88 1433.18C1121.49 1426.04 1122.99 1419.01 1125.35 1412.25C1126.14 1409.38 1127.4 1406.66 1129.08 1404.21Z" fill="#455A64"/>
<path d="M376.068 979.86C376.068 979.86 376.068 980.21 375.446 980.714C374.8 981.503 374.071 982.219 373.272 982.85C370.322 985.185 366.926 986.891 363.291 987.86C354.126 990.695 340.883 989.996 326.825 987.86C314.821 985.885 303.091 982.509 291.873 977.802C287.563 976.015 284.107 974.307 281.854 973.103C280.609 972.538 279.446 971.806 278.398 970.928C278.398 970.656 283.718 973.219 292.417 976.481C303.732 980.742 315.439 983.877 327.369 985.841C341.31 988.015 354.281 988.87 363.175 986.54C367.898 985.254 372.293 982.976 376.068 979.86Z" fill="#263238"/>
<path d="M2440.96 1154.58C2457.23 1146.19 2476.42 1145.1 2494.48 1148.09C2504.22 1149.69 2514.32 1152.6 2520.96 1159.74C2527.6 1166.89 2528.73 1179.86 2521.23 1186.15C2516.33 1189.45 2510.42 1190.94 2504.53 1190.35C2490.4 1190.35 2474.67 1187.7 2463.37 1196.21C2456.92 1201.06 2452.61 1209.14 2444.92 1211.55C2441.06 1212.44 2437.01 1212.05 2433.39 1210.44C2429.77 1208.83 2426.77 1206.08 2424.85 1202.62C2421.17 1195.53 2420.36 1187.3 2422.59 1179.63C2423.52 1174.32 2425.66 1169.3 2428.84 1164.95C2432.03 1160.6 2436.18 1157.06 2440.96 1154.58Z" fill="#EB5B14"/>
<path d="M2403.64 1082.54C2413.58 1096.79 2432.96 1092.05 2441.93 1083.39C2450.9 1074.73 2454.71 1062.11 2458.17 1050.11C2465.93 1022.69 2474.01 993.957 2468.11 966.035C2466.71 957.569 2463 949.653 2457.39 943.161C2454.53 939.927 2450.88 937.506 2446.78 936.142C2442.69 934.778 2438.31 934.52 2434.09 935.394C2424.34 937.996 2418.28 947.549 2413.89 956.637C2400.98 983.483 2394.22 1012.87 2394.09 1042.66C2394.09 1056.52 2395.68 1071.04 2403.49 1082.46" fill="#EB5B14"/>
<path d="M2376.3 1102.97C2387.1 1090.15 2389.16 1071.43 2384.34 1055.36C2378.87 1039.39 2369.12 1025.23 2356.15 1014.42C2341.41 1001.31 2324.26 991.192 2305.66 984.637C2298.46 981.7 2290.71 980.375 2282.94 980.753C2279.06 981 2275.29 982.19 2271.97 984.22C2268.64 986.25 2265.87 989.059 2263.87 992.404C2258.59 1002.54 2263.87 1014.85 2269.19 1024.87C2278.91 1042.54 2290 1059.42 2302.36 1075.36C2312.3 1088.17 2323.68 1100.83 2338.86 1106.42C2354.05 1112.02 2369.74 1111.55 2377.7 1101.03" fill="#EB5B14"/>
<path d="M2402.98 1297.1C2403.47 1294.99 2403.77 1292.83 2403.87 1290.66C2404.34 1285.92 2404.88 1280.02 2405.58 1272.99C2406.43 1264.3 2407.73 1255.67 2409.47 1247.12C2411.79 1236.72 2414.93 1226.51 2418.86 1216.6C2422.72 1206.71 2427.95 1197.42 2434.4 1188.99C2439.66 1182.13 2446.39 1176.53 2454.09 1172.6C2459.32 1170.01 2464.93 1168.26 2470.71 1167.43C2472.88 1167.33 2475.04 1167.02 2477.16 1166.5C2474.98 1166.25 2472.77 1166.25 2470.59 1166.5C2464.6 1166.96 2458.73 1168.48 2453.27 1171.01C2445.16 1174.84 2438.05 1180.5 2432.5 1187.55C2425.74 1196.08 2420.3 1205.57 2416.34 1215.7C2412.33 1225.77 2409.19 1236.16 2406.98 1246.77C2405.32 1255.43 2404.18 1264.19 2403.56 1272.99C2402.98 1280.48 2402.79 1286.54 2402.67 1290.73C2402.54 1292.86 2402.65 1295 2402.98 1297.1Z" fill="#263238"/>
<path d="M2404.19 1283.55C2404.3 1282.54 2404.3 1281.53 2404.19 1280.52V1271.98C2404.19 1264.52 2404.19 1253.76 2404.57 1240.44C2405.23 1213.84 2407.52 1185.22 2411.95 1144.87C2416.11 1106.93 2421.74 1062.77 2427.49 1034.03C2428.77 1027.51 2430.05 1021.65 2431.37 1016.48C2432.69 1011.32 2433.51 1006.89 2434.44 1003.28C2435.37 999.666 2435.91 997.142 2436.46 994.967C2436.74 993.993 2436.91 992.99 2436.96 991.977C2436.53 992.889 2436.18 993.838 2435.91 994.812C2435.25 996.947 2434.44 999.666 2433.43 1003.01C2432.42 1006.35 2431.21 1011.01 2429.89 1016.13C2428.57 1021.26 2427.14 1027.12 2425.74 1033.65C2418.4 1067.61 2412.87 1101.93 2409.2 1136.48C2404.77 1176.91 2402.79 1213.76 2402.59 1240.4C2402.59 1253.76 2402.59 1264.52 2403.06 1271.98C2403.29 1275.47 2403.45 1278.31 2403.6 1280.56C2403.67 1281.58 2403.87 1282.58 2404.19 1283.55Z" fill="#263238"/>
<path d="M2404.38 1212.52C2404.57 1209.53 2404.57 1206.54 2404.38 1203.55C2404.03 1197.8 2403.25 1189.49 2401.62 1179.28C2399.71 1167.36 2397.12 1155.56 2393.86 1143.94C2390.01 1129.62 2385.06 1115.63 2379.06 1102.07C2368.79 1077.1 2354.08 1054.19 2335.64 1034.46C2332.45 1031.08 2329.04 1027.91 2325.43 1024.99C2323.87 1023.67 2322.48 1022.31 2321.08 1021.3L2317.19 1018.54C2314.75 1016.72 2312.15 1015.11 2309.43 1013.72C2318.13 1020.54 2326.4 1027.91 2334.17 1035.78C2352.02 1055.66 2366.33 1078.45 2376.5 1103.16C2382.39 1116.62 2387.36 1130.46 2391.37 1144.6C2394.75 1156.1 2397.55 1167.77 2399.76 1179.55C2401.62 1189.61 2402.71 1197.84 2403.33 1203.55C2403.44 1206.56 2403.79 1209.56 2404.38 1212.52Z" fill="#263238"/>
<path d="M2335.72 1337.8L2342.83 1435.28H2468.07L2475.21 1337.8H2335.72Z" fill="#263238"/>
<path d="M2490.13 1299.36H2323.6V1337.8H2490.13V1299.36Z" fill="#263238"/>
<path d="M2323.6 1431.55V1442.19H2331.45H2487.41V1431.55H2323.6Z" fill="#455A64"/>
<path d="M2339.1 1460.95L2331.45 1442.19H2481.43L2472.5 1460.95H2339.1Z" fill="#455A64"/>
<path d="M2472.88 1369.65C2472.72 1369.96 2472.52 1370.26 2472.3 1370.54L2470.44 1373.03L2463.14 1382.38L2462.79 1382.77L2462.48 1382.35L2444.57 1357.57H2445.58L2427.95 1382.54L2427.37 1383.32L2426.79 1382.58L2405.85 1357.69H2407.06L2405.89 1359.12L2387.18 1382.42L2386.55 1383.2L2385.97 1382.38L2368.3 1357.41H2369.35L2347.6 1382.19L2347.21 1382.66L2346.9 1382.15L2340.11 1370.7L2338.36 1367.67C2338.16 1367.31 2337.98 1366.95 2337.82 1366.58C2337.82 1366.58 2338.13 1366.89 2338.55 1367.55L2340.5 1370.46L2347.64 1381.72H2346.94C2352.53 1375.2 2359.8 1366.7 2368.34 1356.64L2368.88 1356.02L2369.39 1356.71L2387.21 1381.57H2386.01L2404.69 1358.07L2405.82 1356.64L2406.44 1355.9L2407.02 1356.6L2427.91 1381.57H2426.75L2444.57 1356.71L2445.08 1355.98L2445.58 1356.71L2463.14 1381.76H2462.52L2470.09 1372.64L2472.11 1370.31C2472.34 1370.05 2472.6 1369.83 2472.88 1369.65Z" fill="#E0E0E0"/>
<path d="M2476.96 1337.14C2476.96 1337.57 2445.54 1337.92 2407.06 1337.92C2368.57 1337.92 2337.16 1337.57 2337.16 1337.14C2337.16 1336.71 2368.53 1336.36 2407.06 1336.36C2445.58 1336.36 2476.96 1336.71 2476.96 1337.14Z" fill="#455A64"/>
<path d="M2483.25 1443.28C2483.25 1443.7 2449.16 1444.05 2407.1 1444.05C2365.04 1444.05 2330.9 1443.7 2330.9 1443.28C2330.9 1442.85 2365 1442.5 2407.1 1442.5C2449.19 1442.5 2483.25 1442.85 2483.25 1443.28Z" fill="#263238"/>
</svg>
